<svg width="20" height="20" viewBox="0 0 20 20" fill="none" xmlns="http://www.w3.org/2000/svg">
<path fill-rule="evenodd" clip-rule="evenodd" d="M6.80211 11.3799C7.80627 11.3799 8.62029 12.1939 8.62029 13.1981V17.7435C8.62029 18.7477 7.80627 19.5617 6.80211 19.5617H2.25666C1.2525 19.5617 0.438477 18.7477 0.438477 17.7435V13.1981C0.438477 12.1939 1.2525 11.3799 2.25666 11.3799H6.80211ZM16.8021 11.3799C17.8063 11.3799 18.6203 12.1939 18.6203 13.1981V17.7435C18.6203 18.7477 17.8063 19.5617 16.8021 19.5617H12.2567C11.2525 19.5617 10.4385 18.7477 10.4385 17.7435V13.1981C10.4385 12.1939 11.2525 11.3799 12.2567 11.3799H16.8021ZM19.0292 4.18513C19.7392 4.89518 19.7392 6.04638 19.0292 6.75643L15.815 9.97055C15.105 10.6806 13.9538 10.6806 13.2437 9.97055L10.0296 6.75643C9.31957 6.04638 9.31957 4.89518 10.0296 4.18513L13.2437 0.97101C13.9538 0.260966 15.105 0.260966 15.815 0.97101L19.0292 4.18513ZM6.80211 1.37987C7.80627 1.37987 8.62029 2.1939 8.62029 3.19805V7.74351C8.62029 8.74766 7.80627 9.56169 6.80211 9.56169H2.25666C1.2525 9.56169 0.438477 8.74766 0.438477 7.74351V3.19805C0.438477 2.1939 1.2525 1.37987 2.25666 1.37987H6.80211Z" fill="url(#paint0_linear_1165_512)"/>
<defs>
<linearGradient id="paint0_linear_1165_512" x1="2.56328" y1="2.03208" x2="16.9057" y2="19.5617" gradientUnits="userSpaceOnUse">
<stop stop-color="#3ED05F"/>
<stop offset="1" stop-color="#2CA346"/>
</linearGradient>
</defs>
</svg>
