<svg width="20" height="20" viewBox="0 0 20 20" fill="none" xmlns="http://www.w3.org/2000/svg">
<path d="M4 9V16C4 16.5523 4.44772 17 5 17H15C15.5523 17 16 16.5523 16 16V9H18V16C18 17.6569 16.6569 19 15 19H5C3.34315 19 2 17.6569 2 16V9H4Z" fill="#8891A5"/>
<path fill-rule="evenodd" clip-rule="evenodd" d="M6.31741 4.99944L4.88075 3.5631C4.29496 2.97732 4.29496 2.02757 4.88075 1.44178C5.46653 0.855995 6.41628 0.855995 7.00207 1.44178L9.99941 4.43844L12.9977 1.44178C13.5469 0.892606 14.416 0.858283 15.0051 1.33881L15.1191 1.44178C15.7049 2.02757 15.7049 2.97732 15.1191 3.5631L13.6824 4.99944H6.31741Z" fill="#8891A5"/>
<path d="M2.5 5H17.5C18.0523 5 18.5 5.44771 18.5 6V9H1.5V6C1.5 5.44772 1.94772 5 2.5 5Z" stroke="#8891A5" stroke-width="2"/>
</svg>
