<svg width="20" height="20" viewBox="0 0 20 20" fill="none" xmlns="http://www.w3.org/2000/svg">
<path fill-rule="evenodd" clip-rule="evenodd" d="M19 5C19 2.79086 17.2091 1 15 1H10C5.02944 1 1 5.02944 1 10C1 14.9706 5.02944 19 10 19C14.9706 19 19 14.9706 19 10V5ZM9.64746 14.9609L9.76408 14.9542L9.83783 14.9418C11.9112 14.6522 13.6451 13.3028 14.4699 11.4554C14.5059 11.3523 14.5255 11.2414 14.5255 11.126C14.5255 10.5737 14.0778 10.126 13.5255 10.126C13.1562 10.126 12.8337 10.3261 12.6573 10.6223C12.1015 11.8734 10.9225 12.7864 9.51362 12.9698C9.02462 13.0352 8.64746 13.454 8.64746 13.9609C8.64746 14.5132 9.09518 14.9609 9.64746 14.9609Z" fill="url(#paint0_linear_1165_598)"/>
<defs>
<linearGradient id="paint0_linear_1165_598" x1="3" y1="2.5" x2="16.5" y2="19" gradientUnits="userSpaceOnUse">
<stop stop-color="#3ED05F"/>
<stop offset="1" stop-color="#2CA346"/>
</linearGradient>
</defs>
</svg>
