<svg width="20" height="20" viewBox="0 0 20 20" fill="none" xmlns="http://www.w3.org/2000/svg">
<path fill-rule="evenodd" clip-rule="evenodd" d="M12.6071 8.61604C12.7713 8.91086 12.8858 9.12532 12.9495 9.25946C13.1881 9.75926 13.3383 10.1734 13.4516 10.4951C13.5642 10.8151 13.7659 11.5002 13.9231 12.199L13.9352 12.2535C13.9371 12.2626 13.939 12.2717 13.9409 12.2807L13.953 12.3353C13.9568 12.3534 13.9607 12.3715 13.9645 12.3897C14.1159 13.1043 14.2031 13.8016 14.2298 14.053C14.2661 14.3994 14.2973 14.8837 14.3221 15.5061C14.0701 15.6988 13.8518 15.8505 13.6686 15.9613C13.5241 16.0483 13.1487 16.2694 12.7204 16.4515C12.3322 16.6169 11.8944 16.7456 11.6609 16.8004C11.4254 16.8555 11.041 16.9376 10.4919 16.9822C10.3487 16.9939 10.1069 16.9998 9.76705 17C9.99996 16.4159 10.1661 15.9744 10.2666 15.6755L10.2704 15.6642C10.2984 15.5783 10.355 15.3971 10.4346 15.1196L10.4454 15.082C10.5377 14.7571 10.6605 14.3081 10.8062 13.7332C10.9481 13.1756 11.2154 12.0743 11.608 10.4292C11.7926 9.85841 11.9421 9.46845 12.0573 9.25946C12.133 9.12188 12.2463 8.93861 12.3812 8.79632C12.4277 8.747 12.5028 8.68693 12.6071 8.61604ZM11.2752 6.91014C11.5349 7.16538 11.7175 7.35489 11.8238 7.47854C11.93 7.60225 12.0649 7.78335 12.2291 8.02199C11.9574 8.25223 11.7608 8.45026 11.6379 8.61604C11.5565 8.72645 11.3764 9.03445 11.23 9.39412C11.0474 9.8446 10.8966 10.3741 10.8164 10.674C10.7197 11.0336 10.5918 11.5918 10.432 12.3487C10.1514 13.5375 9.92996 14.3977 9.76705 14.9294C9.60478 15.4611 9.35978 16.1277 9.03269 16.9292C8.50961 16.8403 8.10997 16.7499 7.83507 16.6579C7.64416 16.5939 7.21016 16.4381 6.77298 16.2063C6.26708 15.9383 5.75481 15.5863 5.57217 15.4398C5.34563 15.2577 5.09427 15.0106 4.81936 14.6984C4.92181 14.2085 5.01727 13.842 5.10572 13.5991C5.16745 13.431 5.26736 13.2089 5.40481 12.9329L5.42836 12.8864C5.48372 12.7766 5.54481 12.6588 5.61163 12.5328C5.95081 11.9964 6.22953 11.5886 6.44653 11.3093C6.66289 11.03 6.98553 10.6643 7.4138 10.2121C7.8147 9.78465 8.17106 9.42848 8.48224 9.14358C8.79406 8.85868 9.26815 8.45605 9.90451 7.93557C10.1641 7.73684 10.3773 7.5752 10.5434 7.45066C10.7101 7.32619 10.9539 7.14597 11.2752 6.91014ZM14.2127 8.11802C14.3934 8.12674 14.5194 8.13997 14.5913 8.15773C14.863 8.22499 15.0501 8.34399 15.2162 8.45491C15.3556 8.54807 15.6718 8.7862 16.0772 9.20397C16.2376 9.36892 16.5042 9.66922 16.8777 10.1049C16.8943 10.1242 16.9821 10.2 16.9955 10.3768C17.0177 10.6654 16.9541 11.1357 16.8917 11.4176C16.8408 11.6465 16.6875 12.2315 16.4616 12.7542C16.2516 13.2385 15.9779 13.668 15.8405 13.875L15.8271 13.8943C15.8233 13.9005 15.8195 13.9065 15.815 13.9122C15.6445 14.166 15.3734 14.4929 15.0017 14.8931C14.9489 14.2883 14.8987 13.796 14.8522 13.4162L14.8458 13.3683C14.8357 13.2896 14.8261 13.2159 14.8166 13.1473L14.8108 13.1081C14.8045 13.0629 14.7975 13.0202 14.7911 12.9798C14.772 12.8587 14.7383 12.6734 14.6944 12.4531L14.6861 12.41C14.6288 12.1274 14.5557 11.7923 14.4742 11.4627L14.4615 11.412L14.4487 11.3615C14.4405 11.3279 14.4316 11.2944 14.4233 11.2611C14.2597 10.6341 14.0688 10.0783 13.9658 9.82074C13.8251 9.4666 13.5801 8.95433 13.2327 8.28385C13.4726 8.21895 13.6488 8.17695 13.7621 8.15773C13.876 8.13851 14.0262 8.12527 14.2127 8.11802ZM9.88223 5.71301C10.0426 5.82921 10.1794 5.93427 10.2933 6.02826C10.4072 6.12232 10.5644 6.25984 10.7649 6.44082C10.0381 6.96098 9.49596 7.36692 9.13769 7.65875C8.77942 7.95053 8.25316 8.41482 7.55952 9.05163C6.94607 9.6801 6.49426 10.1656 6.20535 10.5081C5.98199 10.7729 5.59763 11.2813 5.27436 11.7839C4.97081 12.2569 4.72391 12.7266 4.63673 12.9206C4.51773 13.1872 4.39364 13.5468 4.26509 13.9991C4.03473 13.6635 3.86737 13.3935 3.763 13.1889C3.68346 13.0326 3.49446 12.6182 3.35001 12.2001C3.21192 11.7982 3.11837 11.3924 3.08783 11.2298C3.05919 11.0753 2.99937 10.5557 3 10.0377V10.0172V9.9762L3.00065 9.93528C3.00701 9.45814 3.05092 8.99563 3.07637 8.78785L3.07892 8.77067C3.0821 8.74312 3.08528 8.72085 3.08783 8.70468C3.11583 8.52873 3.15719 8.36124 3.21128 8.20221C3.23355 8.14825 3.25455 8.10994 3.27555 8.08722C3.28828 8.07303 3.37928 8.00023 3.50973 7.9385C3.69301 7.85183 3.94946 7.76535 4.12318 7.70457C4.26255 7.65583 4.53936 7.56247 4.83463 7.48662C5.17063 7.40033 5.53017 7.3323 5.71217 7.29895C5.86044 7.27172 6.20153 7.20477 6.56426 7.13025L6.60626 7.12166C6.61326 7.1202 6.62026 7.11874 6.62726 7.11734L6.67753 7.1069L6.71953 7.09812C6.73417 7.09519 6.74817 7.09226 6.76217 7.08934L6.80417 7.08049C7.19743 6.99815 7.57225 6.91529 7.71289 6.87246C7.84461 6.83231 8.12779 6.738 8.39061 6.61792C8.72406 6.46538 9.04351 6.27867 9.18669 6.19073C9.3566 6.08592 9.58887 5.92664 9.88223 5.71301ZM15.2207 5.34506C15.4377 5.57517 15.6044 5.77194 15.7208 5.93529C15.808 6.05665 16.0676 6.45552 16.2815 6.88048C16.4997 7.31365 16.6722 7.77387 16.7396 7.99049C16.8281 8.27654 16.9 8.65912 16.9554 9.13811C16.4482 8.56844 16.0301 8.17294 15.7011 7.95161C15.4809 7.80346 15.2576 7.66276 14.9375 7.54981C14.8592 7.52232 14.6097 7.42826 14.3062 7.41643C13.9931 7.40434 13.6253 7.47523 13.4993 7.50355C13.3332 7.5409 13.1194 7.60848 12.8572 7.70635C12.7032 7.48655 12.5696 7.30761 12.4557 7.16945C12.3424 7.0313 12.1579 6.82276 11.9027 6.54378C12.3806 6.23731 12.7242 6.03444 12.9342 5.93529C13.6068 5.61736 14.1045 5.51007 14.2642 5.47469C14.4659 5.43008 14.7847 5.38687 15.2207 5.34506ZM6.67244 3.84458C7.09753 4.0255 7.48571 4.21329 7.83634 4.40795C8.18697 4.60262 8.67315 4.8998 9.29488 5.29956C8.80233 5.62665 8.38743 5.86262 8.04888 6.00745C7.87134 6.0835 7.58816 6.20587 7.16562 6.30801C6.38162 6.49765 5.30936 6.67704 4.88236 6.78038C4.44455 6.88646 4.01564 7.01049 3.59628 7.15253C3.78082 6.75887 3.94246 6.4552 4.08182 6.24157C4.22055 6.02801 4.45218 5.72745 4.77609 5.33991C5.14581 4.9474 5.43981 4.66517 5.65808 4.49323C5.87572 4.32128 6.21426 4.10505 6.67244 3.84458ZM11.3872 3.12384C11.6774 3.18766 11.9014 3.24551 12.0605 3.29725C12.0643 3.29865 12.0694 3.30017 12.0739 3.30176L12.0898 3.30692C12.2196 3.35025 12.504 3.4508 12.7789 3.57114C13.1168 3.71896 13.4503 3.896 13.6527 4.02162C13.9066 4.17918 14.2247 4.41273 14.6078 4.72232C14.1668 4.80384 13.8544 4.86983 13.6705 4.92035C13.267 5.03134 12.9183 5.1826 12.7936 5.23873C12.4646 5.387 12.1464 5.5662 11.9975 5.65071C11.8034 5.7608 11.5902 5.89215 11.358 6.04468C11.1779 5.88158 11.0372 5.75705 10.9354 5.67101C10.8336 5.58504 10.6707 5.45331 10.4473 5.27583C10.5396 5.18801 10.623 5.10719 10.6968 5.03337L10.726 5.00416C10.9131 4.81701 11.0404 4.67707 11.1079 4.58423C11.307 4.31065 11.335 4.08061 11.358 3.96804C11.3968 3.77318 11.4063 3.49178 11.3872 3.12384ZM10.5631 3C10.5867 3.00013 10.6045 3.00076 10.6153 3.00191C10.6554 3.00611 10.6669 3.01782 10.6726 3.02552L10.6751 3.02838L10.6758 3.02953C10.6809 3.03525 10.6917 3.05314 10.6955 3.09164C10.6987 3.11951 10.7 3.18213 10.7006 3.27943V3.71037C10.6923 3.80958 10.679 3.88569 10.6611 3.93864C10.6433 3.99152 10.6077 4.05923 10.5555 4.1417C10.4766 4.25052 10.3926 4.35081 10.3029 4.44238C10.2125 4.53402 10.0674 4.6674 9.86633 4.84253C9.35724 4.49806 8.94742 4.23461 8.63752 4.05216C8.32761 3.86978 7.95534 3.67264 7.52071 3.46085C7.83698 3.32945 8.13352 3.23265 8.4097 3.17035C8.59679 3.12823 8.95251 3.05956 9.36933 3.0231C9.50296 3.01145 9.71105 3.00439 9.99423 3.00191H10.4473C10.4868 3.00076 10.5199 3.00013 10.5466 3H10.5631Z" fill="#5EDA1D"/>
</svg>
