<svg width="18" height="18" viewBox="0 0 18 18" fill="none" xmlns="http://www.w3.org/2000/svg">
<path fill-rule="evenodd" clip-rule="evenodd" d="M17.6423 5.64713C17.6676 5.7002 17.6952 5.76544 17.7252 5.8415L17.8225 6.10608L17.9342 6.44001C18.0808 6.87335 17.9745 7.37667 17.694 7.8161C16.6934 9.38408 15.2411 11.1971 13.6777 12.9088C11.7491 15.0199 9.83493 16.6385 7.98022 17.7494C7.42165 18.0839 6.6865 18.0778 6.12312 17.7652L5.98618 17.6805L5.34172 17.2295L4.80837 16.8481C4.58855 16.6897 4.53388 16.377 4.68705 16.1491C4.82278 15.9468 5.07625 15.8797 5.28525 15.9785L5.36093 16.023L6.03903 16.5068L6.52013 16.8421C6.79281 17.0278 7.21323 17.0485 7.49553 16.8791C10.5208 15.0668 13.9636 11.609 16.9456 7.2683C16.9889 7.20541 17.0189 7.05914 17.0213 6.94394L17.0177 6.8654L16.9997 6.78499L16.8435 6.35649C16.7775 6.07862 16.8057 5.88537 17.0099 5.66602C17.2597 5.39734 17.5162 5.37845 17.6429 5.64601L17.6423 5.64713ZM4.77833 12.626L4.9393 12.7303L5.08285 12.8352C5.29787 13.0002 5.34232 13.3154 5.18255 13.5377C5.02278 13.7602 4.71948 13.8065 4.50506 13.6414C3.73086 13.0453 2.95065 13.1307 2.03172 13.9259C1.9134 14.0283 1.75723 14.0649 1.60888 14.0283L1.5212 13.9978L1.44492 13.9534L0.20825 13.0637C-0.0115813 12.9053 -0.0662329 12.5926 0.0869189 12.3647C0.204036 12.1897 0.412452 12.1136 0.604051 12.1647L0.688736 12.1965L0.760816 12.2392L1.67915 12.9393L1.7224 12.9058C2.76627 12.1374 3.81014 12.0392 4.77833 12.626ZM10.7599 0.120383L11.7863 0.8116C11.7425 0.862056 11.7016 0.916985 11.6638 0.974897C11.065 1.88596 11.1299 3.10957 12.2422 3.92978C13.3545 4.75012 14.7209 4.58794 15.3948 3.76039C15.4867 3.6478 15.557 3.52216 15.6075 3.38744L16.6904 4.11756C17.0141 4.33752 17.1006 4.78181 16.8832 5.11027C16.8783 5.1176 16.8729 5.12493 16.8681 5.13226C15.139 7.53213 13.4254 9.60168 11.7263 11.3397C10.0776 13.0271 8.48174 14.352 6.93995 15.3153C6.62643 15.5122 6.22523 15.4903 5.93392 15.2605L4.92668 14.4591C5.01378 14.4013 5.09005 14.3379 5.15312 14.2697C5.7183 13.6615 5.83542 12.3013 4.68825 11.3951C3.54107 10.4889 2.26957 10.6675 1.45572 11.269C1.36083 11.339 1.28275 11.4213 1.22088 11.5139L0.220866 10.7198C-0.00918067 10.5371 -0.048816 10.1994 0.131968 9.96605C0.165602 9.92206 0.206437 9.88441 0.252099 9.85334C2.22632 8.50657 3.98673 7.04883 5.53331 5.47961C7.0799 3.91039 8.49855 2.18633 9.78988 0.30692C10.0091 -0.0130877 10.4403 -0.0958547 10.7599 0.120383ZM9.6151 5.69162L9.55685 5.72269L8.47453 6.47605L7.21743 5.9951C7.15437 5.97087 7.0847 5.97012 7.02103 5.99336C6.8937 6.03959 6.81863 6.1676 6.83305 6.29871L6.84806 6.36383L7.2853 7.60943L6.4985 8.63209C6.46126 8.68018 6.44023 8.73859 6.43843 8.80023C6.43363 8.93743 6.52373 9.05549 6.64865 9.09029L6.71412 9.09998L8.08173 9.14994L8.88175 10.2848C8.91778 10.3365 8.97005 10.3744 9.0295 10.3933C9.15863 10.4341 9.29498 10.3768 9.36045 10.2634L9.38686 10.2025L9.76345 8.96962L11.0091 8.64663C11.0734 8.63023 11.1299 8.5912 11.1689 8.53702C11.2488 8.42604 11.2398 8.27729 11.1551 8.17737L11.1064 8.13238L10.0067 7.31751L10.0055 5.96341C10.0055 5.90488 9.98809 5.84833 9.95565 5.80012C9.87938 5.68678 9.73762 5.64601 9.6169 5.69349L9.6151 5.69162Z" fill="#93999F"/>
</svg>
