<svg width="26" height="26" viewBox="0 0 26 26" fill="none" xmlns="http://www.w3.org/2000/svg">
<rect width="26" height="26" fill="#D8D8D8" fill-opacity="0.01"/>
<rect width="26" height="26" fill="#D8D8D8" fill-opacity="0.01"/>
<path fill-rule="evenodd" clip-rule="evenodd" d="M18.7999 14.4503C18.8233 14.4488 18.8483 14.4633 18.8725 14.4697C18.8636 14.4923 18.8563 14.5164 18.8442 14.5373L18.7055 14.7657C18.6829 14.8045 18.6619 14.8432 18.6434 14.8835C18.5715 15.0368 18.6417 15.1772 18.8063 15.2111C19.0653 15.2644 19.3251 15.3129 19.5857 15.3491C19.6728 15.3611 19.7713 15.3491 19.8511 15.3169C20.1101 15.2135 20.2892 15.0151 20.4353 14.782C20.5046 14.6706 20.5361 14.6601 20.6563 14.714C21.0307 14.8812 21.3461 15.1272 21.597 15.4597C21.6237 15.4951 21.6591 15.5234 21.6898 15.5558L22.5967 16.8037C22.6192 16.8465 22.6402 16.8901 22.6644 16.932C22.775 17.1193 22.7685 17.3169 22.7467 17.5163C22.7467 17.5194 22.737 17.5209 22.7225 17.5266C22.6999 17.4992 22.6749 17.4702 22.6523 17.4394C22.4555 17.1701 22.2586 16.9014 22.065 16.6295C22.0174 16.5625 21.9722 16.5423 21.9012 16.5826C21.8544 16.6092 21.7995 16.6229 21.7479 16.6415C21.6229 16.6867 21.4922 16.7206 21.3744 16.7787C21.1468 16.8909 21.0048 17.074 20.9677 17.3402C20.9387 17.5461 20.9016 17.7493 20.8604 17.9526C20.8185 18.1593 20.9177 18.3052 21.1138 18.3141C21.1315 18.3149 21.1501 18.3157 21.1662 18.3116C21.2985 18.2785 21.4284 18.2382 21.5624 18.2132C21.6406 18.1987 21.7261 18.1938 21.8036 18.2116C21.8399 18.2196 21.8657 18.2915 21.8964 18.335L21.9068 18.3496C22.0601 18.5561 22.2102 18.7642 22.3683 18.9668C22.4369 19.0546 22.441 19.1346 22.3998 19.2257C22.353 19.329 22.3086 19.4339 22.2651 19.5396C22.111 19.9115 21.9198 20.2608 21.7027 20.5956C21.3187 21.1879 20.8637 21.7163 20.361 22.2045C20.2747 22.2882 20.2602 22.2882 20.1868 22.1859C19.9044 21.7906 19.6244 21.3935 19.3396 20.9998C19.3138 20.9643 19.2654 20.9376 19.2226 20.9232C19.0395 20.8611 18.8862 20.9362 18.7482 21.0329C18.4005 21.2766 18.0584 21.5266 17.7172 21.78C17.647 21.8325 17.58 21.8978 17.5332 21.972C17.4767 22.0632 17.4356 22.1754 17.4937 22.2859C17.5534 22.3988 17.63 22.5038 17.7059 22.6063C17.9382 22.9217 18.173 23.2348 18.407 23.5477C18.44 23.5921 18.4368 23.6227 18.3884 23.6479C18.273 23.7066 18.1593 23.7688 18.0439 23.8284C17.6413 24.0382 17.2202 24.2085 16.7877 24.3498C16.1673 24.553 15.5251 24.6644 14.8659 24.6999C14.8216 24.7024 14.7627 24.6805 14.7304 24.6499C14.665 24.5877 14.6102 24.5135 14.5577 24.4401C14.4198 24.2456 14.2826 24.0512 14.1519 23.8519C14.1317 23.8212 14.1285 23.7631 14.1422 23.73C14.1471 23.718 14.164 23.7066 14.1826 23.6986L14.2245 23.6333L14.2738 23.5446C14.2738 23.5438 14.2746 23.5429 14.2746 23.5421L14.2754 23.5275C14.2802 23.5146 14.2834 23.5043 14.2923 23.4944L14.298 23.4888C14.3028 23.4752 14.3093 23.4631 14.3189 23.4541L14.3286 23.4493L14.352 23.3921L14.3649 23.3735L14.3762 23.3332C14.3778 23.3291 14.3794 23.3251 14.3827 23.3218L14.3948 23.2896C14.3972 23.284 14.4004 23.28 14.4036 23.2766C14.4053 23.2654 14.4133 23.2451 14.4254 23.2211C14.4722 23.1273 14.452 23.0354 14.4311 22.9411C14.427 22.9217 14.4069 22.8967 14.3883 22.8894C14.2883 22.8475 14.1858 22.8233 14.0817 22.8072L13.9244 22.7869C13.8195 22.7749 13.7146 22.7586 13.6106 22.7433C13.5202 22.7305 13.4282 22.6991 13.3411 22.7055C13.095 22.7241 12.9046 22.8522 12.7513 23.0345C12.6658 23.1364 12.594 23.2501 12.5133 23.3557C12.4246 23.4712 12.4222 23.4704 12.5117 23.593C12.7094 23.8649 12.9078 24.1367 13.1055 24.4093C13.1241 24.4345 13.1353 24.4643 13.1499 24.4926L13.1353 24.5127C13.0974 24.5007 13.0603 24.4862 13.0224 24.4763C12.9095 24.4482 12.7957 24.4223 12.6819 24.3957L11.4621 22.7168C11.3983 22.5699 11.3418 22.4199 11.27 22.2771C11.1619 22.0617 11.124 21.8348 11.1006 21.6041C11.0926 21.5291 11.1337 21.5026 11.1974 21.4832C11.3443 21.4388 11.5016 21.4088 11.6299 21.3332C11.8501 21.2017 12.0599 21.0467 12.0728 20.7425C12.0736 20.7256 12.0865 20.7103 12.0889 20.6925C12.1309 20.4447 12.1914 20.1987 12.1656 19.9413C12.1616 19.897 12.1212 19.842 12.0825 19.8147C11.9671 19.7341 11.8453 19.7573 11.7267 19.7945C11.6339 19.8235 11.5403 19.8503 11.4475 19.8777L11.4258 19.8534C11.4443 19.8098 11.4629 19.7664 11.4822 19.7236C11.5702 19.5299 11.6517 19.3332 11.7485 19.1443C11.8284 18.9893 11.9227 18.8425 12.0171 18.6966C12.1438 18.4997 12.2721 18.3029 12.4084 18.1132C12.4956 17.9913 12.594 17.8759 12.6957 17.7655C12.9337 17.5056 13.1717 17.2458 13.4185 16.9942C13.542 16.8684 13.5444 16.8812 13.6679 17.0215C13.7227 17.0837 13.8042 17.1538 13.8768 17.1611C14.0543 17.1788 14.2141 17.1127 14.356 17.0079C14.5368 16.874 14.7248 16.7489 14.9022 16.6092C15.091 16.4608 15.3161 16.3536 15.4525 16.1407C15.5267 16.0243 15.5905 15.9074 15.5049 15.7614C15.4791 15.717 15.4484 15.675 15.4178 15.6339C15.3807 15.5847 15.3799 15.5467 15.4347 15.5178C15.4912 15.4886 15.5469 15.458 15.6025 15.4273C16.2375 15.0837 16.9039 14.8142 17.6107 14.6392C18.0003 14.5423 18.3989 14.4875 18.8015 14.4552L18.7999 14.4503ZM16.7316 16.1155C15.7045 16.49 14.8219 17.0854 14.0683 17.8695C13.6165 18.3399 13.2373 18.8659 12.9864 19.4822C12.8129 19.9082 12.7056 20.3504 12.7694 20.8289C12.8154 21.1686 12.9477 21.4704 13.1946 21.7196C13.4721 22.0003 13.8126 22.144 14.1829 22.2117C14.8025 22.3254 15.3995 22.2399 15.9804 22.064C16.7025 21.8447 17.3633 21.5041 17.974 21.066C18.1854 20.8909 18.404 20.7256 18.6057 20.54C19.0818 20.102 19.4989 19.6097 19.8143 19.0345C20.0652 18.577 20.2484 18.0921 20.2565 17.5484C20.2653 16.9006 20.0104 16.3914 19.4214 16.0696C19.1544 15.9236 18.8663 15.8573 18.5718 15.8317C17.9288 15.7759 17.3205 15.9001 16.7324 16.1148L16.7316 16.1155ZM18.6567 16.3082C19.0109 16.3857 19.3239 16.5421 19.5466 16.8569C19.7612 17.1594 19.8105 17.4943 19.7766 17.8419C19.733 18.2962 19.5611 18.6996 19.3336 19.078C18.9319 19.7468 18.3937 20.2825 17.72 20.7748C17.0908 21.2233 16.3525 21.592 15.5127 21.742C15.148 21.8074 14.7793 21.8202 14.4065 21.7379C13.6417 21.5695 13.2214 20.9892 13.2988 20.2098C13.344 19.7557 13.5142 19.3523 13.7401 18.9739C14.0903 18.3865 14.5493 17.8992 15.0794 17.4821C15.7563 16.9497 16.5018 16.5454 17.3538 16.3477C17.7806 16.2493 18.2138 16.2106 18.6567 16.3082Z" fill="url(#paint0_linear_1165_561)"/>
<path fill-rule="evenodd" clip-rule="evenodd" d="M12.2211 1.3721L22.7563 4.39283C23.7285 4.67122 24.29 5.6852 24.0116 6.6574L21.8519 14.1913C20.0874 12.8351 16.7812 13.1554 13.8839 15.1095C10.6318 17.3032 9.0948 20.7458 10.3647 22.9022L10.3889 22.9411L6.36703 21.788C5.39483 21.5098 4.83332 20.4957 5.11166 19.5235L9.95647 2.62679C10.2348 1.65443 11.249 1.09306 12.2211 1.37128V1.3721ZM12.1926 3.36484C11.7858 4.40398 11.2799 5.61095 10.7797 6.66859L10.4069 7.42823L11.7193 7.80895L11.7719 7.66546C11.8166 7.5385 11.8672 7.38035 11.9094 7.26209L11.9484 7.1601L12.7562 7.39442L12.761 7.60017C12.7643 7.75678 12.7689 7.93586 12.7717 8.04518C13.1839 8.18519 13.6161 8.31056 13.9798 8.39562C14.0184 7.41161 14.0413 6.41677 14.0503 5.42103L14.0531 3.92654L12.1926 3.36484ZM12.7296 4.93885L12.881 4.98587C12.8838 5.32313 12.8844 5.67867 12.8672 6.04157L12.8285 6.58692L12.7342 6.55956L12.132 6.38639L12.7296 4.93885ZM8.64719 2.35472L4.43975 18.0614C4.43248 18.0897 4.42522 18.117 4.41958 18.1453C4.35423 18.0203 4.3018 17.884 4.26629 17.7396L1.35456 6.0594C1.1101 5.07848 1.70714 4.08523 2.68819 3.84008L8.6488 2.35472H8.64719ZM3.70321 4.86346L2.76666 7.92687L3.62451 8.18891L3.85882 7.42279L4.28833 7.17607L4.82374 8.55521L5.8301 8.86286L5.03437 6.75307L6.70098 5.77919L5.74668 5.48758L4.17119 6.3986L4.56047 5.12491L3.70262 4.86286L3.70321 4.86346Z" fill="url(#paint1_linear_1165_561)"/>
<defs>
<linearGradient id="paint0_linear_1165_561" x1="13.5413" y1="14.0834" x2="13.5413" y2="24.9167" gradientUnits="userSpaceOnUse">
<stop stop-color="#FFD600"/>
<stop offset="1" stop-color="#DA8A12"/>
</linearGradient>
<linearGradient id="paint1_linear_1165_561" x1="3.83104" y1="3.10353" x2="19.8771" y2="23.7505" gradientUnits="userSpaceOnUse">
<stop stop-color="#3ED05F"/>
<stop offset="1" stop-color="#2CA346"/>
</linearGradient>
</defs>
</svg>
