<svg width="18" height="18" viewBox="0 0 18 18" fill="none" xmlns="http://www.w3.org/2000/svg">
<path fill-rule="evenodd" clip-rule="evenodd" d="M13.6989 10.1155C13.7169 10.1144 13.7361 10.1255 13.7548 10.1305C13.748 10.1478 13.7424 10.1664 13.733 10.1825L13.6263 10.3582C13.6089 10.388 13.5928 10.4178 13.5785 10.4488C13.5233 10.5667 13.5773 10.6747 13.7039 10.7008C13.9031 10.7418 14.1029 10.7791 14.3034 10.8069C14.3704 10.8162 14.4461 10.8069 14.5076 10.7821C14.7068 10.7027 14.8446 10.55 14.9569 10.3707C15.0103 10.285 15.0345 10.2769 15.127 10.3184C15.4149 10.447 15.6576 10.6362 15.8506 10.892C15.8711 10.9192 15.8984 10.941 15.922 10.9659L16.6195 11.9259C16.6369 11.9588 16.653 11.9923 16.6717 12.0246C16.7567 12.1686 16.7517 12.3206 16.735 12.474C16.735 12.4764 16.7275 12.4775 16.7163 12.482C16.699 12.4608 16.6797 12.4386 16.6623 12.4149C16.5109 12.2077 16.3595 12.001 16.2105 11.7918C16.1739 11.7403 16.1392 11.7248 16.0845 11.7558C16.0486 11.7763 16.0064 11.7868 15.9666 11.8011C15.8704 11.8359 15.7699 11.8619 15.6793 11.9066C15.5043 11.9929 15.395 12.1338 15.3665 12.3386C15.3442 12.4969 15.3156 12.6532 15.284 12.8096C15.2517 12.9686 15.328 13.0808 15.4788 13.0877C15.4925 13.0883 15.5068 13.0889 15.5192 13.0858C15.621 13.0603 15.7209 13.0293 15.8239 13.0101C15.8841 12.999 15.9499 12.9952 16.0095 13.0088C16.0374 13.015 16.0572 13.0703 16.0808 13.1038L16.0889 13.115C16.2068 13.2739 16.3223 13.434 16.4439 13.5897C16.4966 13.6573 16.4998 13.7188 16.4681 13.789C16.4321 13.8684 16.398 13.949 16.3644 14.0304C16.2459 14.3165 16.0988 14.5851 15.9319 14.8427C15.6365 15.2983 15.2864 15.7048 14.8998 16.0803C14.8334 16.1447 14.8222 16.1447 14.7658 16.066C14.5485 15.7619 14.3332 15.4565 14.1141 15.1536C14.0943 15.1263 14.057 15.1058 14.0241 15.0947C13.8833 15.047 13.7653 15.1047 13.6592 15.1791C13.3917 15.3665 13.1286 15.5589 12.8661 15.7538C12.8121 15.7942 12.7606 15.8444 12.7246 15.9015C12.6811 15.9716 12.6495 16.0579 12.6941 16.143C12.7401 16.2298 12.799 16.3105 12.8574 16.3894C13.0361 16.632 13.2167 16.8728 13.3967 17.1136C13.4221 17.1477 13.4196 17.1713 13.3824 17.1906C13.2937 17.2358 13.2062 17.2837 13.1174 17.3295C12.8077 17.4908 12.4838 17.6218 12.1511 17.7305C11.6739 17.8868 11.1799 17.9725 10.6728 17.9999C10.6387 18.0018 10.5934 17.9849 10.5686 17.9614C10.5183 17.9135 10.4761 17.8565 10.4357 17.8C10.3296 17.6504 10.2241 17.5008 10.1236 17.3476C10.1081 17.3239 10.1056 17.2792 10.1161 17.2538C10.1199 17.2445 10.1329 17.2358 10.1472 17.2296L10.1794 17.1794L10.2173 17.1112C10.2173 17.1105 10.2179 17.1099 10.2179 17.1093L10.2185 17.098C10.2223 17.0881 10.2247 17.0801 10.2316 17.0725L10.2359 17.0682C10.2396 17.0577 10.2446 17.0485 10.252 17.0415L10.2595 17.0379L10.2775 16.9938L10.2874 16.9795L10.2961 16.9485C10.2973 16.9454 10.2986 16.9423 10.3011 16.9398L10.3104 16.915C10.3122 16.9107 10.3147 16.9076 10.3172 16.905C10.3184 16.8964 10.3247 16.8808 10.334 16.8623C10.37 16.7902 10.3544 16.7194 10.3383 16.6469C10.3352 16.632 10.3197 16.6128 10.3054 16.6072C10.2285 16.5749 10.1496 16.5563 10.0696 16.5439L9.94856 16.5283C9.86788 16.5191 9.7872 16.5066 9.70714 16.4948C9.63763 16.4849 9.56688 16.4608 9.49986 16.4657C9.31058 16.48 9.16411 16.5786 9.04619 16.7188C8.98041 16.7972 8.92518 16.8846 8.86311 16.9659C8.79484 17.0547 8.79298 17.0541 8.86187 17.1484C9.01392 17.3576 9.16659 17.5666 9.31864 17.7764C9.33291 17.7957 9.3416 17.8186 9.35277 17.8404L9.3416 17.8558C9.31244 17.8466 9.28389 17.8355 9.25471 17.8279C9.16783 17.8062 9.08033 17.7863 8.99282 17.7658L8.05446 16.4744C8.00543 16.3614 7.96198 16.246 7.90675 16.1361C7.82359 15.9705 7.79443 15.7959 7.77642 15.6185C7.77022 15.5608 7.80187 15.5404 7.8509 15.5255C7.96385 15.4913 8.08487 15.4683 8.18353 15.4101C8.35297 15.3089 8.51432 15.1897 8.52426 14.9557C8.52488 14.9427 8.53481 14.9309 8.53666 14.9172C8.56893 14.7266 8.6155 14.5374 8.59563 14.3394C8.59253 14.3053 8.56149 14.263 8.53171 14.242C8.44296 14.18 8.34925 14.1979 8.25801 14.2265C8.18665 14.2487 8.11466 14.2694 8.04328 14.2905L8.02652 14.2718C8.0408 14.2382 8.05508 14.2048 8.06997 14.1719C8.13762 14.023 8.2003 13.8716 8.27477 13.7263C8.33622 13.6071 8.40882 13.4942 8.48143 13.3819C8.57887 13.2304 8.67755 13.0791 8.78244 12.9332C8.84947 12.8394 8.92518 12.7507 9.00338 12.6657C9.18646 12.4658 9.36954 12.2659 9.55943 12.0724C9.6544 11.9756 9.65625 11.9855 9.75122 12.0934C9.79342 12.1413 9.85609 12.1952 9.91195 12.2008C10.0485 12.2144 10.1714 12.1635 10.2806 12.0829C10.4196 11.9799 10.5642 11.8837 10.7007 11.7763C10.846 11.6621 11.0191 11.5796 11.124 11.4158C11.1811 11.3263 11.2301 11.2364 11.1643 11.1241C11.1445 11.0899 11.1209 11.0577 11.0973 11.026C11.0688 10.9882 11.0682 10.9589 11.1103 10.9367C11.1538 10.9143 11.1966 10.8907 11.2394 10.8671C11.7279 10.6028 12.2405 10.3955 12.7841 10.2608C13.0839 10.1863 13.3905 10.1442 13.7002 10.1193L13.6989 10.1155ZM8.63845 0.0554252L16.7424 2.37907C17.4902 2.59321 17.9222 3.37319 17.7081 4.12104L16.0467 9.91634C14.6894 8.87311 12.1462 9.11952 9.91753 10.6227C7.41585 12.3101 6.23358 14.9582 7.21043 16.6171L7.22904 16.6469L4.13529 15.76C3.38744 15.546 2.95551 14.7659 3.16962 14.018L6.89639 1.02057C7.11051 0.272602 7.89062 -0.158588 8.63845 0.0554252ZM12.1083 11.3965C11.3183 11.6845 10.6393 12.1425 10.0596 12.7457C9.71211 13.1076 9.42043 13.5122 9.22741 13.9863C9.09398 14.3139 9.01144 14.6541 9.06047 15.0222C9.09584 15.2835 9.19762 15.5156 9.38754 15.7073C9.60102 15.9233 9.86292 16.0337 10.1478 16.0859C10.6244 16.1733 11.0837 16.1075 11.5305 15.9722C12.086 15.8035 12.5942 15.5416 13.064 15.2045C13.2266 15.0699 13.3948 14.9427 13.55 14.7999C13.9161 14.463 14.237 14.0843 14.4797 13.6419C14.6727 13.2899 14.8135 12.917 14.8198 12.4987C14.8266 12.0004 14.6305 11.6087 14.1774 11.3612C13.972 11.2489 13.7504 11.1979 13.5239 11.1781C13.0293 11.1352 12.5607 11.2313 12.1083 11.3965ZM13.5891 11.5448C13.8615 11.6044 14.1023 11.7248 14.2736 11.9669C14.4387 12.1996 14.4766 12.4572 14.4505 12.7246C14.417 13.074 14.2848 13.3843 14.1098 13.6754C13.8007 14.1899 13.3868 14.602 12.8685 14.9806C12.3845 15.3256 11.8166 15.6093 11.1706 15.7247C10.89 15.7749 10.6064 15.7848 10.3197 15.7215C9.73135 15.5919 9.40802 15.1455 9.46759 14.546C9.50234 14.1967 9.63329 13.8864 9.80706 13.5953C10.0764 13.1435 10.4295 12.7686 10.8373 12.4478C11.358 12.0382 11.9314 11.7273 12.5868 11.5752C12.9151 11.4995 13.2484 11.4697 13.5891 11.5448ZM5.88914 0.811368L2.65265 12.8934C2.64706 12.9152 2.64147 12.9362 2.63713 12.958C2.58686 12.8618 2.54653 12.757 2.51922 12.6459L0.279423 3.66112C0.0913798 2.90657 0.550641 2.14253 1.30529 1.95395L5.89038 0.811368H5.88914ZM2.65637 2.98098C2.41992 2.98908 2.20892 3.0468 2.02336 3.15361C1.83778 3.2603 1.69505 3.4042 1.59327 3.5848C1.49147 3.7654 1.44494 3.96714 1.45239 4.18875C1.45921 4.38289 1.50761 4.55919 1.59761 4.71878C1.68759 4.87824 1.80986 5.00784 1.96501 5.10909C2.12016 5.21021 2.29518 5.27349 2.49067 5.29893C2.621 5.42676 2.73829 5.52547 2.84193 5.59571C2.94557 5.66583 3.0486 5.71481 3.14975 5.74328C3.25092 5.77188 3.36388 5.78366 3.48736 5.77935C3.61521 5.77492 3.73252 5.74708 3.83802 5.69494C3.94352 5.64279 4.03289 5.57027 4.10427 5.47586L3.81753 5.15933C3.72073 5.26742 3.60963 5.32386 3.48426 5.32817C3.43523 5.33006 3.38932 5.32196 3.34711 5.30399C3.30491 5.28589 3.26148 5.25489 3.2174 5.20895C3.44703 5.11782 3.62701 4.97317 3.75796 4.77523C3.88891 4.57729 3.94972 4.35252 3.94104 4.10129C3.93359 3.87969 3.87278 3.68162 3.75858 3.50849C3.64439 3.33535 3.49172 3.20196 3.29933 3.1083C3.10694 3.01452 2.89344 2.97238 2.65637 2.98098ZM8.21458 1.48479L7.23215 4.69828L8.13202 4.97317L8.3778 4.16951L8.82836 3.91069L9.39001 5.3574L10.4457 5.68013L9.61095 3.46698L11.3592 2.44538L10.3582 2.13949L8.70548 3.09514L9.11384 1.75905L8.21458 1.48479ZM2.67438 3.50532C2.78732 3.50178 2.89034 3.52469 2.98406 3.57493C3.07776 3.62517 3.15286 3.69782 3.20934 3.79274C3.26581 3.88766 3.29685 3.99815 3.30118 4.1242C3.30553 4.25013 3.28256 4.36251 3.23293 4.46123C3.18328 4.55982 3.11314 4.63803 3.02315 4.69448C2.93317 4.75093 2.83201 4.7813 2.71906 4.7851C2.6061 4.78889 2.50308 4.76586 2.40936 4.71562C2.31566 4.66525 2.24056 4.59273 2.18409 4.49781C2.12762 4.40276 2.09658 4.29227 2.09223 4.16635C2.08789 4.04029 2.11085 3.92803 2.16051 3.82944C2.21015 3.73073 2.28028 3.65251 2.37027 3.59594C2.46025 3.53949 2.56142 3.50912 2.67438 3.50532Z" fill="#37AF51"/>
</svg>
