<svg width="20" height="20" viewBox="0 0 20 20" fill="none" xmlns="http://www.w3.org/2000/svg">
<path d="M15 1C17.2091 1 19 2.79086 19 5V10C19 14.9706 14.9706 19 10 19C5.02944 19 1 14.9706 1 10C1 5.02944 5.02944 1 10 1H15ZM15 3H10C6.13401 3 3 6.13401 3 10C3 13.866 6.13401 17 10 17C13.866 17 17 13.866 17 10V5C17 3.89543 16.1046 3 15 3ZM13.5254 10.1261C14.0777 10.1261 14.5254 10.5738 14.5254 11.1261C14.5254 11.2415 14.5059 11.3524 14.4699 11.4556C13.6451 13.303 11.9112 14.6523 9.8378 14.942L9.76405 14.9544L9.64743 14.9611C9.09515 14.9611 8.64743 14.5134 8.64743 13.9611C8.64743 13.4542 9.02459 13.0354 9.51359 12.97C10.9224 12.7865 12.1014 11.8736 12.6573 10.6224C12.8336 10.3263 13.1562 10.1261 13.5254 10.1261Z" fill="#8891A5"/>
</svg>
