<svg width="20" height="20" viewBox="0 0 20 20" fill="none" xmlns="http://www.w3.org/2000/svg">
<path fill-rule="evenodd" clip-rule="evenodd" d="M5 1.5H15C15.5523 1.5 16 1.94772 16 2.5C16 3.05228 15.5523 3.5 15 3.5H5C4.44772 3.5 4 3.05228 4 2.5C4 1.94772 4.44772 1.5 5 1.5ZM19 8.5C19 6.29086 17.2091 4.5 15 4.5H5C2.79086 4.5 1 6.29086 1 8.5V9.5C2.10457 9.5 3 10.3954 3 11.5C3 12.6046 2.10457 13.5 1 13.5V14.5C1 16.7091 2.79086 18.5 5 18.5H15C17.2091 18.5 19 16.7091 19 14.5V13.5C17.8954 13.5 17 12.6046 17 11.5C17 10.3954 17.8954 9.5 19 9.5V8.5ZM9.70063 8.72322C9.81289 8.42559 10.1871 8.42559 10.2994 8.72322L10.973 10.0998C11.0104 10.2114 11.1226 10.2858 11.2349 10.2858L12.6944 10.509C12.9937 10.5462 13.106 10.9183 12.8815 11.1415L11.8337 12.2204C11.7588 12.2948 11.7214 12.4064 11.7214 12.5552L11.9833 14.0806C12.0208 14.3782 11.7214 14.6014 11.4969 14.4526L10.1871 13.7458C10.0748 13.7086 9.96258 13.7086 9.85031 13.7458L8.54056 14.4526C8.27861 14.6014 7.97923 14.3782 8.05408 14.0806L8.31603 12.5552C8.35345 12.4436 8.31603 12.332 8.20376 12.2204L7.11854 11.1043C6.89401 10.9183 7.00627 10.5462 7.30564 10.509L8.76509 10.2858C8.87735 10.2858 8.98962 10.2114 9.02704 10.0998L9.70063 8.72322Z" fill="url(#paint0_linear_1165_634)"/>
<defs>
<linearGradient id="paint0_linear_1165_634" x1="3" y1="2.91667" x2="15.5869" y2="19.2056" gradientUnits="userSpaceOnUse">
<stop stop-color="#3ED05F"/>
<stop offset="1" stop-color="#2CA346"/>
</linearGradient>
</defs>
</svg>
