<svg width="22" height="20" viewBox="0 0 22 20" fill="none" xmlns="http://www.w3.org/2000/svg">
<path d="M19.2809 3.72499C20.2101 3.14999 20.9042 2.23333 21.2359 1.16666C20.3634 1.69999 19.4084 2.08333 18.4134 2.28333C17.0334 0.76666 14.8467 0.39166 13.0751 1.38333C11.3042 2.36666 10.3867 4.46666 10.8351 6.50833C7.26175 6.32499 3.93175 4.56666 1.67508 1.67499C0.496748 3.79166 1.09925 6.49166 3.05008 7.85833C2.34508 7.83333 1.65508 7.63333 1.03758 7.27499C1.03758 7.29166 1.03758 7.31666 1.03758 7.33333C1.03841 9.53333 2.53008 11.4333 4.60425 11.875C3.94925 12.0583 3.26258 12.0833 2.59675 11.95C3.18008 13.8417 4.84841 15.125 6.74925 15.1667C5.17425 16.4583 3.23008 17.15 1.22841 17.15C0.873415 17.15 0.519248 17.125 0.166748 17.0833C2.19925 18.45 4.56508 19.1667 6.98091 19.1667C10.3426 19.1917 13.5734 17.8083 15.9501 15.3333C18.3267 12.8583 19.6517 9.49166 19.6284 5.99166C19.6284 5.79166 19.6234 5.59166 19.6151 5.39166C20.4851 4.73333 21.2367 3.92499 21.8334 2.99166C21.0226 3.36666 20.1617 3.61666 19.2809 3.72499Z" fill="white" fill-opacity="0.8"/>
</svg>
