<svg width="16" height="17" viewBox="0 0 16 17" fill="none" xmlns="http://www.w3.org/2000/svg">
<path fill-rule="evenodd" clip-rule="evenodd" d="M7.99995 12.8018C8.22708 13.3159 8.39653 13.6814 8.5084 13.8983C8.88718 14.6329 9.23936 15.1655 9.51421 15.5036C9.76153 15.8081 10.101 16.2025 10.5238 16.5053C10.6937 16.627 10.9792 16.779 11.38 16.9613H4.59165C4.87028 16.8454 5.07035 16.7515 5.19178 16.6796C5.66014 16.4021 6.03413 16.0518 6.35393 15.6615C6.66648 15.2801 7.05582 14.7107 7.47191 13.9219C7.58871 13.7006 7.76473 13.3272 7.99995 12.8018ZM7.99995 0C8.26771 0.463891 8.53454 0.887076 8.80044 1.26948C9.06635 1.65188 9.47712 2.20296 10.0326 2.92289C10.3469 3.32603 10.6494 3.69317 10.9401 4.0243C11.2309 4.35551 11.6703 4.83335 12.2584 5.45791C12.3498 5.56847 12.5046 5.73323 12.7228 5.9521L12.7705 5.99983C13.014 6.2426 13.3781 6.59509 13.8625 7.05721C14.2695 7.45526 14.5685 7.77991 14.7596 8.0311C14.9013 8.21728 15.2166 8.66244 15.4412 9.11384C15.6711 9.57596 15.8094 10.0444 15.858 10.2321C15.9084 10.4263 15.997 10.9126 16 11.356C16.0023 11.7593 15.922 12.1271 15.9042 12.2077C15.8735 12.346 15.7993 12.675 15.6589 12.9814C15.4771 13.378 15.2107 13.7652 15.0543 13.9493C14.8466 14.1939 14.6117 14.3405 14.5011 14.4038C14.377 14.4748 14.1187 14.6324 13.6343 14.7686C13.5395 14.7953 13.1957 14.8895 12.8378 14.881C12.4905 14.8727 12.1289 14.7623 12.0329 14.7286C11.758 14.6318 11.5237 14.4904 11.3568 14.3822C11.2426 14.308 10.7739 13.9792 10.3942 13.4673C10.0525 13.0069 9.79307 12.3604 9.75452 12.2706C9.66061 12.0517 9.46957 11.5643 9.35539 11.1355C9.31298 10.976 9.23542 10.6729 9.25231 10.4014C9.26996 10.1197 9.38322 9.87178 9.39964 9.84187C9.43649 9.77495 9.51174 9.64666 9.62052 9.5462C9.74496 9.43117 9.90632 9.3456 9.9845 9.31036C10.0821 9.26634 10.2065 9.2217 10.3575 9.17652C10.2694 9.10197 10.1927 9.048 10.1274 9.01454C9.98242 8.94038 9.77518 8.87161 9.62052 8.82951C9.3907 8.76698 8.80006 8.68364 8.30618 8.68326C8.11798 8.6831 7.83373 8.70415 7.59519 8.77346C7.40037 8.83005 7.23692 8.92989 7.17393 8.98448C7.04225 9.0985 6.94365 9.27258 6.8943 9.40581C6.8263 9.58914 6.75183 9.90069 6.67088 10.3404C6.53403 11.0825 6.42386 11.5892 6.34029 11.8603C6.14099 12.5069 5.88688 12.9016 5.78881 13.032C5.65397 13.2112 5.28583 13.6074 4.84152 13.9493C4.4959 14.2152 4.07272 14.4459 3.8809 14.5309C3.65955 14.629 3.18125 14.7942 2.7209 14.7955C2.2695 14.7967 1.83513 14.6359 1.69744 14.5585C1.58318 14.4943 1.43469 14.41 1.25961 14.2501C1.20325 14.1986 0.966331 13.9541 0.751848 13.6557C0.55155 13.377 0.373997 13.0492 0.294124 12.8388C0.221807 12.6485 0.09799 12.34 0.0362355 11.8963C0.0145713 11.7405 0.0024671 11.4688 0 11.0813C0.0568974 10.608 0.120656 10.25 0.191123 10.0073C0.242469 9.83069 0.392885 9.41822 0.579768 9.04677C0.777984 8.65273 1.01552 8.29901 1.15977 8.1129C1.21381 8.0432 1.45644 7.72949 1.76621 7.40785C2.11754 7.04295 2.54265 6.66448 2.64897 6.56017C2.80147 6.41037 2.99598 6.22241 3.2181 5.99983C3.33104 5.88657 3.51824 5.69614 3.77975 5.42854C4.34895 4.80953 4.7706 4.34148 5.0446 4.0243C5.23364 3.8055 5.57803 3.38231 5.91409 2.96291L5.95789 2.90825L5.99566 2.86099C6.36025 2.40488 6.69909 1.97345 6.79855 1.83845C6.89461 1.70816 7.15736 1.34989 7.53798 0.759866C7.63281 0.612842 7.78678 0.359579 7.99995 0ZM8.34727 4.81863C8.26424 5.17944 8.18537 5.44589 8.11066 5.61812C8.03595 5.79035 7.90127 6.01602 7.70667 6.29511C7.76149 6.4631 7.79888 6.59062 7.81877 6.67758C7.83658 6.75553 7.87228 6.94812 7.87081 7.10146C7.86981 7.20493 7.8372 7.29143 7.8261 7.30932C7.81106 7.3336 7.76303 7.36583 7.71731 7.3659C7.67953 7.36598 7.64222 7.33645 7.63597 7.33075C7.59257 7.29135 7.56158 7.25789 7.54292 7.23029C7.52264 7.20022 7.46274 7.1084 7.4107 6.91312C7.39281 6.84589 7.36961 6.71606 7.34108 6.52362C7.05698 6.49772 6.82908 6.46973 6.65754 6.4399C6.486 6.40998 6.21462 6.351 5.84332 6.2628C6.11894 6.47921 6.31022 6.64027 6.41731 6.74597C6.48885 6.81659 6.62416 6.97387 6.73371 7.15427C6.87002 7.37886 6.97942 7.63451 7.0276 7.74645C7.08558 7.88099 7.15273 8.06648 7.22914 8.30302C7.39204 8.25221 7.5329 8.21744 7.65178 8.19863C7.77074 8.17989 7.94228 8.16525 8.16663 8.15484H8.53978C8.72281 8.1637 8.88032 8.17827 9.01208 8.19863C9.14391 8.21898 9.30651 8.25375 9.49987 8.30302C9.57642 8.08907 9.63933 7.92224 9.6886 7.80243C9.7253 7.7133 9.81003 7.48325 9.93284 7.27123C10.0577 7.0559 10.2211 6.85853 10.309 6.76139C10.4253 6.63295 10.6028 6.46672 10.8414 6.2628C10.4657 6.35 10.177 6.41183 9.97525 6.4483C9.77348 6.48469 9.58097 6.50982 9.39771 6.52362C9.37073 6.69979 9.34536 6.83155 9.32154 6.9189C9.29772 7.00617 9.26272 7.09607 9.21654 7.18858C9.18231 7.23893 9.15363 7.27439 9.1305 7.2949C9.11192 7.31147 9.04068 7.37323 8.97962 7.3659C8.92688 7.35958 8.88286 7.28696 8.87338 7.26537C8.86397 7.24394 8.84971 7.1569 8.85218 7.05721C8.85511 6.93979 8.87692 6.80402 8.89412 6.72484C8.91532 6.62724 8.95464 6.48399 9.01208 6.29511C8.84185 6.05032 8.71918 5.84463 8.64417 5.6781C8.56923 5.51157 8.47024 5.22508 8.34727 4.81863Z" fill="url(#paint0_linear_893_2595)"/>
<defs>
<linearGradient id="paint0_linear_893_2595" x1="8" y1="0" x2="8" y2="16.9613" gradientUnits="userSpaceOnUse">
<stop stop-color="#FFC600"/>
<stop offset="1" stop-color="#FF9900"/>
</linearGradient>
</defs>
</svg>
