<svg width="16" height="16" viewBox="0 0 16 16" fill="none" xmlns="http://www.w3.org/2000/svg">
<rect width="16" height="16" fill="#D8D8D8" fill-opacity="0.01"/>
<path fill-rule="evenodd" clip-rule="evenodd" d="M6.00111 2C6.00111 1.44772 6.44883 1 7.00111 1H9.00111C9.5534 1 10.0011 1.44772 10.0011 2V5.08049H10.0005C10.0005 5.08049 9.98945 5.19036 9.96579 5.25335C9.96181 5.26394 9.95647 5.27585 9.95036 5.28835H6.04001C6.0306 5.26716 6.02253 5.24712 6.01681 5.2297C6.00981 5.20838 6.00475 5.18618 6.00111 5.16448V2ZM9.88275 5.40708C9.8993 5.38065 9.92925 5.33138 9.95016 5.28875H6.04019C6.05309 5.31779 6.06851 5.34898 6.08388 5.3786L6.58334 5.87807C7.36439 6.65911 8.63072 6.65911 9.41176 5.87807L9.88275 5.40708ZM14.0102 6.01111C14.5625 6.01111 15.0102 6.45882 15.0102 7.01111V9.01111C15.0102 9.56339 14.5625 10.0111 14.0102 10.0111H10.9297V10.0105C10.9297 10.0105 10.8198 9.99944 10.7568 9.97578C10.7463 9.9718 10.7343 9.96647 10.7218 9.96035V6.05C10.743 6.04059 10.7631 6.03253 10.7805 6.02681C10.8018 6.0198 10.824 6.01474 10.8457 6.01111H14.0102ZM10.6031 9.89274C10.6295 9.90929 10.6788 9.93925 10.7214 9.96015V6.05018C10.6924 6.06309 10.6612 6.0785 10.6316 6.09387L10.1321 6.59333C9.35108 7.37438 9.35108 8.64071 10.1321 9.42176L10.6031 9.89274ZM8.99905 15.0035C9.55133 15.0035 9.99905 14.5558 9.99905 14.0035V10.839C9.99541 10.8173 9.99035 10.7951 9.98335 10.7738C9.97762 10.7564 9.96956 10.7363 9.96015 10.7151H6.0498C6.04368 10.7276 6.03835 10.7395 6.03437 10.7501C6.01071 10.8131 5.99967 10.923 5.99967 10.923H5.99905V14.0035C5.99905 14.5558 6.44676 15.0035 6.99905 15.0035H8.99905ZM6.05 10.7147C6.0709 10.6721 6.10086 10.6228 6.11741 10.5964L6.58839 10.1254C7.36944 9.34436 8.63577 9.34436 9.41682 10.1254L9.91628 10.6249C9.93165 10.6545 9.94706 10.6857 9.95997 10.7147H6.05ZM1.99561 10.037C1.44332 10.037 0.995605 9.58926 0.995605 9.03697V7.03697C0.995605 6.48469 1.44332 6.03697 1.99561 6.03697H5.07609V6.0376C5.07609 6.0376 5.18597 6.04864 5.24895 6.0723C5.25954 6.07628 5.27146 6.08161 5.28396 6.08773V9.99808C5.26276 10.0075 5.24273 10.0156 5.2253 10.0213C5.20398 10.0283 5.18179 10.0333 5.16009 10.037H1.99561ZM5.40269 6.15534C5.37626 6.13879 5.32698 6.10883 5.28436 6.08793V9.9979C5.31339 9.98499 5.34458 9.96958 5.37421 9.95421L5.87367 9.45475C6.65472 8.6737 6.65472 7.40737 5.87367 6.62632L5.40269 6.15534Z" fill="url(#paint0_linear_593_250)"/>
<defs>
<linearGradient id="paint0_linear_593_250" x1="0.995584" y1="1" x2="0.995584" y2="15.0035" gradientUnits="userSpaceOnUse">
<stop stop-color="#28D853"/>
<stop offset="1" stop-color="#1E9B3A"/>
</linearGradient>
</defs>
</svg>
