<svg width="16" height="16" viewBox="0 0 16 16" fill="none" xmlns="http://www.w3.org/2000/svg">
<rect width="16" height="16" fill="#D8D8D8" fill-opacity="0.01"/>
<path fill-rule="evenodd" clip-rule="evenodd" d="M14.9137 5.31751C14.9339 5.35996 14.956 5.41216 14.98 5.473L15.0578 5.68467L15.1472 5.95181C15.2644 6.29849 15.1794 6.70114 14.955 7.05269C14.1545 8.30707 12.9927 9.7575 11.7419 11.1268C10.1991 12.8158 8.66775 14.1106 7.18398 14.9993C6.73712 15.267 6.149 15.2621 5.6983 15.0119L5.58875 14.9442L5.07318 14.5834L4.6465 14.2783C4.47064 14.1516 4.42691 13.9014 4.54944 13.7191C4.65803 13.5572 4.8608 13.5035 5.02801 13.5826L5.08855 13.6182L5.63103 14.0052L6.01591 14.2734C6.23405 14.4221 6.57039 14.4386 6.79623 14.3031C9.21647 12.8532 11.9707 10.087 14.3563 6.61444C14.3909 6.56414 14.4149 6.44712 14.4168 6.35496L14.414 6.29212L14.3995 6.2278L14.2746 5.885C14.2218 5.6627 14.2444 5.5081 14.4077 5.33262C14.6076 5.11768 14.8128 5.10257 14.9142 5.31662L14.9137 5.31751ZM4.62247 10.9006L4.75124 10.984L4.86608 11.068C5.0381 11.2 5.07366 11.4521 4.94584 11.63C4.81803 11.8079 4.57539 11.845 4.40386 11.7129C3.7845 11.2361 3.16033 11.3044 2.42518 11.9406C2.33052 12.0225 2.20559 12.0517 2.08691 12.0225L2.01676 11.998L1.95574 11.9625L0.966405 11.2508C0.79054 11.124 0.746818 10.8739 0.86934 10.6916C0.963034 10.5516 1.12977 10.4907 1.28305 10.5316L1.35079 10.557L1.40846 10.5911L2.14313 11.1513L2.17772 11.1244C3.01282 10.5097 3.84839 10.4317 4.62295 10.9011L4.62247 10.9006ZM9.40771 0.896111L10.2289 1.44908C10.1938 1.48945 10.1611 1.53339 10.1309 1.57972C9.6518 2.30857 9.70369 3.28746 10.5936 3.94363C11.4834 4.5999 12.5766 4.47016 13.1157 3.80812C13.1892 3.71804 13.2454 3.61753 13.2858 3.50976L14.1521 4.09385C14.4111 4.26982 14.4803 4.62525 14.3063 4.88802C14.3025 4.89388 14.2982 4.89975 14.2943 4.90561C12.911 6.82551 11.5401 8.48115 10.1808 9.87154C8.86187 11.2215 7.5852 12.2814 6.35176 13.0521C6.10095 13.2096 5.77999 13.1921 5.54694 13.0082L4.74115 12.3671C4.81083 12.3208 4.87185 12.2701 4.9223 12.2156C5.37444 11.729 5.46814 10.6408 4.5504 9.91588C3.63266 9.19091 2.61546 9.33377 1.96438 9.81497C1.88847 9.87104 1.826 9.93686 1.77651 10.0109L0.976497 9.37563C0.79246 9.22948 0.760752 8.95936 0.905379 8.77265C0.932286 8.73745 0.964954 8.70733 1.00148 8.68248C2.58086 7.60506 3.98919 6.43887 5.22646 5.18349C6.46372 3.92812 7.59864 2.54887 8.63171 1.04534C8.80709 0.789335 9.15256 0.723121 9.40819 0.896111H9.40771ZM8.49188 5.3531L8.44528 5.37796L7.57943 5.98064L6.57375 5.59589C6.5233 5.5765 6.46756 5.5759 6.41663 5.59449C6.31476 5.63148 6.25471 5.73388 6.26624 5.83877L6.27826 5.89087L6.62805 6.88735L5.9986 7.70548C5.96882 7.74395 5.95199 7.79068 5.95055 7.83999C5.94671 7.94975 6.01879 8.0442 6.11872 8.07204L6.1711 8.07979L7.26519 8.11976L7.9052 9.02766C7.93403 9.06902 7.97584 9.09934 8.0234 9.11445C8.12671 9.14706 8.23579 9.10123 8.28816 9.01056L8.3093 8.96184L8.61056 7.9755L9.60711 7.71711C9.65852 7.70398 9.70369 7.67277 9.73492 7.62942C9.79883 7.54064 9.79162 7.42163 9.72387 7.3417L9.68495 7.30571L8.80517 6.65381L8.8042 5.57053C8.8042 5.52371 8.79028 5.47847 8.76432 5.4399C8.70331 5.34923 8.5899 5.31662 8.49332 5.35459L8.49188 5.3531Z" fill="#898FA1"/>
</svg>
