<svg width="16" height="16" viewBox="0 0 16 16" fill="none" xmlns="http://www.w3.org/2000/svg">
<rect width="16" height="16" fill="#D8D8D8" fill-opacity="0.01"/>
<path fill-rule="evenodd" clip-rule="evenodd" d="M9.40748 0.0963068L10.2286 0.64928C10.1936 0.689644 10.1609 0.733588 10.1306 0.779918C9.65157 1.50876 9.70346 2.48765 10.5933 3.14382C11.4832 3.80009 12.5763 3.67035 13.1154 3.00831C13.189 2.91824 13.2452 2.81773 13.2855 2.70995L14.1519 3.29405C14.4108 3.47002 14.48 3.82545 14.3061 4.08821L14.3002 4.09692L14.2941 4.10581C12.9108 6.02571 11.5399 7.68134 10.1806 9.07173C8.86164 10.4217 7.58497 11.4816 6.35153 12.2523C6.10072 12.4098 5.77976 12.3923 5.54671 12.2084L4.74092 11.5673C4.8106 11.521 4.87161 11.4703 4.92207 11.4158C5.37421 10.9292 5.46791 9.84104 4.55017 9.11607C3.63243 8.3911 2.61523 8.53397 1.96415 9.01516C1.88824 9.07123 1.82577 9.13705 1.77628 9.21112L0.976266 8.57583C0.792229 8.42968 0.760521 8.15955 0.905148 7.97284C0.932055 7.93765 0.964723 7.90753 1.00125 7.88267C2.58063 6.80526 3.98896 5.63906 5.22622 4.38369C6.46349 3.12831 7.59841 1.74906 8.63148 0.245536C8.80686 -0.0104701 9.15233 -0.0766838 9.40796 0.0963068H9.40748ZM6.50831 4.37305C6.16313 4.37305 5.88331 4.65287 5.88331 4.99805V7.24149L5.8833 7.24805C5.8833 8.42165 6.83469 9.37305 8.00829 9.37305C9.18191 9.37305 10.1333 8.42165 10.1333 7.24805C10.1333 6.07445 9.18191 5.12305 8.00829 5.12305C7.69637 5.12305 7.40015 5.19026 7.13331 5.31099V4.99805C7.13331 4.65287 6.85349 4.37305 6.50831 4.37305ZM7.1333 7.25078L7.13331 7.24805V7.24383C7.13558 6.76252 7.52645 6.37306 8.00829 6.37306C8.49155 6.37306 8.88329 6.7648 8.88329 7.24805C8.88329 7.7313 8.49155 8.12304 8.00829 8.12304C7.52595 8.12304 7.13477 7.73276 7.1333 7.25078ZM7.45345 5.90869C7.47985 5.97247 7.44918 6.04507 7.38819 6.07741C7.27461 6.13762 7.16782 6.21562 7.07184 6.31161C6.97586 6.40758 6.89786 6.51437 6.83764 6.62795C6.8053 6.68894 6.73271 6.71961 6.66892 6.69322L6.49876 6.62282C6.43497 6.59642 6.40425 6.52306 6.43514 6.46132C6.51766 6.29637 6.62764 6.14182 6.76485 6.00462C6.90206 5.86739 7.05661 5.75742 7.22157 5.6749C7.28331 5.64401 7.35666 5.67474 7.38305 5.73853L7.45345 5.90869ZM8.94467 6.31161C8.84869 6.21563 8.74191 6.13762 8.62833 6.07741C8.56734 6.04507 8.53667 5.97247 8.56305 5.90869L8.63346 5.73853C8.65986 5.67474 8.7332 5.64401 8.79495 5.6749C8.9599 5.75742 9.11446 5.86739 9.25166 6.00462C9.38887 6.14182 9.49886 6.29637 9.58137 6.46132C9.61226 6.52306 9.58153 6.59642 9.51775 6.62282L9.34759 6.69322C9.28379 6.71961 9.21121 6.68894 9.17887 6.62795C9.11866 6.51437 9.04064 6.40758 8.94467 6.31161ZM6.66892 7.80283C6.73271 7.77643 6.8053 7.80709 6.83764 7.86809C6.89786 7.98167 6.97586 8.08847 7.07184 8.18444C7.16782 8.28042 7.27461 8.35841 7.38819 8.41864C7.44918 8.45098 7.47985 8.52356 7.45345 8.58734L7.38305 8.7575C7.35666 8.8213 7.28331 8.85202 7.22157 8.82114C7.05661 8.73862 6.90206 8.62864 6.76485 8.49142C6.62764 8.35421 6.51766 8.19966 6.43514 8.03471C6.40425 7.97297 6.43497 7.89961 6.49876 7.87323L6.66892 7.80283ZM8.94467 8.18444C9.04064 8.08847 9.11866 7.98167 9.17887 7.86809C9.21121 7.80709 9.28379 7.77643 9.34759 7.80283L9.51775 7.87323C9.58153 7.89961 9.61226 7.97297 9.58137 8.03471C9.49886 8.19966 9.38887 8.35421 9.25166 8.49142C9.11446 8.62864 8.9599 8.73862 8.79495 8.82114C8.7332 8.85202 8.65986 8.8213 8.63346 8.7575L8.56305 8.58734C8.53667 8.52356 8.56734 8.45098 8.62833 8.41864C8.74191 8.35841 8.84869 8.28042 8.94467 8.18444ZM8.47018 7.01553C8.53659 7.08183 8.5741 7.17169 8.57454 7.26552V7.26616C8.57472 7.31328 8.56552 7.35997 8.54749 7.40351C8.52945 7.44704 8.50295 7.48657 8.46951 7.51977C8.43607 7.55296 8.39637 7.5792 8.3527 7.59692C8.30904 7.61466 8.26229 7.62353 8.21517 7.62303C8.23081 7.67698 8.25694 7.72731 8.29205 7.77115C8.2995 7.78034 8.30419 7.79145 8.30558 7.8032C8.30696 7.81495 8.305 7.82684 8.29989 7.83752C8.29479 7.84818 8.28676 7.85718 8.27673 7.86346C8.26672 7.86976 8.25512 7.87307 8.24331 7.87304H7.77329C7.76132 7.87344 7.74946 7.87039 7.73917 7.86424C7.72887 7.85809 7.72054 7.84912 7.71521 7.83838C7.70988 7.82764 7.70774 7.8156 7.70907 7.80367C7.71039 7.79176 7.71511 7.78047 7.72267 7.77115C7.75773 7.72728 7.78384 7.67695 7.79955 7.62303C7.7523 7.62321 7.70547 7.61397 7.66182 7.59587C7.61816 7.57776 7.57855 7.55115 7.54527 7.51759C7.51199 7.48404 7.48574 7.44419 7.46802 7.40038C7.4503 7.35657 7.44148 7.30966 7.44204 7.26241C7.4425 7.16856 7.48001 7.0787 7.54643 7.0124L7.88331 6.67366C7.91647 6.64054 7.96142 6.62193 8.00829 6.62193C8.05517 6.62193 8.10013 6.64054 8.1333 6.67366L8.47018 7.01553ZM14.9138 4.51726C14.9339 4.55971 14.956 4.61191 14.9801 4.67275L15.0579 4.88442L15.1473 5.15156C15.2645 5.49823 15.1795 5.90088 14.9551 6.25243C14.1546 7.50681 12.9927 8.95725 11.742 10.3266C10.1991 12.0155 8.66783 13.3103 7.18406 14.1991C6.7372 14.4667 6.14908 14.4618 5.69837 14.2117L5.58883 14.144L5.07325 13.7832L4.64658 13.4781C4.47072 13.3513 4.42699 13.1012 4.54952 12.9188C4.65811 12.757 4.86088 12.7033 5.02808 12.7823L5.08863 12.8179L5.63111 13.205L6.01599 13.4732C6.23413 13.6218 6.57047 13.6383 6.79631 13.5028C9.21655 12.053 11.9707 9.28673 14.3564 5.81419C14.391 5.76388 14.415 5.64687 14.4169 5.5547L14.414 5.49187L14.3996 5.42755L14.2747 5.08475C14.2218 4.86244 14.2444 4.70785 14.4078 4.53237C14.6077 4.31742 14.8128 4.30231 14.9142 4.51636L14.9138 4.51726ZM4.62247 10.1013L4.75124 10.1847L4.86608 10.2686C5.0381 10.4006 5.07366 10.6528 4.94584 10.8306C4.81803 11.0086 4.57539 11.0457 4.40386 10.9135C3.7845 10.4367 3.16033 10.505 2.42518 11.1412C2.33052 11.2231 2.20559 11.2524 2.08691 11.2231L2.01676 11.1987L1.95574 11.1632L0.966405 10.4514C0.79054 10.3247 0.746818 10.0745 0.86934 9.89219C0.963034 9.75221 1.12977 9.69137 1.28305 9.73223L1.35079 9.75768L1.40846 9.79178L2.14313 10.3519L2.17772 10.3251C3.01282 9.71036 3.84839 9.63231 4.62295 10.1018L4.62247 10.1013Z" fill="url(#paint0_linear_626_54)"/>
<defs>
<linearGradient id="paint0_linear_626_54" x1="0.873332" y1="0" x2="0.873332" y2="14.2525" gradientUnits="userSpaceOnUse">
<stop stop-color="#75F65F"/>
<stop offset="1" stop-color="#39E33A"/>
</linearGradient>
</defs>
</svg>
