<svg width="16" height="16" viewBox="0 0 16 16" fill="none" xmlns="http://www.w3.org/2000/svg">
<rect width="16" height="16" fill="#D8D8D8" fill-opacity="0.01"/>
<path fill-rule="evenodd" clip-rule="evenodd" d="M10.6483 6.59385C10.8151 6.89336 10.9314 7.11121 10.996 7.24749C11.2385 7.75522 11.3911 8.17594 11.5062 8.50273C11.6206 8.82784 11.8255 9.52383 11.9852 10.2337L11.9975 10.289C11.9994 10.2983 12.0013 10.3075 12.0032 10.3167L12.0155 10.3721C12.0194 10.3905 12.0233 10.4089 12.0272 10.4274C12.181 11.1534 12.2696 11.8617 12.2968 12.1171C12.3336 12.469 12.3653 12.961 12.3905 13.5933C12.1345 13.789 11.9128 13.9432 11.7266 14.0557C11.5799 14.1441 11.1984 14.3687 10.7633 14.5537C10.369 14.7217 9.92423 14.8525 9.687 14.9081C9.44781 14.964 9.05736 15.0475 8.49945 15.0928C8.35401 15.1047 8.10835 15.1107 7.76314 15.1109C7.99975 14.5176 8.16847 14.069 8.27061 13.7654L8.27449 13.7539C8.30293 13.6666 8.36047 13.4825 8.44128 13.2007L8.45226 13.1624C8.54601 12.8324 8.67077 12.3762 8.81881 11.7922C8.96297 11.2258 9.23448 10.107 9.63335 8.43576C9.82085 7.85594 9.97276 7.45979 10.0897 7.24749C10.1667 7.10773 10.2817 6.92154 10.4188 6.77699C10.466 6.72689 10.5423 6.66587 10.6483 6.59385ZM9.29525 4.86088C9.55901 5.12017 9.74454 5.31269 9.85249 5.4383C9.96049 5.56397 10.0975 5.74795 10.2643 5.99038C9.98823 6.22427 9.78849 6.42545 9.66373 6.59385C9.58098 6.70601 9.39804 7.0189 9.24935 7.38428C9.06382 7.84192 8.91061 8.37984 8.82915 8.68452C8.73089 9.04977 8.60095 9.61685 8.43869 10.3857C8.15361 11.5934 7.92864 12.4673 7.76314 13.0074C7.59829 13.5476 7.3494 14.2248 7.01713 15.039C6.48573 14.9487 6.07976 14.8568 5.80049 14.7633C5.60655 14.6984 5.16566 14.54 4.72154 14.3046C4.20761 14.0323 3.68721 13.6748 3.50168 13.5259C3.27153 13.3409 3.01618 13.0899 2.73691 12.7728C2.84099 12.2751 2.93796 11.9028 3.02782 11.656C3.09053 11.4853 3.19202 11.2596 3.33166 10.9792L3.35557 10.932C3.41182 10.8205 3.47387 10.7008 3.54176 10.5728C3.88632 10.0279 4.16946 9.61355 4.38991 9.32982C4.6097 9.04615 4.93746 8.67463 5.37253 8.21525C5.7798 7.78102 6.14182 7.4192 6.45793 7.12977C6.7747 6.84035 7.25632 6.43133 7.90278 5.90258C8.16653 5.7007 8.3831 5.53649 8.55182 5.40998C8.7212 5.28353 8.96879 5.10045 9.29525 4.86088ZM12.2793 6.08793C12.4629 6.09679 12.5909 6.11023 12.664 6.12827C12.94 6.1966 13.1301 6.31749 13.2988 6.43017C13.4403 6.52481 13.7616 6.76672 14.1735 7.19112C14.3363 7.35868 14.6072 7.66375 14.9867 8.10632C15.0035 8.12597 15.0927 8.20297 15.1063 8.38256C15.1289 8.67579 15.0642 9.15353 15.0009 9.43992C14.9492 9.67238 14.7934 10.2667 14.5639 10.7977C14.3505 11.2896 14.0726 11.726 13.9329 11.9363L13.9193 11.9559C13.9155 11.9622 13.9116 11.9683 13.9071 11.9741C13.7338 12.2319 13.4584 12.564 13.0809 12.9705C13.0272 12.3561 12.9762 11.8561 12.929 11.4702L12.9225 11.4216C12.9122 11.3416 12.9025 11.2667 12.8928 11.197L12.887 11.1572C12.8805 11.1113 12.8734 11.0679 12.867 11.0269C12.8475 10.9039 12.8133 10.7156 12.7687 10.4919L12.7603 10.448C12.7021 10.1609 12.6278 9.82049 12.545 9.48569L12.532 9.43423L12.5192 9.38289C12.5107 9.34876 12.5016 9.31476 12.4933 9.28089C12.3272 8.64392 12.1332 8.07929 12.0285 7.81768C11.8856 7.45792 11.6368 6.93752 11.2838 6.2564C11.5275 6.19046 11.7065 6.14779 11.8216 6.12827C11.9373 6.10874 12.0899 6.09529 12.2793 6.08793ZM7.88015 3.64474C8.04305 3.76279 8.18205 3.86952 8.29777 3.965C8.41348 4.06055 8.57315 4.20025 8.77679 4.3841C8.03853 4.91253 7.48775 5.3249 7.12379 5.62137C6.75984 5.91778 6.22521 6.38944 5.52057 7.03636C4.89738 7.67481 4.4384 8.16806 4.1449 8.51599C3.918 8.78491 3.52753 9.30144 3.19913 9.81205C2.89077 10.2925 2.63994 10.7696 2.55137 10.9667C2.43049 11.2376 2.30443 11.6029 2.17385 12.0624C1.93983 11.7215 1.76981 11.4472 1.66379 11.2393C1.58298 11.0805 1.39098 10.6595 1.24424 10.2348C1.10395 9.82654 1.00892 9.41425 0.977893 9.24907C0.948803 9.09211 0.888036 8.56434 0.888677 8.03805V8.01724V7.97561L0.889328 7.93404C0.895793 7.44932 0.940399 6.97947 0.966257 6.7684L0.968843 6.75094C0.972075 6.72295 0.975308 6.70033 0.977893 6.68391C1.00634 6.50516 1.04836 6.33501 1.10331 6.17345C1.12593 6.11864 1.14727 6.07972 1.1686 6.05664C1.18153 6.04223 1.27397 5.96827 1.4065 5.90556C1.59268 5.81752 1.8532 5.72966 2.02969 5.66792C2.17126 5.61841 2.45247 5.52356 2.75242 5.4465C3.09376 5.35885 3.45901 5.28974 3.6439 5.25586C3.79452 5.22819 4.14103 5.16018 4.50951 5.08449L4.55217 5.07576C4.55929 5.07427 4.5664 5.07279 4.57351 5.07137L4.62457 5.06076L4.66724 5.05184C4.68211 5.04887 4.69633 5.04589 4.71056 5.04292L4.75322 5.03393C5.15273 4.95028 5.5335 4.86611 5.67637 4.8226C5.81018 4.78181 6.09785 4.68601 6.36485 4.56401C6.70359 4.40906 7.02811 4.21938 7.17357 4.13005C7.34617 4.02357 7.58213 3.86177 7.88015 3.64474ZM13.3033 3.27096C13.5238 3.50472 13.6931 3.70461 13.8114 3.87056C13.9 3.99384 14.1638 4.39904 14.3809 4.83075C14.6027 5.2708 14.7779 5.73832 14.8464 5.95838C14.9362 6.24897 15.0093 6.63761 15.0656 7.12421C14.5504 6.5455 14.1256 6.14372 13.7913 5.91888C13.5677 5.76838 13.3408 5.62545 13.0156 5.5107C12.9361 5.48277 12.6827 5.38722 12.3744 5.37521C12.0563 5.36292 11.6826 5.43494 11.5546 5.4637C11.3859 5.50165 11.1687 5.57031 10.9024 5.66973C10.7459 5.44644 10.6102 5.26465 10.4944 5.12431C10.3793 4.98396 10.1919 4.77211 9.93267 4.48871C10.4182 4.17737 10.7673 3.97128 10.9806 3.87056C11.6639 3.54758 12.1694 3.43858 12.3317 3.40265C12.5366 3.35733 12.8605 3.31343 13.3033 3.27096ZM4.6194 1.74666C5.05124 1.93045 5.44558 2.12122 5.80178 2.31897C6.15798 2.51673 6.65187 2.81863 7.28346 3.22473C6.78311 3.55702 6.36161 3.79673 6.01769 3.94386C5.83734 4.02112 5.54966 4.14543 5.12041 4.24919C4.32397 4.44184 3.23469 4.62408 2.80091 4.72906C2.35615 4.83682 1.92043 4.96282 1.49441 5.10712C1.68189 4.70721 1.84609 4.39872 1.98767 4.18169C2.12859 3.96474 2.36391 3.65942 2.69296 3.26572C3.06855 2.86698 3.36721 2.58027 3.58895 2.40561C3.81003 2.23093 4.15395 2.01126 4.6194 1.74666ZM9.40903 1.01447C9.70381 1.07931 9.93134 1.13808 10.0929 1.19064C10.0968 1.19206 10.102 1.19361 10.1065 1.19523L10.1227 1.20046C10.2546 1.24449 10.5436 1.34663 10.8228 1.46887C11.1661 1.61905 11.5048 1.79889 11.7104 1.9265C11.9684 2.08657 12.2916 2.32383 12.6808 2.63833C12.2328 2.72114 11.9153 2.78818 11.7285 2.83951C11.3186 2.95225 10.9644 3.10592 10.8377 3.16294C10.5035 3.31356 10.1802 3.49561 10.0289 3.58145C9.83178 3.69329 9.61525 3.82673 9.37928 3.98169C9.19634 3.816 9.05347 3.68948 8.95004 3.60208C8.84661 3.51474 8.68112 3.38092 8.4542 3.20063C8.54794 3.11141 8.63263 3.02931 8.70761 2.95432L8.73736 2.92465C8.92741 2.73452 9.05671 2.59236 9.12523 2.49805C9.32757 2.22013 9.35601 1.98643 9.37928 1.87208C9.41873 1.67413 9.42842 1.38826 9.40903 1.01447ZM8.57186 0.888672C8.59578 0.888801 8.61388 0.889448 8.62487 0.890611C8.6656 0.894878 8.67723 0.906773 8.68305 0.914595L8.68564 0.917504L8.68628 0.918668C8.69145 0.924486 8.70245 0.942652 8.70633 0.981763C8.70956 1.01008 8.71085 1.07369 8.7115 1.17253V1.61032C8.70309 1.7111 8.68952 1.78842 8.67142 1.84221C8.65331 1.89593 8.61712 1.96472 8.5641 2.04849C8.48394 2.15904 8.39861 2.26092 8.30746 2.35395C8.21566 2.44704 8.06827 2.58254 7.86399 2.76045C7.34682 2.41051 6.93049 2.14288 6.61568 1.95753C6.30085 1.77226 5.92266 1.57198 5.48113 1.35684C5.80242 1.22335 6.10368 1.12502 6.38424 1.06173C6.5743 1.01893 6.93567 0.949181 7.3591 0.912139C7.49486 0.900308 7.70625 0.893132 7.99393 0.890611H8.4542C8.49429 0.889448 8.5279 0.888801 8.55505 0.888672H8.57186Z" fill="url(#paint0_linear_593_414)"/>
<defs>
<linearGradient id="paint0_linear_593_414" x1="0.888672" y1="0.888672" x2="0.888672" y2="15.1109" gradientUnits="userSpaceOnUse">
<stop stop-color="#3CD3E6"/>
<stop offset="1" stop-color="#1287F8"/>
</linearGradient>
</defs>
</svg>
