<svg width="16" height="16" viewBox="0 0 16 16" fill="none" xmlns="http://www.w3.org/2000/svg">
<path fill-rule="evenodd" clip-rule="evenodd" d="M4.30702 7.28676C4.65409 8.08026 4.9398 8.77532 5.16395 9.37098L5.1979 9.46193L5.19816 9.94876C5.19376 10.1353 5.20038 10.273 5.23055 10.403C5.2864 10.6439 5.39336 10.824 5.52957 10.9803C5.65077 11.1194 5.86411 11.2798 6.08516 11.3948C6.30848 11.511 6.59303 11.6145 6.8064 11.6671C7.05083 11.7274 7.52757 11.7879 7.92192 11.7923C8.28654 11.7963 8.67569 11.7538 8.95217 11.7006C9.17654 11.6574 9.511 11.5524 9.75413 11.4381C10.0062 11.3196 10.2239 11.1627 10.3621 11.0188C10.5364 10.8372 10.6398 10.611 10.689 10.3549L10.703 10.2824L10.7022 9.70996L10.9737 9.00278C11.1915 8.44769 11.4185 7.89545 11.6545 7.34605L11.6704 7.30982C13.7835 7.9661 15.1998 9.17178 15.1998 10.5505C15.1998 12.6305 11.9763 14.3166 7.9998 14.3166C4.02335 14.3166 0.799805 12.6305 0.799805 10.5505C0.799805 9.17421 2.21112 7.97036 4.31804 7.3133L4.30702 7.28676ZM9.36853 12.1604C8.76491 12.2506 8.30687 12.2957 7.9944 12.2957C7.68193 12.2957 7.23372 12.2506 6.64978 12.1604L5.23107 13.3843C5.74976 13.4815 6.15559 13.5467 6.44856 13.5799C6.661 13.604 7.32661 13.6608 7.9998 13.6613C8.71915 13.6618 9.44758 13.6044 9.65456 13.5799C9.92167 13.5484 10.2894 13.4832 10.7577 13.3843L9.36853 12.1604ZM2.10911 8.9343C1.91738 9.13233 1.78633 9.29136 1.71598 9.41141C1.66953 9.49067 1.5164 9.71158 1.48691 10.0577C1.47964 10.143 1.48643 10.3617 1.53492 10.5544C1.58777 10.7644 1.68537 10.9492 1.7468 11.0429C1.82534 11.1627 1.94611 11.3225 2.10911 11.5225L4.77095 10.8542C4.67241 10.7451 4.60657 10.6554 4.57343 10.5852C4.54743 10.5302 4.49376 10.3789 4.4904 10.2284C4.48734 10.0912 4.53217 9.95428 4.55717 9.90021C4.59211 9.82464 4.65603 9.72455 4.74893 9.59993L2.10911 8.9343ZM13.894 8.9343L11.2542 9.59993C11.3471 9.72455 11.411 9.82464 11.4459 9.90021C11.4709 9.95428 11.5158 10.0912 11.5127 10.2284C11.5093 10.3789 11.4557 10.5302 11.4297 10.5852C11.3965 10.6554 11.3307 10.7451 11.2321 10.8542L13.894 11.5225C14.057 11.3225 14.1777 11.1627 14.2563 11.0429C14.3177 10.9492 14.4153 10.7644 14.4682 10.5544C14.5167 10.3617 14.5234 10.143 14.5162 10.0577C14.4867 9.71158 14.3336 9.49067 14.2871 9.41141C14.2168 9.29136 14.0857 9.13233 13.894 8.9343ZM3.58267 1.6836C3.69165 1.68431 3.78965 1.70594 3.80736 1.71212C3.89495 1.74265 3.94353 1.7855 3.99583 1.82448C4.0669 1.87745 4.12815 1.95519 4.1796 2.0577L6.55853 7.19127H9.42432L11.7861 2.12363C11.8748 1.96456 11.9506 1.86086 12.0133 1.81253C12.0405 1.79158 12.108 1.73982 12.1975 1.71212C12.2639 1.69154 12.3456 1.69145 12.4151 1.68895C12.5757 1.68317 12.7079 1.75228 12.7471 1.77672C12.7997 1.80954 12.8686 1.86956 12.9537 1.95676C13.0069 2.03758 13.0417 2.1024 13.0579 2.15123C13.0701 2.1879 13.0818 2.26531 13.0811 2.34079C13.0805 2.4161 13.0676 2.48947 13.0579 2.51863C13.0456 2.5558 12.4959 3.72494 11.9394 4.93291L11.7806 5.27815C11.5173 5.85218 11.2639 6.41139 11.0777 6.83777C10.668 7.7758 10.2847 8.7221 9.92759 9.67666V10.3192C9.9046 10.4387 9.86298 10.5299 9.80274 10.5926C9.7584 10.6388 9.62627 10.7522 9.42432 10.8471C9.21474 10.9456 8.93369 11.0253 8.80554 11.0499C8.68366 11.0734 8.3114 11.132 7.93054 11.1277C7.5251 11.1232 7.11036 11.0543 6.99218 11.0251C6.869 10.9947 6.63339 10.9168 6.4431 10.8178C6.27935 10.7326 6.1532 10.6265 6.11415 10.5817C6.07925 10.5417 6.0136 10.4581 5.98589 10.3386C5.97456 10.2898 5.97038 10.2029 5.97333 10.0778V9.43413C5.72359 8.75129 5.39022 7.93524 4.97322 6.98597C4.55622 6.03671 3.89736 4.59403 2.99663 2.65794C2.96262 2.58055 2.94046 2.5202 2.93014 2.47689C2.91982 2.43359 2.91536 2.38213 2.91674 2.32254C2.91865 2.24666 2.92311 2.19381 2.93014 2.16397C2.95065 2.07688 2.98975 2.01924 3.01385 1.98184C3.05033 1.9252 3.1065 1.86877 3.18236 1.81253C3.26444 1.76278 3.32744 1.72931 3.37136 1.71212C3.40015 1.70085 3.49812 1.6831 3.58267 1.6836ZM7.9998 3.01818C9.0398 3.01818 9.88288 3.86127 9.88288 4.90126C9.88288 5.94126 9.0398 6.78434 7.9998 6.78434C6.95981 6.78434 6.11673 5.94126 6.11673 4.90126C6.11673 3.86127 6.95981 3.01818 7.9998 3.01818Z" fill="url(#paint0_linear_593_317)"/>
<defs>
<linearGradient id="paint0_linear_593_317" x1="0.799805" y1="1.68359" x2="0.799805" y2="14.3166" gradientUnits="userSpaceOnUse">
<stop stop-color="#3CD3E6"/>
<stop offset="1" stop-color="#1287F8"/>
</linearGradient>
</defs>
</svg>
