<svg width="16" height="16" viewBox="0 0 16 16" fill="none" xmlns="http://www.w3.org/2000/svg">
<rect width="16" height="16" fill="#D8D8D8" fill-opacity="0.01"/>
<path fill-rule="evenodd" clip-rule="evenodd" d="M11.7537 8.86774C11.768 8.86685 11.7834 8.87552 11.7983 8.87935C11.7928 8.89284 11.7884 8.90731 11.7809 8.91981L11.6957 9.05644C11.6818 9.07967 11.6689 9.1028 11.6575 9.12692C11.6134 9.21866 11.6565 9.30263 11.7576 9.3229C11.9168 9.3548 12.0764 9.38384 12.2366 9.40549C12.2901 9.41268 12.3506 9.40549 12.3997 9.3862C12.5588 9.32438 12.6689 9.20567 12.7586 9.06618C12.8012 8.99954 12.8206 8.99324 12.8944 9.02553C13.1245 9.12554 13.3183 9.2727 13.4725 9.47164C13.4889 9.4928 13.5107 9.50974 13.5295 9.52913L14.0867 10.2758C14.1006 10.3014 14.1135 10.3274 14.1284 10.3525C14.1963 10.4646 14.1923 10.5828 14.179 10.7021C14.179 10.704 14.173 10.7048 14.1641 10.7083C14.1502 10.6918 14.1348 10.6745 14.121 10.6561C14 10.495 13.879 10.3342 13.76 10.1715C13.7308 10.1315 13.703 10.1193 13.6594 10.1435C13.6306 10.1594 13.5969 10.1676 13.5652 10.1787C13.4884 10.2058 13.408 10.2261 13.3357 10.2608C13.1959 10.3279 13.1086 10.4375 13.0858 10.5968C13.068 10.7199 13.0451 10.8415 13.0199 10.9631C12.9941 11.0868 13.0551 11.1741 13.1755 11.1794C13.1864 11.1799 13.1978 11.1804 13.2078 11.1779C13.2891 11.1581 13.3689 11.134 13.4512 11.1191C13.4993 11.1104 13.5518 11.1074 13.5994 11.1181C13.6217 11.1229 13.6376 11.1659 13.6564 11.1919L13.6629 11.2007C13.7571 11.3242 13.8493 11.4487 13.9464 11.5699C13.9886 11.6225 13.9911 11.6703 13.9658 11.7248C13.937 11.7866 13.9098 11.8494 13.883 11.9126C13.7883 12.1351 13.6708 12.3441 13.5374 12.5444C13.3015 12.8988 13.0218 13.2149 12.713 13.507C12.6599 13.5571 12.651 13.5571 12.6059 13.4959C12.4324 13.2593 12.2603 13.0218 12.0854 12.7863C12.0695 12.765 12.0397 12.7491 12.0135 12.7404C11.9009 12.7033 11.8067 12.7482 11.7219 12.806C11.5083 12.9518 11.2981 13.1015 11.0884 13.253C11.0452 13.2844 11.0041 13.3235 10.9753 13.3679C10.9406 13.4224 10.9153 13.4896 10.951 13.5557C10.9877 13.6233 11.0348 13.6861 11.0814 13.7474C11.2242 13.9361 11.3685 14.1234 11.5122 14.3106C11.5326 14.3372 11.5306 14.3555 11.5008 14.3706C11.4299 14.4057 11.36 14.4429 11.2891 14.4786C11.0418 14.6041 10.783 14.7059 10.5172 14.7905C10.136 14.9121 9.74136 14.9787 9.33633 15C9.30906 15.0015 9.27287 14.9884 9.25304 14.9701C9.21288 14.9328 9.17918 14.8884 9.14695 14.8445C9.06216 14.7282 8.97789 14.6118 8.89758 14.4926C8.88518 14.4742 8.8832 14.4395 8.89163 14.4197C8.89461 14.4125 8.90501 14.4057 8.91642 14.4009L8.9422 14.3618L8.97244 14.3088C8.97244 14.3083 8.97293 14.3078 8.97293 14.3073L8.97343 14.2985C8.9764 14.2908 8.97838 14.2846 8.98384 14.2787L8.98731 14.2754C8.99028 14.2672 8.99426 14.26 9.0002 14.2546L9.00614 14.2518L9.02053 14.2175L9.02846 14.2064L9.0354 14.1823C9.03638 14.1798 9.03738 14.1774 9.03937 14.1755L9.0468 14.1562C9.04829 14.1528 9.05027 14.1505 9.05226 14.1484C9.05325 14.1417 9.0582 14.1296 9.06564 14.1152C9.09439 14.0591 9.082 14.0041 9.06911 13.9477C9.06663 13.9361 9.05424 13.9211 9.04283 13.9168C8.98136 13.8917 8.9184 13.8772 8.85444 13.8676L8.75777 13.8555C8.69332 13.8483 8.62887 13.8385 8.56491 13.8294C8.50939 13.8217 8.45287 13.8029 8.39933 13.8067C8.24813 13.8179 8.13112 13.8945 8.03693 14.0036C7.98438 14.0645 7.94026 14.1326 7.89068 14.1958C7.83614 14.2649 7.83466 14.2644 7.88969 14.3377C8.01115 14.5004 8.1331 14.663 8.25457 14.8261C8.26597 14.8412 8.27291 14.859 8.28183 14.8759L8.27291 14.888C8.24961 14.8808 8.2268 14.8721 8.2035 14.8662C8.1341 14.8494 8.06419 14.8339 7.99429 14.818L7.2447 13.8135C7.20553 13.7256 7.17082 13.6359 7.1267 13.5504C7.06027 13.4216 7.03698 13.2858 7.02259 13.1478C7.01764 13.1029 7.04292 13.0871 7.08209 13.0755C7.17232 13.0489 7.26899 13.031 7.34781 12.9857C7.48316 12.907 7.61205 12.8143 7.61999 12.6323C7.62049 12.6222 7.62842 12.613 7.6299 12.6024C7.65568 12.4541 7.69287 12.307 7.677 12.1529C7.67452 12.1264 7.64973 12.0936 7.62595 12.0772C7.55504 12.029 7.48019 12.0429 7.40731 12.0651C7.3503 12.0824 7.29279 12.0985 7.23577 12.1149L7.22238 12.1004C7.23379 12.0743 7.24519 12.0483 7.25709 12.0227C7.31113 11.9068 7.36121 11.7891 7.42069 11.6761C7.46978 11.5834 7.52778 11.4956 7.58578 11.4083C7.66362 11.2904 7.74244 11.1727 7.82624 11.0592C7.87978 10.9863 7.94026 10.9173 8.00273 10.8512C8.14898 10.6957 8.29523 10.5403 8.44692 10.3897C8.52278 10.3144 8.52426 10.3221 8.60013 10.4061C8.63383 10.4433 8.6839 10.4852 8.72852 10.4896C8.83759 10.5002 8.93576 10.4606 9.02301 10.3979C9.13406 10.3178 9.24957 10.243 9.35864 10.1594C9.47464 10.0706 9.61296 10.0064 9.69675 9.87907C9.74236 9.80947 9.78153 9.73948 9.72897 9.65217C9.71311 9.62559 9.69427 9.60049 9.67543 9.57588C9.65263 9.54645 9.65213 9.52371 9.68584 9.50639C9.72054 9.48897 9.75475 9.47066 9.78896 9.45225C10.1791 9.24672 10.5886 9.08548 11.0229 8.98074C11.2624 8.92276 11.5073 8.88999 11.7547 8.87069L11.7537 8.86774ZM10.483 9.864C9.85193 10.088 9.30956 10.4443 8.84651 10.9134C8.56889 11.1949 8.33588 11.5096 8.18169 11.8783C8.0751 12.1331 8.00917 12.3977 8.04833 12.684C8.07659 12.8873 8.15789 13.0678 8.30961 13.2169C8.48014 13.3848 8.68936 13.4708 8.91691 13.5113C9.29766 13.5794 9.66453 13.5282 10.0215 13.4229C10.4652 13.2917 10.8712 13.088 11.2465 12.8258C11.3764 12.7211 11.5108 12.6222 11.6347 12.5111C11.9272 12.2491 12.1835 11.9546 12.3774 11.6104C12.5315 11.3367 12.6441 11.0466 12.649 10.7213C12.6545 10.3337 12.4978 10.0291 12.1359 9.83654C11.9718 9.74923 11.7948 9.70956 11.6139 9.6942C11.2188 9.66083 10.8449 9.73515 10.4835 9.86361L10.483 9.864ZM11.6659 9.97937C11.8836 10.0257 12.0759 10.1193 12.2128 10.3077C12.3446 10.4887 12.3749 10.689 12.3541 10.897C12.3273 11.1688 12.2217 11.4101 12.0819 11.6365C11.835 12.0367 11.5043 12.3572 11.0903 12.6517C10.7037 12.92 10.25 13.1406 9.73393 13.2304C9.50986 13.2695 9.28328 13.2772 9.05424 13.2279C8.58425 13.1271 8.32596 12.78 8.37355 12.3137C8.40131 12.042 8.50592 11.8006 8.64473 11.5742C8.8599 11.2228 9.14199 10.9312 9.46771 10.6817C9.88365 10.3632 10.3417 10.1213 10.8653 10.003C11.1275 9.94413 11.3938 9.921 11.6659 9.97937Z" fill="#898FA1"/>
<path fill-rule="evenodd" clip-rule="evenodd" d="M7.7111 1.04311L14.1848 2.85038C14.7822 3.01694 15.1272 3.6236 14.9562 4.20525L13.629 8.71271C12.5448 7.90131 10.5132 8.09296 8.73287 9.26208C6.73445 10.5745 5.79001 12.6342 6.57035 13.9244L6.58522 13.9476L4.11383 13.2578C3.51643 13.0913 3.17139 12.4846 3.34243 11.9029L6.31949 1.79378C6.49053 1.21202 7.11371 0.876162 7.7111 1.04262V1.04311ZM5.51487 1.63106L2.92945 11.0282C2.92499 11.0451 2.92053 11.0615 2.91706 11.0784C2.8769 11.0036 2.84468 10.9221 2.82286 10.8357L1.03365 3.84754C0.883431 3.26066 1.2503 2.66641 1.85314 2.51974L5.51586 1.63106H5.51487ZM2.93243 3.31854C2.74354 3.32484 2.57499 3.36973 2.42675 3.45281C2.27851 3.53579 2.16449 3.64771 2.08319 3.78818C2.00187 3.92865 1.9647 4.08555 1.97065 4.25791C1.9761 4.40891 2.01476 4.54603 2.08665 4.67016C2.15854 4.79419 2.25621 4.89499 2.38015 4.97374C2.50409 5.05239 2.6439 5.1016 2.80006 5.12139C2.90417 5.22081 2.99787 5.29759 3.08066 5.35222C3.16345 5.40675 3.24576 5.44485 3.32656 5.467C3.40737 5.48924 3.49761 5.4984 3.59625 5.49505C3.69838 5.49161 3.79209 5.46995 3.87637 5.4294C3.96064 5.38884 4.03203 5.33244 4.08905 5.259L3.86 5.01282C3.78267 5.09688 3.69392 5.14078 3.59377 5.14413C3.55461 5.14561 3.51793 5.13931 3.48421 5.12533C3.4505 5.11125 3.41581 5.08713 3.38059 5.0514C3.56403 4.98053 3.7078 4.86802 3.81241 4.71406C3.91702 4.56011 3.9656 4.38529 3.95866 4.1899C3.95271 4.01753 3.90413 3.86348 3.81291 3.72882C3.72168 3.59416 3.59973 3.49041 3.44605 3.41757C3.29235 3.34463 3.12131 3.31136 2.93193 3.31805L2.93243 3.31854ZM7.3725 2.15484L6.5877 4.65422L7.30655 4.86802L7.50289 4.24295L7.86281 4.04165L8.31147 5.16687L9.15476 5.41788L8.48797 3.69654L9.88453 2.90196L9.08486 2.66405L7.76465 3.40733L8.09086 2.36815L7.372 2.15435L7.3725 2.15484ZM2.94681 3.72636C3.03703 3.72361 3.11933 3.74142 3.19419 3.7805C3.26905 3.81958 3.32904 3.87608 3.37415 3.94991C3.41926 4.02374 3.44406 4.10967 3.44752 4.20771C3.451 4.30566 3.43265 4.39307 3.393 4.46985C3.35334 4.54653 3.29731 4.60736 3.22542 4.65126C3.15354 4.69516 3.07273 4.71879 2.9825 4.72174C2.89227 4.7247 2.80997 4.70678 2.73511 4.6677C2.66025 4.62852 2.60026 4.57212 2.55515 4.49829C2.51004 4.42437 2.48525 4.33843 2.48177 4.24049C2.4783 4.14245 2.49664 4.05514 2.53632 3.97846C2.57597 3.90168 2.632 3.84084 2.70388 3.79684C2.77576 3.75294 2.85658 3.72932 2.94681 3.72636Z" fill="#898FA1"/>
</svg>
