<svg width="20" height="20" viewBox="0 0 20 20" fill="none" xmlns="http://www.w3.org/2000/svg">
<rect width="20" height="20" fill="#D8D8D8" fill-opacity="0.01"/>
<path fill-rule="evenodd" clip-rule="evenodd" d="M13.9091 6.7838H16.4003V6.78323C16.8242 6.78323 17.231 6.9524 17.5308 7.25261C17.8307 7.55282 17.9995 7.96038 18 8.38481V10.7885H10.8001V7.58379H9.19987V10.7885H2V8.38481C2 7.50174 2.71732 6.78276 3.59973 6.78276H6.09094C5.72987 6.5951 5.38745 6.36515 5.10201 6.07984C4.65308 5.62872 4.40066 5.01744 4.40066 4.38027C4.40066 3.74287 4.65308 3.1317 5.10201 2.68046C6.00945 1.77335 7.58895 1.77335 8.49639 2.67942C9.80589 3.99189 9.9827 6.46013 9.99867 6.73747C9.99923 6.74598 9.99722 6.75407 9.99522 6.7621C9.99348 6.76911 9.99174 6.77607 9.99174 6.78323H10.0077C10.0077 6.77588 10.006 6.7691 10.0044 6.76241C10.0024 6.75458 10.0005 6.74686 10.0013 6.73851C10.0173 6.46164 10.1941 3.99304 11.5031 2.68161C12.4116 1.77335 13.9895 1.77439 14.8969 2.68046C15.3458 3.13228 15.5983 3.74345 15.5983 4.38073C15.5983 5.01801 15.3464 5.62976 14.8969 6.08088C14.6051 6.36411 14.2723 6.60146 13.9091 6.7838ZM6.01846 4.53748C6.04882 4.69267 6.12391 4.83503 6.23521 4.94758H6.23574C6.70437 5.41743 7.55749 5.69476 8.26203 5.84198C8.11453 5.13478 7.8392 4.28673 7.36738 3.81422C7.21613 3.66331 7.01537 3.58011 6.80076 3.58011C6.64259 3.58126 6.48869 3.62876 6.35769 3.71669C6.22669 3.80475 6.12444 3.92943 6.06427 4.07561C6.00408 4.22167 5.98811 4.38229 6.01846 4.53748ZM12.6342 3.81444C12.1619 4.28752 11.8865 5.13557 11.7396 5.84323H11.7401C12.4468 5.69648 13.2941 5.42088 13.7659 4.94733C14.0785 4.63476 14.0779 4.12597 13.7659 3.81293C13.6162 3.66306 13.4149 3.57986 13.2009 3.57986C12.9868 3.57986 12.7855 3.66306 12.6342 3.81444ZM2.80035 11.5908V16.398C2.80035 17.2817 3.51821 18.0001 4.40009 18.0001H9.20034V11.5908H2.80035ZM10.8006 11.5908V18.0001H15.6004C16.4828 18.0001 17.2001 17.2811 17.2001 16.398V11.5908H10.8006Z" fill="url(#paint0_linear_554_470)"/>
<defs>
<linearGradient id="paint0_linear_554_470" x1="11.7143" y1="2" x2="-5.42857" y2="19.1429" gradientUnits="userSpaceOnUse">
<stop stop-color="#EB4E58"/>
<stop offset="1" stop-color="#C224C2"/>
</linearGradient>
</defs>
</svg>
