<svg width="16" height="16" viewBox="0 0 16 16" fill="none" xmlns="http://www.w3.org/2000/svg">
<rect width="16" height="16" fill="#D8D8D8" fill-opacity="0.01"/>
<path fill-rule="evenodd" clip-rule="evenodd" d="M6.39238 1.94779C6.68932 1.61766 7.15517 1 7.15517 1L9.73343 3.08832C9.73343 3.08832 10.2502 3.0693 10.556 3.09943C10.8619 3.12957 11.3386 3.24645 11.3386 3.24645C11.3386 3.24645 11.8362 3.4087 12.21 3.61104C12.36 3.69221 12.7142 3.89606 13.1793 4.25308C13.4871 4.48936 14.2632 5.15837 14.2632 5.15837C14.2632 5.15837 14.4983 5.37868 14.5811 5.4874C14.6199 5.53831 14.686 5.6305 14.7243 5.75698C14.7405 5.81055 14.7452 5.93453 14.7452 5.93453C14.7452 5.93453 14.7418 6.03985 14.7062 6.0941C14.6706 6.14836 14.5401 6.24736 14.5401 6.24736L13.0533 7.30631L14.5811 6.72674C14.5811 6.72674 14.7131 6.68151 14.7708 6.67807C14.8286 6.67463 14.9153 6.70684 14.9153 6.70684C14.9153 6.70684 14.971 6.74044 14.9862 6.77126C15.0015 6.80208 14.9998 6.87797 14.9998 6.87797C14.9998 6.87797 14.9954 6.98295 14.9715 7.02683C14.9476 7.07072 14.8581 7.13837 14.8581 7.13837L14.3207 7.51505C14.3207 7.51505 13.0267 8.46991 12.5646 8.73623C12.1531 8.97341 11.755 9.06535 11.5962 9.10205C11.5831 9.10506 11.5717 9.1077 11.562 9.11001C11.3522 9.16018 11.0542 9.20378 10.8016 9.21001C10.5973 9.21505 10.4225 9.1906 10.3514 9.18066C10.3468 9.18002 10.3426 9.17943 10.3389 9.17892C10.2073 9.16085 10.0496 9.11001 10.0496 9.11001C10.0496 9.11001 9.69469 8.97338 9.50729 8.83603C9.40837 8.76354 9.11535 8.50199 8.89392 8.20639C8.8032 8.08527 8.63367 7.84208 8.45893 7.45794C8.37934 7.28296 8.23079 6.84167 8.23079 6.84167C8.23079 6.84167 8.21415 7.44222 8.30677 7.77744C8.39939 8.11266 8.66228 8.5119 8.66228 8.5119C8.66228 8.5119 8.468 8.8735 8.3333 9.05177C8.19861 9.23004 7.94054 9.46709 7.94054 9.46709C7.94054 9.46709 7.76559 9.61588 7.64113 9.67112C7.57517 9.7004 7.43572 9.74303 7.30301 9.74985C7.18532 9.75591 7.07233 9.72882 7.02945 9.71346C6.98087 9.69606 6.85645 9.62378 6.74843 9.53271C6.65357 9.45274 6.57305 9.35495 6.54443 9.31273C6.54078 9.30734 6.53668 9.30155 6.53228 9.29532C6.5037 9.25489 6.46213 9.19609 6.44418 9.11001C6.43918 9.08603 6.4288 8.99514 6.44418 8.90345C6.46013 8.80843 6.50246 8.71215 6.53183 8.66536C6.58955 8.57343 6.76831 8.41901 6.76831 8.41901C6.76831 8.41901 6.93999 8.27487 7.10356 8.17382C7.26713 8.07277 7.6111 7.89834 7.6111 7.89834C7.6111 7.89834 7.38051 7.91854 7.22253 7.96112C7.13937 7.98353 6.9404 8.05231 6.74843 8.15461C6.57572 8.24665 6.40786 8.37135 6.34929 8.41901C6.172 8.56329 6.09272 8.71007 6.06294 8.76521C6.0617 8.76752 6.06053 8.76967 6.05946 8.77165C6.03215 8.82186 5.99844 8.92767 6.00447 9.07105C6.00832 9.16259 6.05946 9.39364 6.05946 9.39364C6.05946 9.39364 6.1673 9.59614 6.25458 9.71346C6.34187 9.83078 6.53183 10.0285 6.53183 10.0285C6.53183 10.0285 6.4319 10.2579 6.40485 10.3944C6.37779 10.5308 6.38053 10.7915 6.38053 10.7915C6.38053 10.7915 6.41987 11.0943 6.47491 11.2462C6.50039 11.3165 6.59002 11.4912 6.71254 11.6496C6.85471 11.8334 7.03521 12.002 7.11742 12.065C7.19156 12.1219 7.38053 12.2455 7.58377 12.3489C7.80009 12.459 8.03146 12.5484 8.11901 12.5799C8.19974 12.6091 8.30101 12.6415 8.4228 12.6772C8.42556 12.678 8.42893 12.6791 8.43283 12.6803C8.46218 12.6894 8.5217 12.708 8.57986 12.705C8.64186 12.7019 8.70281 12.6774 8.73602 12.6641C8.741 12.6621 8.74537 12.6603 8.74901 12.6589C8.9636 12.5771 9.13495 12.5037 9.26306 12.4387C9.3802 12.3793 9.63598 12.2285 9.86059 12.065C10.0158 11.9521 10.1574 11.8334 10.2626 11.7452C10.3173 11.6993 10.3622 11.6617 10.394 11.6374C10.4811 11.571 10.7003 11.4093 10.9596 11.258C11.2403 11.0942 11.5651 10.9405 11.7415 10.8761C11.9011 10.8178 12.1423 10.7458 12.4798 10.6986C12.6209 10.6788 12.957 10.6614 12.957 10.6614C12.957 10.6614 13.1862 10.6669 13.3548 10.6986C13.5234 10.7303 13.7873 10.8174 13.7873 10.8174C13.7873 10.8174 13.6469 11.0643 13.5378 11.214C13.4287 11.3638 13.1633 11.6735 13.1633 11.6735C13.1633 11.6735 12.7213 12.0986 12.4567 12.2853C12.318 12.3832 11.9664 12.6033 11.5967 12.7689C11.261 12.9192 10.9066 13.0188 10.7549 13.0502C10.4362 13.1162 9.89006 13.1379 9.89006 13.1379C9.89006 13.1379 10.3854 13.3574 10.6026 13.5153C10.7126 13.5953 10.9549 13.8112 11.1282 14.0304C11.2969 14.2438 11.3977 14.4606 11.4318 14.5401C11.5008 14.7013 11.562 14.9695 11.562 14.9695L11.292 15H10.9309C10.9309 15 10.6544 14.9881 10.4715 14.9511C10.2886 14.9141 10.089 14.8297 10.089 14.8297C10.089 14.8297 9.78223 14.6948 9.65372 14.61C9.60309 14.5765 9.44423 14.4577 9.24325 14.2089C9.10412 14.0367 8.75086 13.5153 8.75086 13.5153C8.75086 13.5153 8.57353 13.3188 8.45893 13.212C8.45089 13.2046 8.44219 13.1948 8.43193 13.1833C8.38581 13.1315 8.30833 13.0445 8.11901 12.9715C7.90184 12.8878 7.60079 12.8055 7.33885 12.734C7.15616 12.6841 6.9925 12.6394 6.8896 12.603C6.48194 12.4589 5.73628 12.099 5.73628 12.099C5.73628 12.099 5.12487 11.744 4.8343 11.5186C4.54374 11.2932 4.15976 10.8761 4.15976 10.8761C4.15976 10.8761 3.86073 10.4789 3.75173 10.2944C3.61931 10.0702 3.53489 9.85395 3.4635 9.67109C3.45835 9.65789 3.45326 9.64487 3.44823 9.63202C3.34663 9.37264 3.18939 8.8277 3.15258 8.33913C3.11926 7.89673 3.19267 7.50109 3.21401 7.38604C3.21506 7.38039 3.21598 7.37542 3.21676 7.37115C3.23374 7.27802 3.28652 7.05826 3.38021 6.82672C3.47483 6.59287 3.61072 6.34704 3.70119 6.21404C3.88123 5.94937 4.31311 5.47223 4.31311 5.47223C4.31311 5.47223 3.91663 5.80188 3.72431 6.01003C3.62471 6.11783 3.40925 6.36965 3.2467 6.64224C3.09538 6.89598 2.99461 7.17054 2.95309 7.29025C2.91303 7.40576 2.78844 7.83938 2.79017 8.3069C2.79216 8.84432 2.92674 9.42584 2.9762 9.6087C3.0687 9.95063 3.34333 10.6005 3.34333 10.6005C3.34333 10.6005 2.96432 10.2427 2.81911 10.0704C2.59175 9.80073 2.44014 9.53946 2.32744 9.31273C2.18797 9.03215 2.00652 8.39274 2.00017 7.77744C1.99391 7.17062 2.16132 6.58724 2.22811 6.39594C2.29146 6.21449 2.4437 5.7962 2.68349 5.43903C2.94503 5.04945 3.29433 4.71868 3.43603 4.58449C3.44029 4.58046 3.44436 4.57661 3.44823 4.57294C3.49796 4.5258 3.60904 4.43646 3.76658 4.30976C3.93957 4.17064 4.16857 3.98647 4.43385 3.76366C4.4668 3.73599 4.51372 3.69778 4.57111 3.65103C4.7581 3.49874 5.05632 3.25584 5.34547 2.99137C5.79269 2.5823 6.23145 2.12671 6.39238 1.94779ZM10.7487 7.21163C11.1652 7.21163 11.5028 6.88263 11.5028 6.47678C11.5028 6.07094 11.1652 5.74194 10.7487 5.74194C10.3322 5.74194 9.99462 6.07094 9.99462 6.47678C9.99462 6.88263 10.3322 7.21163 10.7487 7.21163Z" fill="url(#paint0_linear_593_307)"/>
<defs>
<linearGradient id="paint0_linear_593_307" x1="9.20988" y1="18.2668" x2="17.1873" y2="7.6996" gradientUnits="userSpaceOnUse">
<stop stop-color="#FF851E"/>
<stop offset="1" stop-color="#881FFF"/>
</linearGradient>
</defs>
</svg>
