<svg width="16" height="16" viewBox="0 0 16 16" fill="none" xmlns="http://www.w3.org/2000/svg">
<rect width="16" height="16" fill="#D8D8D8" fill-opacity="0.01"/>
<path fill-rule="evenodd" clip-rule="evenodd" d="M5.21445 2.01579L6.74492 1.4361C6.81641 1.40695 6.91111 1.36107 7.01692 1.3098C7.33878 1.15385 7.76346 0.94809 7.95034 1.01193C7.94582 2.7251 7.94244 4.43943 7.93905 6.15377C7.93567 7.86811 7.93228 9.58245 7.92777 11.2956H7.90519C7.65237 11.1919 7.1693 10.8667 7.04289 10.6217C7.1377 10.2446 7.28217 8.26989 7.19639 7.92113C6.28442 7.68077 5.36795 7.44041 4.45147 7.20005V7.27075C4.52822 7.50639 4.60609 7.74322 4.68397 7.98005C4.76185 8.21687 4.83973 8.4537 4.91648 8.68935C5.12415 8.78125 5.3307 8.87433 5.53725 8.96741C5.74379 9.06049 5.95034 9.15357 6.15801 9.24548C6.27054 10.4897 6.37921 11.738 6.48759 12.9829C6.49662 13.0866 6.50565 13.1903 6.51467 13.2939C6.52401 13.3524 6.5359 13.4207 6.54898 13.4958C6.62442 13.9293 6.73913 14.5882 6.62754 14.8775C6.5821 14.8943 6.54856 14.9116 6.51749 14.9277C6.45286 14.9611 6.39894 14.9889 6.27088 14.9953C6.19912 14.9079 6.01821 14.8609 5.88051 14.8252C5.86228 14.8204 5.8448 14.8159 5.82844 14.8115C5.62528 13.982 5.41761 13.1525 5.20993 12.323C4.93679 12.0897 4.66365 11.8576 4.39051 11.6255C4.11738 11.3934 3.84424 11.1613 3.57111 10.928C3.47764 10.7198 3.47208 10.3261 3.46652 9.93137C3.45999 9.4681 3.45343 9.00339 3.30474 8.83545C3.22799 8.82367 3.15011 8.81188 3.07223 8.8001C2.99436 8.78832 2.91648 8.77654 2.83973 8.76475L2 6.38942C2.12632 6.30151 2.25439 6.21542 2.38311 6.12889C2.46141 6.07625 2.53996 6.02345 2.61851 5.96997C2.6456 5.32429 3.09707 4.80115 3.41761 4.43354C3.29571 4.14606 3.16931 3.85858 3.0429 3.57109L3.04289 3.57107L3.08804 3.52394C3.39955 3.56636 3.70655 3.60406 4.01806 3.64177C4.11061 3.51452 4.20316 3.38609 4.29571 3.25766C4.38826 3.12923 4.48081 3.0008 4.57336 2.87355C4.52596 2.70389 4.47743 2.53304 4.42889 2.3622C4.38036 2.19135 4.33183 2.02051 4.28442 1.85084C4.44018 1.87912 4.59481 1.90622 4.74944 1.93332C4.90406 1.96042 5.05869 1.98752 5.21445 2.01579ZM12.5959 4.43354C12.921 4.80587 13.3679 5.32901 13.395 5.96997C13.4458 6.00532 13.4969 6.04067 13.548 6.07603C13.7012 6.18206 13.8544 6.2881 14 6.39413L13.1603 8.76947C13.0835 8.78125 13.0056 8.79303 12.9278 8.80481C12.8499 8.8166 12.772 8.82838 12.6953 8.84016C12.5466 9.00811 12.54 9.47282 12.5335 9.93609C12.5279 10.3308 12.5224 10.7246 12.4289 10.9327C12.1557 11.166 11.8826 11.3982 11.6094 11.6303C11.3363 11.8624 11.0632 12.0945 10.7901 12.3278C10.587 13.1571 10.3793 13.9864 10.1717 14.8157L10.1716 14.8162C10.1667 14.8174 10.1617 14.8186 10.1566 14.8198C10.0201 14.853 9.80746 14.9046 9.72912 15C9.59826 14.9936 9.54535 14.9659 9.4819 14.9326C9.45122 14.9165 9.41807 14.8991 9.37246 14.8822C9.26087 14.593 9.37558 13.934 9.45102 13.5005C9.4641 13.4254 9.47599 13.3571 9.48533 13.2986C9.59784 12.0545 9.70651 10.8063 9.81488 9.5615C9.82392 9.45771 9.83295 9.35393 9.84199 9.25019C10.0497 9.15829 10.2562 9.0652 10.4628 8.97212C10.6693 8.87904 10.8758 8.78596 11.0835 8.69406C11.1603 8.45842 11.2381 8.2216 11.316 7.98478C11.3939 7.74795 11.4718 7.51111 11.5485 7.27546V7.20476C10.6366 7.44513 9.72009 7.68549 8.80361 7.92585C8.71783 8.27461 8.8623 10.2493 8.95711 10.6264C8.83521 10.8714 8.34763 11.1966 8.09481 11.3003H8.07224C8.06772 9.58717 8.06433 7.87283 8.06095 6.15849C8.05756 4.44415 8.05418 2.72981 8.04966 1.01665C8.24847 0.948659 8.68152 1.15779 9.00497 1.314C9.10753 1.36353 9.19906 1.40774 9.26862 1.4361L10.7991 2.01579C10.9549 1.98752 11.1095 1.96042 11.2641 1.93332C11.4187 1.90622 11.5734 1.87912 11.7291 1.85084C11.6817 2.02051 11.6332 2.19135 11.5847 2.3622C11.5361 2.53304 11.4876 2.70389 11.4402 2.87355C11.5327 3.0008 11.6253 3.12923 11.7178 3.25765C11.8104 3.38608 11.9029 3.51451 11.9955 3.64177C12.307 3.59935 12.614 3.56165 12.9255 3.52394L12.9707 3.57107C12.8488 3.85856 12.7223 4.14605 12.5959 4.43354Z" fill="url(#paint0_linear_593_312)"/>
<defs>
<linearGradient id="paint0_linear_593_312" x1="7.2948" y1="-5.34912" x2="-5.44358" y2="6.68881" gradientUnits="userSpaceOnUse">
<stop stop-color="#FA424D"/>
<stop offset="1" stop-color="#BA06BA"/>
</linearGradient>
</defs>
</svg>
