<svg width="20" height="20" viewBox="0 0 20 20" fill="none" xmlns="http://www.w3.org/2000/svg">
<rect width="20" height="20" fill="#D8D8D8" fill-opacity="0.01"/>
<path fill-rule="evenodd" clip-rule="evenodd" d="M18.0999 9.1C18.0999 4.62649 14.4734 1 9.9999 1C5.5264 1 1.8999 4.62649 1.8999 9.1C1.8999 11.4982 2.94217 13.6531 4.59845 15.1362L4.5999 15.85C4.5999 17.5897 6.01021 19 7.7499 19H12.2499C13.9896 19 15.3999 17.5897 15.3999 15.85L15.3996 15.1378C17.0569 13.6546 18.0999 11.4991 18.0999 9.1ZM8.45628 4.92783C8.45628 4.55504 8.15407 4.25283 7.78128 4.25283C7.58626 4.25283 7.41055 4.33554 7.28732 4.4678L7.26573 4.44269C5.76416 5.32605 4.72739 6.91482 4.61086 8.75355C4.60366 8.79305 4.5999 8.83375 4.5999 8.87533C4.5999 9.24812 4.90211 9.55033 5.2749 9.55033C5.64769 9.55033 5.9499 9.24812 5.95605 8.87525C6.03684 7.40035 6.90678 6.13563 8.14874 5.49414C8.33386 5.37377 8.45628 5.1651 8.45628 4.92783Z" fill="url(#paint0_linear_554_465)"/>
<defs>
<linearGradient id="paint0_linear_554_465" x1="1.8999" y1="1" x2="1.8999" y2="19" gradientUnits="userSpaceOnUse">
<stop stop-color="#3CD3E6"/>
<stop offset="1" stop-color="#1287F8"/>
</linearGradient>
</defs>
</svg>
