<svg width="16" height="16" viewBox="0 0 16 16" fill="none" xmlns="http://www.w3.org/2000/svg">
<rect width="16" height="16" fill="#D8D8D8" fill-opacity="0.01"/>
<path fill-rule="evenodd" clip-rule="evenodd" d="M1.5506 14.3849C1.90917 14.7821 2.38151 15 2.88266 15C3.03242 15 3.18363 14.9784 3.33339 14.9382L3.36076 14.9305L6.23944 13.7945C6.41225 13.7497 6.58938 13.728 6.76794 13.728H9.53863C9.73303 13.728 9.92456 13.7543 10.1075 13.8053L12.5757 14.8825L12.6362 14.9042C13.2842 15.0943 13.9582 14.8949 14.4392 14.371C14.9014 13.8656 15.0944 13.1454 14.9561 12.4422L14.1612 4.61038L14.154 4.56401C13.8415 3.05404 12.652 2 11.2609 2H4.74466C3.35356 2 2.16406 3.05404 1.85013 4.56401L1.84581 4.58719L1.04369 12.4684C0.906889 13.1639 1.09554 13.8795 1.5506 14.3849ZM5.43333 6.03617C5.13265 6.03617 4.88889 6.27992 4.88889 6.58061V7.29554H4.25208C3.93797 7.29554 3.68333 7.55018 3.68333 7.86429C3.68333 8.17841 3.93797 8.43304 4.25208 8.43304H4.88889V9.14797C4.88889 9.44866 5.13265 9.69242 5.43333 9.69242C5.73402 9.69242 5.97778 9.44866 5.97778 9.14797V8.43304H6.61458C6.9287 8.43304 7.18333 8.17841 7.18333 7.86429C7.18333 7.55018 6.9287 7.29554 6.61458 7.29554H5.97778V6.58061C5.97778 6.27993 5.73402 6.03617 5.43333 6.03617ZM11.0478 6.0429C11.2941 6.0429 11.5245 6.18509 11.6483 6.41537L12.2272 7.4926C12.3511 7.72133 12.3511 8.00725 12.2272 8.23599L11.6483 9.31322C11.5245 9.5435 11.2941 9.68569 11.0478 9.68569H9.89C9.64375 9.68569 9.41334 9.5435 9.2895 9.31322L8.71059 8.23599C8.58674 8.00725 8.58674 7.72133 8.71059 7.4926L9.2895 6.41537C9.41334 6.18664 9.64231 6.0429 9.89 6.0429H11.0478ZM10.8103 7.1804H10.1266L9.75948 7.86372L10.1266 8.54784H10.8103L11.1782 7.86372L10.8103 7.1804Z" fill="#898FA1"/>
</svg>
