<svg width="20" height="20" viewBox="0 0 20 20" fill="none" xmlns="http://www.w3.org/2000/svg">
<rect width="20" height="20" fill="#D8D8D8" fill-opacity="0.01"/>
<path d="M10.0013 1C5.65925 1 2.12746 4.59551 2.12746 9.04683C2.12746 9.08325 2.13026 9.11897 2.13447 9.15469C2.12746 9.21211 2.12746 9.27094 2.12746 9.32977V11.5904C2.06723 12.774 3.01969 13.7818 4.26138 13.8476H4.79503C6.03883 13.7825 6.99268 12.7726 6.93105 11.5876V9.32907C6.99198 8.1455 6.03953 7.13702 4.79783 7.07049H4.26348C4.18743 7.0704 4.11144 7.07461 4.03587 7.0831C4.59964 5.02832 6.28394 3.42315 8.44097 2.8853C11.7367 2.06381 15.1067 3.9428 15.9696 7.0831C15.8935 7.07456 15.8171 7.07035 15.7406 7.07049H15.2069C13.9638 7.13492 13.0099 8.1448 13.0709 9.32907V11.5911C13.0092 12.7754 13.9638 13.786 15.2069 13.8504H15.6005C14.972 14.9788 13.9888 15.8682 12.8033 16.3807C12.6588 16.2319 12.4768 16.1249 12.2765 16.0711C12.0761 16.0172 11.865 16.0184 11.6653 16.0747L10.1176 16.5131C9.45716 16.7442 9.09228 17.4193 9.27717 18.0664L9.29328 18.1344C9.45155 18.7444 10.0987 19.1176 10.7402 18.9664L12.2872 18.528C12.7844 18.3683 13.1325 17.9397 13.1696 17.4424C14.9639 16.6518 16.3435 15.2007 16.9878 13.4218C17.2666 13.2049 17.4917 12.9266 17.6455 12.6087C17.7994 12.2907 17.878 11.9416 17.8752 11.5883V9.32907L17.8682 9.15399C17.8731 9.11897 17.8752 9.08255 17.8752 9.04683C17.8752 4.59551 14.3434 1 10.0013 1Z" fill="url(#paint0_linear_1313_61)"/>
<defs>
<linearGradient id="paint0_linear_1313_61" x1="2.12473" y1="1" x2="2.12473" y2="19" gradientUnits="userSpaceOnUse">
<stop stop-color="#14A838"/>
<stop offset="1" stop-color="#108029"/>
</linearGradient>
</defs>
</svg>
