<svg width="20" height="20" viewBox="0 0 20 20" fill="none" xmlns="http://www.w3.org/2000/svg">
<rect width="20" height="20" fill="#D8D8D8" fill-opacity="0.01"/>
<path fill-rule="evenodd" clip-rule="evenodd" d="M2.26591 16.4512C2.31149 17.5932 3.24956 18.4966 4.39344 18.5H15.6025C16.748 18.472 17.6682 17.5473 17.6895 16.4026L18.5 7.08992V7.02918C18.497 6.26634 18.0774 5.56599 17.4058 5.20308L11.2137 1.81002C10.456 1.39666 9.53993 1.39666 8.78224 1.81002L2.59011 5.22333C1.92073 5.58796 1.50302 6.28769 1.5 7.04943L2.26591 16.4512ZM8.3001 13.3999C7.83066 13.3999 7.4501 13.7805 7.4501 14.2499C7.4501 14.7194 7.83066 15.0999 8.3001 15.0999H11.7001C12.1695 15.0999 12.5501 14.7194 12.5501 14.2499C12.5501 13.7805 12.1695 13.3999 11.7001 13.3999H8.3001Z" fill="url(#paint0_linear_554_346)"/>
<defs>
<linearGradient id="paint0_linear_554_346" x1="-2.93641" y1="9.63365" x2="9.46726" y2="23.9951" gradientUnits="userSpaceOnUse">
<stop stop-color="#0ADBE9"/>
<stop offset="1" stop-color="#0A7EE9"/>
</linearGradient>
</defs>
</svg>
