<svg width="20" height="20" viewBox="0 0 20 20" fill="none" xmlns="http://www.w3.org/2000/svg">
<rect width="20" height="20" fill="#D8D8D8" fill-opacity="0.01"/>
<path d="M10.0001 1.20703C5.15133 1.20703 1.20703 5.1518 1.20703 10.0001C1.20703 14.8484 5.15133 18.7931 10.0001 18.7931C14.8488 18.7931 18.7931 14.8484 18.7931 10.0001C18.7931 5.1518 14.8488 1.20703 10.0001 1.20703ZM16.2281 5.94141H14.2139C13.9252 4.88906 13.5281 3.96328 13.0448 3.2182C14.3436 3.80436 15.448 4.74921 16.2281 5.94164V5.94141ZM13.3821 10.0001C13.3837 10.9077 13.301 11.8134 13.1351 12.7057H6.86508C6.5357 10.917 6.5357 9.08317 6.86508 7.29445H13.1351C13.301 8.18674 13.3837 9.0925 13.3821 10.0001ZM10.0001 17.4403C8.96414 17.4403 7.85414 16.1531 7.19883 14.0585H12.8004C12.146 16.1531 11.036 17.4403 10.0001 17.4403ZM7.19883 5.94164C7.85508 3.84703 8.96414 2.55984 10.0001 2.55984C11.036 2.55984 12.146 3.84703 12.8013 5.94164H7.19883ZM6.95531 3.21844C6.47203 3.96352 6.075 4.8893 5.78625 5.94164H3.77203C4.55216 4.7493 5.65655 3.80453 6.95531 3.21844ZM3.07641 7.29445H5.48695C5.19133 9.08609 5.19133 10.9141 5.48695 12.7057H3.07641C2.38765 10.9677 2.38765 9.03245 3.07641 7.29445ZM3.77203 14.0585H5.78625C6.075 15.1109 6.47203 16.0366 6.95531 16.7817C5.65655 16.1956 4.55216 15.2509 3.77203 14.0585ZM13.0448 16.7817C13.5281 16.0366 13.9252 15.1109 14.2139 14.0585H16.2281C15.448 15.2509 14.3436 16.1956 13.0448 16.7817ZM16.9237 12.7057H14.5132C14.8088 10.9141 14.8088 9.08609 14.5132 7.29445H16.9237C17.6125 9.03245 17.6125 10.9677 16.9237 12.7057Z" fill="#69707A"/>
</svg>
