<svg width="20" height="20" viewBox="0 0 20 20" fill="none" xmlns="http://www.w3.org/2000/svg">
<rect width="20" height="20" fill="#D8D8D8" fill-opacity="0.01"/>
<path fill-rule="evenodd" clip-rule="evenodd" d="M5.74973 5.98857C5.74973 5.98857 7.34231 7.01714 9.5 7.01714C11.6577 7.01714 13.3016 5.98857 13.3016 5.98857C13.3016 5.98857 15.5107 6.04 17.1547 9.38286C18.6959 12.5714 18.028 14.5257 18.028 14.5257C18.028 14.5257 21.5214 19 9.5 19C-2.52143 19 0.97198 14.5771 0.97198 14.5771L0.969745 14.5693C0.930632 14.4289 0.408704 12.4098 1.84533 9.43429C3.48929 5.98857 5.74973 5.98857 5.74973 5.98857ZM9.98165 8.875H9.01835L9.01796 9.24873C8.72776 9.28221 8.4569 9.35071 8.20367 9.45422C7.82936 9.60721 7.54312 9.83125 7.35046 10.1263C7.1578 10.4214 7.05871 10.7383 7.05871 11.0771C7.05871 11.3831 7.13578 11.6618 7.29541 11.9131C7.45505 12.1645 7.69725 12.3721 8.02202 12.547C8.23018 12.6548 8.56111 12.77 9.01787 12.8896L9.01819 15.3185C8.87571 15.2855 8.73999 15.2411 8.61101 15.1862C8.30275 15.0496 8.07706 14.8748 7.92844 14.6617C7.77982 14.4431 7.68624 14.1699 7.64771 13.8311L6.8 13.9021C6.81101 14.3502 6.93761 14.7546 7.17982 15.1152C7.41651 15.4759 7.74128 15.7436 8.15413 15.9185C8.40455 16.0278 8.69346 16.103 9.0184 16.1453L9.01835 16.525H9.98165L9.98195 16.1756C10.3529 16.1475 10.6923 16.0636 11 15.9239C11.3908 15.7491 11.6826 15.5032 11.8917 15.1862C12.0954 14.8693 12.2 14.5305 12.2 14.1754C12.2 13.8147 12.1064 13.4978 11.9193 13.2191C11.7321 12.9404 11.4404 12.7109 11.044 12.5306C10.8284 12.4322 10.4744 12.3237 9.98181 12.2025L9.98176 10.0515C10.2642 10.1012 10.4922 10.1971 10.6642 10.3394C10.9284 10.5525 11.0881 10.8749 11.1321 11.3011L11.9908 11.2356C11.9798 10.8421 11.8642 10.487 11.6606 10.1755C11.4514 9.86404 11.1596 9.62361 10.7743 9.46514C10.5355 9.3655 10.2705 9.29611 9.98222 9.25832L9.98165 8.875ZM9.98227 13.1289C10.2448 13.1979 10.4299 13.2535 10.5376 13.2956C10.8239 13.4049 11.0275 13.536 11.1486 13.6945C11.2752 13.853 11.3358 14.0333 11.3358 14.2464C11.3358 14.454 11.2697 14.6453 11.1431 14.8201C11.0165 14.995 10.8239 15.1371 10.5596 15.2354C10.3841 15.3044 10.1915 15.3493 9.98195 15.3716L9.98227 13.1289ZM9.01792 10.0399L9.0178 11.9695C8.5894 11.8509 8.31252 11.7345 8.18716 11.6181C8.01101 11.4651 7.92294 11.2629 7.92294 11.0225C7.92294 10.7438 8.04954 10.5034 8.29725 10.3066C8.46814 10.1709 8.70716 10.082 9.01792 10.0399ZM9.5 1C10.8871 1 12.0687 2.28571 12.0687 2.28571C12.0687 2.28571 13.6099 1.25714 14.6374 2.02857C15.6648 2.8 13.6613 4.6 13.6613 4.6C13.6613 4.6 11.8118 6.09143 9.5 6.09143C7.18819 6.09143 5.39011 4.6 5.39011 4.6C5.39011 4.6 3.38654 2.8 4.41401 2.02857C5.44148 1.25714 6.98269 2.28571 6.98269 2.28571C6.98269 2.28571 8.11291 1 9.5 1Z" fill="url(#paint0_linear_625_36)"/>
<defs>
<linearGradient id="paint0_linear_625_36" x1="5.65586" y1="3.30801" x2="15.9043" y2="19" gradientUnits="userSpaceOnUse">
<stop stop-color="#FBC04E"/>
<stop offset="1" stop-color="#FB380D"/>
</linearGradient>
</defs>
</svg>
