<svg width="14" height="14" viewBox="0 0 14 14" fill="none" xmlns="http://www.w3.org/2000/svg">
<path fill-rule="evenodd" clip-rule="evenodd" d="M7 12.4C9.98234 12.4 12.4 9.98234 12.4 7C12.4 6.06516 12.1624 5.1858 11.7444 4.419L11.7457 4.41814C11.6619 4.29163 11.613 4.1399 11.613 3.97676C11.613 3.53493 11.9712 3.17676 12.413 3.17676C12.6942 3.17676 12.9415 3.32183 13.0842 3.54121L13.0864 3.53979C13.6678 4.56035 14 5.74138 14 7C14 10.866 10.866 14 7 14C5.7297 14 4.53843 13.6616 3.5114 13.0701L3.51394 13.0669C3.47748 13.0411 3.4427 13.0118 3.41003 12.9791C3.09762 12.6667 3.09761 12.1602 3.41003 11.8478L5.8142 9.44361C6.12662 9.1312 6.63315 9.1312 6.94557 9.44361C7.25799 9.75603 7.25799 10.2626 6.94557 10.575L5.3707 12.1499C5.8848 12.3124 6.43217 12.4 7 12.4ZM2.25188 9.5742C1.83615 8.809 1.6 7.93208 1.6 7C1.6 4.01766 4.01766 1.6 7 1.6C7.57232 1.6 8.12384 1.68903 8.64148 1.85401L7.06274 3.43274C6.75032 3.74516 6.75033 4.25169 7.06274 4.56411C7.37516 4.87653 7.8817 4.87653 8.19411 4.56411L10.5983 2.15995C10.9107 1.84753 10.9107 1.341 10.5983 1.02858C10.5481 0.978434 10.493 0.936339 10.4345 0.902292L10.4361 0.899985C9.4211 0.326977 8.24873 0 7 0C3.13401 0 0 3.13401 0 7C0 8.2049 0.304427 9.33871 0.84056 10.3287L0.841498 10.3282C0.968425 10.6023 1.24592 10.7924 1.56782 10.7924C2.00965 10.7924 2.36782 10.4342 2.36782 9.99238C2.36782 9.83943 2.3249 9.6965 2.25043 9.57498L2.25188 9.5742Z" fill="#898FA1"/>
</svg>
