<svg width="20" height="20" viewBox="0 0 20 20" fill="none" xmlns="http://www.w3.org/2000/svg">
<rect width="20" height="20" fill="#D8D8D8" fill-opacity="0.01"/>
<path fill-rule="evenodd" clip-rule="evenodd" d="M1.89502 5.52614C1.89502 4.13099 3.02601 3 4.42116 3H12.6311C14.0262 3 15.1572 4.13099 15.1572 5.52614V6.33605C16.4033 6.49144 17.3676 7.55443 17.3676 8.84263V9.07959H17.3676V10.1913C17.783 10.2431 18.1044 10.5974 18.1044 11.0268V12.2899C18.1044 12.7193 17.783 13.0737 17.3676 13.1254V14.2371H17.3676V14.4738C17.3676 15.869 16.2366 16.9999 14.8414 16.9999H9.57865C9.55532 16.9999 9.53206 16.9996 9.50888 16.999H4.42116C3.02601 16.999 1.89502 15.868 1.89502 14.4729V5.52614ZM17.3676 10.1913C17.3331 10.187 17.298 10.1848 17.2624 10.1848H14.0521C13.2383 10.1848 12.5785 10.8445 12.5785 11.6584C12.5785 12.4722 13.2383 13.1319 14.0521 13.1319H17.2624C17.298 13.1319 17.3331 13.1297 17.3676 13.1254V14.237H14.052C12.6278 14.237 11.4732 13.0825 11.4732 11.6583C11.4732 10.2341 12.6278 9.0795 14.052 9.0795H17.3676V10.1913ZM14.0528 6.3165H9.57866L9.57105 6.31651H4.1057C3.49533 6.31651 3.00052 5.8217 3.00052 5.21132C3.00052 4.60095 3.49533 4.10614 4.1057 4.10614H12.9472C13.5576 4.10614 14.0524 4.60095 14.0524 5.21132V5.21136H14.0528V6.3165Z" fill="url(#paint0_linear_921_10178)"/>
<defs>
<linearGradient id="paint0_linear_921_10178" x1="4.67987" y1="7.81054" x2="4.67987" y2="17" gradientUnits="userSpaceOnUse">
<stop stop-color="#898FA1"/>
<stop offset="1" stop-color="#898FA1" stop-opacity="0.8"/>
</linearGradient>
</defs>
</svg>
