<svg width="40" height="40" viewBox="0 0 40 40" fill="none" xmlns="http://www.w3.org/2000/svg">
<circle cx="20" cy="20" r="20" fill="#2B2E36"/>
<path fill-rule="evenodd" clip-rule="evenodd" d="M27.0712 12.9296C26.5245 12.3829 25.638 12.3829 25.0913 12.9296L20.0002 18.0207L14.9089 12.9294C14.3622 12.3827 13.4757 12.3827 12.929 12.9294C12.3823 13.4761 12.3823 14.3626 12.929 14.9093L18.0203 20.0006L12.9291 25.0918C12.3823 25.6386 12.3823 26.525 12.9291 27.0717C13.4758 27.6185 14.3622 27.6185 14.909 27.0717L20.0002 21.9805L25.0912 27.0715C25.638 27.6183 26.5244 27.6183 27.0711 27.0715C27.6179 26.5248 27.6179 25.6384 27.0711 25.0916L21.9801 20.0006L27.0712 14.9095C27.6179 14.3628 27.6179 13.4763 27.0712 12.9296Z" fill="#A6ABB1"/>
</svg>
