<svg width="40" height="40" viewBox="0 0 40 40" fill="none" xmlns="http://www.w3.org/2000/svg">
<circle cx="20" cy="20" r="20" fill="#2B2E36"/>
<path d="M11.2717 9.91667H14.7083C14.9625 9.91667 15.2063 9.8157 15.386 9.63598C15.5657 9.45625 15.6667 9.2125 15.6667 8.95833C15.6667 8.70417 15.5657 8.46041 15.386 8.28069C15.2063 8.10097 14.9625 8 14.7083 8H8.95833C8.70417 8 8.46041 8.10097 8.28069 8.28069C8.10097 8.46041 8 8.70417 8 8.95833V14.7083C8 14.9625 8.10097 15.2063 8.28069 15.386C8.46041 15.5657 8.70417 15.6667 8.95833 15.6667C9.2125 15.6667 9.45625 15.5657 9.63598 15.386C9.8157 15.2063 9.91667 14.9625 9.91667 14.7083V11.2717L14.0303 15.3854C14.1187 15.4769 14.2245 15.5499 14.3415 15.6C14.4584 15.6502 14.5842 15.6766 14.7114 15.6777C14.8387 15.6787 14.9648 15.6545 15.0826 15.6062C15.2004 15.558 15.3073 15.4868 15.3973 15.3968C15.4872 15.3068 15.5583 15.1998 15.6065 15.082C15.6546 14.9642 15.6788 14.838 15.6777 14.7107C15.6765 14.5835 15.6501 14.4577 15.5998 14.3408C15.5495 14.2239 15.4765 14.1182 15.3849 14.0298L11.2717 9.91667ZM29.0833 11.2717V14.7083C29.0833 14.9625 29.1843 15.2063 29.364 15.386C29.5437 15.5657 29.7875 15.6667 30.0417 15.6667C30.2958 15.6667 30.5396 15.5657 30.7193 15.386C30.899 15.2063 31 14.9625 31 14.7083V8.95833C31 8.70417 30.899 8.46041 30.7193 8.28069C30.5396 8.10097 30.2958 8 30.0417 8H24.2917C24.0375 8 23.7937 8.10097 23.614 8.28069C23.4343 8.46041 23.3333 8.70417 23.3333 8.95833C23.3333 9.2125 23.4343 9.45625 23.614 9.63598C23.7937 9.8157 24.0375 9.91667 24.2917 9.91667H27.7283L23.6146 14.0303C23.5231 14.1187 23.4501 14.2245 23.4 14.3415C23.3498 14.4584 23.3234 14.5842 23.3223 14.7114C23.3213 14.8387 23.3455 14.9648 23.3938 15.0826C23.442 15.2004 23.5132 15.3073 23.6032 15.3973C23.6932 15.4872 23.8002 15.5583 23.918 15.6065C24.0358 15.6546 24.162 15.6788 24.2893 15.6777C24.4165 15.6765 24.5423 15.6501 24.6592 15.5998C24.7761 15.5495 24.8818 15.4765 24.9702 15.3849L29.0833 11.2717ZM11.2717 29.0833H14.7083C14.9625 29.0833 15.2063 29.1843 15.386 29.364C15.5657 29.5437 15.6667 29.7875 15.6667 30.0417C15.6667 30.2958 15.5657 30.5396 15.386 30.7193C15.2063 30.899 14.9625 31 14.7083 31H8.95833C8.70417 31 8.46041 30.899 8.28069 30.7193C8.10097 30.5396 8 30.2958 8 30.0417V24.2917C8 24.0375 8.10097 23.7937 8.28069 23.614C8.46041 23.4343 8.70417 23.3333 8.95833 23.3333C9.2125 23.3333 9.45625 23.4343 9.63598 23.614C9.8157 23.7937 9.91667 24.0375 9.91667 24.2917V27.7283L14.0303 23.6146C14.1187 23.5231 14.2245 23.4501 14.3415 23.4C14.4584 23.3498 14.5842 23.3234 14.7114 23.3223C14.8387 23.3213 14.9648 23.3455 15.0826 23.3938C15.2004 23.442 15.3073 23.5132 15.3973 23.6032C15.4872 23.6932 15.5583 23.8002 15.6065 23.918C15.6546 24.0358 15.6788 24.162 15.6777 24.2893C15.6765 24.4165 15.6501 24.5423 15.5998 24.6592C15.5495 24.7761 15.4765 24.8818 15.3849 24.9702L11.2717 29.0833ZM29.0833 27.7283V24.2917C29.0833 24.0375 29.1843 23.7937 29.364 23.614C29.5437 23.4343 29.7875 23.3333 30.0417 23.3333C30.2958 23.3333 30.5396 23.4343 30.7193 23.614C30.899 23.7937 31 24.0375 31 24.2917V30.0417C31 30.2958 30.899 30.5396 30.7193 30.7193C30.5396 30.899 30.2958 31 30.0417 31H24.2917C24.0375 31 23.7937 30.899 23.614 30.7193C23.4343 30.5396 23.3333 30.2958 23.3333 30.0417C23.3333 29.7875 23.4343 29.5437 23.614 29.364C23.7937 29.1843 24.0375 29.0833 24.2917 29.0833H27.7283L23.6146 24.9697C23.5231 24.8813 23.4501 24.7755 23.4 24.6585C23.3498 24.5416 23.3234 24.4158 23.3223 24.2886C23.3213 24.1613 23.3455 24.0352 23.3938 23.9174C23.442 23.7996 23.5132 23.6927 23.6032 23.6027C23.6932 23.5128 23.8002 23.4417 23.918 23.3935C24.0358 23.3454 24.162 23.3212 24.2893 23.3223C24.4165 23.3235 24.5423 23.3499 24.6592 23.4002C24.7761 23.4505 24.8818 23.5235 24.9702 23.6151L29.0833 27.7283Z" fill="#A3AEBC"/>
</svg>
