<svg width="14" height="14" viewBox="0 0 14 14" fill="none" xmlns="http://www.w3.org/2000/svg">
<path fill-rule="evenodd" clip-rule="evenodd" d="M7 12.4C9.9823 12.4 12.4 9.98233 12.4 7C12.4 6.06516 12.1625 5.18581 11.7444 4.41899L11.7457 4.41812C11.6619 4.29161 11.613 4.13989 11.613 3.97676C11.613 3.53493 11.9712 3.17676 12.4131 3.17676C12.6942 3.17676 12.9415 3.32184 13.0842 3.54124L13.0864 3.53979C13.6678 4.56035 14 5.74138 14 7C14 10.866 10.866 14 7 14C5.72974 14 4.53845 13.6616 3.51135 13.0701L3.51392 13.0669C3.47742 13.041 3.44263 13.0118 3.41003 12.9792C3.09766 12.6667 3.09766 12.1602 3.41003 11.8478L5.81421 9.44362C6.12659 9.1312 6.63318 9.1312 6.94556 9.44362C7.25793 9.75603 7.25793 10.2626 6.94556 10.575L5.37073 12.1498C5.88489 12.3123 6.43213 12.4 7 12.4ZM2.25183 9.5742C1.83618 8.80901 1.59998 7.93208 1.59998 7C1.59998 4.01767 4.0177 1.6 7 1.6C7.57227 1.6 8.1239 1.68903 8.64148 1.85401L7.06274 3.43274C6.75037 3.74516 6.75037 4.25169 7.06274 4.56412C7.37512 4.87653 7.88171 4.87653 8.19409 4.56412L10.5983 2.15994C10.9106 1.84753 10.9106 1.341 10.5983 1.02858C10.5481 0.978439 10.493 0.936348 10.4344 0.902298L10.4362 0.899986C9.42114 0.326981 8.24878 0 7 0C3.13403 0 0 3.134 0 7C0 8.20491 0.304443 9.3387 0.840576 10.3287L0.841553 10.3282C0.968506 10.6023 1.24597 10.7924 1.56787 10.7924C2.00964 10.7924 2.3678 10.4342 2.3678 9.99239C2.3678 9.83942 2.32483 9.69649 2.25037 9.57497L2.25183 9.5742Z" fill="white"/>
</svg>
