<svg width="20" height="17" viewBox="0 0 20 17" fill="none" xmlns="http://www.w3.org/2000/svg">
<path d="M14.6094 4.01578L13.6562 1.07828C13.5312 0.70328 13.125 0.48453 12.7344 0.60953L1.875 4.12515L14.6094 4.01578ZM15.9688 12.7033V13.4377C15.9688 13.8283 15.5156 14.047 15.2031 13.8127L11.6094 10.9845C11.375 10.797 11.375 10.4377 11.6094 10.2502L15.2188 7.42203C15.5312 7.18765 15.9844 7.4064 15.9844 7.79703V8.5314H19.8438V5.51578C19.8438 5.07828 19.4844 4.73453 19.0625 4.73453H0.9375C0.5 4.73453 0.15625 5.0939 0.15625 5.51578V15.7189C0.15625 16.1564 0.515625 16.5002 0.9375 16.5002H19.0625C19.5 16.5002 19.8438 16.1408 19.8438 15.7189V12.7033H15.9688Z" fill="#A3AEBC"/>
</svg>
