<svg width="20" height="20" viewBox="0 0 20 20" fill="none" xmlns="http://www.w3.org/2000/svg">
<path d="M10.4765 3.69467V8.09628C10.467 8.3423 10.3626 8.57508 10.1852 8.74579C10.0078 8.9165 9.77115 9.01186 9.52495 9.01186C9.27875 9.01186 9.04212 8.9165 8.86471 8.74579C8.68731 8.57508 8.58291 8.3423 8.57344 8.09628V3.59811L6.78461 5.38765C6.606 5.56626 6.36375 5.66661 6.11115 5.66661C5.85856 5.66661 5.61631 5.56626 5.43769 5.38765C5.25908 5.20904 5.15874 4.96679 5.15874 4.7142C5.15874 4.4616 5.25908 4.21935 5.43769 4.04074L9.47843 0L13.5192 4.04074C13.6978 4.21935 13.7981 4.4616 13.7981 4.7142C13.7981 4.96679 13.6978 5.20904 13.5192 5.38765C13.3406 5.56626 13.0983 5.66661 12.8457 5.66661C12.5931 5.66661 12.3509 5.56626 12.1723 5.38765L10.4765 3.69467ZM11.4287 6.6669H18.0956C18.3481 6.6669 18.5903 6.76722 18.7689 6.9458C18.9475 7.12437 19.0478 7.36657 19.0478 7.61911V10.4772H0V7.61911C0 7.36657 0.100322 7.12437 0.278897 6.9458C0.457471 6.76722 0.69967 6.6669 0.952213 6.6669H7.61912V8.09628C7.61424 8.3495 7.65991 8.60115 7.75345 8.83652C7.84698 9.07188 7.98651 9.28623 8.16387 9.46703C8.34123 9.64784 8.55285 9.79146 8.78638 9.88951C9.0199 9.98755 9.27062 10.0381 9.52389 10.0381C9.77716 10.0381 10.0279 9.98755 10.2614 9.88951C10.4949 9.79146 10.7066 9.64784 10.8839 9.46703C11.0613 9.28623 11.2008 9.07188 11.2943 8.83652C11.3879 8.60115 11.4335 8.3495 11.4287 8.09628V6.6669ZM19.0478 12.3809V19.0478C19.0478 19.3003 18.9475 19.5425 18.7689 19.7211C18.5903 19.8997 18.3481 20 18.0956 20H0.952213C0.699793 20 0.4577 19.8998 0.279146 19.7214C0.100591 19.5429 0.000186841 19.3009 0 19.0485V12.3816L19.0478 12.3809ZM1.90302 15.7147H7.14125V13.8117H1.90302V15.7147Z" fill="white"/>
</svg>
