<svg width="20" height="13" viewBox="0 0 20 13" fill="none" xmlns="http://www.w3.org/2000/svg">
<path d="M11.1111 8.66667V9.75H8.88889V8.66667H6.66667V6.5H8.66667L6.88889 4.76667L8.55556 3.25L10 4.65833L11.4444 3.25L13 4.76667L11.3333 6.5H13.3333V8.66667H11.1111ZM20 3.25V13H0V0H20V3.25ZM17.7778 3.79167V2.16667H2.22222V3.79167C2.88889 4.33333 3.33333 5.09167 3.33333 5.95833C3.33333 6.825 2.88889 7.58333 2.22222 8.125V10.8333H17.7778V8.125C17.1111 7.58333 16.6667 6.825 16.6667 5.95833C16.6667 5.09167 17.1111 4.33333 17.7778 3.79167Z" fill="white"/>
</svg>
