<svg width="16" height="16" viewBox="0 0 16 16" fill="none" xmlns="http://www.w3.org/2000/svg">
<path fill-rule="evenodd" clip-rule="evenodd" d="M1 2C0.447715 2 0 2.44772 0 3C0 3.55228 0.447715 4 1 4H6C6.55228 4 7 3.55228 7 3C7 2.44772 6.55228 2 6 2H1ZM1 7C0.447715 7 0 7.44772 0 8C0 8.55228 0.447715 9 1 9H6C6.55228 9 7 8.55228 7 8C7 7.44772 6.55228 7 6 7H1ZM0 13C0 12.4477 0.447715 12 1 12H15C15.5523 12 16 12.4477 16 13C16 13.5523 15.5523 14 15 14H1C0.447715 14 0 13.5523 0 13ZM13.1709 9.82227C13.1709 10.3745 12.7232 10.8223 12.1709 10.8223C11.6186 10.8223 11.1709 10.3745 11.1709 9.82227L11.1709 5.41617L10.05 6.53703C9.65951 6.92756 9.02634 6.92756 8.63582 6.53703C8.24529 6.14651 8.24529 5.51334 8.63582 5.12282L11.4275 2.33114C11.6105 2.12783 11.8758 2 12.1709 2C12.4471 2 12.6972 2.112 12.8782 2.29307L12.8787 2.29357L15.7071 5.12199C16.0976 5.51252 16.0976 6.14568 15.7071 6.53621C15.3166 6.92673 14.6834 6.92673 14.2929 6.53621L13.1709 5.41421L13.1709 9.82227Z" fill="#36AF51"/>
</svg>
