<svg width="15" height="15" viewBox="0 0 15 15" fill="none" xmlns="http://www.w3.org/2000/svg">
<path fill-rule="evenodd" clip-rule="evenodd" d="M6.53383 5.53801C6.84624 5.22559 6.84624 4.71905 6.53383 4.40663L3.73168 1.60449H5.20525C5.64708 1.60449 6.00524 1.24632 6.00524 0.804489C6.00524 0.362663 5.64708 0.00449345 5.20525 0.00449345H1.88076C1.64873 -0.0201342 1.40798 0.0564725 1.23015 0.234314C1.04842 0.416031 0.9724 0.663414 1.00206 0.90007V4.20059C1.00206 4.64243 1.36025 5.00059 1.80208 5.00059C2.24392 5.00059 2.60207 4.64243 2.60207 4.20061V2.73761L5.40245 5.53801C5.71489 5.85042 6.22142 5.85042 6.53383 5.53801ZM6.53383 8.46381C6.22142 8.15138 5.71489 8.15138 5.40248 8.46381L2.60033 11.2659V9.79239C2.60033 9.35056 2.24215 8.99239 1.80034 8.99239C1.35851 8.99239 1.00032 9.35056 1.00032 9.79239V13.1169C0.975696 13.3489 1.05233 13.5897 1.23015 13.7675C1.41185 13.9492 1.65926 14.0252 1.89592 13.9956H5.19643C5.63826 13.9956 5.99645 13.6374 5.99645 13.1956C5.99645 12.7537 5.63826 12.3956 5.19643 12.3956H3.73345L6.53383 9.59518C6.84627 9.28276 6.84627 8.77623 6.53383 8.46381ZM10.5933 5.53815C10.2809 5.85057 9.7744 5.85057 9.46199 5.53815C9.14956 5.22572 9.14956 4.71919 9.46199 4.40677L12.2624 1.60638H10.7994C10.3576 1.60638 9.99938 1.24821 9.99938 0.806389C9.99938 0.364563 10.3576 0.00638554 10.7994 0.00638554H14.0999C14.3366 -0.0232775 14.584 0.0527417 14.7657 0.234459C14.9435 0.4123 15.0201 0.65303 14.9955 0.885063V4.20956C14.9955 4.6514 14.6373 5.00957 14.1955 5.00957C13.7537 5.00957 13.3955 4.6514 13.3955 4.20956V2.73601L10.5933 5.53815ZM9.46199 8.46199C9.14959 8.77441 9.14959 9.28094 9.46199 9.59337L12.2641 12.3955H10.7906C10.3487 12.3955 9.99059 12.7537 9.99059 13.1955C9.99059 13.6373 10.3487 13.9955 10.7906 13.9955H14.1151C14.3471 14.0201 14.5878 13.9435 14.7657 13.7657C14.9474 13.584 15.0234 13.3366 14.9938 13.0999V9.79939C14.9938 9.35757 14.6356 8.9994 14.1937 8.9994C13.7519 8.9994 13.3938 9.35757 13.3938 9.79939V11.2624L10.5934 8.46199C10.2809 8.14958 9.7744 8.14958 9.46199 8.46199Z" fill="#898FA1"/>
</svg>
