<svg width="14" height="14" viewBox="0 0 14 14" fill="none" xmlns="http://www.w3.org/2000/svg">
<path d="M6.72542 5.20403H1.53376C1.31457 5.20403 1.13603 5.35428 1.13603 5.53813C1.13603 5.72196 1.31457 5.87221 1.53374 5.87221H6.72719C6.94638 5.87221 7.12491 5.72196 7.12491 5.53813C7.12315 5.35252 6.94462 5.20403 6.72542 5.20403ZM6.72542 8.15782H1.53376C1.31457 8.15782 1.13603 8.30808 1.13603 8.49191C1.13603 8.67575 1.31457 8.82601 1.53374 8.82601H6.72719C6.94638 8.82601 7.12491 8.67575 7.12491 8.49191C7.12315 8.30808 6.94462 8.15782 6.72542 8.15782ZM6.71835 11.1151H1.53907C1.31635 11.1151 1.13428 11.2654 1.13428 11.4492C1.13428 11.6331 1.31458 11.7833 1.53907 11.7833H6.71836C6.94285 11.7833 7.12316 11.6331 7.12316 11.4492C7.12316 11.2654 6.94284 11.1151 6.71835 11.1151ZM9.31331 6.97347H10.5949V2.64089C10.5949 2.42169 10.7451 2.24316 10.929 2.24316C11.1128 2.24316 11.2613 2.42169 11.2613 2.64088V6.97348H12.5429C12.7444 6.97348 12.8416 7.0265 12.861 7.0654C12.877 7.09721 12.8593 7.19443 12.7497 7.33055L11.3479 9.08408C11.233 9.22903 11.0845 9.30681 10.9307 9.30681C10.7752 9.30681 10.6285 9.22726 10.5136 9.08409L9.11001 7.32875C9.00219 7.19264 8.9845 7.09542 9.00042 7.06361C9.01279 7.02647 9.1118 6.97347 9.31331 6.97347Z" fill="white"/>
<path d="M1.54054 11.7817H12.0405C12.2633 11.7817 12.4453 11.6315 12.4453 11.4476C12.4453 11.2638 12.265 11.1136 12.0405 11.1136H1.54054C1.31782 11.1136 1.13574 11.2638 1.13574 11.4476C1.13574 11.6333 1.31605 11.7817 1.54054 11.7817ZM6.72513 2.24512H1.53347C1.31428 2.24512 1.13574 2.39537 1.13574 2.5792C1.13574 2.76305 1.31428 2.9133 1.53346 2.9133H6.72691C6.9461 2.9133 7.12463 2.76305 7.12463 2.5792C7.12286 2.39537 6.94433 2.24512 6.72513 2.24512Z" fill="white"/>
</svg>
