<svg width="14" height="14" viewBox="0 0 14 14" fill="none" xmlns="http://www.w3.org/2000/svg">
<path d="M6.72542 5.20403H1.53376C1.31457 5.20403 1.13603 5.35428 1.13603 5.53813C1.13603 5.72196 1.31457 5.87221 1.53374 5.87221H6.72719C6.94638 5.87221 7.12491 5.72196 7.12491 5.53813C7.12315 5.35252 6.94462 5.20403 6.72542 5.20403ZM6.72542 8.15782H1.53376C1.31457 8.15782 1.13603 8.30808 1.13603 8.49191C1.13603 8.67575 1.31457 8.82601 1.53374 8.82601H6.72719C6.94638 8.82601 7.12491 8.67575 7.12491 8.49191C7.12315 8.30808 6.94462 8.15782 6.72542 8.15782ZM6.71835 11.1151H1.53907C1.31635 11.1151 1.13428 11.2654 1.13428 11.4492C1.13428 11.6331 1.31458 11.7833 1.53907 11.7833H6.71836C6.94286 11.7833 7.12316 11.6331 7.12316 11.4492C7.12316 11.2654 6.94286 11.1151 6.71836 11.1151H6.71835ZM9.31331 4.5765H10.5949V8.90908C10.5949 9.12828 10.7451 9.30681 10.929 9.30681C11.1128 9.30681 11.2613 9.12828 11.2613 8.90909V4.57649H12.5429C12.7444 4.57649 12.8416 4.52347 12.861 4.48457C12.877 4.45276 12.8593 4.35554 12.7497 4.21942L11.3479 2.46589C11.233 2.32094 11.0845 2.24316 10.9307 2.24316C10.7752 2.24316 10.6285 2.32271 10.5136 2.46588L9.11001 4.22122C9.00219 4.35733 8.9845 4.45455 9.00042 4.48636C9.01279 4.5235 9.11179 4.57652 9.3133 4.57652L9.31331 4.5765Z" fill="white"/>
<path d="M1.54054 11.7817H12.0405C12.2633 11.7817 12.4453 11.6315 12.4453 11.4476C12.4453 11.2638 12.265 11.1136 12.0405 11.1136H1.54054C1.31782 11.1136 1.13574 11.2638 1.13574 11.4476C1.13574 11.6333 1.31605 11.7817 1.54054 11.7817ZM6.72513 2.24512H1.53347C1.31428 2.24512 1.13574 2.39537 1.13574 2.5792C1.13574 2.76305 1.31428 2.9133 1.53346 2.9133H6.72691C6.9461 2.9133 7.12463 2.76305 7.12463 2.5792C7.12286 2.39537 6.94433 2.24512 6.72513 2.24512Z" fill="white"/>
</svg>
