<svg width="14" height="14" viewBox="0 0 14 14" fill="none" xmlns="http://www.w3.org/2000/svg">
<path fill-rule="evenodd" clip-rule="evenodd" d="M9.47468 4.52644C9.28332 4.33508 8.97307 4.33508 8.78172 4.52644L6.9998 6.30835L5.21808 4.52664C5.02673 4.33528 4.71648 4.33528 4.52512 4.52664C4.33376 4.71799 4.33376 5.02825 4.52512 5.2196L6.30684 7.00132L4.52493 8.78322C4.33358 8.97458 4.33358 9.28483 4.52493 9.47619C4.71629 9.66754 5.02654 9.66754 5.2179 9.47619L6.9998 7.69428L8.7819 9.47639C8.97326 9.66774 9.28351 9.66774 9.47487 9.47639C9.66622 9.28503 9.66622 8.97478 9.47487 8.78342L7.69277 7.00132L9.47468 5.2194C9.66604 5.02805 9.66604 4.7178 9.47468 4.52644Z" fill="white"/>
</svg>
