<svg width="32" height="32" viewBox="0 0 32 32" fill="none" xmlns="http://www.w3.org/2000/svg">
<rect width="32" height="32" rx="8" fill="#F2F4F9"/>
<path fill-rule="evenodd" clip-rule="evenodd" d="M16.2175 19.7061C16.8508 19.7061 17.3646 20.2194 17.3646 20.8533C17.3646 21.4551 16.9013 21.9484 16.3117 21.9963L16.2175 22H10.1477C9.5144 22 9.00051 21.4867 9.00051 20.8528C9.00051 20.251 9.46381 19.7577 10.0535 19.7098L10.1477 19.7061H16.2175ZM22.7806 18.3631C22.818 18.4068 22.8385 18.4626 22.8385 18.5205V21.6862C22.8385 21.8194 22.7306 21.9279 22.5968 21.9279H18.9036C18.7704 21.9279 18.6619 21.8199 18.6619 21.6862C18.6619 21.6157 18.693 21.5488 18.7461 21.503L22.4394 18.3373C22.5405 18.2504 22.6937 18.2615 22.7806 18.3631ZM21.7613 15.1184C22.3946 15.1184 22.9085 15.6317 22.9085 16.2656C22.9085 16.8674 22.4452 17.3607 21.8555 17.4086L21.7613 17.4123H10.1472C9.51382 17.4123 9 16.899 9 16.2651C9 15.6633 9.4633 15.17 10.053 15.1221L10.1472 15.1184H21.7613ZM21.7613 10C22.3946 10 22.9085 10.5133 22.9085 11.1472C22.9085 11.749 22.4452 12.2423 21.8555 12.2902L21.7613 12.2939H10.1472C9.51382 12.2939 9 11.7805 9 11.1467C9 10.5449 9.4633 10.0516 10.053 10.0037L10.1472 10H21.7613Z" fill="#A0A5AB"/>
</svg>
