<svg width="22" height="22" viewBox="0 0 22 22" fill="none" xmlns="http://www.w3.org/2000/svg">
<path fill-rule="evenodd" clip-rule="evenodd" d="M10.9996 19C7.18622 19 3.78415 16.5317 0.800928 11.7099C0.532503 11.2767 0.532503 10.7233 0.800928 10.2901C3.78415 5.46827 7.18622 3 10.9996 3C14.813 3 18.2151 5.46827 21.1983 10.2901C21.4667 10.7233 21.4667 11.2767 21.1983 11.7099C18.2151 16.5317 14.813 19 10.9996 19ZM9.47635 4.88903C9.19706 4.9474 8.41132 5.11824 7.3623 5.73952L7.27635 5.79006C7.05144 5.92191 6.70462 6.12521 6.36575 6.38355C6.09528 6.58974 5.52403 7.11306 5.52403 7.11306C5.52403 7.11306 4.5105 8.1003 3.93532 8.8158C3.36015 9.5313 2.39865 11.0009 2.39865 11.0009C2.39865 11.0009 3.08502 12.054 3.41862 12.5041C4.01455 13.3081 4.58597 13.9481 5.00318 14.3808C5.38781 14.7797 5.91294 15.2678 6.45159 15.6683C6.82429 15.9455 7.6168 16.4126 7.6168 16.4126C7.6168 16.4126 8.03526 16.6266 8.23094 16.7094C8.67832 16.8987 9.06137 17.0144 9.33402 17.0853C9.57492 17.1479 9.88221 17.2093 10.2464 17.247C10.4747 17.2706 10.9993 17.292 10.9993 17.292C10.9993 17.292 11.7959 17.2594 12.1869 17.1851C12.9572 17.0388 13.6786 16.7665 14.1453 16.5324C14.5806 16.3142 15.2142 15.9467 15.8873 15.4006C16.0535 15.2658 16.3041 15.0448 16.5835 14.7805C16.7696 14.6046 17.1892 14.1882 17.1892 14.1882C17.1892 14.1882 17.7707 13.5356 17.993 13.2658C18.1518 13.073 18.2857 12.8916 18.4026 12.7331C18.4523 12.6657 18.4989 12.6025 18.5431 12.5443C18.9836 11.9644 19.6104 11.0009 19.6104 11.0009C19.6104 11.0009 19.2162 10.3994 19.0385 10.1403C18.6825 9.62123 18.38 9.21378 18.1419 8.91886C17.8978 8.61647 17.582 8.22839 17.1425 7.76601C16.9394 7.55234 16.4448 7.07945 16.4448 7.07945C16.4448 7.07945 16.0073 6.69898 15.8212 6.54948C15.5824 6.35763 15.3705 6.20975 15.2252 6.10921C14.6449 5.70747 14.0916 5.43247 13.6871 5.25827C13.3897 5.1302 12.9531 4.96954 12.4598 4.86248C12.1267 4.7902 11.7631 4.75077 11.417 4.7303C11.0254 4.70714 10.653 4.72084 10.331 4.75341C9.93181 4.79379 9.61458 4.86012 9.48321 4.88759L9.47635 4.88903ZM14.4665 11.0021C14.4665 12.8957 12.9145 14.4307 10.9999 14.4307C9.08528 14.4307 7.5332 12.8957 7.5332 11.0021C7.5332 9.10859 9.08528 7.57357 10.9999 7.57357C12.9145 7.57357 14.4665 9.10859 14.4665 11.0021ZM12.7334 11.0031C12.7334 11.9499 11.9573 12.7174 11 12.7174C10.0427 12.7174 9.26671 11.9499 9.26671 11.0031C9.26671 10.0564 10.0427 9.28885 11 9.28885C11.9573 9.28885 12.7334 10.0564 12.7334 11.0031Z" fill="#898FA1"/>
</svg>
