<svg width="14" height="14" viewBox="0 0 14 14" fill="none" xmlns="http://www.w3.org/2000/svg">
<g clip-path="url(#clip0_572_16222)">
<path d="M0.830798 6.0927H9.93494C10.1092 5.75061 10.3924 5.47626 10.7398 5.3129C11.0873 5.14954 11.4792 5.10647 11.8538 5.19049C12.2284 5.2745 12.5644 5.48081 12.8088 5.7769C13.0532 6.07298 13.1921 6.44199 13.2036 6.82575C13.2151 7.2095 13.0986 7.58616 12.8723 7.89635C12.6461 8.20653 12.323 8.43259 11.9541 8.53887C11.5852 8.64516 11.1914 8.62562 10.8348 8.48335C10.4782 8.34108 10.1791 8.08417 9.98468 7.75312H0.830798C0.720382 7.75532 0.610636 7.73547 0.507985 7.69474C0.405334 7.65401 0.311839 7.5932 0.232974 7.5159C0.154109 7.43859 0.0914572 7.34632 0.0486869 7.2445C0.00591661 7.14268 -0.0161133 7.03335 -0.0161133 6.92291C-0.0161133 6.81248 0.00591661 6.70315 0.0486869 6.60133C0.0914572 6.49951 0.154109 6.40724 0.232974 6.32993C0.311839 6.25262 0.405334 6.19182 0.507985 6.15109C0.610636 6.11035 0.720382 6.09051 0.830798 6.0927ZM2.14833 1.31665H5.97477C6.12823 1.04235 6.35206 0.813921 6.62319 0.654924C6.89433 0.495927 7.20296 0.412109 7.51727 0.412109C7.83159 0.412109 8.14021 0.495927 8.41135 0.654924C8.68248 0.813921 8.90631 1.04235 9.05977 1.31665H12.8477C13.068 1.31665 13.2793 1.40417 13.4351 1.55996C13.5909 1.71575 13.6784 1.92704 13.6784 2.14736C13.6784 2.36767 13.5909 2.57897 13.4351 2.73475C13.2793 2.89054 13.068 2.97806 12.8477 2.97806H9.05055C8.89568 3.24811 8.67228 3.4725 8.40291 3.62854C8.13354 3.78458 7.82775 3.86676 7.51645 3.86676C7.20514 3.86676 6.89936 3.78458 6.62999 3.62854C6.36062 3.4725 6.13721 3.24811 5.98235 2.97806H2.14734C1.92702 2.97806 1.71573 2.89054 1.55995 2.73475C1.40416 2.57897 1.31664 2.36767 1.31664 2.14736C1.31664 1.92704 1.40416 1.71575 1.55995 1.55996C1.71573 1.40417 1.92702 1.31665 2.14734 1.31665H2.14833ZM3.35058 10.1346C3.67242 10.1334 3.9884 10.2206 4.26407 10.3868C4.53973 10.5529 4.76449 10.7915 4.91383 11.0766H13.1784C13.3986 11.0766 13.6098 11.1641 13.7655 11.3198C13.9213 11.4755 14.0087 11.6867 14.0087 11.907C14.0087 12.1272 13.9213 12.3384 13.7655 12.4941C13.6098 12.6499 13.3986 12.7373 13.1784 12.7373H4.86409C4.70706 12.9978 4.48521 13.213 4.22018 13.3621C3.95515 13.5113 3.65599 13.5891 3.35189 13.5881C3.12312 13.5913 2.896 13.549 2.68373 13.4636C2.47146 13.3782 2.27826 13.2516 2.11537 13.0909C1.95247 12.9302 1.82312 12.7388 1.73484 12.5277C1.64655 12.3167 1.60109 12.0901 1.60109 11.8614C1.60109 11.6326 1.64655 11.406 1.73484 11.195C1.82312 10.9839 1.95247 10.7925 2.11537 10.6318C2.27826 10.4711 2.47146 10.3445 2.68373 10.2591C2.896 10.1737 3.12312 10.1314 3.35189 10.1346H3.35058Z" fill="#AAB0BA"/>
</g>
<defs>
<clipPath id="clip0_572_16222">
<rect width="14" height="14" fill="white"/>
</clipPath>
</defs>
</svg>
