<svg width="20" height="20" viewBox="0 0 20 20" fill="none" xmlns="http://www.w3.org/2000/svg">
<rect width="20" height="20" fill="#C61D1D" fill-opacity="0.01"/>
<path fill-rule="evenodd" clip-rule="evenodd" d="M9.91929 1.18663C9.64753 1.28063 9.42431 1.47156 9.20662 1.65944L4.36403 5.83909C3.80225 6.32396 3.08489 6.59073 2.3428 6.59073C1.74629 6.59073 1.26331 7.08999 1.26331 7.70785V12.1761C1.26331 12.7931 1.74631 13.2932 2.3428 13.2932C2.96347 13.2932 3.56372 13.515 4.03527 13.9186L9.44319 18.5471C9.50331 18.5985 9.56554 18.647 9.63469 18.6855C9.96212 18.8677 10.9712 19.2996 10.9714 17.7022C10.9714 17.702 10.9716 17.7018 10.9718 17.7018C10.9721 17.7018 10.9723 17.7016 10.9723 17.7014V2.30843C10.9722 1.03836 10.3455 1.03922 9.91929 1.18663ZM14.2084 7.33497C14.2084 7.33496 14.2083 7.33496 14.2083 7.33495C13.9141 7.15494 13.6676 7.32068 13.4848 7.55959C13.1827 7.9544 13.3211 8.49771 13.5343 8.94685C13.847 9.60556 14.129 10.6381 13.4927 11.5681C13.2833 11.8744 12.9503 12.1786 13.0923 12.5213C13.1511 12.6635 13.2563 12.7967 13.3936 12.89C13.8656 13.2104 14.4579 12.7574 14.7977 12.2992C15.9513 10.7438 15.6746 8.44695 14.2084 7.33499C14.2084 7.33499 14.2084 7.33498 14.2084 7.33497ZM14.3884 5.47376C14.1767 5.25472 14.1401 5.02683 14.198 4.82245C14.4199 4.03915 15.5088 4.30978 16.1659 4.79042C19.8417 7.47911 19.6511 13.7604 15.107 15.8995C14.5676 16.1172 13.8491 15.1238 14.3884 14.5964C18.0136 11.4312 17.9539 8.54593 14.3884 5.47376Z" fill="url(#paint0_linear_80_2097)"/>
<defs>
<linearGradient id="paint0_linear_80_2097" x1="1.26328" y1="1.12109" x2="1.26328" y2="18.8785" gradientUnits="userSpaceOnUse">
<stop stop-color="#28D853"/>
<stop offset="1" stop-color="#1E9B3A"/>
</linearGradient>
</defs>
</svg>
