<svg width="24" height="24" viewBox="0 0 24 24" fill="none" xmlns="http://www.w3.org/2000/svg">
<path fill-rule="evenodd" clip-rule="evenodd" d="M14.1671 18.4913L12.0993 22.7999L9.6256 18.4921C10.3379 18.7378 11.0994 18.878 11.8953 18.878C12.6919 18.878 13.4541 18.7374 14.1671 18.4913ZM18.325 14.5905L19.5414 19.3927L14.6081 18.3296C16.2846 17.6199 17.624 16.2717 18.325 14.5905ZM5.64848 14.9775C6.38812 16.4831 7.64909 17.6853 9.20285 18.3373L4.62919 19.3927L5.64848 14.9775ZM12.0002 5.99995C15.3139 5.99995 18.0002 8.68624 18.0002 12C18.0002 15.3137 15.3139 18 12.0002 18C8.68652 18 6.00023 15.3137 6.00023 12C6.00023 8.68624 8.68652 5.99995 12.0002 5.99995ZM5.31115 9.65836C5.06874 10.3662 4.93074 11.123 4.93074 11.9134C4.93074 12.8812 5.12898 13.8031 5.48602 14.6409L1.42676 11.92L5.31115 9.65836ZM18.3016 9.17939L22.5737 11.5907L18.4294 14.305C18.7028 13.5581 18.8598 12.7549 18.8598 11.9134C18.8598 10.9427 18.6605 10.0191 18.3016 9.17939ZM3.89503 4.44692C3.89503 4.44692 4.94791 4.70044 6.08232 4.97769L6.53813 5.08931C7.37331 5.29427 8.18269 5.49552 8.58318 5.60242L8.75878 5.65084L8.81185 5.667C7.36835 6.38182 6.21179 7.58401 5.54808 9.05672L3.89503 4.44692ZM19.2066 4.08039C19.2066 4.08039 18.1512 8.37805 18.0442 8.65076C17.2852 7.22259 16.0458 6.09049 14.5388 5.47132L19.2066 4.08039ZM11.735 1.19995L14.166 5.33479C13.4534 5.08873 12.6915 4.94854 11.8953 4.94854C11.0662 4.94854 10.2721 5.09676 9.53506 5.36326C9.45037 5.39393 11.735 1.19995 11.735 1.19995Z" fill="white"/>
</svg>
