<svg width="14" height="14" viewBox="0 0 14 14" fill="none" xmlns="http://www.w3.org/2000/svg">
<g clip-path="url(#clip0_720_14027)">
<path d="M7.13941 14C7.04635 13.9999 6.95493 13.9755 6.87417 13.9293L3.93007 11.887C3.85874 11.8372 3.80029 11.7711 3.75955 11.6942C3.71881 11.6174 3.69695 11.5319 3.69578 11.4449V5.01738L0.137207 0.570275L0.252146 0.274087C0.292323 0.19124 0.355195 0.121502 0.433451 0.0729848C0.511706 0.0244676 0.602128 -0.000834678 0.694199 2.10064e-05H10.9632L11.2417 0.52606L11.0605 0.786878L7.6522 5.01737V13.4651C7.6522 13.5354 7.63836 13.6049 7.61148 13.6698C7.5846 13.7347 7.5452 13.7937 7.49553 13.8433C7.44587 13.893 7.3869 13.9324 7.32201 13.9593C7.25711 13.9862 7.18756 14 7.11731 14H7.13941ZM4.55779 11.2637L6.76808 12.8197V4.70793L9.86249 0.884126H1.52086L4.55779 4.70793V11.2637Z" fill="black"/>
<path d="M9.88445 6.18848H13.4209C13.7156 6.18848 13.863 6.33583 13.863 6.63053C13.863 6.92524 13.7156 7.0726 13.4209 7.0726H9.88445C9.58974 7.0726 9.44238 6.92524 9.44238 6.63053C9.44238 6.33583 9.58974 6.18848 9.88445 6.18848ZM9.88445 8.6198H13.4209C13.7156 8.6198 13.863 8.76715 13.863 9.06185C13.863 9.35656 13.7156 9.50391 13.4209 9.50391H9.88445C9.58974 9.50391 9.44238 9.35656 9.44238 9.06185C9.44238 8.76715 9.58974 8.6198 9.88445 8.6198ZM9.88445 11.0511H13.4209C13.7156 11.0511 13.863 11.1985 13.863 11.4932C13.863 11.7879 13.7156 11.9352 13.4209 11.9352H9.88445C9.58974 11.9352 9.44238 11.7879 9.44238 11.4932C9.44238 11.1985 9.58974 11.0511 9.88445 11.0511Z" fill="black"/>
</g>
<defs>
<clipPath id="clip0_720_14027">
<rect width="14" height="14" fill="white"/>
</clipPath>
</defs>
</svg>
