<svg width="24" height="24" viewBox="0 0 24 24" fill="none" xmlns="http://www.w3.org/2000/svg">
<path fill-rule="evenodd" clip-rule="evenodd" d="M8.7944 1.50112C8.86529 1.48317 8.93954 1.47363 9.01601 1.47363C9.51306 1.47363 9.91601 1.87658 9.91601 2.37363C9.91601 2.41467 9.91326 2.45507 9.90794 2.49466C9.88647 2.76328 9.87559 3.04365 9.87559 3.32657C9.87559 9.29124 14.7109 14.1266 20.6756 14.1266C20.9828 14.1266 21.2871 14.1137 21.5879 14.0886L21.5896 14.0896L21.6247 14.0886C22.0836 14.0886 22.4622 14.4319 22.5177 14.8757L22.5247 14.9886C22.5247 15.0989 22.5049 15.2045 22.4686 15.3022C20.9928 19.5105 16.9864 22.5266 12.2756 22.5266C6.31091 22.5266 1.47559 17.6912 1.47559 11.7266C1.47559 7.02553 4.47917 3.02602 8.67197 1.54239C8.69192 1.53345 8.71295 1.52563 8.73434 1.51859L8.7944 1.50112Z" fill="#767D8D"/>
</svg>
