<svg width="22" height="22" viewBox="0 0 22 22" fill="none" xmlns="http://www.w3.org/2000/svg">
<path d="M3.24987 6.96678L4.47719 8.18658C4.27239 8.41105 4.09187 8.62048 3.93561 8.81487C3.55216 9.29187 3.03993 10.0202 2.39894 11C2.85652 11.702 3.19651 12.2031 3.41891 12.5031C4.01484 13.3071 4.58624 13.9472 5.00346 14.3799C5.38809 14.7788 5.91322 15.2669 6.45187 15.6674C6.70034 15.8522 7.08875 16.1002 7.61709 16.4116C7.89606 16.5543 8.10077 16.6532 8.23123 16.7084C8.67861 16.8977 9.06165 17.0135 9.3343 17.0843C9.57521 17.147 9.88249 17.2083 10.2467 17.2461C10.3989 17.2618 10.6499 17.2768 10.9996 17.2911C11.5306 17.2694 11.9265 17.2337 12.1872 17.1842C12.5733 17.1109 12.947 17.0059 13.2826 16.8899L14.6138 18.2098C13.4533 18.7352 12.2485 19 10.9996 19C7.18622 19 3.78415 16.5317 0.800928 11.7099C0.532503 11.2767 0.532503 10.7233 0.800928 10.2901C1.58812 9.01777 2.40448 7.90928 3.24987 6.96678ZM10.9996 3C14.813 3 18.2151 5.46827 21.1983 10.2901C21.4667 10.7233 21.4667 11.2767 21.1983 11.7099C20.0406 13.5811 18.8197 15.098 17.5363 16.2536L18.9663 17.667L17.7407 18.8792L15.006 16.1744L14.9218 16.0921L3.03287 4.333L4.25852 3.12081L5.82737 4.67023C7.45744 3.56088 9.18179 3 10.9996 3ZM10.3313 4.75248C9.92496 4.79358 9.60356 4.86157 9.47664 4.8881C9.19735 4.94647 8.41159 5.11732 7.36257 5.7386C7.28718 5.78325 7.18948 5.83966 7.07772 5.9068L16.3049 15.0379C16.3928 14.9582 16.4866 14.8715 16.5838 14.7796C16.7079 14.6623 16.9098 14.4649 17.1895 14.1873C17.5771 13.7522 17.845 13.4448 17.9932 13.2649C18.2197 12.9901 18.3952 12.7384 18.5434 12.5434C18.8371 12.1568 19.1928 11.6423 19.6107 11C19.5406 10.8931 19.4757 10.7942 19.4159 10.7035L19.1185 10.2567C19.0891 10.213 19.0625 10.1739 19.0388 10.1394C18.6828 9.6203 18.3803 9.21285 18.1422 8.91793C17.8981 8.61554 17.5822 8.22746 17.1428 7.76509C17.0074 7.62264 16.7748 7.39379 16.4451 7.07853C16.3284 6.97707 16.2251 6.88792 16.1353 6.8111L15.906 6.61759C15.8745 6.5915 15.8463 6.56848 15.8215 6.54855C15.5827 6.3567 15.3707 6.20882 15.2255 6.10828C14.6452 5.70654 14.0919 5.43153 13.6874 5.25734C13.39 5.12927 12.9534 4.96861 12.4601 4.86156C12.127 4.78928 11.7634 4.74984 11.4173 4.72937C11.0257 4.70621 10.6533 4.71991 10.3313 4.75248Z" fill="#898FA1"/>
</svg>
