<svg width="500" height="500" viewBox="0 0 500 500" fill="none" xmlns="http://www.w3.org/2000/svg">
<path d="M0 0H500V500H0V0Z" fill="#EAEBEE"/>
<path fill-rule="evenodd" clip-rule="evenodd" d="M91.1522 238.349C93.3354 240.61 95.5613 242.826 97.8051 245.029C98.32 245.534 98.3515 245.848 97.8433 246.409C90.4148 254.589 81.527 260.571 71.1553 264.341C69.9379 264.781 69.9365 264.779 69.3608 263.662L69.3364 263.615C67.9492 260.93 67.0881 258.071 66.5462 255.11C66.5069 254.903 66.4807 254.695 66.4547 254.486L66.4547 254.486C66.4436 254.397 66.4324 254.308 66.4203 254.22C66.3655 253.755 66.6959 253.644 67.0152 253.538L67.0791 253.516C71.4926 252.021 75.6408 249.983 79.517 247.397C83.3212 244.86 86.7589 241.902 89.7582 238.448C90.2506 237.882 90.5497 237.729 91.1522 238.349ZM95.5452 220.787C93.6421 225.813 90.9404 230.366 87.4537 234.483C84.9455 237.446 82.1628 240.118 79.009 242.378C76.4513 244.215 73.7586 245.869 70.8455 247.136C70.7059 247.197 70.5664 247.258 70.4269 247.319C69.4468 247.746 68.4671 248.174 67.4668 248.552C66.5872 248.884 66.3465 248.748 66.4297 247.853C66.9449 242.429 68.6298 237.417 71.7656 232.9C74.7574 228.582 78.6806 225.316 83.3596 222.976C86.7946 221.259 90.4973 220.322 94.2382 220.008C94.3469 220.008 94.4428 220.009 94.5302 220.01C94.6997 220.013 94.8373 220.015 94.9738 220.006C95.5969 219.961 95.7814 220.168 95.5452 220.787ZM101.341 220.002C103.252 220.285 104.982 220.755 106.694 221.3C107.855 221.667 108.949 222.18 110.044 222.694C110.335 222.831 110.626 222.967 110.918 223.101C111.531 223.379 111.664 223.775 111.438 224.399C109.618 229.391 107.403 234.181 104.473 238.605C104.031 239.268 103.582 239.927 103.133 240.586L103.133 240.586C102.895 240.936 102.657 241.285 102.42 241.636C102.118 242.083 101.815 242.221 101.35 241.787C98.947 239.532 96.6746 237.148 94.4267 234.735C94.028 234.308 94.0037 233.968 94.3381 233.482C97.0113 229.61 99.0245 225.392 100.555 220.925C100.565 220.894 100.576 220.862 100.586 220.831C100.726 220.412 100.874 219.968 101.341 220.002ZM125.281 240.516C125.524 240.541 125.566 240.793 125.606 241.032C125.619 241.112 125.632 241.19 125.652 241.258C128.16 250.152 126.986 258.57 121.929 266.275C116.928 273.886 109.771 278.353 100.694 279.693C96.3866 280.328 92.1645 279.963 88.0007 278.745C87.9405 278.727 87.879 278.712 87.8164 278.696L87.8164 278.696C87.5326 278.625 87.2274 278.549 86.9267 278.225C87.4053 278.014 87.8723 277.809 88.3323 277.607L88.3329 277.607C89.004 277.312 89.6598 277.025 90.3142 276.734C96.5208 273.962 102.139 270.295 107.218 265.791C112.595 261.027 117.114 255.566 120.743 249.38C122.292 246.744 123.668 244.019 124.804 241.18C124.827 241.123 124.846 241.057 124.865 240.99C124.933 240.75 125.008 240.489 125.281 240.516ZM90.149 260.323C92.3935 262.578 94.6401 264.831 96.9046 267.064C97.3863 267.539 97.1865 267.774 96.7314 268.069C93.983 269.854 91.1081 271.411 88.1177 272.748C86.0197 273.684 83.8708 274.5 81.6729 275.185C81.4746 275.248 81.275 275.303 81.1188 275.347C81.0969 275.353 81.0758 275.359 81.0558 275.364C81.0363 275.37 81.0178 275.375 81.0003 275.38C80.6206 275.411 80.392 275.276 80.1677 275.132C77.5592 273.426 75.2748 271.362 73.2768 268.974C72.9349 268.566 73.0592 268.384 73.5054 268.224C79.0666 266.253 84.2504 263.547 89.0923 260.183C89.5429 259.871 89.8138 259.986 90.149 260.323ZM116.233 226.589C117.701 227.94 119.157 229.311 120.347 230.925C120.93 231.712 121.503 232.511 122.06 233.319C122.15 233.448 122.2 233.606 122.247 233.754C122.267 233.819 122.288 233.883 122.31 233.941C122.043 235.207 121.601 236.376 121.16 237.54L121.16 237.54C121.084 237.741 121.008 237.943 120.933 238.145C119.716 241.388 118.17 244.476 116.415 247.452C114.095 251.384 111.342 254.988 108.206 258.319C106.345 260.298 104.355 262.121 102.333 263.921C101.337 264.808 101.271 264.85 100.436 264.023L100.271 263.858L97.1527 260.721C96.1126 259.677 95.0703 258.634 94.0214 257.598C93.5293 257.114 93.375 256.829 94.0258 256.283C98.5707 252.452 102.626 248.156 106.119 243.331C109.378 238.825 112.098 234.017 114.241 228.882C114.373 228.564 114.482 228.236 114.592 227.908C114.708 227.558 114.825 227.208 114.97 226.869C115.334 226.005 115.531 225.942 116.233 226.589ZM331.332 239.647C328.68 236.438 324.864 234.872 319.843 234.872C309.718 234.872 303.331 241.574 303.331 252.128C303.331 257.624 305.017 262.398 308.072 265.448C310.923 268.338 314.903 269.743 320.005 269.743C322.977 269.743 325.91 269.26 328.52 268.378C330.251 267.802 331.318 267.299 333.345 266.026C333.507 265.925 333.606 265.727 333.583 265.538C333.39 263.966 333.348 262.731 333.343 260.392L333.343 255.119C333.347 253.004 333.407 251.758 333.55 250.502C333.586 250.201 333.333 249.947 333.032 249.969C331.51 250.088 330.136 250.122 328.319 250.122L324.871 250.122C322.578 250.12 321.562 250.084 320.381 249.949C320.095 249.915 319.843 250.133 319.843 250.421V256.441C319.843 256.727 320.091 256.949 320.372 256.918C320.448 256.909 320.523 256.901 320.597 256.894L320.819 256.872C321.592 256.801 322.359 256.781 323.821 256.781H325.748V261.049C325.748 261.236 325.636 261.416 325.465 261.497C323.612 262.401 321.95 262.801 319.924 262.801C317.393 262.801 315.426 262.039 314.138 260.633C312.533 258.868 311.688 255.98 311.688 252.247C311.688 245.505 314.5 241.774 319.643 241.774C321.331 241.774 322.653 242.177 323.7 243.02C324.492 243.629 324.963 244.309 325.368 245.485C325.451 245.716 325.69 245.865 325.931 245.811L333.176 244.142C333.457 244.079 333.619 243.771 333.523 243.501C332.937 241.871 332.314 240.776 331.332 239.647ZM172.362 239.647C169.71 236.438 165.894 234.872 160.873 234.872C150.748 234.872 144.361 241.574 144.361 252.128C144.361 257.624 146.047 262.398 149.103 265.448C151.953 268.338 155.931 269.743 161.035 269.743C164.007 269.743 166.941 269.26 169.552 268.378C171.279 267.802 172.348 267.299 174.375 266.026C174.537 265.925 174.636 265.727 174.613 265.538C174.42 263.966 174.378 262.731 174.373 260.392L174.373 255.119C174.377 253.004 174.437 251.758 174.58 250.502C174.616 250.201 174.364 249.947 174.062 249.969C172.54 250.088 171.166 250.122 169.35 250.122L165.901 250.122C163.608 250.12 162.592 250.084 161.411 249.949C161.125 249.915 160.873 250.133 160.873 250.421V256.441C160.873 256.727 161.121 256.949 161.402 256.918C161.448 256.913 161.494 256.908 161.539 256.903C161.569 256.9 161.598 256.897 161.627 256.894L161.849 256.872C162.622 256.801 163.389 256.781 164.851 256.781H166.778V261.049C166.778 261.236 166.666 261.416 166.495 261.497C164.642 262.401 162.98 262.801 160.954 262.801C158.423 262.801 156.456 262.039 155.168 260.633C153.563 258.868 152.718 255.98 152.718 252.247C152.718 245.505 155.528 241.774 160.673 241.774C162.361 241.774 163.683 242.177 164.73 243.02C165.522 243.629 165.993 244.309 166.398 245.485C166.481 245.716 166.72 245.865 166.961 245.811L174.206 244.142C174.485 244.079 174.649 243.771 174.553 243.501C173.967 241.871 173.344 240.776 172.362 239.647ZM432.948 252.891C431.562 246.97 427.242 243.59 421.06 243.59C413.492 243.59 408.456 248.796 408.456 256.667C408.456 260.601 409.722 263.98 412.061 266.364C414.323 268.629 417.375 269.743 421.258 269.743C425.18 269.743 428.352 268.592 430.614 266.364C431.624 265.35 432.208 264.499 432.995 262.791C433.117 262.526 432.975 262.2 432.695 262.12L426.762 260.445C426.52 260.378 426.273 260.523 426.187 260.759C425.92 261.494 425.645 261.879 425.143 262.35C424.112 263.305 422.726 263.822 421.138 263.822C418.201 263.822 416.377 262.316 415.838 259.467C415.784 259.175 416.02 258.892 416.317 258.892H433.586C433.543 258.496 433.543 258.255 433.543 258.097C433.426 255.831 433.266 254.161 432.948 252.891ZM227.657 236.425C227.683 236.143 227.466 235.898 227.187 235.898H220.214C219.933 235.898 219.716 236.15 219.747 236.434C219.935 238.096 219.999 239.522 219.999 242.151V262.774C219.999 265.193 219.935 266.793 219.747 268.494C219.714 268.777 219.931 269.027 220.212 269.027H227.433V267.751C227.433 267.679 227.428 267.565 227.42 267.443L227.409 267.259L227.408 267.246C227.399 267.1 227.391 266.969 227.391 266.916C229.961 269.067 231.9 269.743 235.181 269.743C238.66 269.743 241.348 268.708 243.404 266.637C245.697 264.207 246.922 260.784 246.922 256.526C246.922 248.64 242.732 244.023 235.536 244.023C232.254 244.023 229.726 244.938 227.391 247.006C227.433 246.449 227.433 246.092 227.433 245.496L227.433 241.873C227.438 239.415 227.503 238.032 227.657 236.425ZM270.191 245.502C268.629 244.663 265.745 244.103 262.782 244.103C258.897 244.103 255.935 244.863 253.771 246.383C252.227 247.486 251.358 248.654 250.606 250.665C250.501 250.945 250.685 251.268 250.981 251.315L257.672 252.4C257.896 252.436 258.105 252.297 258.186 252.086C258.843 250.396 260.188 249.663 262.583 249.663C265.224 249.663 266.385 250.542 266.385 252.463V253.382C263.503 253.463 262.302 253.503 260.738 253.662C257.135 253.983 254.453 254.824 252.409 256.263C250.487 257.583 249.486 259.583 249.486 262.103C249.486 264.304 250.249 266.223 251.688 267.544C253.291 269.024 255.575 269.743 258.617 269.743C261.9 269.743 264.145 269.064 266.385 267.344V269.183H273.625C273.91 269.183 274.126 268.934 274.099 268.651C273.939 267.084 273.876 265.699 273.876 263.504V252.705C273.876 249.102 272.754 246.903 270.191 245.502ZM357.366 245.502C355.804 244.663 352.92 244.103 349.959 244.103C346.072 244.103 343.112 244.863 340.948 246.383C339.402 247.486 338.535 248.654 337.783 250.665C337.678 250.945 337.86 251.268 338.156 251.315L344.847 252.4C345.071 252.436 345.28 252.297 345.363 252.086C346.02 250.396 347.365 249.663 349.757 249.663C352.399 249.663 353.562 250.542 353.562 252.463V253.382C350.68 253.463 349.477 253.503 347.915 253.662C344.31 253.983 341.63 254.824 339.583 256.263C337.662 257.583 336.663 259.583 336.663 262.103C336.663 264.304 337.424 266.223 338.865 267.544C340.465 269.024 342.75 269.743 345.791 269.743C349.075 269.743 351.319 269.064 353.562 267.344V269.183H360.802C361.085 269.183 361.303 268.934 361.276 268.651C361.116 267.084 361.051 265.699 361.051 263.504V252.705C361.051 249.102 359.929 246.903 357.366 245.502ZM216.154 256.567C216.154 248.663 211.075 243.59 203.055 243.59C196.091 243.59 191.342 247.419 190.214 253.66C188.567 262.786 196.725 271.135 205.809 269.548C212.127 268.445 216.154 263.535 216.154 256.567ZM186.908 236.437C186.944 236.15 186.725 235.898 186.439 235.898H179.201C178.913 235.898 178.694 236.152 178.732 236.441C178.91 237.831 178.973 239.437 178.973 241.947V263.181C178.973 265.773 178.908 267.136 178.723 268.692C178.687 268.977 178.908 269.23 179.194 269.23H186.452C186.734 269.23 186.95 268.974 186.921 268.692C186.729 266.839 186.662 265.377 186.662 263.181V241.947C186.662 239.515 186.725 237.944 186.908 236.437ZM405.121 253.281C405.121 247.23 402.204 244.103 396.485 244.103C393.011 244.103 390.571 245.143 388.094 247.589C387.574 246.587 387.173 246.106 386.456 245.585C385.135 244.624 383.417 244.143 381.34 244.143C378.181 244.143 375.744 245.183 373.703 247.427V247.03C373.738 246.689 373.743 246.637 373.744 246.532L373.744 244.784H366.381C366.089 244.784 365.87 245.04 365.908 245.329C366.087 246.706 366.15 248.144 366.15 250.835V263.179C366.15 265.457 366.085 267.052 365.897 268.696C365.863 268.979 366.083 269.23 366.367 269.23H373.531C373.815 269.23 374.033 268.977 374.001 268.694C373.809 266.969 373.744 265.47 373.744 263.179V255.192C373.744 255.12 373.759 255.048 373.789 254.983C374.909 252.322 376.73 250.796 378.86 250.796C379.821 250.796 380.619 251.156 381.06 251.798C381.577 252.479 381.739 253.24 381.739 254.925V263.179C381.739 265.488 381.674 267.083 381.486 268.694C381.452 268.979 381.669 269.23 381.956 269.23H389.198C389.483 269.23 389.7 268.979 389.669 268.696C389.478 266.984 389.413 265.399 389.413 263.22V255.143C389.413 255.078 389.427 255.008 389.449 254.947C390.457 252.322 392.274 250.754 394.288 250.754C396.566 250.754 397.446 251.917 397.446 254.925V263.179C397.446 265.639 397.384 267.054 397.193 268.691C397.16 268.977 397.379 269.23 397.664 269.23H404.904C405.19 269.23 405.408 268.979 405.376 268.694C405.186 267.025 405.121 265.466 405.121 263.22V253.281ZM286.392 236.437C286.428 236.15 286.209 235.898 285.923 235.898H278.685C278.397 235.898 278.178 236.152 278.216 236.441C278.395 237.831 278.455 239.437 278.455 241.947L278.455 263.445C278.451 265.867 278.386 267.189 278.207 268.692C278.172 268.977 278.39 269.23 278.678 269.23H285.937C286.218 269.23 286.435 268.974 286.406 268.692C286.211 266.839 286.147 265.377 286.147 263.181V241.947C286.147 239.515 286.209 237.944 286.392 236.437ZM346.633 259.303C348.276 258.783 349.997 258.583 353.562 258.502V259.623C353.562 260.823 353.041 261.903 352.118 262.704C351.039 263.623 349.237 264.224 347.596 264.224C345.511 264.224 344.31 263.383 344.31 261.944C344.31 260.782 345.192 259.783 346.633 259.303ZM259.458 259.303C261.101 258.783 262.82 258.583 266.385 258.502V259.623C266.385 260.823 265.866 261.903 264.944 262.704C263.864 263.623 262.062 264.224 260.421 264.224C258.336 264.224 257.135 263.383 257.135 261.944C257.135 260.782 258.015 259.783 259.458 259.303ZM197.54 256.607C197.54 252.217 199.604 249.581 203.095 249.581C206.47 249.581 208.496 252.217 208.496 256.688C208.496 261.119 206.51 263.714 203.055 263.714C199.604 263.714 197.54 261.038 197.54 256.607ZM227.511 256.725C227.511 252.862 230.081 250.075 233.679 250.075C237.156 250.075 239.254 252.543 239.254 256.604C239.254 260.824 236.961 263.651 233.522 263.651C230.121 263.651 227.511 260.665 227.511 256.725ZM415.866 253.408C416.542 250.786 418.245 249.511 421.06 249.511C423.794 249.511 425.498 250.864 426.053 253.408H415.866Z" fill="black" fill-opacity="0.2"/>
</svg>
