<svg width="28" height="28" viewBox="0 0 28 28" fill="none" xmlns="http://www.w3.org/2000/svg">
<path fill-rule="evenodd" clip-rule="evenodd" d="M13.931 21.0431C16.537 21.0431 18.6496 18.9306 18.6496 16.3246C18.6496 13.7186 16.537 11.606 13.931 11.606C11.325 11.606 9.21247 13.7186 9.21247 16.3246C9.21247 18.9306 11.325 21.0431 13.931 21.0431ZM13.931 27.7839C20.2598 27.7839 25.3904 22.6534 25.3904 16.3246C25.3904 9.99575 20.2598 4.86523 13.931 4.86523C7.6022 4.86523 2.47168 9.99575 2.47168 16.3246C2.47168 22.6534 7.6022 27.7839 13.931 27.7839Z" fill="#41D662"/>
<path d="M2.47168 4.19266C2.47168 2.33124 3.98066 0.822266 5.84207 0.822266C7.70349 0.822266 9.21247 2.33124 9.21247 4.19266V16.3261C9.21247 18.1875 7.70349 19.6965 5.84207 19.6965C3.98066 19.6965 2.47168 18.1875 2.47168 16.3261V4.19266Z" fill="#41D662"/>
<path fill-rule="evenodd" clip-rule="evenodd" d="M10.9395 9.10336C11.0819 9.44736 10.9165 9.83878 10.5876 10.0132C9.97506 10.3379 9.39919 10.7586 8.88161 11.2761C8.36404 11.7937 7.94338 12.3696 7.61864 12.9821C7.44425 13.311 7.05283 13.4764 6.70883 13.3341L5.79122 12.9544C5.44721 12.8121 5.28155 12.4165 5.4481 12.0836C5.8931 11.194 6.4862 10.3606 7.22613 9.62066C7.96606 8.88073 8.79947 8.28763 9.68903 7.84263C10.022 7.67608 10.4175 7.84174 10.5599 8.18575L10.9395 9.10336ZM18.9811 11.2761C18.4636 10.7586 17.8877 10.3379 17.2752 10.0132C16.9463 9.83878 16.7809 9.44736 16.9232 9.10336L17.3029 8.18575C17.4452 7.84175 17.8408 7.67608 18.1737 7.84263C19.0633 8.28763 19.8967 8.88073 20.6366 9.62066C21.3765 10.3606 21.9696 11.194 22.4146 12.0836C22.5812 12.4165 22.4155 12.8121 22.0715 12.9544L21.1539 13.3341C20.8099 13.4764 20.4185 13.311 20.2441 12.9821C19.9194 12.3696 19.4987 11.7937 18.9811 11.2761ZM6.70883 19.3177C7.05283 19.1754 7.44425 19.3408 7.61864 19.6697C7.94338 20.2822 8.36404 20.8581 8.88161 21.3757C9.39919 21.8932 9.97506 22.3139 10.5876 22.6386C10.9165 22.813 11.0818 23.2044 10.9395 23.5484L10.5599 24.4661C10.4175 24.8101 10.022 24.9757 9.68903 24.8092C8.79947 24.3642 7.96606 23.7711 7.22613 23.0311C6.4862 22.2912 5.8931 21.4578 5.4481 20.5682C5.28155 20.2353 5.44721 19.8397 5.79122 19.6974L6.70883 19.3177ZM18.9811 21.3757C19.4987 20.8581 19.9194 20.2822 20.2441 19.6697C20.4185 19.3408 20.8099 19.1754 21.1539 19.3177L22.0715 19.6974C22.4155 19.8397 22.5812 20.2353 22.4146 20.5682C21.9696 21.4578 21.3765 22.2912 20.6366 23.0311C19.8967 23.7711 19.0633 24.3642 18.1737 24.8092C17.8408 24.9757 17.4452 24.8101 17.3029 24.4661L16.9232 23.5484C16.7809 23.2044 16.9463 22.813 17.2752 22.6386C17.8877 22.3139 18.4636 21.8932 18.9811 21.3757Z" fill="white"/>
<path d="M16.9852 16.42C16.9828 15.9139 16.7805 15.4293 16.4224 15.0718L14.6057 13.2282C14.4269 13.0496 14.1844 12.9492 13.9317 12.9492C13.6789 12.9492 13.4364 13.0496 13.2576 13.2282L11.4409 15.055C11.0828 15.4125 10.8805 15.8971 10.8781 16.4031C10.8749 16.658 10.9225 16.9109 11.0181 17.1471C11.1137 17.3834 11.2553 17.5983 11.4347 17.7792C11.6141 17.9602 11.8278 18.1037 12.0632 18.2013C12.2986 18.299 12.5511 18.3488 12.8059 18.3478C12.7212 18.6386 12.5804 18.91 12.3914 19.1466C12.3506 19.1968 12.3251 19.2577 12.318 19.322C12.3109 19.3862 12.3224 19.4512 12.3511 19.5091C12.3799 19.5671 12.4248 19.6155 12.4803 19.6486C12.5358 19.6817 12.5997 19.6982 12.6644 19.696H15.1989C15.2627 19.6962 15.3252 19.6783 15.3793 19.6444C15.4333 19.6105 15.4766 19.562 15.5041 19.5044C15.5316 19.4469 15.5423 19.3828 15.5348 19.3194C15.5273 19.2561 15.502 19.1962 15.4618 19.1466C15.2725 18.9102 15.1316 18.6388 15.0473 18.3478C15.3014 18.3505 15.5535 18.3027 15.7889 18.2071C16.0244 18.1115 16.2385 17.97 16.4188 17.791C16.5991 17.6119 16.7421 17.3988 16.8393 17.164C16.9365 16.9292 16.9861 16.6775 16.9852 16.4233V16.42ZM15.9539 17.3064C15.7945 17.4634 15.5966 17.5756 15.38 17.6318C15.1635 17.688 14.9359 17.6862 14.7203 17.6266C14.7013 17.625 14.6821 17.625 14.663 17.6266H14.5956C14.5704 17.6313 14.5456 17.6381 14.5215 17.6468H14.4709C14.4548 17.6573 14.4401 17.6698 14.4271 17.6839C14.4058 17.6967 14.3865 17.7126 14.3698 17.7311C14.3644 17.7441 14.3576 17.7565 14.3496 17.7681C14.3348 17.7933 14.3213 17.8191 14.3091 17.8457C14.3075 17.8658 14.3075 17.8861 14.3091 17.9063C14.3091 17.9265 14.3091 17.9468 14.3091 17.967C14.3356 18.3326 14.4293 18.6903 14.5855 19.0219H13.2778C13.4375 18.7058 13.538 18.3631 13.5744 18.0108C13.5744 17.9906 13.5744 17.9704 13.5744 17.9468C13.576 17.9266 13.576 17.9063 13.5744 17.8861C13.5631 17.8574 13.5484 17.8303 13.5306 17.8052C13.5251 17.7933 13.5183 17.782 13.5104 17.7715C13.4957 17.7524 13.4774 17.7363 13.4564 17.7243C13.4427 17.711 13.428 17.6986 13.4126 17.6872H13.3654C13.3408 17.6759 13.3147 17.6679 13.2879 17.6637H13.2239C13.2037 17.662 13.1834 17.662 13.1632 17.6637C12.9414 17.7214 12.7081 17.7188 12.4876 17.656C12.2671 17.5931 12.0675 17.4724 11.9094 17.3064C11.6752 17.0707 11.5432 16.7523 11.542 16.42C11.5415 16.2553 11.5737 16.0921 11.6368 15.9399C11.6999 15.7877 11.7925 15.6496 11.9094 15.5336L13.7294 13.7068C13.7804 13.6572 13.8487 13.6294 13.9199 13.6294C13.991 13.6294 14.0593 13.6572 14.1103 13.7068L15.9539 15.5336C16.0708 15.6496 16.1634 15.7877 16.2265 15.9399C16.2896 16.0921 16.3218 16.2553 16.3213 16.42C16.319 16.752 16.1872 17.0701 15.9539 17.3064Z" fill="#41D662"/>
<path d="M15.9539 17.3064C15.7945 17.4634 15.5966 17.5756 15.38 17.6318C15.1635 17.688 14.9359 17.6862 14.7203 17.6266C14.7013 17.625 14.6821 17.625 14.663 17.6266H14.5956C14.5704 17.6313 14.5456 17.6381 14.5215 17.6468H14.4709C14.4548 17.6573 14.4401 17.6698 14.4271 17.6839C14.4058 17.6967 14.3865 17.7126 14.3698 17.7311C14.3644 17.7441 14.3576 17.7565 14.3496 17.7681C14.3348 17.7933 14.3213 17.8191 14.3091 17.8457C14.3075 17.8658 14.3075 17.8861 14.3091 17.9063V17.967C14.3356 18.3326 14.4293 18.6903 14.5855 19.0219H13.2778C13.4375 18.7058 13.538 18.3631 13.5744 18.0108V17.9468C13.576 17.9266 13.576 17.9063 13.5744 17.8861C13.5631 17.8574 13.5484 17.8303 13.5306 17.8052C13.5251 17.7933 13.5183 17.782 13.5104 17.7715C13.4957 17.7524 13.4774 17.7363 13.4564 17.7243C13.4427 17.711 13.428 17.6986 13.4126 17.6872H13.3654C13.3408 17.6759 13.3147 17.6679 13.2879 17.6637H13.2239C13.2037 17.662 13.1834 17.662 13.1632 17.6637C12.9414 17.7214 12.7081 17.7188 12.4876 17.656C12.2671 17.5931 12.0675 17.4724 11.9094 17.3064C11.6752 17.0707 11.5432 16.7523 11.542 16.42C11.5415 16.2553 11.5737 16.0921 11.6368 15.9399C11.6999 15.7877 11.7925 15.6496 11.9094 15.5336L13.7294 13.7068C13.7804 13.6572 13.8487 13.6294 13.9199 13.6294C13.991 13.6294 14.0593 13.6572 14.1103 13.7068L15.9539 15.5336C16.0708 15.6496 16.1634 15.7877 16.2265 15.9399C16.2896 16.0921 16.3218 16.2553 16.3213 16.42C16.319 16.752 16.1872 17.0701 15.9539 17.3064Z" fill="#41D662"/>
</svg>
