<svg width="142" height="28" viewBox="0 0 142 28" fill="none" xmlns="http://www.w3.org/2000/svg">
<path fill-rule="evenodd" clip-rule="evenodd" d="M78.2467 13.8749H70.7921C70.1019 13.8749 69.5267 14.4424 69.5267 15.1235C69.5267 15.8045 70.1019 16.372 70.7921 16.372H76.5441C75.9689 19.3231 73.415 21.1392 69.8718 21.1392C65.5233 21.1392 62.3712 18.0973 62.3712 13.8976C62.3712 9.69794 65.4773 6.63331 69.7568 6.63331C71.9195 6.63331 73.9442 7.54135 75.1866 9.08502C75.6238 9.62984 76.36 9.76604 76.9582 9.42553C77.3033 9.22122 77.5564 8.88071 77.6255 8.49479C77.6945 8.10887 77.6024 7.72296 77.3494 7.45055C75.5317 5.24855 72.7708 4 69.7798 4C63.9818 4 59.6333 8.26778 59.6333 13.8976C59.6333 19.5502 64.0278 23.7952 69.8488 23.7952C75.4397 23.7952 79.351 20.2312 79.351 15.1008V14.9192C79.328 14.3516 78.8449 13.8749 78.2467 13.8749ZM47.2656 9.59842C47.2656 11.1907 46.5554 12.6011 45.2953 13.5337C47.0365 14.4208 48.0446 16.0814 48.0446 18.0149C48.0446 21.0631 45.5702 23.4743 42.4085 23.4743H35.0998C34.5271 23.4743 34.0688 23.0193 34.0688 22.4506V5.34467C34.0688 4.77599 34.5271 4.32104 35.0998 4.32104H41.8128C44.86 4.32104 47.2656 6.64127 47.2656 9.59842ZM41.8128 6.89149H36.8182V12.4418H41.8128C43.3478 12.4418 44.5392 11.2362 44.5392 9.66666C44.5392 8.14259 43.3249 6.89149 41.8128 6.89149ZM36.8182 20.9038H42.4085C44.0352 20.9038 45.3182 19.6072 45.3182 17.9467C45.3182 16.2861 44.0352 14.9895 42.4085 14.9895H36.8182V20.9038ZM52.1769 21.6499C52.2927 20.7826 53.0569 20.0979 53.9369 20.0522C54.4695 20.0294 54.9789 20.212 55.3726 20.5543C55.7431 20.9195 55.9515 21.3988 55.9515 21.9238C55.9515 22.9737 55.1179 23.7953 54.0527 23.7953C53.4969 23.7953 52.9874 23.5671 52.6169 23.1563C52.2464 22.7454 52.1075 22.1977 52.1769 21.6499ZM139.689 23.4743H129.539C128.917 23.4743 128.434 22.9971 128.434 22.3837V5.41162C128.434 4.82089 128.917 4.32104 129.539 4.32104H139.551C140.288 4.32104 140.863 4.91177 140.863 5.6161C140.863 6.36587 140.265 6.93388 139.551 6.93388H131.196V12.5231H137.963C138.7 12.5231 139.275 13.0911 139.275 13.8181C139.275 14.5452 138.677 15.1132 137.963 15.1132H131.196V20.8614H139.689C140.426 20.8614 141.001 21.4522 141.001 22.1565C141.001 22.9063 140.403 23.4743 139.689 23.4743ZM121.998 5.5238V5.47841C121.998 5.45572 121.998 5.43302 121.975 5.38763C121.975 5.37823 121.971 5.36883 121.967 5.35782C121.96 5.34225 121.952 5.32345 121.952 5.29686L121.929 5.22878C121.929 5.18339 121.906 5.1607 121.884 5.13801C121.884 5.11531 121.861 5.09262 121.838 5.06993L121.815 5.00185C121.803 4.9905 121.792 4.97348 121.78 4.95646C121.769 4.93944 121.757 4.92242 121.746 4.91107C121.734 4.89973 121.729 4.88838 121.723 4.87703C121.717 4.86569 121.711 4.85434 121.7 4.84299L121.654 4.79761C121.647 4.79074 121.64 4.78178 121.633 4.77201C121.615 4.74951 121.594 4.72266 121.562 4.70683L121.516 4.66145L121.47 4.63875C121.447 4.62741 121.43 4.61041 121.41 4.59057L121.41 4.59053C121.39 4.57068 121.367 4.54798 121.333 4.52529C121.31 4.52529 121.287 4.50259 121.287 4.50259L121.264 4.4799L121.126 4.41182C121.113 4.39908 121.093 4.39349 121.07 4.38702C121.052 4.38197 121.032 4.37638 121.011 4.36643H120.988C120.965 4.36643 120.948 4.36076 120.931 4.35509C120.914 4.34941 120.897 4.34374 120.874 4.34374C120.828 4.34374 120.782 4.34374 120.713 4.32104H120.69H120.598C120.552 4.32104 120.506 4.32104 120.438 4.34374H120.415C120.392 4.34374 120.369 4.34374 120.323 4.36643C120.311 4.36643 120.294 4.3721 120.277 4.37778C120.26 4.38345 120.243 4.38913 120.231 4.38913L120.162 4.41182C120.151 4.41182 120.134 4.41749 120.116 4.42317C120.099 4.42884 120.082 4.43451 120.07 4.43451C120.056 4.44854 120.042 4.45389 120.022 4.4613C120.01 4.46587 119.996 4.47123 119.979 4.4799L119.91 4.50259C119.898 4.51394 119.881 4.51961 119.864 4.52529C119.847 4.53096 119.829 4.53663 119.818 4.54798L119.749 4.61606L119.703 4.66145L119.634 4.72953L119.634 4.72955C119.611 4.75223 119.588 4.77492 119.588 4.79761L119.565 4.84299C119.556 4.86138 119.543 4.87604 119.529 4.89151C119.509 4.91422 119.487 4.93865 119.474 4.97915L113.3 14.6692L107.103 4.97915C107.08 4.93377 107.057 4.91107 107.011 4.86569L106.988 4.84299C106.977 4.83166 106.971 4.82033 106.966 4.809L106.965 4.80895C106.96 4.79761 106.954 4.78626 106.943 4.77491L106.874 4.70683L106.828 4.66145L106.759 4.59337C106.736 4.57067 106.69 4.54798 106.667 4.54798L106.598 4.52529C106.584 4.51126 106.57 4.5059 106.55 4.4985C106.538 4.49392 106.524 4.48857 106.506 4.4799C106.484 4.45721 106.438 4.45721 106.415 4.45721L106.346 4.43451C106.334 4.43451 106.317 4.42884 106.3 4.42316C106.283 4.41749 106.265 4.41182 106.254 4.41182C106.231 4.41182 106.208 4.41182 106.162 4.38913H106.116C106.089 4.38913 106.063 4.38134 106.04 4.37489C106.025 4.37032 106.011 4.36643 106.002 4.36643L105.979 4.4799V4.36643H105.91H105.864C105.818 4.36643 105.772 4.36643 105.726 4.38913C105.703 4.38913 105.686 4.3948 105.669 4.40047C105.652 4.40614 105.634 4.41182 105.611 4.41182L105.565 4.43451C105.554 4.43451 105.537 4.44019 105.52 4.44586C105.502 4.45153 105.485 4.45721 105.474 4.45721L105.336 4.52529L105.382 4.61606L105.313 4.52529C105.29 4.52529 105.267 4.54798 105.244 4.57067C105.198 4.59337 105.152 4.63875 105.106 4.68414L105.084 4.70683C105.075 4.7155 105.066 4.72086 105.059 4.72543C105.046 4.73284 105.038 4.73819 105.038 4.75222C105.031 4.75909 105.024 4.76804 105.016 4.77781C104.999 4.80031 104.978 4.82717 104.946 4.84299L104.9 4.88838C104.888 4.89973 104.883 4.91107 104.877 4.92242C104.871 4.93377 104.865 4.94511 104.854 4.95646C104.831 4.97915 104.808 5.02454 104.808 5.04723L104.785 5.11531C104.774 5.12666 104.768 5.138 104.762 5.14935C104.756 5.1607 104.751 5.17205 104.739 5.18339C104.728 5.19474 104.722 5.21176 104.716 5.22878C104.711 5.2458 104.705 5.26282 104.693 5.27417L104.67 5.34225C104.67 5.35165 104.666 5.36105 104.662 5.37206C104.655 5.38763 104.647 5.40643 104.647 5.43302C104.647 5.45572 104.647 5.47841 104.625 5.5238V5.56918C104.625 5.61457 104.625 5.65996 104.602 5.70534V22.1127C104.602 22.8616 105.221 23.4743 105.979 23.4743C106.736 23.4743 107.356 22.8616 107.356 22.1127V10.3348L112.175 17.869L112.198 17.8917C112.221 17.9371 112.244 17.9598 112.29 18.0052L112.313 18.0279L112.382 18.0959L112.451 18.164L112.474 18.1867C112.497 18.1981 112.514 18.2151 112.531 18.2321C112.548 18.2491 112.565 18.2661 112.588 18.2775L112.611 18.3002C112.634 18.3002 112.657 18.3228 112.68 18.3455L112.68 18.3456L112.818 18.4136C112.832 18.4277 112.855 18.433 112.887 18.4404C112.906 18.445 112.929 18.4504 112.956 18.459C113.002 18.4817 113.025 18.4817 113.07 18.4817C113.093 18.4817 113.116 18.4874 113.139 18.4931C113.162 18.4987 113.185 18.5044 113.208 18.5044H113.461C113.506 18.5044 113.552 18.5044 113.598 18.4817C113.625 18.4817 113.652 18.4739 113.674 18.4675C113.69 18.4629 113.704 18.459 113.713 18.459L113.69 18.3456L113.759 18.4363C113.805 18.4363 113.828 18.4136 113.851 18.391C113.897 18.3683 113.943 18.3456 114.011 18.3229C114.034 18.3229 114.057 18.3002 114.08 18.2775C114.126 18.2548 114.149 18.2321 114.195 18.1867L114.126 18.0959L114.218 18.164L114.287 18.0959L114.356 18.0279L114.379 18.0052C114.388 17.9958 114.398 17.9825 114.409 17.9669C114.425 17.9449 114.444 17.9183 114.47 17.8917L119.29 10.3348V22.1127C119.29 22.8616 119.91 23.4743 120.667 23.4743C121.425 23.4743 122.044 22.8616 122.044 22.1127V5.63726C121.998 5.61457 121.998 5.56918 121.998 5.5238ZM92.5328 5.24685L99.7072 21.6698C99.8682 22.011 99.8682 22.3749 99.7302 22.7161C99.5922 23.0573 99.3393 23.3303 99.0174 23.4668C98.8564 23.535 98.6724 23.5805 98.4885 23.5805C98.3045 23.5805 98.1436 23.5578 97.9826 23.4895C97.6377 23.353 97.3617 23.1028 97.2238 22.7616L95.7061 19.2814H92.9927C92.6938 19.2814 92.4178 19.1222 92.2799 18.872C92.0039 18.4398 91.797 17.9621 91.705 17.4162C92.3258 17.9849 93.1997 18.0759 93.8205 17.5982C94.2574 17.257 94.4874 16.8248 94.4644 16.2106C94.4414 15.6192 94.1884 15.1188 93.8435 14.6866C93.8205 14.6639 93.8033 14.6411 93.786 14.6184C93.7688 14.5956 93.7515 14.5729 93.7285 14.5502L91.521 11.8661L91.2681 11.5476L91.0151 11.8661L88.8076 14.5502C88.7846 14.5729 88.7674 14.5956 88.7501 14.6184C88.7329 14.6411 88.7156 14.6639 88.6926 14.6866C88.3477 15.1188 88.0948 15.5965 88.0718 16.2106C88.0488 16.8021 88.2787 17.257 88.7156 17.5982C89.3365 18.0986 90.2103 17.9849 90.8312 17.4162C90.7392 17.9621 90.5092 18.4398 90.2563 18.872C90.1183 19.1222 89.8424 19.2814 89.5435 19.2814H86.8301L85.3124 22.7616C85.1514 23.1028 84.8985 23.353 84.5536 23.4895C84.2316 23.626 83.8407 23.6032 83.5188 23.4668C82.8289 23.1483 82.53 22.3522 82.8289 21.6698L90.0034 5.24685C90.1183 4.95115 90.3713 4.70094 90.6702 4.56446C90.6817 4.56446 90.6875 4.55877 90.6932 4.55308C90.699 4.5474 90.7047 4.54171 90.7162 4.54171C90.7392 4.51896 90.7622 4.51896 90.7622 4.51896C90.7737 4.51896 90.7909 4.51328 90.8082 4.50759C90.8254 4.5019 90.8427 4.49622 90.8542 4.49622L90.9232 4.47347C90.9347 4.47347 90.9519 4.46778 90.9692 4.4621C90.9864 4.45641 91.0036 4.45072 91.0151 4.45072C91.0381 4.42798 91.0841 4.42798 91.1071 4.42798H91.1301H91.3601H91.3831C91.406 4.42798 91.429 4.43367 91.452 4.43935C91.475 4.44504 91.498 4.45072 91.521 4.45072C91.5325 4.45072 91.544 4.45641 91.5555 4.4621C91.567 4.46778 91.5785 4.47347 91.59 4.47347L91.659 4.49622C91.682 4.49622 91.728 4.49622 91.751 4.51896L91.728 4.6327L91.797 4.54171C91.82 4.54171 91.843 4.56446 91.843 4.56446C92.1649 4.70094 92.3948 4.95115 92.5328 5.24685Z" fill="black"/>
<path fill-rule="evenodd" clip-rule="evenodd" d="M2.47058 4.19388C2.47058 2.33246 3.97956 0.823486 5.84098 0.823486C7.70239 0.823486 9.21137 2.33246 9.21137 4.19388V5.88133C10.6503 5.23033 12.2477 4.86792 13.9298 4.86792C20.2586 4.86792 25.3891 9.99844 25.3891 16.3273C25.3891 22.6561 20.2586 27.7866 13.9298 27.7866C7.60098 27.7866 2.47046 22.6561 2.47046 16.3273L2.47058 16.2738V4.19388ZM9.21137 16.3273L9.2113 16.3495C9.22326 18.9452 11.3312 21.0458 13.9298 21.0458C16.5358 21.0458 18.6483 18.9332 18.6483 16.3273C18.6483 13.7213 16.5358 11.6087 13.9298 11.6087C11.3353 11.6087 9.22988 13.7027 9.21137 16.2928V16.3273ZM10.5861 10.0146C10.915 9.84025 11.0804 9.44883 10.9381 9.10483L10.5584 8.18721C10.4161 7.84321 10.0205 7.67754 9.68756 7.8441C8.798 8.28909 7.96459 8.88219 7.22466 9.62212C6.48473 10.3621 5.89163 11.1955 5.44664 12.085C5.28008 12.418 5.44575 12.8135 5.78975 12.9559L6.70736 13.3355C7.05137 13.4778 7.44279 13.3125 7.61717 12.9836C7.94192 12.3711 8.36257 11.7952 8.88015 11.2776C9.39772 10.76 9.97359 10.3394 10.5861 10.0146ZM17.2737 10.0146C17.8862 10.3394 18.4621 10.76 18.9797 11.2776C19.4972 11.7952 19.9179 12.3711 20.2426 12.9836C20.417 13.3125 20.8084 13.4778 21.1524 13.3355L22.0701 12.9559C22.4141 12.8135 22.5797 12.418 22.4132 12.085C21.9682 11.1955 21.3751 10.3621 20.6351 9.62212C19.8952 8.88219 19.0618 8.28909 18.1722 7.8441C17.8393 7.67754 17.4437 7.84321 17.3014 8.18721L16.9218 9.10483C16.7794 9.44883 16.9448 9.84025 17.2737 10.0146ZM7.61717 19.6712C7.44279 19.3423 7.05137 19.1769 6.70736 19.3192L5.78975 19.6989C5.44575 19.8412 5.28008 20.2368 5.44664 20.5697C5.89163 21.4593 6.48473 22.2927 7.22466 23.0326C7.96459 23.7725 8.798 24.3656 9.68756 24.8106C10.0205 24.9772 10.4161 24.8115 10.5584 24.4675L10.9381 23.5499C11.0804 23.2059 10.915 22.8145 10.5861 22.6401C9.97359 22.3154 9.39772 21.8947 8.88015 21.3771C8.36257 20.8595 7.94192 20.2837 7.61717 19.6712ZM20.2426 19.6712C19.9179 20.2837 19.4972 20.8595 18.9797 21.3771C18.4621 21.8947 17.8862 22.3154 17.2737 22.6401C16.9448 22.8145 16.7794 23.2059 16.9218 23.5499L17.3014 24.4675C17.4437 24.8115 17.8393 24.9772 18.1722 24.8106C19.0618 24.3656 19.8952 23.7725 20.6351 23.0326C21.3751 22.2927 21.9682 21.4593 22.4132 20.5697C22.5797 20.2368 22.4141 19.8412 22.0701 19.6989L21.1524 19.3192C20.8084 19.1769 20.417 19.3423 20.2426 19.6712Z" fill="#41D662"/>
<path d="M16.9836 16.4217C16.9812 15.9156 16.7789 15.431 16.4207 15.0735L14.6041 13.2299C14.4252 13.0513 14.1828 12.9509 13.93 12.9509C13.6772 12.9509 13.4348 13.0513 13.2559 13.2299L11.4393 15.0567C11.0811 15.4142 10.8788 15.8988 10.8764 16.4048C10.8733 16.6597 10.9209 16.9126 11.0165 17.1488C11.112 17.3851 11.2536 17.6 11.4331 17.781C11.6125 17.9619 11.8261 18.1054 12.0615 18.203C12.297 18.3007 12.5494 18.3505 12.8043 18.3496C12.7196 18.6403 12.5788 18.9117 12.3897 19.1483C12.349 19.1985 12.3235 19.2594 12.3163 19.3237C12.3092 19.388 12.3207 19.4529 12.3495 19.5108C12.3783 19.5688 12.4231 19.6172 12.4787 19.6503C12.5342 19.6834 12.5981 19.6999 12.6627 19.6977H15.1973C15.2611 19.6979 15.3236 19.68 15.3776 19.6461C15.4316 19.6122 15.4749 19.5637 15.5024 19.5062C15.53 19.4486 15.5406 19.3845 15.5331 19.3211C15.5256 19.2578 15.5003 19.1979 15.4602 19.1483C15.2708 18.9119 15.13 18.6405 15.0456 18.3496C15.2997 18.3522 15.5518 18.3044 15.7873 18.2088C16.0227 18.1132 16.2368 17.9717 16.4172 17.7927C16.5975 17.6136 16.7404 17.4005 16.8376 17.1657C16.9349 16.9309 16.9845 16.6792 16.9836 16.4251V16.4217ZM15.9522 17.3081C15.7928 17.4651 15.5949 17.5773 15.3784 17.6335C15.1618 17.6897 14.9343 17.6879 14.7187 17.6283C14.6996 17.6267 14.6804 17.6267 14.6614 17.6283H14.594C14.5688 17.633 14.544 17.6398 14.5198 17.6485H14.4693C14.4532 17.659 14.4385 17.6715 14.4255 17.6856C14.4041 17.6984 14.3848 17.7143 14.3682 17.7328C14.3627 17.7458 14.3559 17.7582 14.3479 17.7698C14.3331 17.795 14.3196 17.8208 14.3075 17.8474C14.3058 17.8675 14.3058 17.8878 14.3075 17.908C14.3075 17.9283 14.3075 17.9485 14.3075 17.9687C14.3339 18.3343 14.4276 18.692 14.5839 19.0236H13.2761C13.4358 18.7075 13.5363 18.3648 13.5727 18.0125C13.5727 17.9923 13.5727 17.9721 13.5727 17.9485C13.5744 17.9283 13.5744 17.908 13.5727 17.8878C13.5615 17.8592 13.5468 17.832 13.5289 17.8069C13.5234 17.795 13.5167 17.7837 13.5087 17.7732C13.494 17.7541 13.4757 17.738 13.4548 17.726C13.441 17.7127 13.4264 17.7003 13.411 17.689H13.3638C13.3391 17.6776 13.3131 17.6696 13.2863 17.6654H13.2222C13.202 17.6637 13.1817 17.6637 13.1616 17.6654C12.9397 17.7232 12.7064 17.7205 12.486 17.6577C12.2655 17.5948 12.0658 17.4741 11.9078 17.3081C11.6736 17.0724 11.5416 16.754 11.5404 16.4217C11.5399 16.257 11.5721 16.0938 11.6352 15.9416C11.6982 15.7895 11.7909 15.6513 11.9078 15.5353L13.7278 13.7085C13.7788 13.6589 13.8471 13.6311 13.9182 13.6311C13.9893 13.6311 14.0577 13.6589 14.1086 13.7085L15.9522 15.5353C16.0691 15.6513 16.1618 15.7895 16.2249 15.9416C16.2879 16.0938 16.3201 16.257 16.3196 16.4217C16.3174 16.7537 16.1855 17.0718 15.9522 17.3081Z" fill="#41D662"/>
<path d="M15.9522 17.3081C15.7928 17.4651 15.5949 17.5773 15.3784 17.6335C15.1618 17.6897 14.9343 17.6879 14.7187 17.6283C14.6996 17.6267 14.6804 17.6267 14.6614 17.6283H14.594C14.5688 17.633 14.544 17.6398 14.5198 17.6485H14.4693C14.4532 17.659 14.4385 17.6715 14.4255 17.6856C14.4041 17.6984 14.3848 17.7143 14.3682 17.7328C14.3627 17.7458 14.3559 17.7582 14.3479 17.7698C14.3331 17.795 14.3196 17.8208 14.3075 17.8474C14.3058 17.8675 14.3058 17.8878 14.3075 17.908V17.9687C14.3339 18.3343 14.4276 18.692 14.5839 19.0236H13.2761C13.4358 18.7075 13.5363 18.3648 13.5727 18.0125V17.9485C13.5744 17.9283 13.5744 17.908 13.5727 17.8878C13.5615 17.8592 13.5468 17.832 13.5289 17.8069C13.5234 17.795 13.5167 17.7837 13.5087 17.7732C13.494 17.7541 13.4757 17.738 13.4548 17.726C13.441 17.7127 13.4264 17.7003 13.411 17.689H13.3638C13.3391 17.6776 13.3131 17.6696 13.2863 17.6654H13.2222C13.202 17.6637 13.1817 17.6637 13.1616 17.6654C12.9397 17.7232 12.7064 17.7205 12.486 17.6577C12.2655 17.5948 12.0658 17.4741 11.9078 17.3081C11.6736 17.0724 11.5416 16.754 11.5404 16.4217C11.5399 16.257 11.5721 16.0938 11.6352 15.9416C11.6982 15.7895 11.7909 15.6513 11.9078 15.5353L13.7278 13.7085C13.7788 13.6589 13.8471 13.6311 13.9182 13.6311C13.9893 13.6311 14.0577 13.6589 14.1086 13.7085L15.9522 15.5353C16.0691 15.6513 16.1618 15.7895 16.2249 15.9416C16.2879 16.0938 16.3201 16.257 16.3196 16.4217C16.3174 16.7537 16.1855 17.0718 15.9522 17.3081Z" fill="#41D662"/>
</svg>
