<svg width="44" height="44" viewBox="0 0 44 44" fill="none" xmlns="http://www.w3.org/2000/svg">
<rect width="44" height="44" rx="8" fill="#F6F7FA"/>
<path fill-rule="evenodd" clip-rule="evenodd" d="M15 17.25C15 16.5596 15.5596 16 16.25 16H27.75C28.4404 16 29 16.5596 29 17.25C29 17.9404 28.4404 18.5 27.75 18.5H16.25C15.5596 18.5 15 17.9404 15 17.25ZM15 22C15 21.3096 15.5596 20.75 16.25 20.75H27.75C28.4404 20.75 29 21.3096 29 22C29 22.6904 28.4404 23.25 27.75 23.25H16.25C15.5596 23.25 15 22.6904 15 22ZM16.25 25.5C15.5596 25.5 15 26.0596 15 26.75C15 27.4404 15.5596 28 16.25 28H27.75C28.4404 28 29 27.4404 29 26.75C29 26.0596 28.4404 25.5 27.75 25.5H16.25Z" fill="#959AA1"/>
</svg>
