<svg width="13" height="14" viewBox="0 0 13 14" fill="none" xmlns="http://www.w3.org/2000/svg">
<path fill-rule="evenodd" clip-rule="evenodd" d="M12.6 0H10.5H2.1H0V1.4H1.4V3.85C1.39996 4.00566 1.45181 4.1569 1.54735 4.2798L3.6631 7L1.54735 9.7202C1.45181 9.8431 1.39996 9.99433 1.4 10.15V12.6H0V14H2.1H10.5H12.6V12.6H11.2V10.15C11.2 9.99433 11.1482 9.8431 11.0526 9.7202L8.9369 7L11.0526 4.2798C11.1482 4.1569 11.2 4.00566 11.2 3.85V1.4H12.6V0ZM2.8 3.6099V1.4H9.8V3.6099L7.49735 6.5702C7.40176 6.69308 7.34986 6.84432 7.34986 7C7.34986 7.15568 7.40176 7.30692 7.49735 7.4298L9.8 10.3901V12.6H2.8V10.3901L5.10265 7.4298C5.19824 7.30692 5.25013 7.15568 5.25013 7C5.25013 6.84432 5.19824 6.69308 5.10265 6.5702L2.8 3.6099ZM8.05 9.80046H4.55V11.2005H8.05V9.80046ZM4.52235 4.27985L5.74735 5.85485C5.81279 5.93903 5.8966 6.00715 5.99238 6.05401C6.08816 6.10086 6.19337 6.12522 6.3 6.12522C6.40663 6.12522 6.51184 6.10086 6.60762 6.05401C6.7034 6.00715 6.78721 5.93903 6.85265 5.85485L8.07765 4.27985L6.97235 3.42025L6.3 4.28475L5.62765 3.42025L4.52235 4.27985Z" fill="white"/>
</svg>
