<svg width="14" height="14" viewBox="0 0 14 14" fill="none" xmlns="http://www.w3.org/2000/svg">
<path d="M7 14C10.866 14 14 10.866 14 7C14 3.13401 10.866 0 7 0C3.13401 0 0 3.13401 0 7C0 10.866 3.13401 14 7 14Z" fill="#FFB802"/>
<path fill-rule="evenodd" clip-rule="evenodd" d="M6.99977 2.96094C7.53803 2.96094 7.97438 3.39728 7.97438 3.93554C7.97438 3.96793 7.97276 4.00029 7.96954 4.03252L7.58326 7.8953C7.5577 8.15091 7.34262 8.34555 7.08574 8.34555H6.91381C6.65693 8.34555 6.44185 8.15091 6.41629 7.8953L6.03001 4.03252C5.97645 3.49693 6.36721 3.01933 6.9028 2.96577C6.93502 2.96255 6.96739 2.96094 6.99977 2.96094ZM6.99977 11.0379C7.59454 11.0379 8.0767 10.5557 8.0767 9.96094C8.0767 9.36617 7.59454 8.88401 6.99977 8.88401C6.40501 8.88401 5.92285 9.36617 5.92285 9.96094C5.92285 10.5557 6.40501 11.0379 6.99977 11.0379Z" fill="white"/>
</svg>
