<svg width="17" height="17" viewBox="0 0 17 17" fill="none" xmlns="http://www.w3.org/2000/svg">
<path d="M8.34814 0.901855C12.4558 0.901855 15.7856 4.23174 15.7856 8.33936C15.7856 10.1105 15.1665 11.7371 14.1329 13.0144L15.8541 14.7365C16.1653 15.0477 16.1653 15.5522 15.8541 15.8634C15.5429 16.1746 15.0384 16.1746 14.7272 15.8634L13.0031 14.1404C11.7288 15.1642 10.11 15.7769 8.34814 15.7769C4.24053 15.7769 0.910645 12.447 0.910645 8.33936C0.910645 4.23174 4.24053 0.901855 8.34814 0.901855ZM8.34814 2.49561C5.12073 2.49561 2.50439 5.11194 2.50439 8.33936C2.50439 11.5668 5.12073 14.1831 8.34814 14.1831C11.5756 14.1831 14.1919 11.5668 14.1919 8.33936C14.1919 5.11194 11.5756 2.49561 8.34814 2.49561Z" fill="#7F8DA1"/>
</svg>
