<svg width="32" height="32" viewBox="0 0 32 32" fill="none" xmlns="http://www.w3.org/2000/svg">
<circle cx="16" cy="16" r="15.15" stroke="#37AF51" stroke-width="1.7"/>
<path d="M24.7964 15.53L18.455 9.17155C18.1463 8.86209 17.6459 8.86209 17.3373 9.17155C17.0287 9.48101 17.0287 9.98273 17.3373 10.2922L22.3581 15.3265H6.83991C6.41918 15.3265 6.07812 15.6685 6.07812 16.0903C6.07812 16.5121 6.41921 16.8541 6.83991 16.8541H22.3581L17.3373 21.8884C17.0287 22.1978 17.0287 22.6996 17.3373 23.0091C17.4916 23.1638 17.6939 23.2411 17.8961 23.2411C18.0984 23.2411 18.3007 23.1638 18.455 23.0091L24.7964 16.6506C24.8698 16.577 24.928 16.4897 24.9677 16.3935C25.0074 16.2974 25.0278 16.1943 25.0278 16.0903C25.0278 15.9862 25.0074 15.8832 24.9677 15.7871C24.928 15.6909 24.8698 15.6036 24.7964 15.53Z" fill="#37AF51"/>
</svg>
