<svg width="12" height="12" viewBox="0 0 12 12" fill="none" xmlns="http://www.w3.org/2000/svg">
<path fill-rule="evenodd" clip-rule="evenodd" d="M12 2C12 0.89543 11.1046 0 10 0H5C3.89543 0 3 0.89543 3 2V3H2C0.89543 3 0 3.89543 0 5V10C0 11.1046 0.89543 12 2 12H7C8.10457 12 9 11.1046 9 10V9H10C11.1046 9 12 8.10457 12 7V2ZM9 7.8H10C10.4418 7.8 10.8 7.44183 10.8 7V2C10.8 1.55817 10.4418 1.2 10 1.2H5C4.55817 1.2 4.2 1.55817 4.2 2V3H7C8.10457 3 9 3.89543 9 5V7.8ZM7 4.2H2C1.55817 4.2 1.2 4.55817 1.2 5V10C1.2 10.4418 1.55817 10.8 2 10.8H7C7.44183 10.8 7.8 10.4418 7.8 10V5C7.8 4.55817 7.44183 4.2 7 4.2Z" fill="#36AF51"/>
</svg>
