<svg width="20" height="20" viewBox="0 0 20 20" fill="none" xmlns="http://www.w3.org/2000/svg">
<rect width="20" height="20" fill="#D8D8D8" fill-opacity="0.01"/>
<path fill-rule="evenodd" clip-rule="evenodd" d="M11.8057 15.4095L10.0825 19L8.02109 15.4101C8.61464 15.6148 9.24926 15.7317 9.91248 15.7317C10.5763 15.7317 11.2115 15.6145 11.8057 15.4095ZM15.2706 12.1588L16.2842 16.1606L12.1732 15.2747C13.5702 14.6833 14.6864 13.5598 15.2706 12.1588ZM4.70682 12.4813C5.32319 13.7359 6.374 14.7378 7.66879 15.2811L3.85742 16.1606L4.70682 12.4813ZM9.99995 5C12.7614 5 14.9999 7.23858 14.9999 10C14.9999 12.7614 12.7614 15 9.99995 15C7.23852 15 4.99995 12.7614 4.99995 10C4.99995 7.23858 7.23852 5 9.99995 5ZM4.42571 8.04868C4.22371 8.63858 4.10871 9.26924 4.10871 9.9279C4.10871 10.7344 4.27391 11.5026 4.57144 12.2008L1.18872 9.93337L4.42571 8.04868ZM15.2511 7.64953L18.8112 9.65896L15.3576 11.9209C15.5854 11.2984 15.7163 10.6291 15.7163 9.9279C15.7163 9.11895 15.5501 8.34925 15.2511 7.64953ZM3.24561 3.70581C3.24561 3.70581 4.12302 3.91708 5.06836 4.14812L5.4482 4.24113C6.14419 4.41193 6.81866 4.57964 7.15241 4.66873L7.29874 4.70907L7.34296 4.72254C6.14004 5.31822 5.17625 6.32005 4.62316 7.54731L3.24561 3.70581ZM16.0053 3.40037C16.0053 3.40037 15.1257 6.98175 15.0366 7.20901C14.4041 6.01886 13.3713 5.07545 12.1154 4.55948L16.0053 3.40037ZM9.77892 1L11.8048 4.4457C11.2109 4.24064 10.576 4.12382 9.91248 4.12382C9.22158 4.12382 8.55988 4.24734 7.94564 4.46942C7.87506 4.49498 9.77892 1 9.77892 1Z" fill="#A0A5AB"/>
</svg>
