<svg width="20" height="20" viewBox="0 0 20 20" fill="none" xmlns="http://www.w3.org/2000/svg">
<rect width="20" height="20" fill="#D8D8D8" fill-opacity="0.01"/>
<path fill-rule="evenodd" clip-rule="evenodd" d="M1.89526 5.52614C1.89526 4.13099 3.02625 3 4.4214 3H12.6313C14.0265 3 15.1575 4.13099 15.1575 5.52614V6.33605C16.4036 6.49144 17.3678 7.55443 17.3678 8.84263V9.07959H17.3678V10.1913C17.7832 10.2431 18.1047 10.5974 18.1047 11.0268V12.2899C18.1047 12.7193 17.7832 13.0737 17.3678 13.1254V14.2371H17.3678V14.4738C17.3678 15.869 16.2368 16.9999 14.8417 16.9999H9.5789C9.55556 16.9999 9.5323 16.9996 9.50912 16.999H4.4214C3.02625 16.999 1.89526 15.868 1.89526 14.4729V5.52614ZM17.3678 10.1913C17.3333 10.187 17.2983 10.1848 17.2626 10.1848H14.0523C13.2385 10.1848 12.5788 10.8445 12.5788 11.6584C12.5788 12.4722 13.2385 13.1319 14.0523 13.1319H17.2626C17.2983 13.1319 17.3333 13.1297 17.3678 13.1254V14.237H14.0522C12.628 14.237 11.4735 13.0825 11.4735 11.6583C11.4735 10.2341 12.628 9.0795 14.0522 9.0795H17.3678V10.1913ZM14.053 6.3165H9.5789L9.5713 6.31651H4.10595C3.49557 6.31651 3.00076 5.8217 3.00076 5.21132C3.00076 4.60095 3.49557 4.10614 4.10595 4.10614H12.9474C13.5578 4.10614 14.0526 4.60095 14.0526 5.21132V5.21136H14.053V6.3165Z" fill="url(#paint0_linear_206_27383)"/>
<defs>
<linearGradient id="paint0_linear_206_27383" x1="4.68012" y1="7.81054" x2="4.68012" y2="17" gradientUnits="userSpaceOnUse">
<stop stop-color="white"/>
<stop offset="1" stop-color="white" stop-opacity="0.8"/>
</linearGradient>
</defs>
</svg>
