<svg width="20" height="18" viewBox="0 0 20 18" fill="none" xmlns="http://www.w3.org/2000/svg">
<path d="M13.4816 0.111061C15.0874 0.111061 16.4321 1.2288 16.7802 2.7287C18.3028 3.05892 19.4436 4.41473 19.4436 6.03699V14.5026C19.4436 16.3728 17.9275 17.8888 16.0573 17.8888H3.94093C2.07076 17.8888 0.554688 16.3728 0.554688 14.5026V2.65074C0.554688 1.24812 1.69174 0.111061 3.09437 0.111061H13.4816ZM16.0573 4.31741L2.22135 4.31662V14.5026C2.22135 15.3995 2.90807 16.1361 3.78441 16.2151L3.94093 16.2222H16.0573C16.9543 16.2222 17.6908 15.5355 17.7699 14.6591L17.7769 14.5026V6.03699C17.7769 5.14005 17.0902 4.40351 16.2138 4.32444L16.0573 4.31741ZM14.2921 8.57667C15.2404 8.57667 16.0092 9.33471 16.0092 10.2698C16.0092 11.2049 15.2404 11.9629 14.2921 11.9629C13.3437 11.9629 12.5749 11.2049 12.5749 10.2698C12.5749 9.33471 13.3437 8.57667 14.2921 8.57667ZM13.4816 1.77773H3.09437C2.6524 1.77773 2.28713 2.10616 2.22932 2.53228L2.22135 2.65074L14.9783 2.65C14.707 2.17197 14.2134 1.83667 13.6381 1.78475L13.4816 1.77773Z" fill="white"/>
</svg>
