<svg width="20" height="20" viewBox="0 0 20 20" fill="none" xmlns="http://www.w3.org/2000/svg">
<rect width="20" height="20" fill="#D8D8D8" fill-opacity="0.01"/>
<path fill-rule="evenodd" clip-rule="evenodd" d="M7.32851 1.25093C7.38758 1.23598 7.44945 1.22803 7.51318 1.22803C7.92739 1.22803 8.26318 1.56381 8.26318 1.97803C8.26318 2.01223 8.26089 2.04589 8.25645 2.07888C8.23856 2.30273 8.22949 2.53638 8.22949 2.77214C8.22949 7.7427 12.2589 11.7721 17.2295 11.7721C17.4855 11.7721 17.7391 11.7614 17.9897 11.7405L17.9912 11.7414L18.0205 11.7405C18.4028 11.7405 18.7183 12.0266 18.7646 12.3964L18.7705 12.4905C18.7705 12.5824 18.7539 12.6704 18.7237 12.7518C17.4938 16.2587 14.1552 18.7721 10.2295 18.7721C5.25893 18.7721 1.22949 14.7427 1.22949 9.77214C1.22949 5.85461 3.73248 2.52168 7.22648 1.28532C7.2431 1.27787 7.26063 1.27136 7.27846 1.26549L7.32851 1.25093Z" fill="#69707A"/>
</svg>
