<svg width="20" height="20" viewBox="0 0 20 20" fill="none" xmlns="http://www.w3.org/2000/svg">
<path fill-rule="evenodd" clip-rule="evenodd" d="M8.2256 2.24621L9.82792 1.42131C9.91707 1.37465 9.96623 1.27549 9.9454 1.17717C9.91957 1.05718 9.80209 0.97969 9.68127 1.00469L7.45736 1.4688C6.80327 1.60545 6.22833 2.04123 5.88671 2.66033L0.214036 12.9375C-0.210914 13.7082 0.0165591 14.6781 0.72231 15.1039C1.69803 15.6888 2.42795 16.1304 2.91456 16.4271C3.25535 16.6354 3.26785 16.4821 3.27035 16.3596C3.27285 16.2371 3.29701 16.0896 3.32034 16.0013L6.36082 4.60594C6.63579 3.57689 7.31821 2.71282 8.2256 2.24621ZM9.67479 3.68123L11.0096 2.4697C11.0838 2.40221 11.1038 2.29222 11.0588 2.20307C11.0038 2.09308 10.8696 2.04892 10.7597 2.10475L8.73156 3.12879C8.1358 3.42959 7.69335 4.00036 7.52337 4.68611L4.7037 16.0814C4.49289 16.9355 4.96284 17.8129 5.75524 18.0421C6.91094 18.3778 7.77751 18.6287 8.35494 18.7936C8.48493 18.8311 8.55325 18.8136 8.52325 18.6345C8.49606 18.4721 8.49626 18.3884 8.49653 18.2736C8.49656 18.2618 8.49659 18.2496 8.49659 18.237L8.48409 6.44341C8.48326 5.37853 8.91904 4.36698 9.67479 3.68123Z" fill="url(#paint0_linear_1063_119)"/>
<path fill-rule="evenodd" clip-rule="evenodd" d="M15.7912 1.514L19.2567 4.65947C19.7216 5.08108 19.9874 5.68018 19.9874 6.30761L19.9999 18.3487C20.0008 19.1694 19.3358 19.836 18.5151 19.8369H11.0976C10.2777 19.8369 9.61197 19.1728 9.61113 18.352L9.59863 6.31094C9.5978 5.68185 9.86361 5.08108 10.3294 4.6578L13.7931 1.514C14.3597 0.999891 15.2246 0.999892 15.7912 1.514ZM14.8164 4.61197C14.0981 4.61197 13.5157 5.2394 13.5157 6.01431C13.5157 6.78922 14.0981 7.41664 14.8164 7.41664C15.5346 7.41664 16.117 6.78922 16.117 6.01431C16.117 5.2394 15.5346 4.61197 14.8164 4.61197Z" fill="url(#paint1_linear_1063_119)"/>
<defs>
<linearGradient id="paint0_linear_1063_119" x1="5.54131" y1="1" x2="1.05303" y2="19.0715" gradientUnits="userSpaceOnUse">
<stop stop-color="#FAED59"/>
<stop offset="1" stop-color="#FDC059"/>
</linearGradient>
<linearGradient id="paint1_linear_1063_119" x1="14.7993" y1="1.12842" x2="10.8495" y2="19.8722" gradientUnits="userSpaceOnUse">
<stop stop-color="#2EFF1F"/>
<stop offset="1" stop-color="#1BB93E"/>
</linearGradient>
</defs>
</svg>
