<svg width="40" height="40" viewBox="0 0 40 40" fill="none" xmlns="http://www.w3.org/2000/svg">
<path d="M20 40C31.0457 40 40 31.0457 40 20C40 8.9543 31.0457 0 20 0C8.9543 0 0 8.9543 0 20C0 31.0457 8.9543 40 20 40Z" fill="url(#paint0_linear_1086_73)" fill-opacity="0.6"/>
<path d="M20.0002 17.5238C18.0174 17.5238 16.4104 19.1363 16.4104 21.126C16.4104 23.1157 18.0174 24.7283 20.0002 24.7283C21.983 24.7283 23.5899 23.1157 23.5899 21.126C23.5899 19.1363 21.983 17.5238 20.0002 17.5238ZM28.9746 13.0209H25.3848L23.1412 10.7695H16.8592L14.6156 13.0209H11.0258C10.0358 13.0209 9.23096 13.8286 9.23096 14.8221V27.4299C9.23096 28.4234 10.0358 29.2311 11.0258 29.2311H28.9746C29.9645 29.2311 30.7694 28.4234 30.7694 27.4299V14.8221C30.7694 13.8286 29.9645 13.0209 28.9746 13.0209ZM20.0002 26.5294C17.0274 26.5294 14.6156 24.1091 14.6156 21.126C14.6156 18.1429 17.0274 15.7226 20.0002 15.7226C22.9729 15.7226 25.3848 18.1429 25.3848 21.126C25.3848 24.1091 22.9729 26.5294 20.0002 26.5294Z" fill="white"/>
<defs>
<linearGradient id="paint0_linear_1086_73" x1="-6.07967e-05" y1="0" x2="-6.07967e-05" y2="40" gradientUnits="userSpaceOnUse">
<stop stop-color="#28D853"/>
<stop offset="1" stop-color="#1E9B3A"/>
</linearGradient>
</defs>
</svg>
