<svg width="20" height="20" viewBox="0 0 20 20" fill="none" xmlns="http://www.w3.org/2000/svg">
<circle cx="10" cy="10" r="10" fill="url(#paint0_linear_3_4095)"/>
<path fill-rule="evenodd" clip-rule="evenodd" d="M10.0002 8.70959L12.1093 0.885384C12.1093 0.885384 11.7383 0.80449 11.5737 0.775827C11.3265 0.732801 11.1069 0.709252 10.9439 0.690917C10.5367 0.645093 9.97344 0.645069 9.97344 0.645069C9.97344 0.645069 9.54016 0.65465 9.3585 0.666012C9.1494 0.679091 8.96526 0.703468 8.82735 0.719387C8.44076 0.764012 7.89111 0.885384 7.89111 0.885384L10.0002 8.70959Z" fill="url(#paint1_linear_3_4095)"/>
<path fill-rule="evenodd" clip-rule="evenodd" d="M10.6438 8.88216L16.3825 3.16074C16.3825 3.16074 16.1017 2.90522 15.9734 2.79806C15.7808 2.6372 15.6024 2.50702 15.4705 2.40966C15.1407 2.16635 14.6529 1.88471 14.6529 1.88471C14.6529 1.88471 14.2729 1.67637 14.1099 1.59538C13.9223 1.50216 13.7506 1.4312 13.6232 1.37603C13.2661 1.22138 12.7294 1.05167 12.7294 1.05167L10.6438 8.88216Z" fill="url(#paint2_linear_3_4095)"/>
<path fill-rule="evenodd" clip-rule="evenodd" d="M11.1178 9.35611L18.9483 7.27052C18.9483 7.27052 18.8329 6.90884 18.7754 6.75189C18.689 6.5163 18.5996 6.31437 18.534 6.16408C18.3701 5.78847 18.0885 5.30069 18.0885 5.30069C18.0885 5.30069 17.8635 4.93025 17.7629 4.7786C17.647 4.60406 17.5338 4.45678 17.4511 4.34531C17.2191 4.03282 16.8392 3.6175 16.8392 3.6175L11.1178 9.35611Z" fill="url(#paint3_linear_3_4095)"/>
<path fill-rule="evenodd" clip-rule="evenodd" d="M11.2914 10.0009L19.1156 12.11C19.1156 12.11 19.1965 11.7391 19.2251 11.5744C19.2682 11.3272 19.2917 11.1076 19.3101 10.9447C19.3559 10.5374 19.3559 9.97417 19.3559 9.97417C19.3559 9.97417 19.3463 9.54089 19.335 9.35923C19.3219 9.15014 19.2975 8.966 19.2816 8.82809C19.237 8.4415 19.1156 7.89185 19.1156 7.89185L11.2914 10.0009Z" fill="url(#paint4_linear_3_4095)"/>
<path fill-rule="evenodd" clip-rule="evenodd" d="M11.1191 10.6448L16.8405 16.3834C16.8405 16.3834 17.096 16.1026 17.2032 15.9744C17.364 15.7818 17.4942 15.6034 17.5916 15.4715C17.8349 15.1417 18.1165 14.6539 18.1165 14.6539C18.1165 14.6539 18.3249 14.2739 18.4058 14.1109C18.4991 13.9233 18.57 13.7516 18.6252 13.6242C18.7798 13.2671 18.9496 12.7304 18.9496 12.7304L11.1191 10.6448Z" fill="url(#paint5_linear_3_4095)"/>
<path fill-rule="evenodd" clip-rule="evenodd" d="M10.6466 11.1195L12.7322 18.95C12.7322 18.95 13.0938 18.8346 13.2508 18.7771C13.4864 18.6907 13.6883 18.6013 13.8386 18.5357C14.2142 18.3718 14.702 18.0902 14.702 18.0902C14.702 18.0902 15.0724 17.8653 15.2241 17.7646C15.3986 17.6487 15.5459 17.5355 15.6574 17.4528C15.9699 17.2208 16.3852 16.8409 16.3852 16.8409L10.6466 11.1195Z" fill="url(#paint6_linear_3_4095)"/>
<path fill-rule="evenodd" clip-rule="evenodd" d="M9.99932 11.2931L7.89025 19.1173C7.89025 19.1173 8.26118 19.1982 8.42586 19.2269C8.67305 19.2699 8.89263 19.2934 9.05558 19.3118C9.46285 19.3576 10.0261 19.3576 10.0261 19.3576C10.0261 19.3576 10.4594 19.348 10.641 19.3367C10.8501 19.3236 11.0342 19.2992 11.1722 19.2833C11.5587 19.2387 12.1084 19.1173 12.1084 19.1173L9.99932 11.2931Z" fill="url(#paint7_linear_3_4095)"/>
<path fill-rule="evenodd" clip-rule="evenodd" d="M9.35714 11.1173L3.61852 16.8388C3.61852 16.8388 3.89931 17.0943 4.0276 17.2015C4.22016 17.3623 4.39855 17.4925 4.5305 17.5899C4.86029 17.8332 5.34804 18.1148 5.34804 18.1148C5.34804 18.1148 5.72807 18.3231 5.89107 18.4041C6.07869 18.4974 6.25035 18.5683 6.37774 18.6235C6.73485 18.7781 7.27155 18.9478 7.27155 18.9478L9.35714 11.1173Z" fill="url(#paint8_linear_3_4095)"/>
<path fill-rule="evenodd" clip-rule="evenodd" d="M8.88271 10.6436L1.05221 12.7292C1.05221 12.7292 1.16762 13.0909 1.22514 13.2479C1.31147 13.4835 1.40087 13.6854 1.46647 13.8357C1.63041 14.2113 1.912 14.6991 1.912 14.6991C1.912 14.6991 2.13694 15.0695 2.23761 15.2212C2.35349 15.3957 2.46667 15.543 2.54941 15.6545C2.78135 15.9669 3.16129 16.3823 3.16129 16.3823L8.88271 10.6436Z" fill="url(#paint9_linear_3_4095)"/>
<path fill-rule="evenodd" clip-rule="evenodd" d="M8.69835 10.0023L0.874154 7.89318C0.874154 7.89318 0.79326 8.26411 0.764597 8.42879C0.721571 8.67598 0.698022 8.89556 0.679687 9.05851C0.633863 9.46578 0.633838 10.029 0.633838 10.029C0.633838 10.029 0.643419 10.4623 0.654782 10.6439C0.66786 10.853 0.692238 11.0372 0.708157 11.1751C0.752781 11.5617 0.874154 12.1113 0.874154 12.1113L8.69835 10.0023Z" fill="url(#paint10_linear_3_4095)"/>
<path fill-rule="evenodd" clip-rule="evenodd" d="M8.88143 9.35836L3.16001 3.61975C3.16001 3.61975 2.90449 3.90053 2.79733 4.02882C2.63647 4.22138 2.50628 4.39977 2.40893 4.53172C2.16561 4.86151 1.88398 5.34926 1.88398 5.34926C1.88398 5.34926 1.67564 5.72929 1.59465 5.89229C1.50143 6.07991 1.43047 6.25157 1.3753 6.37896C1.22065 6.73607 1.05094 7.27277 1.05094 7.27277L8.88143 9.35836Z" fill="url(#paint11_linear_3_4095)"/>
<path fill-rule="evenodd" clip-rule="evenodd" d="M9.35684 8.88246L7.27125 1.05197C7.27125 1.05197 6.90957 1.16738 6.75263 1.22489C6.51703 1.31123 6.3151 1.40062 6.16481 1.46622C5.7892 1.63017 5.30142 1.91176 5.30142 1.91176C5.30142 1.91176 4.93098 2.1367 4.77934 2.23737C4.60479 2.35324 4.45751 2.46642 4.34604 2.54917C4.03355 2.78111 3.61823 3.16104 3.61823 3.16104L9.35684 8.88246Z" fill="url(#paint12_linear_3_4095)"/>
<path fill-rule="evenodd" clip-rule="evenodd" d="M12.1093 0.885335L10.0002 8.70954L7.89111 0.885335C7.89111 0.885335 8.44076 0.763962 8.82735 0.719338L8.90224 0.710505C9.02913 0.695393 9.18525 0.676799 9.3585 0.665963C9.54016 0.6546 9.97344 0.64502 9.97344 0.64502C9.97344 0.64502 10.5367 0.645044 10.9439 0.690868L10.9762 0.69449C11.1354 0.712327 11.3424 0.735532 11.5737 0.775778C11.7383 0.804441 12.1093 0.885335 12.1093 0.885335ZM16.3827 3.16068L10.6441 8.8821L12.7297 1.05161C12.7297 1.05161 13.2664 1.22132 13.6235 1.37597L13.6928 1.40576L13.6928 1.40578C13.8102 1.45613 13.9547 1.51808 14.1102 1.59532C14.2732 1.67631 14.6532 1.88465 14.6532 1.88465C14.6532 1.88465 15.141 2.16628 15.4707 2.4096L15.4969 2.42889L15.4969 2.4289L15.497 2.42892C15.6259 2.52394 15.7936 2.64755 15.9737 2.798C16.1019 2.90516 16.3827 3.16068 16.3827 3.16068ZM11.1178 9.35597L18.9483 7.27038C18.9483 7.27038 18.8329 6.90869 18.7754 6.75175C18.6946 6.53139 18.6112 6.34047 18.5471 6.19372L18.534 6.16393C18.3701 5.78832 18.0885 5.30054 18.0885 5.30054C18.0885 5.30054 17.8636 4.9301 17.7629 4.77846C17.6669 4.63388 17.5728 4.50801 17.4963 4.4057L17.4962 4.40565L17.4962 4.40557L17.4511 4.34516C17.2192 4.03268 16.8392 3.61735 16.8392 3.61735L11.1178 9.35597ZM19.1158 12.1099L11.2916 10.0008L19.1158 7.89174C19.1158 7.89174 19.2372 8.44138 19.2818 8.82798L19.2906 8.90288L19.2906 8.90292L19.2906 8.903L19.2906 8.90311C19.3057 9.02995 19.3243 9.18598 19.3352 9.35912C19.3465 9.54078 19.3561 9.97406 19.3561 9.97406C19.3561 9.97406 19.3561 10.5373 19.3103 10.9445L19.3066 10.9768C19.2888 11.1359 19.2656 11.343 19.2253 11.5743C19.1967 11.739 19.1158 12.1099 19.1158 12.1099ZM11.1192 10.6446L16.8406 16.3832C16.8406 16.3832 17.0961 16.1025 17.2033 15.9742C17.3538 15.794 17.4774 15.6263 17.5724 15.4974L17.5724 15.4974L17.5917 15.4713C17.835 15.1415 18.1166 14.6537 18.1166 14.6537C18.1166 14.6537 18.325 14.2737 18.406 14.1107C18.4831 13.9556 18.5449 13.8113 18.5952 13.694L18.5952 13.694L18.5953 13.6938L18.5953 13.6937L18.5954 13.6936L18.5955 13.6934L18.5955 13.6933L18.5955 13.6933L18.6253 13.624C18.78 13.2669 18.9497 12.7302 18.9497 12.7302L11.1192 10.6446ZM12.7323 18.9498L10.6467 11.1193L16.3853 16.8407C16.3853 16.8407 15.97 17.2207 15.6575 17.4526L15.5971 17.4977C15.4947 17.5742 15.3688 17.6684 15.2242 17.7644C15.0725 17.8651 14.7021 18.09 14.7021 18.09C14.7021 18.09 14.2143 18.3716 13.8387 18.5356L13.8089 18.5486C13.6622 18.6127 13.4713 18.6961 13.2509 18.7769C13.0939 18.8344 12.7323 18.9498 12.7323 18.9498ZM9.99945 11.293L7.89038 19.1172C7.89038 19.1172 8.26131 19.1981 8.42599 19.2268C8.65723 19.267 8.86431 19.2903 9.02347 19.3081L9.0235 19.3081L9.05572 19.3117C9.46298 19.3575 10.0262 19.3576 10.0262 19.3576C10.0262 19.3576 10.4595 19.348 10.6411 19.3366C10.8143 19.3258 10.9704 19.3072 11.0972 19.2921L11.0974 19.2921L11.1723 19.2832C11.5589 19.2386 12.1085 19.1172 12.1085 19.1172L9.99945 11.293ZM3.61847 16.8387L9.35709 11.1173L7.2715 18.9478C7.2715 18.9478 6.7348 18.778 6.37769 18.6234L6.30845 18.5936C6.19101 18.5433 6.04649 18.4813 5.89102 18.404C5.72801 18.323 5.34799 18.1147 5.34799 18.1147C5.34799 18.1147 4.86024 17.8331 4.53045 17.5898L4.50434 17.5705L4.50429 17.5705C4.37538 17.4754 4.20766 17.3518 4.02755 17.2014C3.89926 17.0942 3.61847 16.8387 3.61847 16.8387ZM8.88269 10.6436L1.05219 12.7292C1.05219 12.7292 1.1676 13.0909 1.22512 13.2478C1.30588 13.4682 1.38931 13.6591 1.45344 13.8059L1.46645 13.8356C1.63039 14.2112 1.91198 14.699 1.91198 14.699C1.91198 14.699 2.13692 15.0695 2.23759 15.2211C2.3336 15.3657 2.42776 15.4916 2.50429 15.594L2.54939 15.6544C2.78133 15.9669 3.16127 16.3822 3.16127 16.3822L8.88269 10.6436ZM0.874104 7.89315L8.69831 10.0022L0.874104 12.1113C0.874104 12.1113 0.752732 11.5616 0.708107 11.1751L0.699275 11.1002C0.684163 10.9733 0.665569 10.8172 0.654732 10.6439C0.64337 10.4622 0.633789 10.029 0.633789 10.029C0.633789 10.029 0.633814 9.46574 0.679637 9.05848L0.68326 9.0262C0.701096 8.86704 0.724301 8.65998 0.764547 8.42875C0.79321 8.26408 0.874104 7.89315 0.874104 7.89315ZM8.88184 9.35817L3.16042 3.61956C3.16042 3.61956 2.9049 3.90035 2.79773 4.02863C2.64727 4.20876 2.52364 4.37647 2.42862 4.50539L2.40934 4.53154C2.16602 4.86132 1.88439 5.34908 1.88439 5.34908C1.88439 5.34908 1.67604 5.7291 1.59505 5.8921C1.51781 6.04756 1.45586 6.19206 1.4055 6.3095L1.4055 6.30951L1.37571 6.37878C1.22106 6.73589 1.05134 7.27258 1.05134 7.27258L8.88184 9.35817ZM7.27138 1.05191L9.35697 8.8824L3.61835 3.16099C3.61835 3.16099 4.03368 2.78105 4.34616 2.54911C4.36527 2.53492 4.38543 2.51985 4.4066 2.50401C4.50893 2.42749 4.63484 2.33332 4.77946 2.23731C4.9311 2.13664 5.30155 1.9117 5.30155 1.9117C5.30155 1.9117 5.78932 1.63011 6.16493 1.46616C6.17464 1.46193 6.18457 1.45759 6.1947 1.45316C6.34145 1.38903 6.53238 1.3056 6.75275 1.22484C6.9097 1.16732 7.27138 1.05191 7.27138 1.05191Z" fill="white" fill-opacity="0.01"/>
<mask id="mask0_3_4095" style="mask-type:luminance" maskUnits="userSpaceOnUse" x="0" y="0" width="20" height="20">
<path fill-rule="evenodd" clip-rule="evenodd" d="M12.1093 0.885335L10.0002 8.70954L7.89111 0.885335C7.89111 0.885335 8.44076 0.763962 8.82735 0.719338L8.90224 0.710505C9.02913 0.695393 9.18525 0.676799 9.3585 0.665963C9.54016 0.6546 9.97344 0.64502 9.97344 0.64502C9.97344 0.64502 10.5367 0.645044 10.9439 0.690868L10.9762 0.69449C11.1354 0.712327 11.3424 0.735532 11.5737 0.775778C11.7383 0.804441 12.1093 0.885335 12.1093 0.885335ZM16.3827 3.16068L10.6441 8.8821L12.7297 1.05161C12.7297 1.05161 13.2664 1.22132 13.6235 1.37597L13.6928 1.40576L13.6928 1.40578C13.8102 1.45613 13.9547 1.51808 14.1102 1.59532C14.2732 1.67631 14.6532 1.88465 14.6532 1.88465C14.6532 1.88465 15.141 2.16628 15.4707 2.4096L15.4969 2.42889L15.4969 2.4289L15.497 2.42892C15.6259 2.52394 15.7936 2.64755 15.9737 2.798C16.1019 2.90516 16.3827 3.16068 16.3827 3.16068ZM11.1178 9.35597L18.9483 7.27038C18.9483 7.27038 18.8329 6.90869 18.7754 6.75175C18.6946 6.53139 18.6112 6.34047 18.5471 6.19372L18.534 6.16393C18.3701 5.78832 18.0885 5.30054 18.0885 5.30054C18.0885 5.30054 17.8636 4.9301 17.7629 4.77846C17.6669 4.63388 17.5728 4.50801 17.4963 4.4057L17.4962 4.40565L17.4962 4.40557L17.4511 4.34516C17.2192 4.03268 16.8392 3.61735 16.8392 3.61735L11.1178 9.35597ZM19.1158 12.1099L11.2916 10.0008L19.1158 7.89174C19.1158 7.89174 19.2372 8.44138 19.2818 8.82798L19.2906 8.90288L19.2906 8.90292L19.2906 8.903L19.2906 8.90311C19.3057 9.02995 19.3243 9.18598 19.3352 9.35912C19.3465 9.54078 19.3561 9.97406 19.3561 9.97406C19.3561 9.97406 19.3561 10.5373 19.3103 10.9445L19.3066 10.9768C19.2888 11.1359 19.2656 11.343 19.2253 11.5743C19.1967 11.739 19.1158 12.1099 19.1158 12.1099ZM11.1192 10.6446L16.8406 16.3832C16.8406 16.3832 17.0961 16.1025 17.2033 15.9742C17.3538 15.794 17.4774 15.6263 17.5724 15.4974L17.5724 15.4974L17.5917 15.4713C17.835 15.1415 18.1166 14.6537 18.1166 14.6537C18.1166 14.6537 18.325 14.2737 18.406 14.1107C18.4831 13.9556 18.5449 13.8113 18.5952 13.694L18.5952 13.694L18.5953 13.6938L18.5953 13.6937L18.5954 13.6936L18.5955 13.6934L18.5955 13.6933L18.5955 13.6933L18.6253 13.624C18.78 13.2669 18.9497 12.7302 18.9497 12.7302L11.1192 10.6446ZM12.7323 18.9498L10.6467 11.1193L16.3853 16.8407C16.3853 16.8407 15.97 17.2207 15.6575 17.4526L15.5971 17.4977C15.4947 17.5742 15.3688 17.6684 15.2242 17.7644C15.0725 17.8651 14.7021 18.09 14.7021 18.09C14.7021 18.09 14.2143 18.3716 13.8387 18.5356L13.8089 18.5486C13.6622 18.6127 13.4713 18.6961 13.2509 18.7769C13.0939 18.8344 12.7323 18.9498 12.7323 18.9498ZM9.99945 11.293L7.89038 19.1172C7.89038 19.1172 8.26131 19.1981 8.42599 19.2268C8.65723 19.267 8.86431 19.2903 9.02347 19.3081L9.0235 19.3081L9.05572 19.3117C9.46298 19.3575 10.0262 19.3576 10.0262 19.3576C10.0262 19.3576 10.4595 19.348 10.6411 19.3366C10.8143 19.3258 10.9704 19.3072 11.0972 19.2921L11.0974 19.2921L11.1723 19.2832C11.5589 19.2386 12.1085 19.1172 12.1085 19.1172L9.99945 11.293ZM3.61847 16.8387L9.35709 11.1173L7.2715 18.9478C7.2715 18.9478 6.7348 18.778 6.37769 18.6234L6.30845 18.5936C6.19101 18.5433 6.04649 18.4813 5.89102 18.404C5.72801 18.323 5.34799 18.1147 5.34799 18.1147C5.34799 18.1147 4.86024 17.8331 4.53045 17.5898L4.50434 17.5705L4.50429 17.5705C4.37538 17.4754 4.20766 17.3518 4.02755 17.2014C3.89926 17.0942 3.61847 16.8387 3.61847 16.8387ZM8.88269 10.6436L1.05219 12.7292C1.05219 12.7292 1.1676 13.0909 1.22512 13.2478C1.30588 13.4682 1.38931 13.6591 1.45344 13.8059L1.46645 13.8356C1.63039 14.2112 1.91198 14.699 1.91198 14.699C1.91198 14.699 2.13692 15.0695 2.23759 15.2211C2.3336 15.3657 2.42776 15.4916 2.50429 15.594L2.54939 15.6544C2.78133 15.9669 3.16127 16.3822 3.16127 16.3822L8.88269 10.6436ZM0.874104 7.89315L8.69831 10.0022L0.874104 12.1113C0.874104 12.1113 0.752732 11.5616 0.708107 11.1751L0.699275 11.1002C0.684163 10.9733 0.665569 10.8172 0.654732 10.6439C0.64337 10.4622 0.633789 10.029 0.633789 10.029C0.633789 10.029 0.633814 9.46574 0.679637 9.05848L0.68326 9.0262C0.701096 8.86704 0.724301 8.65998 0.764547 8.42875C0.79321 8.26408 0.874104 7.89315 0.874104 7.89315ZM8.88184 9.35817L3.16042 3.61956C3.16042 3.61956 2.9049 3.90035 2.79773 4.02863C2.64727 4.20876 2.52364 4.37647 2.42862 4.50539L2.40934 4.53154C2.16602 4.86132 1.88439 5.34908 1.88439 5.34908C1.88439 5.34908 1.67604 5.7291 1.59505 5.8921C1.51781 6.04756 1.45586 6.19206 1.4055 6.3095L1.4055 6.30951L1.37571 6.37878C1.22106 6.73589 1.05134 7.27258 1.05134 7.27258L8.88184 9.35817ZM7.27138 1.05191L9.35697 8.8824L3.61835 3.16099C3.61835 3.16099 4.03368 2.78105 4.34616 2.54911C4.36527 2.53492 4.38543 2.51985 4.4066 2.50401C4.50893 2.42749 4.63484 2.33332 4.77946 2.23731C4.9311 2.13664 5.30155 1.9117 5.30155 1.9117C5.30155 1.9117 5.78932 1.63011 6.16493 1.46616C6.17464 1.46193 6.18457 1.45759 6.1947 1.45316C6.34145 1.38903 6.53238 1.3056 6.75275 1.22484C6.9097 1.16732 7.27138 1.05191 7.27138 1.05191Z" fill="white"/>
</mask>
<g mask="url(#mask0_3_4095)">
<g filter="url(#filter0_f_3_4095)">
<path fill-rule="evenodd" clip-rule="evenodd" d="M9.9888 19.032C14.9772 19.032 19.0211 14.9882 19.0211 9.99979C19.0211 5.01141 14.9772 0.967529 9.9888 0.967529C5.00042 0.967529 0.956543 5.01141 0.956543 9.99979C0.956543 14.9882 5.00042 19.032 9.9888 19.032ZM9.9888 18.3869C14.6209 18.3869 18.3759 14.6319 18.3759 9.99979C18.3759 5.36772 14.6209 1.61269 9.9888 1.61269C5.35674 1.61269 1.6017 5.36772 1.6017 9.99979C1.6017 14.6319 5.35674 18.3869 9.9888 18.3869Z" fill="white" fill-opacity="0.4"/>
</g>
</g>
<circle cx="10.0002" cy="9.99998" r="3.22581" fill="#FCD29A"/>
<circle cx="10.0001" cy="10.0001" r="2.58065" fill="url(#paint13_linear_3_4095)"/>
<defs>
<filter id="filter0_f_3_4095" x="-0.402598" y="-0.391612" width="20.7827" height="20.7827" filterUnits="userSpaceOnUse" color-interpolation-filters="sRGB">
<feFlood flood-opacity="0" result="BackgroundImageFix"/>
<feBlend mode="normal" in="SourceGraphic" in2="BackgroundImageFix" result="shape"/>
<feGaussianBlur stdDeviation="0.67957" result="effect1_foregroundBlur_3_4095"/>
</filter>
<linearGradient id="paint0_linear_3_4095" x1="0" y1="0" x2="0" y2="20" gradientUnits="userSpaceOnUse">
<stop stop-color="#FFF0AA"/>
<stop offset="0.501709" stop-color="#F6D36D"/>
<stop offset="1" stop-color="#EDB630"/>
</linearGradient>
<linearGradient id="paint1_linear_3_4095" x1="7.89111" y1="0.64502" x2="7.89111" y2="8.70958" gradientUnits="userSpaceOnUse">
<stop stop-color="#DE45FF"/>
<stop offset="1" stop-color="#A919D7"/>
</linearGradient>
<linearGradient id="paint2_linear_3_4095" x1="12.8496" y1="0.843506" x2="8.81733" y2="7.82762" gradientUnits="userSpaceOnUse">
<stop stop-color="#4CCBDC"/>
<stop offset="1" stop-color="#11A4B0"/>
</linearGradient>
<linearGradient id="paint3_linear_3_4095" x1="17.0474" y1="3.49731" x2="10.0632" y2="7.5296" gradientUnits="userSpaceOnUse">
<stop stop-color="#9143FA"/>
<stop offset="1" stop-color="#6116E0"/>
</linearGradient>
<linearGradient id="paint4_linear_3_4095" x1="19.356" y1="7.89185" x2="11.2914" y2="7.89185" gradientUnits="userSpaceOnUse">
<stop stop-color="#D5CC45"/>
<stop offset="1" stop-color="#90860C"/>
</linearGradient>
<linearGradient id="paint5_linear_3_4095" x1="19.1577" y1="12.8506" x2="12.1736" y2="8.8183" gradientUnits="userSpaceOnUse">
<stop stop-color="#F5447F"/>
<stop offset="1" stop-color="#C60F47"/>
</linearGradient>
<linearGradient id="paint6_linear_3_4095" x1="16.5054" y1="17.0491" x2="12.4731" y2="10.065" gradientUnits="userSpaceOnUse">
<stop stop-color="#F7C32F"/>
<stop offset="1" stop-color="#DE7F00"/>
</linearGradient>
<linearGradient id="paint7_linear_3_4095" x1="12.1084" y1="19.3577" x2="12.1084" y2="11.2931" gradientUnits="userSpaceOnUse">
<stop stop-color="#DE45FF"/>
<stop offset="1" stop-color="#A919D7"/>
</linearGradient>
<linearGradient id="paint8_linear_3_4095" x1="7.15137" y1="19.156" x2="11.1836" y2="12.1719" gradientUnits="userSpaceOnUse">
<stop stop-color="#4CCBDC"/>
<stop offset="1" stop-color="#11A4B0"/>
</linearGradient>
<linearGradient id="paint9_linear_3_4095" x1="2.95312" y1="16.5024" x2="9.93724" y2="12.4702" gradientUnits="userSpaceOnUse">
<stop stop-color="#9143FA"/>
<stop offset="1" stop-color="#6116E0"/>
</linearGradient>
<linearGradient id="paint10_linear_3_4095" x1="0.633789" y1="12.1113" x2="8.69835" y2="12.1113" gradientUnits="userSpaceOnUse">
<stop stop-color="#D5CC45"/>
<stop offset="1" stop-color="#90860C"/>
</linearGradient>
<linearGradient id="paint11_linear_3_4095" x1="0.842773" y1="7.15259" x2="7.82689" y2="11.1849" gradientUnits="userSpaceOnUse">
<stop stop-color="#F5447F"/>
<stop offset="1" stop-color="#C60F47"/>
</linearGradient>
<linearGradient id="paint12_linear_3_4095" x1="3.49805" y1="2.95288" x2="7.53033" y2="9.937" gradientUnits="userSpaceOnUse">
<stop stop-color="#F7C32F"/>
<stop offset="1" stop-color="#DE7F00"/>
</linearGradient>
<linearGradient id="paint13_linear_3_4095" x1="7.41943" y1="7.41943" x2="7.41943" y2="12.5807" gradientUnits="userSpaceOnUse">
<stop stop-color="#F371FE"/>
<stop offset="0.521822" stop-color="#A024EF"/>
<stop offset="1" stop-color="#DD33F6"/>
</linearGradient>
</defs>
</svg>
