<svg width="60" height="60" viewBox="0 0 60 60" fill="none" xmlns="http://www.w3.org/2000/svg">
<path fill-rule="evenodd" clip-rule="evenodd" d="M55.5033 29.9964C55.5033 44.0526 44.0548 55.4982 30.0015 55.4982C15.9452 55.4982 4.50033 44.0526 4.50033 29.9964C4.50033 15.9401 15.9445 4.49524 30.0015 4.49524C44.0584 4.49524 55.5033 15.9401 55.5033 29.9964ZM0 29.9993C0 46.5717 13.4261 59.9978 30.0015 59.9978C46.5768 59.9978 60 46.5746 60 29.9993C60 13.4239 46.5768 0 30.0015 0C13.4261 0 0 13.4268 0 29.9993ZM28.3347 43.4956C28.8284 43.8252 29.4088 44.001 30.0024 44.0007H30.0009C30.796 43.9982 31.5577 43.6814 32.1199 43.1193C32.6822 42.5572 32.9992 41.7955 33.0019 41.0005C33.002 40.4069 32.8261 39.8266 32.4964 39.3329C32.1667 38.8393 31.6979 38.4546 31.1495 38.2274C30.6011 38.0001 29.9976 37.9407 29.4154 38.0565C28.8332 38.1724 28.2984 38.4583 27.8787 38.8781C27.459 39.2979 27.1732 39.8327 27.0575 40.415C26.9419 40.9972 27.0014 41.6007 27.2288 42.149C27.4561 42.6974 27.841 43.166 28.3347 43.4956ZM29.8083 35.0008H30.1819H30.1834C30.5538 35.0018 30.9207 34.9295 31.2631 34.7882C31.6055 34.6469 31.9166 34.4393 32.1785 34.1774C32.4404 33.9155 32.648 33.6044 32.7893 33.262C32.9306 32.9196 33.0028 32.5527 33.0019 32.1823V16.8062C33.001 16.4367 32.9274 16.0711 32.7852 15.7301C32.643 15.3892 32.4351 15.0795 32.1732 14.8189C31.9113 14.5584 31.6007 14.3519 31.259 14.2114C30.9173 14.0709 30.5513 13.9991 30.1819 14H29.8083C29.0645 14.0014 28.3514 14.2974 27.8253 14.8234C27.2992 15.3493 27.003 16.0623 27.0015 16.8062V32.1823C27.0005 32.9281 27.2955 33.6438 27.8218 34.1722C28.3481 34.7007 29.0625 34.9987 29.8083 35.0008Z" fill="#FF5959"/>
</svg>
