<svg width="200" height="200" viewBox="0 0 200 200" fill="none" xmlns="http://www.w3.org/2000/svg">
<path fill-rule="evenodd" clip-rule="evenodd" d="M122.97 89.9203V109.771H82.4939L122.97 89.9203ZM97.2796 92.0418C99.8442 93.4125 102.774 94.1895 105.885 94.1895C106.574 94.1895 107.254 94.1515 107.922 94.0773L76.1664 109.771L97.2796 92.0418ZM91.3002 86.9331C92.3223 88.283 93.5275 89.4866 94.8789 90.5069L73 108.897L91.3002 86.9331ZM87.6912 74.0903C87.6323 74.6878 87.6021 75.2937 87.6021 75.9067C87.6021 79.1179 88.43 82.1358 89.884 84.7585L73 104.077L87.6912 74.0903ZM91.9878 59.2081L73 99.0197V59.2081H91.9878ZM107.63 55C118.101 55 126.59 63.4887 126.59 73.96C126.59 84.4314 118.101 92.9201 107.63 92.9201C97.1583 92.9201 88.6697 84.4314 88.6697 73.96C88.6697 63.4887 97.1583 55 107.63 55ZM104.659 77.7717L100.508 81.3965V89.1768C104.699 91.4995 109.38 90.782 109.806 90.7102L109.837 90.7047C110.71 90.077 111.965 88.1943 113.601 85.0564C112.497 81.2781 111.945 79.3889 111.945 79.3889C109.5 79.3889 107.071 78.8498 104.659 77.7717ZM122.022 73.1011H116.289C116.099 74.014 115.64 75.0474 114.912 76.2013C113.82 77.9322 112.871 78.5556 112.871 78.7322C112.871 79.1147 114.614 84.7266 114.614 84.7266C116.602 86.036 119.865 85.6936 119.865 85.6936C124.195 81.7819 124.644 75.8277 124.644 75.8277C123.889 75.3569 123.015 74.4481 122.022 73.1011ZM91.5887 70.0081L91.2444 70.3123V78.2914C93.2101 79.7427 95.9135 80.5447 99.3547 80.6972L99.935 80.7166L104.08 76.8369V69.414C102.166 68.4668 100.837 67.809 100.092 67.4406L99.8258 67.3087C99.7474 67.2699 99.6793 67.2362 99.6217 67.2077L99.3884 67.0922L99.3819 67.089C96.7145 66.8584 94.1168 67.8314 91.5887 70.0081ZM117.285 60.0817C115.761 60.2845 114.543 60.8056 113.631 61.645C112.355 62.8202 112.27 66.9413 112.264 67.4856L112.264 67.5451C113.785 68.4717 114.986 69.8225 115.867 71.5975L116.065 72.0147H122.082C123.439 71.1644 124.164 68.8331 124.164 68.8331C123.201 65.4543 120.909 62.5372 117.285 60.0817ZM99.8027 59.0958L99.3819 59.3648V66.167L104.831 68.8331L110.972 66.7971C111.292 65.8941 111.557 64.9803 111.767 64.0558C111.976 63.1312 112.142 62.1419 112.264 61.088C110.026 58.5231 108.907 57.2407 108.907 57.2407C105.921 56.5635 102.886 57.1818 99.8027 59.0958Z" fill="#3F4047"/>
<path d="M31.624 133.737L35.4121 133.5C35.4941 134.115 35.6611 134.584 35.9131 134.906C36.3232 135.428 36.9092 135.688 37.6709 135.688C38.2393 135.688 38.6758 135.557 38.9805 135.293C39.291 135.023 39.4463 134.713 39.4463 134.361C39.4463 134.027 39.2998 133.729 39.0068 133.465C38.7139 133.201 38.0342 132.952 36.9678 132.718C35.2217 132.325 33.9766 131.804 33.2324 131.153C32.4824 130.503 32.1074 129.674 32.1074 128.666C32.1074 128.004 32.2979 127.38 32.6787 126.794C33.0654 126.202 33.6426 125.739 34.4102 125.405C35.1836 125.065 36.2412 124.896 37.583 124.896C39.2295 124.896 40.4834 125.203 41.3447 125.818C42.2119 126.428 42.7275 127.4 42.8916 128.736L39.1387 128.956C39.0391 128.376 38.8281 127.954 38.5059 127.69C38.1895 127.427 37.75 127.295 37.1875 127.295C36.7246 127.295 36.376 127.395 36.1416 127.594C35.9072 127.787 35.79 128.024 35.79 128.306C35.79 128.511 35.8867 128.695 36.0801 128.859C36.2676 129.029 36.7129 129.188 37.416 129.334C39.1562 129.709 40.4014 130.09 41.1514 130.477C41.9072 130.857 42.4551 131.332 42.7949 131.9C43.1406 132.469 43.3135 133.104 43.3135 133.808C43.3135 134.634 43.085 135.396 42.6279 136.093C42.1709 136.79 41.5322 137.32 40.7119 137.684C39.8916 138.041 38.8574 138.22 37.6094 138.22C35.418 138.22 33.9004 137.798 33.0566 136.954C32.2129 136.11 31.7354 135.038 31.624 133.737ZM45.1064 141.551V128.666H48.4551V130.046C48.918 129.466 49.3428 129.073 49.7295 128.868C50.251 128.593 50.8281 128.455 51.4609 128.455C52.709 128.455 53.6729 128.933 54.3525 129.888C55.0381 130.843 55.3809 132.023 55.3809 133.43C55.3809 134.982 55.0088 136.169 54.2646 136.989C53.5205 137.804 52.5801 138.211 51.4434 138.211C50.8926 138.211 50.3887 138.117 49.9316 137.93C49.4805 137.742 49.0762 137.464 48.7188 137.095V141.551H45.1064ZM48.6924 133.359C48.6924 134.098 48.8477 134.646 49.1582 135.003C49.4688 135.36 49.8613 135.539 50.3359 135.539C50.752 135.539 51.1006 135.369 51.3818 135.029C51.6631 134.684 51.8037 134.101 51.8037 133.28C51.8037 132.524 51.6572 131.971 51.3643 131.619C51.0713 131.262 50.7139 131.083 50.292 131.083C49.835 131.083 49.4541 131.262 49.1494 131.619C48.8447 131.977 48.6924 132.557 48.6924 133.359ZM56.6553 133.359C56.6553 131.936 57.1357 130.764 58.0967 129.844C59.0576 128.918 60.3555 128.455 61.9902 128.455C63.8594 128.455 65.2715 128.997 66.2266 130.081C66.9941 130.954 67.3779 132.029 67.3779 133.307C67.3779 134.742 66.9004 135.92 65.9453 136.84C64.9961 137.754 63.6807 138.211 61.999 138.211C60.499 138.211 59.2861 137.83 58.3604 137.068C57.2236 136.125 56.6553 134.889 56.6553 133.359ZM60.2412 133.351C60.2412 134.183 60.4082 134.798 60.7422 135.196C61.082 135.595 61.5068 135.794 62.0166 135.794C62.5322 135.794 62.9541 135.598 63.2822 135.205C63.6162 134.812 63.7832 134.183 63.7832 133.315C63.7832 132.507 63.6162 131.906 63.2822 131.514C62.9482 131.115 62.5352 130.916 62.043 130.916C61.5215 130.916 61.0908 131.118 60.751 131.522C60.4111 131.921 60.2412 132.53 60.2412 133.351ZM69.1357 128.666H72.4844V130.195C72.8066 129.533 73.1377 129.079 73.4775 128.833C73.8232 128.581 74.248 128.455 74.752 128.455C75.2793 128.455 75.8564 128.619 76.4834 128.947L75.376 131.496C74.9541 131.32 74.6201 131.232 74.374 131.232C73.9053 131.232 73.542 131.426 73.2842 131.812C72.915 132.357 72.7305 133.377 72.7305 134.871V138H69.1357V128.666ZM81.4141 125.115V128.666H83.3828V131.276H81.4141V134.59C81.4141 134.988 81.4521 135.252 81.5283 135.381C81.6455 135.58 81.8506 135.68 82.1436 135.68C82.4072 135.68 82.7764 135.604 83.251 135.451L83.5146 137.921C82.6299 138.114 81.8037 138.211 81.0361 138.211C80.1455 138.211 79.4893 138.097 79.0674 137.868C78.6455 137.64 78.332 137.294 78.127 136.831C77.9277 136.362 77.8281 135.606 77.8281 134.563V131.276H76.5098V128.666H77.8281V126.952L81.4141 125.115ZM85.1055 134.414H88.9287V138H85.1055V134.414ZM97.8057 133.333V130.652H103.958V136.146C102.78 136.948 101.737 137.496 100.829 137.789C99.9268 138.076 98.8545 138.22 97.6123 138.22C96.083 138.22 94.835 137.959 93.8682 137.438C92.9072 136.916 92.1602 136.14 91.627 135.108C91.0996 134.077 90.8359 132.894 90.8359 131.558C90.8359 130.151 91.126 128.93 91.7061 127.893C92.2861 126.85 93.1357 126.059 94.2549 125.52C95.1279 125.104 96.3027 124.896 97.7793 124.896C99.2031 124.896 100.267 125.024 100.97 125.282C101.679 125.54 102.265 125.941 102.728 126.486C103.196 127.025 103.548 127.711 103.782 128.543L99.9414 129.229C99.7832 128.742 99.5137 128.37 99.1328 128.112C98.7578 127.854 98.2773 127.726 97.6914 127.726C96.8184 127.726 96.1211 128.03 95.5996 128.64C95.084 129.243 94.8262 130.201 94.8262 131.514C94.8262 132.908 95.0869 133.904 95.6084 134.502C96.1357 135.1 96.8682 135.398 97.8057 135.398C98.251 135.398 98.6758 135.334 99.0801 135.205C99.4844 135.076 99.9473 134.856 100.469 134.546V133.333H97.8057ZM109.346 131.689L105.927 131.329C106.056 130.731 106.24 130.263 106.48 129.923C106.727 129.577 107.078 129.278 107.535 129.026C107.863 128.845 108.314 128.704 108.889 128.604C109.463 128.505 110.084 128.455 110.752 128.455C111.824 128.455 112.686 128.517 113.336 128.64C113.986 128.757 114.528 129.006 114.962 129.387C115.267 129.65 115.507 130.025 115.683 130.512C115.858 130.992 115.946 131.452 115.946 131.892V136.014C115.946 136.453 115.973 136.799 116.025 137.051C116.084 137.297 116.207 137.613 116.395 138H113.037C112.902 137.76 112.814 137.578 112.773 137.455C112.732 137.326 112.691 137.127 112.65 136.857C112.182 137.309 111.716 137.631 111.253 137.824C110.62 138.082 109.885 138.211 109.047 138.211C107.934 138.211 107.087 137.953 106.507 137.438C105.933 136.922 105.646 136.286 105.646 135.53C105.646 134.821 105.854 134.238 106.27 133.781C106.686 133.324 107.453 132.984 108.572 132.762C109.914 132.492 110.784 132.305 111.183 132.199C111.581 132.088 112.003 131.944 112.448 131.769C112.448 131.329 112.357 131.021 112.176 130.846C111.994 130.67 111.675 130.582 111.218 130.582C110.632 130.582 110.192 130.676 109.899 130.863C109.671 131.01 109.486 131.285 109.346 131.689ZM112.448 133.57C111.956 133.746 111.443 133.901 110.91 134.036C110.184 134.229 109.724 134.42 109.53 134.607C109.331 134.801 109.231 135.021 109.231 135.267C109.231 135.548 109.328 135.779 109.521 135.961C109.721 136.137 110.011 136.225 110.392 136.225C110.79 136.225 111.159 136.128 111.499 135.935C111.845 135.741 112.088 135.507 112.229 135.231C112.375 134.95 112.448 134.587 112.448 134.142V133.57ZM118.117 128.666H121.457V130.028C121.938 129.46 122.421 129.056 122.907 128.815C123.399 128.575 123.991 128.455 124.683 128.455C125.427 128.455 126.016 128.587 126.449 128.851C126.883 129.114 127.237 129.507 127.513 130.028C128.075 129.419 128.588 129.006 129.051 128.789C129.514 128.566 130.085 128.455 130.765 128.455C131.767 128.455 132.549 128.754 133.111 129.352C133.674 129.943 133.955 130.872 133.955 132.138V138H130.369V132.683C130.369 132.261 130.287 131.947 130.123 131.742C129.883 131.42 129.584 131.259 129.227 131.259C128.805 131.259 128.465 131.411 128.207 131.716C127.949 132.021 127.82 132.51 127.82 133.184V138H124.234V132.858C124.234 132.448 124.211 132.17 124.164 132.023C124.088 131.789 123.956 131.602 123.769 131.461C123.581 131.314 123.361 131.241 123.109 131.241C122.699 131.241 122.362 131.396 122.099 131.707C121.835 132.018 121.703 132.527 121.703 133.236V138H118.117V128.666ZM146.453 134.221H139.281C139.346 134.795 139.501 135.223 139.747 135.504C140.093 135.908 140.544 136.11 141.101 136.11C141.452 136.11 141.786 136.022 142.103 135.847C142.296 135.735 142.504 135.539 142.727 135.258L146.251 135.583C145.712 136.521 145.062 137.194 144.3 137.604C143.538 138.009 142.445 138.211 141.021 138.211C139.785 138.211 138.812 138.038 138.104 137.692C137.395 137.341 136.806 136.787 136.337 136.031C135.874 135.27 135.643 134.376 135.643 133.351C135.643 131.892 136.108 130.711 137.04 129.809C137.978 128.906 139.27 128.455 140.916 128.455C142.252 128.455 143.307 128.657 144.08 129.062C144.854 129.466 145.442 130.052 145.847 130.819C146.251 131.587 146.453 132.586 146.453 133.816V134.221ZM142.814 132.507C142.744 131.815 142.557 131.32 142.252 131.021C141.953 130.723 141.558 130.573 141.065 130.573C140.497 130.573 140.043 130.799 139.703 131.25C139.486 131.531 139.349 131.95 139.29 132.507H142.814ZM147.464 135.416L151.015 135.082C151.161 135.504 151.366 135.806 151.63 135.987C151.894 136.169 152.245 136.26 152.685 136.26C153.165 136.26 153.537 136.157 153.801 135.952C154.006 135.8 154.108 135.609 154.108 135.381C154.108 135.123 153.974 134.924 153.704 134.783C153.511 134.684 152.998 134.561 152.166 134.414C150.924 134.197 150.06 133.998 149.573 133.816C149.093 133.629 148.686 133.315 148.352 132.876C148.023 132.437 147.859 131.936 147.859 131.373C147.859 130.758 148.038 130.228 148.396 129.782C148.753 129.337 149.245 129.006 149.872 128.789C150.499 128.566 151.34 128.455 152.395 128.455C153.508 128.455 154.328 128.54 154.855 128.71C155.389 128.88 155.831 129.144 156.183 129.501C156.54 129.858 156.836 130.342 157.07 130.951L153.678 131.285C153.59 130.986 153.443 130.767 153.238 130.626C152.957 130.438 152.617 130.345 152.219 130.345C151.814 130.345 151.519 130.418 151.331 130.564C151.149 130.705 151.059 130.878 151.059 131.083C151.059 131.312 151.176 131.484 151.41 131.602C151.645 131.719 152.154 131.824 152.939 131.918C154.129 132.053 155.014 132.24 155.594 132.48C156.174 132.721 156.616 133.063 156.921 133.509C157.231 133.954 157.387 134.443 157.387 134.977C157.387 135.516 157.223 136.04 156.895 136.55C156.572 137.06 156.06 137.467 155.356 137.771C154.659 138.07 153.707 138.22 152.5 138.22C150.795 138.22 149.579 137.977 148.853 137.49C148.132 137.004 147.669 136.312 147.464 135.416Z" fill="#3F4047"/>
</svg>
