<svg width="177" height="41" viewBox="0 0 177 41" fill="none" xmlns="http://www.w3.org/2000/svg">
<path fill-rule="evenodd" clip-rule="evenodd" d="M36.8974 25.785V40.4429H7.01026L36.8974 25.785ZM17.9279 27.3515C19.8216 28.3636 21.9849 28.9374 24.2821 28.9374C24.7907 28.9374 25.2927 28.9093 25.7866 28.8545L2.33809 40.4429L17.9279 27.3515ZM13.5128 23.5793C14.2675 24.576 15.1574 25.4647 16.1552 26.2181L0 39.7975L13.5128 23.5793ZM10.8479 14.0962C10.8044 14.5373 10.7821 14.9848 10.7821 15.4374C10.7821 17.8085 11.3935 20.0369 12.4671 21.9735L0 36.2384L10.8479 14.0962ZM14.0205 3.10726L0 32.504V3.10726H14.0205ZM25.5704 0C33.3024 0 39.5704 6.26801 39.5704 14C39.5704 21.732 33.3024 28 25.5704 28C17.8384 28 11.5704 21.732 11.5704 14C11.5704 6.26801 17.8384 0 25.5704 0ZM23.3765 16.8145L20.3116 19.4911V25.236C23.4062 26.9511 26.8625 26.4212 27.1773 26.3682L27.2006 26.3642C27.8451 25.9007 28.7714 24.5105 29.9795 22.1935C29.1643 19.4036 28.7568 18.0086 28.7568 18.0086C26.9512 18.0086 25.1577 17.6106 23.3765 16.8145ZM36.1973 13.3657H31.9646C31.824 14.0398 31.4849 14.8029 30.9475 15.6549C30.1413 16.933 29.4408 17.3934 29.4408 17.5237C29.4408 17.8062 30.7279 21.95 30.7279 21.95C32.1952 22.9168 34.6045 22.664 34.6045 22.664C37.8025 19.7756 38.134 15.3791 38.134 15.3791C37.5763 15.0315 36.9308 14.3604 36.1973 13.3657ZM13.7258 11.0819L13.4716 11.3066V17.1982C14.9231 18.2699 16.9193 18.8621 19.4602 18.9747L19.8887 18.989L22.949 16.1243V10.6432C21.5358 9.94382 20.5544 9.45811 20.0049 9.18612L19.8081 9.08872C19.7501 9.06005 19.6999 9.03518 19.6573 9.01411L19.485 8.92884L19.4803 8.92649C17.5107 8.75619 15.5925 9.47465 13.7258 11.0819ZM32.7001 3.75233C31.5747 3.90204 30.6754 4.28681 30.0021 4.90664C29.0595 5.7744 28.9966 8.8174 28.9925 9.21928L28.9922 9.26322C30.1154 9.94743 31.0024 10.9449 31.653 12.2555L31.799 12.5636H36.2417C37.2437 11.9357 37.7791 10.2143 37.7791 10.2143C37.0686 7.71943 35.3755 5.56545 32.7001 3.75233ZM19.791 3.02433L19.4803 3.22297V8.24567L23.504 10.2143L28.038 8.71095C28.2749 8.04417 28.4706 7.36943 28.6251 6.68675C28.7796 6.00406 28.9019 5.27358 28.9922 4.49532C27.3397 2.60147 26.5135 1.65455 26.5135 1.65455C24.3084 1.15447 22.0676 1.61106 19.791 3.02433Z" fill="white"/>
<path d="M49.624 22.7373L53.4121 22.5C53.4941 23.1152 53.6611 23.584 53.9131 23.9062C54.3232 24.4277 54.9092 24.6885 55.6709 24.6885C56.2393 24.6885 56.6758 24.5566 56.9805 24.293C57.291 24.0234 57.4463 23.7129 57.4463 23.3613C57.4463 23.0273 57.2998 22.7285 57.0068 22.4648C56.7139 22.2012 56.0342 21.9521 54.9678 21.7178C53.2217 21.3252 51.9766 20.8037 51.2324 20.1533C50.4824 19.5029 50.1074 18.6738 50.1074 17.666C50.1074 17.0039 50.2979 16.3799 50.6787 15.7939C51.0654 15.2021 51.6426 14.7393 52.4102 14.4053C53.1836 14.0654 54.2412 13.8955 55.583 13.8955C57.2295 13.8955 58.4834 14.2031 59.3447 14.8184C60.2119 15.4277 60.7275 16.4004 60.8916 17.7363L57.1387 17.9561C57.0391 17.376 56.8281 16.9541 56.5059 16.6904C56.1895 16.4268 55.75 16.2949 55.1875 16.2949C54.7246 16.2949 54.376 16.3945 54.1416 16.5938C53.9072 16.7871 53.79 17.0244 53.79 17.3057C53.79 17.5107 53.8867 17.6953 54.0801 17.8594C54.2676 18.0293 54.7129 18.1875 55.416 18.334C57.1562 18.709 58.4014 19.0898 59.1514 19.4766C59.9072 19.8574 60.4551 20.332 60.7949 20.9004C61.1406 21.4688 61.3135 22.1045 61.3135 22.8076C61.3135 23.6338 61.085 24.3955 60.6279 25.0928C60.1709 25.79 59.5322 26.3203 58.7119 26.6836C57.8916 27.041 56.8574 27.2197 55.6094 27.2197C53.418 27.2197 51.9004 26.7979 51.0566 25.9541C50.2129 25.1104 49.7354 24.0381 49.624 22.7373ZM63.1064 30.5508V17.666H66.4551V19.0459C66.918 18.4658 67.3428 18.0732 67.7295 17.8682C68.251 17.5928 68.8281 17.4551 69.4609 17.4551C70.709 17.4551 71.6729 17.9326 72.3525 18.8877C73.0381 19.8428 73.3809 21.0234 73.3809 22.4297C73.3809 23.9824 73.0088 25.1689 72.2646 25.9893C71.5205 26.8037 70.5801 27.2109 69.4434 27.2109C68.8926 27.2109 68.3887 27.1172 67.9316 26.9297C67.4805 26.7422 67.0762 26.4639 66.7188 26.0947V30.5508H63.1064ZM66.6924 22.3594C66.6924 23.0977 66.8477 23.6455 67.1582 24.0029C67.4688 24.3604 67.8613 24.5391 68.3359 24.5391C68.752 24.5391 69.1006 24.3691 69.3818 24.0293C69.6631 23.6836 69.8037 23.1006 69.8037 22.2803C69.8037 21.5244 69.6572 20.9707 69.3643 20.6191C69.0713 20.2617 68.7139 20.083 68.292 20.083C67.835 20.083 67.4541 20.2617 67.1494 20.6191C66.8447 20.9766 66.6924 21.5566 66.6924 22.3594ZM74.6553 22.3594C74.6553 20.9355 75.1357 19.7637 76.0967 18.8438C77.0576 17.918 78.3555 17.4551 79.9902 17.4551C81.8594 17.4551 83.2715 17.9971 84.2266 19.0811C84.9941 19.9541 85.3779 21.0293 85.3779 22.3066C85.3779 23.7422 84.9004 24.9199 83.9453 25.8398C82.9961 26.7539 81.6807 27.2109 79.999 27.2109C78.499 27.2109 77.2861 26.8301 76.3604 26.0684C75.2236 25.125 74.6553 23.8887 74.6553 22.3594ZM78.2412 22.3506C78.2412 23.1826 78.4082 23.7979 78.7422 24.1963C79.082 24.5947 79.5068 24.7939 80.0166 24.7939C80.5322 24.7939 80.9541 24.5977 81.2822 24.2051C81.6162 23.8125 81.7832 23.1826 81.7832 22.3154C81.7832 21.5068 81.6162 20.9062 81.2822 20.5137C80.9482 20.1152 80.5352 19.916 80.043 19.916C79.5215 19.916 79.0908 20.1182 78.751 20.5225C78.4111 20.9209 78.2412 21.5303 78.2412 22.3506ZM87.1357 17.666H90.4844V19.1953C90.8066 18.5332 91.1377 18.0791 91.4775 17.833C91.8232 17.5811 92.248 17.4551 92.752 17.4551C93.2793 17.4551 93.8564 17.6191 94.4834 17.9473L93.376 20.4961C92.9541 20.3203 92.6201 20.2324 92.374 20.2324C91.9053 20.2324 91.542 20.4258 91.2842 20.8125C90.915 21.3574 90.7305 22.377 90.7305 23.8711V27H87.1357V17.666ZM99.4141 14.1152V17.666H101.383V20.2764H99.4141V23.5898C99.4141 23.9883 99.4521 24.252 99.5283 24.3809C99.6455 24.5801 99.8506 24.6797 100.144 24.6797C100.407 24.6797 100.776 24.6035 101.251 24.4512L101.515 26.9209C100.63 27.1143 99.8037 27.2109 99.0361 27.2109C98.1455 27.2109 97.4893 27.0967 97.0674 26.8682C96.6455 26.6396 96.332 26.2939 96.127 25.8311C95.9277 25.3623 95.8281 24.6064 95.8281 23.5635V20.2764H94.5098V17.666H95.8281V15.9521L99.4141 14.1152ZM103.105 23.4141H106.929V27H103.105V23.4141ZM115.806 22.333V19.6523H121.958V25.1455C120.78 25.9482 119.737 26.4961 118.829 26.7891C117.927 27.0762 116.854 27.2197 115.612 27.2197C114.083 27.2197 112.835 26.959 111.868 26.4375C110.907 25.916 110.16 25.1396 109.627 24.1084C109.1 23.0771 108.836 21.8936 108.836 20.5576C108.836 19.1514 109.126 17.9297 109.706 16.8926C110.286 15.8496 111.136 15.0586 112.255 14.5195C113.128 14.1035 114.303 13.8955 115.779 13.8955C117.203 13.8955 118.267 14.0244 118.97 14.2822C119.679 14.54 120.265 14.9414 120.728 15.4863C121.196 16.0254 121.548 16.7109 121.782 17.543L117.941 18.2285C117.783 17.7422 117.514 17.3701 117.133 17.1123C116.758 16.8545 116.277 16.7256 115.691 16.7256C114.818 16.7256 114.121 17.0303 113.6 17.6396C113.084 18.2432 112.826 19.2012 112.826 20.5137C112.826 21.9082 113.087 22.9043 113.608 23.502C114.136 24.0996 114.868 24.3984 115.806 24.3984C116.251 24.3984 116.676 24.334 117.08 24.2051C117.484 24.0762 117.947 23.8564 118.469 23.5459V22.333H115.806ZM127.346 20.6895L123.927 20.3291C124.056 19.7314 124.24 19.2627 124.48 18.9229C124.727 18.5771 125.078 18.2783 125.535 18.0264C125.863 17.8447 126.314 17.7041 126.889 17.6045C127.463 17.5049 128.084 17.4551 128.752 17.4551C129.824 17.4551 130.686 17.5166 131.336 17.6396C131.986 17.7568 132.528 18.0059 132.962 18.3867C133.267 18.6504 133.507 19.0254 133.683 19.5117C133.858 19.9922 133.946 20.4521 133.946 20.8916V25.0137C133.946 25.4531 133.973 25.7988 134.025 26.0508C134.084 26.2969 134.207 26.6133 134.395 27H131.037C130.902 26.7598 130.814 26.5781 130.773 26.4551C130.732 26.3262 130.691 26.127 130.65 25.8574C130.182 26.3086 129.716 26.6309 129.253 26.8242C128.62 27.082 127.885 27.2109 127.047 27.2109C125.934 27.2109 125.087 26.9531 124.507 26.4375C123.933 25.9219 123.646 25.2861 123.646 24.5303C123.646 23.8213 123.854 23.2383 124.27 22.7812C124.686 22.3242 125.453 21.9844 126.572 21.7617C127.914 21.4922 128.784 21.3047 129.183 21.1992C129.581 21.0879 130.003 20.9443 130.448 20.7686C130.448 20.3291 130.357 20.0215 130.176 19.8457C129.994 19.6699 129.675 19.582 129.218 19.582C128.632 19.582 128.192 19.6758 127.899 19.8633C127.671 20.0098 127.486 20.2852 127.346 20.6895ZM130.448 22.5703C129.956 22.7461 129.443 22.9014 128.91 23.0361C128.184 23.2295 127.724 23.4199 127.53 23.6074C127.331 23.8008 127.231 24.0205 127.231 24.2666C127.231 24.5479 127.328 24.7793 127.521 24.9609C127.721 25.1367 128.011 25.2246 128.392 25.2246C128.79 25.2246 129.159 25.1279 129.499 24.9346C129.845 24.7412 130.088 24.5068 130.229 24.2314C130.375 23.9502 130.448 23.5869 130.448 23.1416V22.5703ZM136.117 17.666H139.457V19.0283C139.938 18.46 140.421 18.0557 140.907 17.8154C141.399 17.5752 141.991 17.4551 142.683 17.4551C143.427 17.4551 144.016 17.5869 144.449 17.8506C144.883 18.1143 145.237 18.5068 145.513 19.0283C146.075 18.4189 146.588 18.0059 147.051 17.7891C147.514 17.5664 148.085 17.4551 148.765 17.4551C149.767 17.4551 150.549 17.7539 151.111 18.3516C151.674 18.9434 151.955 19.8721 151.955 21.1377V27H148.369V21.6826C148.369 21.2607 148.287 20.9473 148.123 20.7422C147.883 20.4199 147.584 20.2588 147.227 20.2588C146.805 20.2588 146.465 20.4111 146.207 20.7158C145.949 21.0205 145.82 21.5098 145.82 22.1836V27H142.234V21.8584C142.234 21.4482 142.211 21.1699 142.164 21.0234C142.088 20.7891 141.956 20.6016 141.769 20.4609C141.581 20.3145 141.361 20.2412 141.109 20.2412C140.699 20.2412 140.362 20.3965 140.099 20.707C139.835 21.0176 139.703 21.5273 139.703 22.2363V27H136.117V17.666ZM164.453 23.2207H157.281C157.346 23.7949 157.501 24.2227 157.747 24.5039C158.093 24.9082 158.544 25.1104 159.101 25.1104C159.452 25.1104 159.786 25.0225 160.103 24.8467C160.296 24.7354 160.504 24.5391 160.727 24.2578L164.251 24.583C163.712 25.5205 163.062 26.1943 162.3 26.6045C161.538 27.0088 160.445 27.2109 159.021 27.2109C157.785 27.2109 156.812 27.0381 156.104 26.6924C155.395 26.3408 154.806 25.7871 154.337 25.0312C153.874 24.2695 153.643 23.376 153.643 22.3506C153.643 20.8916 154.108 19.7109 155.04 18.8086C155.978 17.9062 157.27 17.4551 158.916 17.4551C160.252 17.4551 161.307 17.6572 162.08 18.0615C162.854 18.4658 163.442 19.0518 163.847 19.8193C164.251 20.5869 164.453 21.5859 164.453 22.8164V23.2207ZM160.814 21.5068C160.744 20.8154 160.557 20.3203 160.252 20.0215C159.953 19.7227 159.558 19.5732 159.065 19.5732C158.497 19.5732 158.043 19.7988 157.703 20.25C157.486 20.5312 157.349 20.9502 157.29 21.5068H160.814ZM165.464 24.416L169.015 24.082C169.161 24.5039 169.366 24.8057 169.63 24.9873C169.894 25.1689 170.245 25.2598 170.685 25.2598C171.165 25.2598 171.537 25.1572 171.801 24.9521C172.006 24.7998 172.108 24.6094 172.108 24.3809C172.108 24.123 171.974 23.9238 171.704 23.7832C171.511 23.6836 170.998 23.5605 170.166 23.4141C168.924 23.1973 168.06 22.998 167.573 22.8164C167.093 22.6289 166.686 22.3154 166.352 21.876C166.023 21.4365 165.859 20.9355 165.859 20.373C165.859 19.7578 166.038 19.2275 166.396 18.7822C166.753 18.3369 167.245 18.0059 167.872 17.7891C168.499 17.5664 169.34 17.4551 170.395 17.4551C171.508 17.4551 172.328 17.54 172.855 17.71C173.389 17.8799 173.831 18.1436 174.183 18.501C174.54 18.8584 174.836 19.3418 175.07 19.9512L171.678 20.2852C171.59 19.9863 171.443 19.7666 171.238 19.626C170.957 19.4385 170.617 19.3447 170.219 19.3447C169.814 19.3447 169.519 19.418 169.331 19.5645C169.149 19.7051 169.059 19.8779 169.059 20.083C169.059 20.3115 169.176 20.4844 169.41 20.6016C169.645 20.7188 170.154 20.8242 170.939 20.918C172.129 21.0527 173.014 21.2402 173.594 21.4805C174.174 21.7207 174.616 22.0635 174.921 22.5088C175.231 22.9541 175.387 23.4434 175.387 23.9766C175.387 24.5156 175.223 25.04 174.895 25.5498C174.572 26.0596 174.06 26.4668 173.356 26.7715C172.659 27.0703 171.707 27.2197 170.5 27.2197C168.795 27.2197 167.579 26.9766 166.853 26.4902C166.132 26.0039 165.669 25.3125 165.464 24.416Z" fill="white"/>
</svg>
