<svg width="14" height="14" viewBox="0 0 14 14" fill="none" xmlns="http://www.w3.org/2000/svg">
<path d="M10.4999 0C12.1568 0 13.4999 1.34315 13.4999 3V8.30803C13.5027 8.46409 13.4441 8.62055 13.3252 8.73949L8.23997 13.8247C8.1172 13.9475 7.95445 14.0059 7.79363 14L3.49994 14C1.84308 14 0.499939 12.6569 0.499939 11V3C0.499939 1.34315 1.84308 0 3.49994 0H10.4999ZM10.4999 1.2H3.49994C2.50583 1.2 1.69994 2.00589 1.69994 3V11C1.69994 11.9941 2.50583 12.8 3.49994 12.8H7.49994V11C7.49994 9.34315 8.84308 8 10.4999 8H12.2999V3C12.2999 2.00589 11.4941 1.2 10.4999 1.2ZM11.1669 9.2H10.4999C9.50583 9.2 8.69994 10.0059 8.69994 11V11.667L11.1669 9.2ZM6.68669 5.91461C7.01807 5.91461 7.2867 6.18324 7.2867 6.51461C7.2867 6.84598 7.01807 7.11461 6.68669 7.11461H3.88669C3.55532 7.11461 3.28669 6.84598 3.28669 6.51461C3.28669 6.18324 3.55532 5.91461 3.88669 5.91461H6.68669ZM8.6867 3.59319C9.01807 3.59319 9.2867 3.86182 9.2867 4.19319C9.2867 4.52456 9.01807 4.79319 8.6867 4.79319H3.88669C3.55532 4.79319 3.28669 4.52456 3.28669 4.19319C3.28669 3.86182 3.55532 3.59319 3.88669 3.59319H8.6867Z" fill="#A3AEBC"/>
</svg>
