<svg width="14" height="14" viewBox="0 0 14 14" fill="none" xmlns="http://www.w3.org/2000/svg">
<path fill-rule="evenodd" clip-rule="evenodd" d="M7.5293 2.95493L13.541 8.9647C13.7197 9.14439 13.79 9.39243 13.75 9.62486C13.7246 9.77134 13.6553 9.91196 13.541 10.0252C13.248 10.3182 12.7734 10.3182 12.4805 10.0252L6.99902 4.54478L1.51855 10.0252C1.22559 10.3182 0.750977 10.3182 0.458008 10.0252C0.165039 9.73228 0.165039 9.25767 0.458008 8.9647L6.44727 2.97642C6.4541 2.96861 6.46094 2.96275 6.46875 2.95493C6.63574 2.78696 6.86035 2.71665 7.07715 2.73814C7.24316 2.75571 7.40332 2.82798 7.5293 2.95493ZM7.45117 6.87681L7.42285 6.84751C7.18945 6.61314 6.80859 6.61314 6.5752 6.84751L3.18066 10.242C3.05859 10.3651 3 10.5272 3.00488 10.6874C3.00977 10.8338 3.06836 10.9784 3.18066 11.0897C3.41504 11.3241 3.79492 11.3241 4.0293 11.0897L6.99805 8.12095L9.96875 11.0917C10.2031 11.326 10.583 11.326 10.8174 11.0917C10.9756 10.9334 11.0264 10.7108 10.9717 10.5096C10.9453 10.412 10.8936 10.3202 10.8174 10.244L7.45117 6.87681Z" fill="white"/>
</svg>
