<svg width="14" height="12" viewBox="0 0 14 12" fill="none" xmlns="http://www.w3.org/2000/svg">
<path d="M0.908909 1.89664H13.0909C13.4764 1.89664 13.7878 1.5926 13.7878 1.21785C13.7878 0.84328 13.4766 0.539062 13.0909 0.539062H0.908909C0.524086 0.539062 0.211914 0.843103 0.211914 1.21785C0.211914 1.5926 0.524086 1.89664 0.908909 1.89664ZM13.0907 5.29058H0.908909C0.523202 5.29058 0.211914 5.59462 0.211914 5.96937C0.211914 6.34411 0.523202 6.64815 0.908909 6.64815H13.0909C13.4764 6.64815 13.7878 6.34411 13.7878 5.96937C13.7877 5.59462 13.4744 5.29058 13.0907 5.29058ZM13.0907 10.0981H0.908909C0.524263 10.0981 0.211914 10.4022 0.211914 10.7769C0.211914 11.1517 0.524086 11.4557 0.908909 11.4557H13.0909C13.4764 11.4557 13.7878 11.1517 13.7878 10.7769C13.7877 10.4023 13.4764 10.0981 13.0907 10.0981Z" fill="white"/>
</svg>
