<svg width="20" height="20" viewBox="0 0 20 20" fill="none" xmlns="http://www.w3.org/2000/svg">
<path fill-rule="evenodd" clip-rule="evenodd" d="M5.74121 3.40747L4.51029 13.4395C4.39007 14.4186 5.0492 15.3137 6.00146 15.5026L6.13944 15.5247L12.1052 16.2578C11.8882 16.3511 11.6499 16.4045 11.3992 16.4089L5.06707 16.5195C4.03383 16.5375 3.1816 15.7145 3.16357 14.6813L3.00029 5.32703C2.98226 4.29379 3.80524 3.44156 4.83848 3.42352L5.74121 3.40747ZM8.23164 2.0104L14.53 2.67239C15.5577 2.78041 16.3033 3.70112 16.1953 4.72885L15.2174 14.0333C15.1094 15.061 14.1886 15.8066 13.1609 15.6986L6.86253 15.0366C5.8348 14.9286 5.08922 14.0078 5.19724 12.9801L6.17517 3.6757C6.28319 2.64796 7.2039 1.90238 8.23164 2.0104ZM9.04896 6.44291C8.40927 6.63166 7.94461 7.19526 7.87389 7.86812C7.82831 8.29805 7.94973 8.72622 8.20839 9.06315L8.31176 9.18505L9.93555 10.9741C10.1013 11.1566 10.3614 11.2062 10.5787 11.1062L10.6578 11.0616L12.6597 9.7134C13.1069 9.44607 13.4027 8.97871 13.4565 8.45488C13.5273 7.78202 13.1899 7.13413 12.6035 6.81651C12.017 6.49888 11.2984 6.5749 10.7864 7.00874C10.3757 6.47792 9.68864 6.25416 9.04896 6.44291Z" fill="#A0A5AB"/>
</svg>
