<svg width="20" height="20" viewBox="0 0 20 20" fill="none" xmlns="http://www.w3.org/2000/svg">
<path d="M6.80211 12.3799C7.02805 12.3799 7.23259 12.4715 7.38065 12.6195C7.52872 12.7676 7.6203 12.9721 7.6203 13.1981V17.7435C7.6203 17.9695 7.52872 18.174 7.38065 18.3221C7.23259 18.4701 7.02805 18.5617 6.80211 18.5617H2.25666C2.03072 18.5617 1.82618 18.4701 1.67812 18.3221C1.53005 18.174 1.43848 17.9695 1.43848 17.7435V13.1981C1.43848 12.9721 1.53005 12.7676 1.67812 12.6195C1.82618 12.4715 2.03072 12.3799 2.25666 12.3799H6.80211Z" stroke="#8891A5" stroke-width="2"/>
<path d="M16.8021 12.3799C17.028 12.3799 17.2326 12.4715 17.3807 12.6195C17.5287 12.7676 17.6203 12.9721 17.6203 13.1981V17.7435C17.6203 17.9695 17.5287 18.174 17.3807 18.3221C17.2326 18.4701 17.028 18.5617 16.8021 18.5617H12.2567C12.0307 18.5617 11.8262 18.4701 11.6781 18.3221C11.5301 18.174 11.4385 17.9695 11.4385 17.7435V13.1981C11.4385 12.9721 11.5301 12.7676 11.6781 12.6195C11.8262 12.4715 12.0307 12.3799 12.2567 12.3799H16.8021Z" stroke="#8891A5" stroke-width="2"/>
<path d="M18.322 4.89227C18.4817 5.05203 18.5616 5.26142 18.5616 5.47081C18.5616 5.68021 18.4817 5.8896 18.322 6.04936L15.1078 9.26348C14.9481 9.42324 14.7387 9.50312 14.5293 9.50312C14.3199 9.50312 14.1105 9.42324 13.9508 9.26348L10.7366 6.04936C10.5769 5.8896 10.497 5.68021 10.497 5.47082C10.497 5.26142 10.5769 5.05203 10.7366 4.89227L13.9508 1.67815C14.1105 1.51839 14.3199 1.43851 14.5293 1.43851C14.7387 1.43851 14.9481 1.51839 15.1078 1.67815L18.322 4.89227Z" stroke="#8891A5" stroke-width="2"/>
<path d="M6.80211 2.37988C7.02805 2.37988 7.23259 2.47146 7.38065 2.61952C7.52872 2.76758 7.6203 2.97213 7.6203 3.19806V7.74352C7.6203 7.96945 7.52872 8.174 7.38065 8.32206C7.23259 8.47012 7.02805 8.5617 6.80211 8.5617H2.25666C2.03072 8.5617 1.82618 8.47012 1.67812 8.32206C1.53005 8.174 1.43848 7.96945 1.43848 7.74352V3.19806C1.43848 2.97213 1.53005 2.76758 1.67812 2.61952C1.82618 2.47146 2.03072 2.37988 2.25666 2.37988H6.80211Z" stroke="#8891A5" stroke-width="2"/>
</svg>
