<svg width="20" height="20" viewBox="0 0 20 20" fill="none" xmlns="http://www.w3.org/2000/svg">
<path d="M15.875 4H3.125C2.50368 4 2 4.50368 2 5.125C2 5.74632 2.50368 6.25 3.125 6.25H15.875C16.4963 6.25 17 5.74632 17 5.125C17 4.50368 16.4963 4 15.875 4Z" fill="#A0A5AB"/>
<path d="M15.875 8.5H3.125C2.50368 8.5 2 9.00368 2 9.625C2 10.2463 2.50368 10.75 3.125 10.75H15.875C16.4963 10.75 17 10.2463 17 9.625C17 9.00368 16.4963 8.5 15.875 8.5Z" fill="#A0A5AB"/>
<path d="M15.875 13H3.125C2.50368 13 2 13.5037 2 14.125C2 14.7463 2.50368 15.25 3.125 15.25H15.875C16.4963 15.25 17 14.7463 17 14.125C17 13.5037 16.4963 13 15.875 13Z" fill="#A0A5AB"/>
</svg>
