<svg width="18" height="18" viewBox="0 0 18 18" fill="none" xmlns="http://www.w3.org/2000/svg">
<path fill-rule="evenodd" clip-rule="evenodd" d="M17.0008 1L13.2855 4.69362H4.57171V13.4347H13.2855V4.69362H14.0271C14.407 4.7548 14.7008 4.83388 14.9085 4.93085C15.049 4.99644 15.3891 5.187 15.6822 5.44226C16.0391 5.75306 16.3534 6.1509 16.4971 6.42403C16.6061 6.63113 16.8431 7.09709 16.947 7.77626C16.9886 8.04852 17.0065 8.53465 17.0008 9.23465V13.5826C16.951 14.2142 16.8395 14.6884 16.6664 15.0054C16.5243 15.2655 16.1113 15.7978 15.6061 16.1969C15.1879 16.5273 14.6724 16.7483 14.4996 16.809C14.2452 16.8984 13.8405 16.9621 13.2855 17H1L4.46825 13.4347H4.26977C3.94393 13.4125 3.71197 13.3817 3.5739 13.3423C3.20838 13.238 2.92132 13.0489 2.76654 12.9511C2.58453 12.8361 2.18759 12.5849 1.84726 12.2007C1.50755 11.8173 1.22434 11.301 1.14807 11.1253C1.04628 10.8908 0.998704 10.6036 1.00533 10.2639V5.17054C0.994395 4.62729 1.00029 4.25066 1.02301 4.04066C1.07539 3.5564 1.2104 3.21062 1.27712 3.07098C1.35344 2.91126 1.59731 2.49497 1.90518 2.17223C2.26365 1.79645 2.70147 1.51371 2.94786 1.3866C3.25321 1.22908 3.69468 1.10021 4.27228 1H17.0008ZM10.7829 9.45368C11.5133 9.45368 12.1055 10.0458 12.1055 10.7763C12.1055 11.5067 11.5133 12.0989 10.7829 12.0989C10.0524 12.0989 9.46029 11.5067 9.46029 10.7763C9.46029 10.0458 10.0524 9.45368 10.7829 9.45368ZM7.07962 5.88268C7.81007 5.88268 8.40222 6.47482 8.40222 7.20527C8.40222 7.93572 7.81007 8.52787 7.07962 8.52787C6.34918 8.52787 5.75703 7.93572 5.75703 7.20527C5.75703 6.47482 6.34918 5.88268 7.07962 5.88268Z" fill="url(#paint0_linear_352_46651)"/>
<defs>
<linearGradient id="paint0_linear_352_46651" x1="9.00094" y1="1" x2="9.00094" y2="17" gradientUnits="userSpaceOnUse">
<stop stop-color="#38B253"/>
<stop offset="1" stop-color="#2D8D41"/>
</linearGradient>
</defs>
</svg>
