<svg width="18" height="19" viewBox="0 0 18 19" fill="none" xmlns="http://www.w3.org/2000/svg">
<path fill-rule="evenodd" clip-rule="evenodd" d="M8.7228 0.860352L11.8661 6.79806L13.1171 4.97205L14.779 9.35343C15.0746 10.1037 15.272 10.683 15.3712 11.0911C15.52 11.7034 15.4775 12.9097 15.3712 13.2394C15.3694 13.245 15.3673 13.2516 15.3648 13.2592L15.3593 13.2756C15.3094 13.4232 15.1472 13.8379 14.6049 14.4532C14.2425 14.8643 13.4627 15.6691 12.2654 16.8675L12.1602 16.9727C11.8947 17.2382 11.6094 17.5223 11.3044 17.825C10.8704 18.198 10.5329 18.4477 10.292 18.5741C10.1322 18.658 9.78766 18.7817 9.31195 18.8378C9.19301 18.8519 9.01276 18.8594 8.7712 18.8603L8.6834 18.8604C8.62317 18.8602 8.55954 18.8597 8.49252 18.8588C8.08039 18.8621 7.76597 18.8244 7.54926 18.7457C7.44047 18.7062 6.85707 18.4085 6.06345 17.6875C5.53859 17.2107 4.45838 16.1326 2.82283 14.4532C2.49406 14.0769 2.27141 13.7665 2.15489 13.5219C2.06983 13.3433 1.96452 13.0059 1.92031 12.5048C1.91546 12.4499 1.91277 12.3783 1.91223 12.2899V12.2206C1.91277 12.1239 1.91546 12.0104 1.92031 11.8803C1.94424 11.4734 1.98868 11.1659 2.05362 10.9577C2.11855 10.7495 2.25242 10.4853 2.45522 10.1651L3.49135 8.63687L8.7228 0.860352ZM7.563 7.41778L4.02151 10.9593C3.39917 11.5816 3.39917 12.5906 4.02151 13.2129L7.563 16.7544C8.18533 17.3768 9.19434 17.3768 9.81667 16.7544L13.3582 13.2129C13.9805 12.5906 13.9805 11.5816 13.3582 10.9593L9.81667 7.41778C9.19434 6.79545 8.18533 6.79545 7.563 7.41778ZM8.68984 13.2835C9.25562 13.2835 9.71429 13.7422 9.71429 14.308C9.71429 14.8737 9.25562 15.3324 8.68984 15.3324C8.12405 15.3324 7.66539 14.8737 7.66539 14.308C7.66539 13.7422 8.12405 13.2835 8.68984 13.2835ZM10.9664 11.0069C11.5322 11.0069 11.9908 11.4656 11.9908 12.0314C11.9908 12.5972 11.5322 13.0558 10.9664 13.0558C10.4006 13.0558 9.94194 12.5972 9.94194 12.0314C9.94194 11.4656 10.4006 11.0069 10.9664 11.0069ZM6.41328 11.0069C6.97907 11.0069 7.43773 11.4656 7.43773 12.0314C7.43773 12.5972 6.97907 13.0558 6.41328 13.0558C5.84749 13.0558 5.38883 12.5972 5.38883 12.0314C5.38883 11.4656 5.84749 11.0069 6.41328 11.0069ZM8.68984 8.73039C9.25562 8.73039 9.71429 9.18905 9.71429 9.75484C9.71429 10.3206 9.25562 10.7793 8.68984 10.7793C8.12405 10.7793 7.66539 10.3206 7.66539 9.75484C7.66539 9.18905 8.12405 8.73039 8.68984 8.73039Z" fill="url(#paint0_linear_352_46655)"/>
<defs>
<linearGradient id="paint0_linear_352_46655" x1="8.68989" y1="0.860352" x2="8.68989" y2="18.8604" gradientUnits="userSpaceOnUse">
<stop stop-color="#38B253"/>
<stop offset="1" stop-color="#2D8D41"/>
</linearGradient>
</defs>
</svg>
