<svg width="18" height="18" viewBox="0 0 18 18" fill="none" xmlns="http://www.w3.org/2000/svg">
<path fill-rule="evenodd" clip-rule="evenodd" d="M4.57143 2.64286V0.5H1.85714C1.38376 0.5 1 0.883756 1 1.35714V16.6429C1 17.1162 1.38376 17.5 1.85714 17.5H16.1429C16.6162 17.5 17 17.1162 17 16.6429V1.35714C17 0.883756 16.6162 0.5 16.1429 0.5H13.2857V2.64286H10.7143V0.5H7.14286V2.64286H4.57143ZM3.85714 4.78571H14.1429C14.4584 4.78571 14.7143 5.04155 14.7143 5.35714V14.7857C14.7143 15.1013 14.4584 15.3571 14.1429 15.3571H3.85714C3.54155 15.3571 3.28571 15.1013 3.28571 14.7857V5.35714C3.28571 5.04155 3.54155 4.78571 3.85714 4.78571ZM8.14286 7.71205C8.14286 6.84418 7.4393 6.14062 6.57143 6.14062C5.70355 6.14062 5 6.84418 5 7.71205C5 8.57993 5.70355 9.28348 6.57143 9.28348C7.4393 9.28348 8.14286 8.57993 8.14286 7.71205ZM6.57143 10.8549C7.4393 10.8549 8.14286 11.5585 8.14286 12.4263C8.14286 13.2942 7.4393 13.9978 6.57143 13.9978C5.70355 13.9978 5 13.2942 5 12.4263C5 11.5585 5.70355 10.8549 6.57143 10.8549ZM11.2857 10.8549C12.1536 10.8549 12.8571 11.5585 12.8571 12.4263C12.8571 13.2942 12.1536 13.9978 11.2857 13.9978C10.4178 13.9978 9.71429 13.2942 9.71429 12.4263C9.71429 11.5585 10.4178 10.8549 11.2857 10.8549ZM11.2857 6.14062C12.1536 6.14062 12.8571 6.84418 12.8571 7.71205C12.8571 8.57993 12.1536 9.28348 11.2857 9.28348C10.4178 9.28348 9.71429 8.57993 9.71429 7.71205C9.71429 6.84418 10.4178 6.14062 11.2857 6.14062Z" fill="url(#paint0_linear_352_46652)"/>
<defs>
<linearGradient id="paint0_linear_352_46652" x1="9" y1="0.5" x2="9" y2="17.5" gradientUnits="userSpaceOnUse">
<stop stop-color="#38B253"/>
<stop offset="1" stop-color="#2D8D41"/>
</linearGradient>
</defs>
</svg>
