<svg width="12" height="14" viewBox="0 0 12 14" fill="none" xmlns="http://www.w3.org/2000/svg">
<path d="M9 0C10.1046 0 11 0.89543 11 2V2.41807L10.9997 2.45891C10.9999 2.47258 11 2.48628 11 2.5C11 3.07054 10.8089 3.59645 10.4872 4.01718L10.5283 4.06356C11.445 5.11717 12 6.49377 12 8C12 11.3137 9.31371 14 6 14C2.68629 14 0 11.3137 0 8C0 6.49377 0.555019 5.11717 1.4717 4.06356L1.51337 4.01616C1.19112 3.59645 1 3.07054 1 2.5L1.002 2.41801L1 2C1 0.89543 1.89543 0 3 0H9ZM6 3.2C3.34903 3.2 1.2 5.34903 1.2 8C1.2 10.651 3.34903 12.8 6 12.8C8.65097 12.8 10.8 10.651 10.8 8C10.8 5.34903 8.65097 3.2 6 3.2ZM5.99719 4.99845C6.32856 4.99845 6.59719 5.26707 6.59719 5.59845V7.80145L8.00281 7.80155C8.33418 7.80155 8.60281 8.07018 8.60281 8.40156C8.60281 8.73293 8.33418 9.00155 8.00281 9.00155H5.99719C5.66582 9.00155 5.39719 8.73293 5.39719 8.40156V5.59845C5.39719 5.26707 5.66582 4.99845 5.99719 4.99845ZM3.9 1.2H3C2.55817 1.2 2.2 1.55817 2.2 2L2.199 2.417C2.20087 2.44471 2.2 2.47225 2.2 2.5C2.2 2.75666 2.27438 2.99594 2.40275 3.19748L2.3931 3.20475C2.84919 2.86115 3.35586 2.5811 3.89996 2.37778L3.9 1.2ZM9 1.2H8.1L8.10104 2.37815C8.57971 2.55712 9.02941 2.79548 9.44117 3.08426L9.59598 3.19655C9.72562 2.99594 9.8 2.75666 9.8 2.5L9.796 2.41801L9.8 2C9.8 1.55817 9.44183 1.2 9 1.2ZM6.9 1.2H5.1L5.10031 2.067C5.39378 2.02287 5.69422 2 6 2C6.30613 2 6.6069 2.02293 6.90069 2.06715L6.9 1.2Z" fill="#37AF51"/>
</svg>
