<svg width="13" height="15" viewBox="0 0 13 15" fill="none" xmlns="http://www.w3.org/2000/svg">
<path fill-rule="evenodd" clip-rule="evenodd" d="M6.6299 7.47295L0.174573 13.9283C-0.0584917 14.1614 -0.0584917 14.5408 0.174573 14.7711C0.404926 15.0042 0.784332 15.0042 1.0174 14.7711L7.83858 7.94992C7.96867 7.81984 8.02558 7.64369 8.00932 7.47295C8.02558 7.30222 7.96867 7.12607 7.83858 6.99599L1.0174 0.174798C0.787043 -0.058266 0.407637 -0.058266 0.174573 0.174798C-0.0584917 0.405152 -0.0584917 0.784559 0.174573 1.01762L6.6299 7.47295ZM11.2907 7.52847L4.8354 13.9838C4.60233 14.2169 4.60233 14.5963 4.8354 14.8266C5.06575 15.0597 5.44516 15.0597 5.67822 14.8266L12.4994 8.00544C12.6295 7.87536 12.6864 7.6992 12.6701 7.52847C12.6864 7.35774 12.6295 7.18158 12.4994 7.0515L5.67822 0.230312C5.44787 -0.00275247 5.06846 -0.00275247 4.8354 0.230312C4.60233 0.460666 4.60233 0.840072 4.8354 1.07314L11.2907 7.52847Z" fill="#37AF51"/>
</svg>
