<svg width="26" height="26" viewBox="0 0 26 26" fill="none" xmlns="http://www.w3.org/2000/svg">
<path fill-rule="evenodd" clip-rule="evenodd" d="M9.7536 8.03972C9.58238 8.13481 9.524 8.35284 9.62478 8.52078L10.0011 9.14783C8.24309 9.87054 6.79318 11.2178 6 12.9699C7.21302 15.6493 9.96197 17.382 13 17.382C13.6212 17.382 14.2303 17.3096 14.8166 17.1714L15.2156 17.8362C15.3117 17.9963 15.5175 18.0514 15.6808 17.9607C15.852 17.8656 15.9104 17.6476 15.8096 17.4797L10.2188 8.16428C10.1227 8.00413 9.91688 7.94903 9.7536 8.03972ZM14.2231 16.1825L13.4871 14.9562C13.3307 14.9915 13.1676 15.0102 13 15.0102C11.8286 15.0102 10.879 14.0967 10.879 12.9699C10.879 12.4286 11.0981 11.9366 11.4556 11.5713L10.7576 10.4082C10.0156 11.0324 9.54809 11.9496 9.54809 12.9699C9.54809 14.817 11.0804 16.3265 13 16.3705V16.3714C13.4228 16.3783 13.8361 16.3123 14.2231 16.1825ZM12.5662 10.9722L14.5813 14.3297C14.9169 13.9688 15.121 13.4923 15.121 12.9699C15.121 11.843 14.1714 10.9295 13 10.9295C12.8513 10.9295 12.7063 10.9442 12.5662 10.9722ZM16.1118 14.6876C15.9031 15.0308 15.6375 15.3303 15.3304 15.5778L16.047 16.7719C17.7834 16.0445 19.2141 14.7059 20 12.9699C18.787 10.2904 16.038 8.55774 13 8.55774C12.3974 8.55774 11.8063 8.6259 11.2362 8.75609L11.8512 9.78087C12.2099 9.65254 12.5964 9.57852 13 9.56928C14.2773 9.54861 15.4668 10.1923 16.1118 11.2531C16.7567 12.3139 16.7567 13.6268 16.1118 14.6876Z" fill="#D4D7DC"/>
</svg>
