<svg width="19" height="20" viewBox="0 0 19 20" fill="none" xmlns="http://www.w3.org/2000/svg">
<path d="M9.11617 14.0635C9.11617 12.2635 10.1033 10.6957 11.4968 9.82475C10.742 9.65055 9.87101 9.59249 9.05811 9.59249C11.4388 9.53443 13.2968 7.6183 13.2968 5.23765C13.2968 2.85701 11.3226 0.882812 8.94198 0.882812C6.56133 0.882812 4.58714 2.85701 4.58714 5.23765C4.58714 7.6183 6.50327 9.59249 8.88391 9.59249C4.41295 9.65055 0.754883 11.857 0.754883 14.7022C0.754883 17.5473 4.41295 19.8118 9.00004 19.8118C10.6258 19.8118 12.1936 19.5215 13.471 18.9989C11.0323 18.7086 9.11617 16.6183 9.11617 14.0635Z" fill="#9399A0"/>
<path d="M14.1096 9.59375C11.6129 9.59375 9.63867 11.5679 9.63867 14.0647C9.63867 16.5615 11.6129 18.5357 14.1096 18.5357C16.6064 18.5357 18.5806 16.5615 18.5806 14.0647C18.5806 11.5679 16.6064 9.59375 14.1096 9.59375ZM16.9548 14.297H14.2838V17.2002H13.8193V14.297H11.1484V13.8905H13.8193V10.9873H14.2838V13.8905H16.9548V14.297Z" fill="#9399A0"/>
</svg>
