<svg width="16" height="18" viewBox="0 0 16 18" fill="none" xmlns="http://www.w3.org/2000/svg">
<path fill-rule="evenodd" clip-rule="evenodd" d="M15.537 4.04333C15.5371 4.04355 15.5371 4.04376 15.5371 4.04397V4.04332L15.537 4.04333ZM14.5846 2.98276C15.0985 3.091 15.4836 3.51983 15.537 4.04333L15.4941 4.05443C15.4941 4.05443 15.6115 5.95323 15.4419 9.13621C14.7647 14.5253 10.5299 17.4219 8.03189 17.4219C5.5332 17.4219 0.537109 13.3157 0.537109 9.07213C0.537109 6.72805 0.569077 4.06489 0.569077 4.06489C0.592276 3.53202 0.985762 3.08877 1.51114 3.00369C2.54117 2.90787 3.55101 2.65771 4.50697 2.26156C5.53938 1.94229 6.48712 1.39485 7.28032 0.65961C7.71972 0.34263 8.3121 0.34263 8.75149 0.65961C9.58941 1.32317 10.5159 1.86591 11.504 2.27202C12.5129 2.58105 13.5424 2.81855 14.5846 2.98276ZM7.59739 12.2551L12.8166 7.32175V7.34333C13.0057 7.16895 13.0877 6.90668 13.0316 6.65532C12.9755 6.40396 12.7898 6.20169 12.5446 6.12471C12.2993 6.04774 12.0317 6.10774 11.8426 6.28212L7.14267 10.7382L4.77119 8.245C4.50222 7.95214 4.04729 7.93325 3.75508 8.20283C3.46286 8.4724 3.44402 8.92834 3.713 9.22121L6.59269 12.2231L6.7297 12.3401C7.00371 12.5147 7.36253 12.4794 7.59739 12.2551Z" fill="#9399A0"/>
</svg>
