<svg width="15" height="12" viewBox="0 0 15 12" fill="none" xmlns="http://www.w3.org/2000/svg">
<path fill-rule="evenodd" clip-rule="evenodd" d="M7.40149 6.13524L14.9861 1.85439C14.8647 0.80947 13.9571 0 12.8566 0H2.14343C1.00703 0 0.0776171 0.865899 0.00597055 1.95946L7.40149 6.13524ZM15 9.90433V3.38771L7.83734 7.42922C7.83455 7.43085 7.83192 7.43249 7.82936 7.43408C7.82277 7.43817 7.81664 7.44198 7.80947 7.44479C7.59851 7.59656 7.30596 7.62186 7.06316 7.48565L0 3.49862V9.90433C0 11.0621 0.959267 12 2.14343 12H12.8566C14.0407 12 15 11.0621 15 9.90433Z" fill="#9399A0"/>
</svg>
