<svg width="14" height="16" viewBox="0 0 14 16" fill="none" xmlns="http://www.w3.org/2000/svg">
<path fill-rule="evenodd" clip-rule="evenodd" d="M11.2161 4.24292C11.2161 6.58309 9.32299 8.48897 6.99845 8.48897C4.67391 8.48897 2.78076 6.58621 2.78076 4.24605C2.78076 1.90588 4.67391 0 6.99845 0C9.32299 0 11.2161 1.90275 11.2161 4.24292ZM12.2496 10.3667C12.7927 10.876 13.221 11.4634 13.5221 12.1133C13.8386 12.7944 13.9969 13.5161 14 14.2566C14 15.2189 13.2241 16 12.2682 16H1.73177C0.775881 16 0 15.2189 0 14.2566C0 13.5161 0.161383 12.7975 0.477943 12.1133C0.778985 11.4634 1.20727 10.876 1.75039 10.3667C2.84283 9.34505 4.30149 8.75766 5.75704 8.75766H8.24296C9.69541 8.75766 11.1572 9.34505 12.2496 10.3667Z" fill="#9399A0"/>
</svg>
