<svg width="26" height="26" viewBox="0 0 26 26" fill="none" xmlns="http://www.w3.org/2000/svg">
<rect width="26" height="26" rx="6" fill="#D4D7DC"/>
<path fill-rule="evenodd" clip-rule="evenodd" d="M20 12.5C18.787 15.2328 16.038 17 13 17C9.96197 17 7.21302 15.2328 6 12.5C7.21302 9.76718 9.96197 8 13 8C16.038 8 18.787 9.76718 20 12.5ZM13 15.9693C14.2773 15.9904 15.4668 15.3339 16.1118 14.252C16.7567 13.17 16.7567 11.8309 16.1118 10.749C15.4668 9.66711 14.2773 9.01061 13 9.03168C11.0804 9.07649 9.54809 10.6161 9.54809 12.5C9.54809 14.3839 11.0804 15.9235 13 15.9683V15.9693ZM10.879 12.5C10.879 13.6493 11.8286 14.581 13 14.581C14.1714 14.581 15.121 13.6493 15.121 12.5C15.121 11.3507 14.1714 10.419 13 10.419C11.8286 10.419 10.879 11.3507 10.879 12.5Z" fill="white"/>
</svg>
