<svg width="14" height="18" viewBox="0 0 14 18" fill="none" xmlns="http://www.w3.org/2000/svg">
<path fill-rule="evenodd" clip-rule="evenodd" d="M12.0702 6.48232V4.82333C12.0702 2.1601 9.85249 0 7.11562 0C4.3788 0 2.16111 2.16008 2.16111 4.82333V6.45471C0.952878 6.53969 0 7.52096 0 8.71907V14.9611C0 16.2143 1.04367 17.2308 2.33149 17.2308H11.6685C12.9563 17.2308 14 16.2143 14 14.9611V8.71907C14 7.59852 13.1665 6.66768 12.0702 6.48232ZM8.14936 12.299V14.4011H6.40063V12.3328C5.81503 12.0362 5.41529 11.4401 5.41529 10.7531C5.41529 9.77018 6.23316 8.97346 7.24316 8.97346C8.25317 8.97346 9.07108 9.77016 9.07108 10.7531C9.07108 11.4149 8.70011 11.9924 8.14936 12.299ZM3.71488 6.44864H10.4991V5.11889C10.4991 3.29534 8.97989 1.8159 7.10744 1.8159C5.23314 1.8159 3.71488 3.29534 3.71488 5.11889V6.44864Z" fill="#9399A0"/>
</svg>
