<svg width="21" height="21" viewBox="0 0 21 21" fill="none" xmlns="http://www.w3.org/2000/svg">
<path d="M10.5 19C12.7543 19 14.9163 18.1045 16.5104 16.5104C18.1045 14.9163 19 12.7543 19 10.5C19 8.24566 18.1045 6.08365 16.5104 4.48959C14.9163 2.89553 12.7543 2 10.5 2C8.24566 2 6.08365 2.89553 4.48959 4.48959C2.89553 6.08365 2 8.24566 2 10.5C2 12.7543 2.89553 14.9163 4.48959 16.5104C6.08365 18.1045 8.24566 19 10.5 19V19ZM4.17069 12.2021C4.09206 12.1235 4.09206 12.1235 4.17069 12.047C3.96137 11.7081 3.51194 11.6666 3.19 11.8706C3.00646 10.8907 3.02177 9.88381 3.23501 8.90988C3.44826 7.93594 3.85508 7.01481 4.43132 6.2012C5.00756 5.38759 5.74145 4.6981 6.5894 4.1737C7.43734 3.6493 8.38205 3.30068 9.36737 3.14856L9.361 3.15388L9.2335 3.21762C9.47256 3.29412 9.78919 3.29413 10.0251 3.29413C9.94644 3.7595 9.94644 4.14519 9.94644 4.61163C9.94644 4.61163 8.12744 5.927 8.12744 6.70262C8.12744 7.47825 8.36438 7.86394 8.12744 7.86394C7.73113 7.86394 7.25619 7.55369 7.17756 7.86394C7.01925 8.32931 6.70263 8.71606 6.22769 8.87012C5.13863 8.87012 4.98244 10.0431 4.96331 11.2523L4.96225 11.5816C4.96225 11.9705 4.48731 11.9705 4.17069 12.2021ZM10.9494 17.9237L11.0408 17.8993C12.2457 17.5316 12.2808 16.3161 11.2916 16.4649C11.2916 16.0792 11.2916 15.6149 11.2129 15.1495C11.1332 14.3739 10.1834 14.6055 9.94644 14.2188C9.71056 13.8309 10.4214 13.4442 11.2129 13.5993C11.4499 13.5993 11.2129 13.8331 11.3723 13.9096C11.6879 13.9861 12.0831 13.9861 12.3997 13.9096C12.0774 13.2129 11.7071 12.5394 11.2916 11.894C11.1322 11.6624 11.2916 11.197 11.2916 10.8878C11.2916 8.562 10.1834 11.4297 10.0251 11.3521C9.86675 11.197 9.15594 11.5072 8.83931 11.5072C8.52269 11.5072 8.67994 10.8878 8.36437 10.8878C7.73112 10.8878 7.88944 11.0429 7.88944 10.8113C7.88944 10.5011 7.967 9.88056 7.967 8.95087C7.967 8.64062 8.60025 9.02738 8.9955 9.02738C9.47044 9.02738 9.78706 8.64062 10.1037 8.4855C10.6562 8.25175 11.2108 7.47719 11.6061 7.40175C12.0013 7.32206 11.6847 6.70369 12.1586 6.78125C12.3955 6.85775 12.7121 6.70263 12.8704 6.471C13.1084 6.16075 12.9501 5.77187 12.6335 5.54025C12.1596 5.07594 12.0013 4.53406 11.7644 3.44925C11.894 3.49175 12.047 3.38338 12.1734 3.25269C13.3642 3.52827 14.4689 4.09268 15.39 4.89612C16.3111 5.69957 17.0204 6.71735 17.4551 7.85969C16.8537 7.22113 16.1589 7.17225 16.365 7.71306C16.127 8.17737 15.8104 8.56625 15.4151 8.953C14.7022 9.57244 14.0689 10.7359 16.2853 12.3636C15.9421 13.237 16.7921 14.053 17.3319 13.441C16.7875 14.7059 15.9027 15.7948 14.776 16.5864C13.6493 17.3781 12.325 17.8414 10.9505 17.9248L10.9494 17.9237Z" fill="#A3AEBC"/>
</svg>
