<svg width="28" height="36" viewBox="0 0 28 36" fill="none" xmlns="http://www.w3.org/2000/svg">
<rect width="28" height="36" rx="4" fill="#171C25"/>
<path fill-rule="evenodd" clip-rule="evenodd" d="M14.2175 21.7061C14.8508 21.7061 15.3646 22.2194 15.3646 22.8533C15.3646 23.4551 14.9013 23.9484 14.3117 23.9963L14.2175 24H8.14775C7.5144 24 7.00051 23.4867 7.00051 22.8528C7.00051 22.251 7.46381 21.7577 8.05347 21.7098L8.14775 21.7061H14.2175ZM20.7806 20.3631C20.818 20.4068 20.8385 20.4626 20.8385 20.5205V23.6862C20.8385 23.8194 20.7306 23.9279 20.5968 23.9279H16.9036C16.7704 23.9279 16.6619 23.8199 16.6619 23.6862C16.6619 23.6157 16.693 23.5488 16.7461 23.503L20.4394 20.3373C20.5405 20.2504 20.6937 20.2615 20.7806 20.3631ZM19.7613 17.1184C20.3946 17.1184 20.9085 17.6317 20.9085 18.2656C20.9085 18.8674 20.4452 19.3607 19.8555 19.4086L19.7613 19.4123H8.14717C7.51382 19.4123 7 18.899 7 18.2651C7 17.6633 7.4633 17.17 8.05295 17.1221L8.14717 17.1184H19.7613ZM19.7613 12C20.3946 12 20.9085 12.5133 20.9085 13.1472C20.9085 13.749 20.4452 14.2423 19.8555 14.2902L19.7613 14.2939H8.14717C7.51382 14.2939 7 13.7805 7 13.1467C7 12.5449 7.4633 12.0516 8.05295 12.0037L8.14717 12H19.7613Z" fill="white"/>
</svg>
