<svg width="20" height="20" viewBox="0 0 20 20" fill="none" xmlns="http://www.w3.org/2000/svg">
<rect width="20" height="20" fill="#C61D1D" fill-opacity="0.01"/>
<path fill-rule="evenodd" clip-rule="evenodd" d="M9.91916 1.18663C9.64741 1.28063 9.42419 1.47156 9.2065 1.65944L4.36391 5.83909C3.80213 6.32396 3.08477 6.59073 2.34268 6.59073C1.74616 6.59073 1.26318 7.08999 1.26318 7.70785V12.1761C1.26318 12.7931 1.74619 13.2932 2.34268 13.2932C2.96335 13.2932 3.5636 13.515 4.03515 13.9186L9.44307 18.5471C9.50319 18.5985 9.56542 18.647 9.63457 18.6855C9.962 18.8677 10.9711 19.2996 10.9713 17.7022C10.9713 17.702 10.9715 17.7018 10.9717 17.7018C10.9719 17.7018 10.9721 17.7016 10.9721 17.7014V2.30843C10.9721 1.03836 10.3454 1.03922 9.91916 1.18663ZM14.2082 7.33497C14.2082 7.33496 14.2082 7.33496 14.2082 7.33495C13.914 7.15494 13.6675 7.32068 13.4847 7.55959C13.1825 7.9544 13.321 8.49771 13.5342 8.94685C13.8469 9.60556 14.1289 10.6381 13.4926 11.5681C13.2831 11.8744 12.9502 12.1786 13.0921 12.5213C13.151 12.6635 13.2562 12.7967 13.3935 12.89C13.8655 13.2104 14.4578 12.7574 14.7976 12.2992C15.9512 10.7438 15.6745 8.44695 14.2082 7.33499C14.2082 7.33499 14.2082 7.33498 14.2082 7.33497ZM14.3883 5.47376C14.1766 5.25472 14.14 5.02683 14.1979 4.82245C14.4198 4.03915 15.5087 4.30978 16.1658 4.79042C19.8416 7.47911 19.651 13.7604 15.1068 15.8995C14.5675 16.1172 13.849 15.1238 14.3883 14.5964C18.0135 11.4312 17.9537 8.54593 14.3883 5.47376Z" fill="white"/>
</svg>
