<svg width="24" height="24" viewBox="0 0 24 24" fill="none" xmlns="http://www.w3.org/2000/svg">
<path fill-rule="evenodd" clip-rule="evenodd" d="M14.1669 18.4913L12.0991 22.7999L9.62536 18.4921C10.3376 18.7378 11.0992 18.878 11.895 18.878C12.6916 18.878 13.4539 18.7374 14.1669 18.4913ZM18.3247 14.5905L19.5411 19.3927L14.6079 18.3296C16.2843 17.6199 17.6238 16.2717 18.3247 14.5905ZM5.64824 14.9775C6.38788 16.4831 7.64884 17.6853 9.2026 18.3373L4.62895 19.3927L5.64824 14.9775ZM12 5.99995C15.3137 5.99995 18 8.68624 18 12C18 15.3137 15.3137 18 12 18C8.68628 18 5.99998 15.3137 5.99998 12C5.99998 8.68624 8.68628 5.99995 12 5.99995ZM5.31091 9.65836C5.0685 10.3662 4.9305 11.123 4.9305 11.9134C4.9305 12.8812 5.12874 13.8031 5.48578 14.6409L1.42651 11.92L5.31091 9.65836ZM18.3014 9.17939L22.5735 11.5907L18.4291 14.305C18.7026 13.5581 18.8596 12.7549 18.8596 11.9134C18.8596 10.9427 18.6602 10.0191 18.3014 9.17939ZM3.89478 4.44692C3.89478 4.44692 4.94767 4.70044 6.08208 4.97769L6.53789 5.08931C7.37307 5.29427 8.18245 5.49552 8.58294 5.60242L8.75854 5.65084L8.81161 5.667C7.3681 6.38182 6.21155 7.58401 5.54784 9.05672L3.89478 4.44692ZM19.2064 4.08039C19.2064 4.08039 18.1509 8.37805 18.044 8.65076C17.285 7.22259 16.0456 6.09049 14.5385 5.47132L19.2064 4.08039ZM11.7348 1.19995L14.1658 5.33479C13.4532 5.08873 12.6913 4.94854 11.895 4.94854C11.0659 4.94854 10.2719 5.09676 9.53482 5.36326C9.45012 5.39393 11.7348 1.19995 11.7348 1.19995Z" fill="#9FA5AC"/>
</svg>
