<svg width="22" height="22" viewBox="0 0 22 22" fill="none" xmlns="http://www.w3.org/2000/svg">
<path fill-rule="evenodd" clip-rule="evenodd" d="M11.0001 19C7.18671 19 3.78463 16.5317 0.801417 11.7099C0.532991 11.2767 0.532991 10.7233 0.801417 10.2901C3.78463 5.46827 7.18671 3 11.0001 3C14.8135 3 18.2156 5.46827 21.1988 10.2901C21.4672 10.7233 21.4672 11.2767 21.1988 11.7099C18.2156 16.5317 14.8135 19 11.0001 19ZM9.47684 4.88903C9.19755 4.9474 8.41181 5.11824 7.36279 5.73952L7.27684 5.79006C7.05192 5.92191 6.70511 6.12521 6.36624 6.38355C6.09577 6.58974 5.52452 7.11306 5.52452 7.11306C5.52452 7.11306 4.51099 8.1003 3.93581 8.8158C3.36063 9.5313 2.39914 11.0009 2.39914 11.0009C2.39914 11.0009 3.08551 12.054 3.41911 12.5041C4.01504 13.3081 4.58645 13.9481 5.00366 14.3808C5.3883 14.7797 5.91343 15.2678 6.45207 15.6683C6.82478 15.9455 7.61729 16.4126 7.61729 16.4126C7.61729 16.4126 8.03575 16.6266 8.23143 16.7094C8.67881 16.8987 9.06186 17.0144 9.33451 17.0853C9.57541 17.1479 9.88269 17.2093 10.2469 17.247C10.4752 17.2706 10.9998 17.292 10.9998 17.292C10.9998 17.292 11.7964 17.2594 12.1874 17.1851C12.9577 17.0388 13.6791 16.7665 14.1458 16.5324C14.581 16.3142 15.2146 15.9467 15.8878 15.4006C16.0539 15.2658 16.3046 15.0448 16.584 14.7805C16.7701 14.6046 17.1897 14.1882 17.1897 14.1882C17.1897 14.1882 17.7711 13.5356 17.9935 13.2658C18.1523 13.073 18.2862 12.8916 18.4031 12.7331C18.4528 12.6657 18.4994 12.6025 18.5436 12.5443C18.9841 11.9644 19.6109 11.0009 19.6109 11.0009C19.6109 11.0009 19.2167 10.3994 19.039 10.1403C18.683 9.62123 18.3805 9.21378 18.1424 8.91886C17.8983 8.61647 17.5825 8.22839 17.143 7.76601C16.9399 7.55234 16.4453 7.07945 16.4453 7.07945C16.4453 7.07945 16.0078 6.69898 15.8217 6.54948C15.5829 6.35763 15.3709 6.20975 15.2257 6.10921C14.6454 5.70747 14.0921 5.43247 13.6876 5.25827C13.3902 5.1302 12.9536 4.96954 12.4603 4.86248C12.1272 4.7902 11.7636 4.75077 11.4175 4.7303C11.0259 4.70714 10.6535 4.72084 10.3315 4.75341C9.9323 4.79379 9.61507 4.86012 9.4837 4.88759L9.47684 4.88903ZM14.467 11.0021C14.467 12.8957 12.9149 14.4307 11.0004 14.4307C9.08577 14.4307 7.53369 12.8957 7.53369 11.0021C7.53369 9.10859 9.08577 7.57357 11.0004 7.57357C12.9149 7.57357 14.467 9.10859 14.467 11.0021ZM12.7339 11.0031C12.7339 11.9499 11.9578 12.7174 11.0005 12.7174C10.0432 12.7174 9.2672 11.9499 9.2672 11.0031C9.2672 10.0564 10.0432 9.28885 11.0005 9.28885C11.9578 9.28885 12.7339 10.0564 12.7339 11.0031Z" fill="white" fill-opacity="0.4"/>
</svg>
