<svg width="22" height="22" viewBox="0 0 22 22" fill="none" xmlns="http://www.w3.org/2000/svg">
<path d="M22 8.64303V3.14342L20.2036 4.93708C19.2006 3.41982 17.8364 2.17462 16.2332 1.313C14.6299 0.451383 12.8377 0.000248217 11.0169 0C4.93287 0 0 4.92451 0 11C0 17.0755 4.93287 22 11.0169 22C13.2095 22.0004 15.3523 21.3477 17.1712 20.1253C18.9901 18.9029 20.4024 17.1664 21.2273 15.1381C21.3215 14.9065 21.3197 14.647 21.2223 14.4167C21.125 14.1864 20.9399 14.0042 20.708 13.9101C20.5931 13.8635 20.4702 13.84 20.3462 13.8408C20.2223 13.8417 20.0997 13.8669 19.9855 13.915C19.7548 14.0123 19.5723 14.197 19.4781 14.4286C18.7943 16.1093 17.6239 17.548 16.1166 18.5609C14.6093 19.5737 12.8337 20.1146 11.0169 20.1144C5.97546 20.1144 1.88848 16.0337 1.88848 11C1.88848 5.96629 5.97546 1.88558 11.0169 1.88558C14.2738 1.88558 17.2119 3.60617 18.8368 6.30098L16.4919 8.64303H22Z" fill="#A3AEBC"/>
</svg>
