<svg width="22" height="22" viewBox="0 0 22 22" fill="none" xmlns="http://www.w3.org/2000/svg">
<path d="M3.25035 6.96678L4.47767 8.18658C4.27288 8.41105 4.09236 8.62048 3.9361 8.81487C3.55265 9.29187 3.04042 10.0202 2.39943 11C2.857 11.702 3.197 12.2031 3.4194 12.5031C4.01532 13.3071 4.58673 13.9472 5.00394 14.3799C5.38858 14.7788 5.91371 15.2669 6.45236 15.6674C6.70082 15.8522 7.08923 16.1002 7.61758 16.4116C7.89655 16.5543 8.10126 16.6532 8.23171 16.7084C8.67909 16.8977 9.06214 17.0135 9.33479 17.0843C9.5757 17.147 9.88298 17.2083 10.2472 17.2461C10.3994 17.2618 10.6504 17.2768 11.0001 17.2911C11.5311 17.2694 11.927 17.2337 12.1877 17.1842C12.5738 17.1109 12.9475 17.0059 13.2831 16.8899L14.6143 18.2098C13.4538 18.7352 12.249 19 11.0001 19C7.18671 19 3.78463 16.5317 0.801417 11.7099C0.532991 11.2767 0.532991 10.7233 0.801417 10.2901C1.58861 9.01777 2.40497 7.90928 3.25035 6.96678ZM11.0001 3C14.8135 3 18.2156 5.46827 21.1988 10.2901C21.4672 10.7233 21.4672 11.2767 21.1988 11.7099C20.041 13.5811 18.8202 15.098 17.5368 16.2536L18.9668 17.667L17.7412 18.8792L15.0065 16.1744L14.9223 16.0921L3.03336 4.333L4.25901 3.12081L5.82786 4.67023C7.45793 3.56088 9.18228 3 11.0001 3ZM10.3318 4.75248C9.92545 4.79358 9.60405 4.86157 9.47713 4.8881C9.19783 4.94647 8.41208 5.11732 7.36306 5.7386C7.28767 5.78325 7.18996 5.83966 7.07821 5.9068L16.3054 15.0379C16.3933 14.9582 16.4871 14.8715 16.5843 14.7796C16.7083 14.6623 16.9102 14.4649 17.19 14.1873C17.5776 13.7522 17.8455 13.4448 17.9937 13.2649C18.2201 12.9901 18.3957 12.7384 18.5439 12.5434C18.8376 12.1568 19.1933 11.6423 19.6112 11C19.5411 10.8931 19.4762 10.7942 19.4163 10.7035L19.119 10.2567C19.0896 10.213 19.063 10.1739 19.0393 10.1394C18.6832 9.6203 18.3808 9.21285 18.1427 8.91793C17.8986 8.61554 17.5827 8.22746 17.1433 7.76509C17.0079 7.62264 16.7753 7.39379 16.4455 7.07853C16.3289 6.97707 16.2256 6.88792 16.1358 6.8111L15.9065 6.61759C15.8749 6.5915 15.8468 6.56848 15.822 6.54855C15.5832 6.3567 15.3712 6.20882 15.226 6.10828C14.6457 5.70654 14.0924 5.43153 13.6878 5.25734C13.3904 5.12927 12.9539 4.96861 12.4606 4.86156C12.1275 4.78928 11.7639 4.74984 11.4178 4.72937C11.0262 4.70621 10.6538 4.71991 10.3318 4.75248Z" fill="white" fill-opacity="0.4"/>
</svg>
