<svg width="16" height="14" viewBox="0 0 16 14" fill="none" xmlns="http://www.w3.org/2000/svg">
<path d="M1.8308 5.6806H10.9349C11.1092 5.3385 11.3924 5.06415 11.7398 4.90079C12.0873 4.73743 12.4792 4.69436 12.8538 4.77838C13.2284 4.86239 13.5644 5.0687 13.8088 5.36479C14.0532 5.66087 14.1921 6.02988 14.2036 6.41364C14.2151 6.79739 14.0986 7.17405 13.8723 7.48424C13.6461 7.79442 13.323 8.02048 12.9541 8.12676C12.5852 8.23305 12.1914 8.21351 11.8348 8.07124C11.4782 7.92898 11.1791 7.67206 10.9847 7.34101H1.8308C1.72038 7.34321 1.61064 7.32336 1.50798 7.28263C1.40533 7.2419 1.31184 7.1811 1.23297 7.10379C1.15411 7.02648 1.09146 6.93421 1.04869 6.83239C1.00592 6.73057 0.983887 6.62124 0.983887 6.5108C0.983887 6.40037 1.00592 6.29104 1.04869 6.18922C1.09146 6.0874 1.15411 5.99513 1.23297 5.91782C1.31184 5.84051 1.40533 5.77971 1.50798 5.73898C1.61064 5.69824 1.72038 5.6784 1.8308 5.6806ZM3.14833 0.904544H6.97477C7.12823 0.630236 7.35206 0.401812 7.62319 0.242815C7.89433 0.0838179 8.20296 0 8.51727 0C8.83159 0 9.14021 0.0838179 9.41135 0.242815C9.68248 0.401812 9.90631 0.630236 10.0598 0.904544H13.8477C14.068 0.904544 14.2793 0.992064 14.4351 1.14785C14.5909 1.30364 14.6784 1.51493 14.6784 1.73525C14.6784 1.95556 14.5909 2.16686 14.4351 2.32264C14.2793 2.47843 14.068 2.56595 13.8477 2.56595H10.0505C9.89568 2.836 9.67228 3.06039 9.40291 3.21643C9.13354 3.37248 8.82775 3.45465 8.51645 3.45465C8.20514 3.45465 7.89936 3.37248 7.62999 3.21643C7.36062 3.06039 7.13721 2.836 6.98235 2.56595H3.14734C2.92702 2.56595 2.71573 2.47843 2.55995 2.32264C2.40416 2.16686 2.31664 1.95556 2.31664 1.73525C2.31664 1.51493 2.40416 1.30364 2.55995 1.14785C2.71573 0.992064 2.92702 0.904544 3.14734 0.904544H3.14833ZM4.35058 9.72245C4.67242 9.72129 4.9884 9.80853 5.26407 9.97465C5.53973 10.1408 5.76449 10.3794 5.91383 10.6645H14.1784C14.3986 10.6645 14.6098 10.752 14.7655 10.9077C14.9213 11.0634 15.0087 11.2746 15.0087 11.4949C15.0087 11.7151 14.9213 11.9263 14.7655 12.082C14.6098 12.2377 14.3986 12.3252 14.1784 12.3252H5.86409C5.70706 12.5857 5.48521 12.8009 5.22018 12.95C4.95515 13.0991 4.65599 13.177 4.35189 13.176C4.12312 13.1792 3.896 13.1369 3.68373 13.0515C3.47146 12.9661 3.27826 12.8394 3.11537 12.6788C2.95247 12.5181 2.82312 12.3267 2.73484 12.1156C2.64655 11.9045 2.60109 11.678 2.60109 11.4492C2.60109 11.2204 2.64655 10.9939 2.73484 10.7829C2.82312 10.5718 2.95247 10.3804 3.11537 10.2197C3.27826 10.059 3.47146 9.93235 3.68373 9.84698C3.896 9.76162 4.12312 9.71929 4.35189 9.72245H4.35058Z" fill="#AAB0BA"/>
</svg>
