<svg width="24" height="24" viewBox="0 0 24 24" fill="none" xmlns="http://www.w3.org/2000/svg">
<path fill-rule="evenodd" clip-rule="evenodd" d="M8.79422 1.50112C8.86511 1.48317 8.93935 1.47363 9.01582 1.47363C9.51288 1.47363 9.91582 1.87658 9.91582 2.37363C9.91582 2.41467 9.91308 2.45507 9.90776 2.49466C9.88628 2.76328 9.8754 3.04365 9.8754 3.32657C9.8754 9.29124 14.7107 14.1266 20.6754 14.1266C20.9827 14.1266 21.2869 14.1137 21.5877 14.0886L21.5894 14.0896L21.6246 14.0886C22.0834 14.0886 22.462 14.4319 22.5175 14.8757L22.5246 14.9886C22.5246 15.0989 22.5047 15.2045 22.4684 15.3022C20.9926 19.5105 16.9862 22.5266 12.2754 22.5266C6.31073 22.5266 1.4754 17.6912 1.4754 11.7266C1.4754 7.02553 4.47899 3.02602 8.67179 1.54239C8.69174 1.53345 8.71277 1.52563 8.73416 1.51859L8.79422 1.50112Z" fill="white"/>
</svg>
