<svg width="14" height="14" viewBox="0 0 14 14" fill="none" xmlns="http://www.w3.org/2000/svg">
<g clip-path="url(#clip0_1177_11826)">
<path d="M7.13916 14C7.04611 13.9999 6.95468 13.9755 6.87393 13.9293L3.92983 11.887C3.8585 11.8372 3.80004 11.7711 3.7593 11.6942C3.71856 11.6174 3.6967 11.5319 3.69553 11.4449V5.01738L0.136963 0.570275L0.251902 0.274087C0.292079 0.19124 0.354951 0.121502 0.433207 0.0729848C0.511462 0.0244676 0.601884 -0.000834678 0.693955 2.10064e-05H10.963L11.2415 0.52606L11.0602 0.786878L7.65195 5.01737V13.4651C7.65195 13.5354 7.63812 13.6049 7.61124 13.6698C7.58436 13.7347 7.54496 13.7937 7.49529 13.8433C7.44562 13.893 7.38666 13.9324 7.32176 13.9593C7.25687 13.9862 7.18731 14 7.11707 14H7.13916ZM4.55754 11.2637L6.76784 12.8197V4.70793L9.86225 0.884126H1.52061L4.55754 4.70793V11.2637Z" fill="#AAB0BA"/>
<path d="M9.88445 6.18848H13.4209C13.7156 6.18848 13.863 6.33583 13.863 6.63053C13.863 6.92524 13.7156 7.0726 13.4209 7.0726H9.88445C9.58974 7.0726 9.44238 6.92524 9.44238 6.63053C9.44238 6.33583 9.58974 6.18848 9.88445 6.18848ZM9.88445 8.6198H13.4209C13.7156 8.6198 13.863 8.76715 13.863 9.06185C13.863 9.35656 13.7156 9.50391 13.4209 9.50391H9.88445C9.58974 9.50391 9.44238 9.35656 9.44238 9.06185C9.44238 8.76715 9.58974 8.6198 9.88445 8.6198ZM9.88445 11.0511H13.4209C13.7156 11.0511 13.863 11.1985 13.863 11.4932C13.863 11.7879 13.7156 11.9352 13.4209 11.9352H9.88445C9.58974 11.9352 9.44238 11.7879 9.44238 11.4932C9.44238 11.1985 9.58974 11.0511 9.88445 11.0511Z" fill="#AAB0BA"/>
</g>
<defs>
<clipPath id="clip0_1177_11826">
<rect width="14" height="14" fill="white"/>
</clipPath>
</defs>
</svg>
