<svg width="28" height="28" viewBox="0 0 28 28" fill="none" xmlns="http://www.w3.org/2000/svg">
<path fill-rule="evenodd" clip-rule="evenodd" d="M13.931 21.0439C16.537 21.0439 18.6496 18.9313 18.6496 16.3253C18.6496 13.7193 16.537 11.6068 13.931 11.6068C11.325 11.6068 9.21247 13.7193 9.21247 16.3253C9.21247 18.9313 11.325 21.0439 13.931 21.0439ZM13.931 27.7846C20.2598 27.7846 25.3904 22.6541 25.3904 16.3253C25.3904 9.99649 20.2598 4.86597 13.931 4.86597C7.6022 4.86597 2.47168 9.99649 2.47168 16.3253C2.47168 22.6541 7.6022 27.7846 13.931 27.7846Z" fill="#41D662"/>
<path d="M2.47168 4.1929C2.47168 2.33149 3.98066 0.82251 5.84207 0.82251C7.70349 0.82251 9.21247 2.33149 9.21247 4.1929V16.3263C9.21247 18.1877 7.70349 19.6967 5.84207 19.6967C3.98066 19.6967 2.47168 18.1877 2.47168 16.3263V4.1929Z" fill="#41D662"/>
<path fill-rule="evenodd" clip-rule="evenodd" d="M10.9395 9.10409C11.0819 9.4481 10.9165 9.83951 10.5876 10.0139C9.97506 10.3386 9.39919 10.7593 8.88161 11.2769C8.36404 11.7945 7.94338 12.3703 7.61864 12.9828C7.44425 13.3117 7.05283 13.4771 6.70883 13.3348L5.79122 12.9551C5.44721 12.8128 5.28155 12.4172 5.4481 12.0843C5.8931 11.1947 6.4862 10.3613 7.22613 9.62139C7.96606 8.88146 8.79947 8.28836 9.68903 7.84336C10.022 7.67681 10.4175 7.84248 10.5599 8.18648L10.9395 9.10409ZM18.9811 11.2769C18.4636 10.7593 17.8877 10.3386 17.2752 10.0139C16.9463 9.83952 16.7809 9.4481 16.9232 9.10409L17.3029 8.18648C17.4452 7.84248 17.8408 7.67681 18.1737 7.84336C19.0633 8.28836 19.8967 8.88146 20.6366 9.62139C21.3765 10.3613 21.9696 11.1947 22.4146 12.0843C22.5812 12.4172 22.4155 12.8128 22.0715 12.9551L21.1539 13.3348C20.8099 13.4771 20.4185 13.3117 20.2441 12.9828C19.9194 12.3703 19.4987 11.7945 18.9811 11.2769ZM6.70883 19.3185C7.05283 19.1762 7.44425 19.3415 7.61864 19.6704C7.94338 20.2829 8.36404 20.8588 8.88161 21.3764C9.39919 21.894 9.97506 22.3146 10.5876 22.6394C10.9165 22.8138 11.0818 23.2052 10.9395 23.5492L10.5599 24.4668C10.4175 24.8108 10.022 24.9765 9.68903 24.8099C8.79947 24.3649 7.96606 23.7718 7.22613 23.0319C6.4862 22.2919 5.8931 21.4585 5.4481 20.569C5.28155 20.236 5.44721 19.8405 5.79122 19.6981L6.70883 19.3185ZM18.9811 21.3764C19.4987 20.8588 19.9194 20.2829 20.2441 19.6704C20.4185 19.3415 20.8099 19.1762 21.1539 19.3185L22.0715 19.6981C22.4155 19.8405 22.5812 20.236 22.4146 20.569C21.9696 21.4585 21.3765 22.2919 20.6366 23.0319C19.8967 23.7718 19.0633 24.3649 18.1737 24.8099C17.8408 24.9765 17.4452 24.8108 17.3029 24.4668L16.9232 23.5492C16.7809 23.2052 16.9463 22.8138 17.2752 22.6394C17.8877 22.3146 18.4636 21.894 18.9811 21.3764Z" fill="#17212D"/>
<path d="M16.9852 16.4202C16.9828 15.9142 16.7805 15.4296 16.4224 15.0721L14.6057 13.2285C14.4269 13.0498 14.1844 12.9495 13.9317 12.9495C13.6789 12.9495 13.4364 13.0498 13.2576 13.2285L11.4409 15.0552C11.0828 15.4127 10.8805 15.8973 10.8781 16.4034C10.8749 16.6582 10.9225 16.9111 11.0181 17.1474C11.1137 17.3836 11.2553 17.5985 11.4347 17.7795C11.6141 17.9605 11.8278 18.104 12.0632 18.2016C12.2986 18.2992 12.5511 18.349 12.8059 18.3481C12.7212 18.6389 12.5804 18.9102 12.3914 19.1469C12.3506 19.1971 12.3251 19.2579 12.318 19.3222C12.3109 19.3865 12.3224 19.4515 12.3511 19.5094C12.3799 19.5673 12.4248 19.6157 12.4803 19.6488C12.5358 19.682 12.5997 19.6984 12.6644 19.6962H15.1989C15.2627 19.6965 15.3252 19.6786 15.3793 19.6447C15.4333 19.6108 15.4766 19.5622 15.5041 19.5047C15.5316 19.4472 15.5423 19.383 15.5348 19.3197C15.5273 19.2563 15.502 19.1964 15.4618 19.1469C15.2725 18.9104 15.1316 18.639 15.0473 18.3481C15.3014 18.3508 15.5535 18.3029 15.7889 18.2073C16.0244 18.1117 16.2385 17.9703 16.4188 17.7912C16.5991 17.6122 16.7421 17.399 16.8393 17.1643C16.9365 16.9295 16.9861 16.6777 16.9852 16.4236V16.4202ZM15.9539 17.3066C15.7945 17.4636 15.5966 17.5759 15.38 17.6321C15.1635 17.6883 14.9359 17.6865 14.7203 17.6268C14.7013 17.6252 14.6821 17.6252 14.663 17.6268H14.5956C14.5704 17.6315 14.5456 17.6383 14.5215 17.647H14.4709C14.4548 17.6575 14.4401 17.67 14.4271 17.6841C14.4058 17.6969 14.3865 17.7128 14.3698 17.7313C14.3644 17.7443 14.3576 17.7568 14.3496 17.7684C14.3348 17.7935 14.3213 17.8194 14.3091 17.8459C14.3075 17.8661 14.3075 17.8864 14.3091 17.9066C14.3091 17.9268 14.3091 17.947 14.3091 17.9672C14.3356 18.3329 14.4293 18.6905 14.5855 19.0222H13.2778C13.4375 18.706 13.538 18.3633 13.5744 18.011C13.5744 17.9908 13.5744 17.9706 13.5744 17.947C13.576 17.9268 13.576 17.9065 13.5744 17.8863C13.5631 17.8577 13.5484 17.8305 13.5306 17.8055C13.5251 17.7935 13.5183 17.7822 13.5104 17.7717C13.4957 17.7526 13.4774 17.7366 13.4564 17.7246C13.4427 17.7112 13.428 17.6989 13.4126 17.6875H13.3654C13.3408 17.6761 13.3147 17.6682 13.2879 17.6639H13.2239C13.2037 17.6622 13.1834 17.6622 13.1632 17.6639C12.9414 17.7217 12.7081 17.719 12.4876 17.6562C12.2671 17.5934 12.0675 17.4727 11.9094 17.3066C11.6752 17.0709 11.5432 16.7525 11.542 16.4202C11.5415 16.2555 11.5737 16.0923 11.6368 15.9402C11.6999 15.788 11.7925 15.6499 11.9094 15.5338L13.7294 13.7071C13.7804 13.6574 13.8487 13.6297 13.9199 13.6297C13.991 13.6297 14.0593 13.6574 14.1103 13.7071L15.9539 15.5338C16.0708 15.6499 16.1634 15.788 16.2265 15.9402C16.2896 16.0923 16.3218 16.2555 16.3213 16.4202C16.319 16.7523 16.1872 17.0703 15.9539 17.3066Z" fill="#41D662"/>
<path d="M15.9539 17.3066C15.7945 17.4636 15.5966 17.5759 15.38 17.6321C15.1635 17.6883 14.9359 17.6865 14.7203 17.6268C14.7013 17.6252 14.6821 17.6252 14.663 17.6268H14.5956C14.5704 17.6315 14.5456 17.6383 14.5215 17.647H14.4709C14.4548 17.6575 14.4401 17.67 14.4271 17.6841C14.4058 17.6969 14.3865 17.7128 14.3698 17.7313C14.3644 17.7443 14.3576 17.7568 14.3496 17.7684C14.3348 17.7935 14.3213 17.8194 14.3091 17.8459C14.3075 17.8661 14.3075 17.8864 14.3091 17.9066V17.9672C14.3356 18.3329 14.4293 18.6905 14.5855 19.0222H13.2778C13.4375 18.706 13.538 18.3633 13.5744 18.011V17.947C13.576 17.9268 13.576 17.9065 13.5744 17.8863C13.5631 17.8577 13.5484 17.8305 13.5306 17.8055C13.5251 17.7935 13.5183 17.7822 13.5104 17.7717C13.4957 17.7526 13.4774 17.7366 13.4564 17.7246C13.4427 17.7112 13.428 17.6989 13.4126 17.6875H13.3654C13.3408 17.6761 13.3147 17.6682 13.2879 17.6639H13.2239C13.2037 17.6622 13.1834 17.6622 13.1632 17.6639C12.9414 17.7217 12.7081 17.719 12.4876 17.6562C12.2671 17.5934 12.0675 17.4727 11.9094 17.3066C11.6752 17.0709 11.5432 16.7525 11.542 16.4202C11.5415 16.2555 11.5737 16.0923 11.6368 15.9402C11.6999 15.788 11.7925 15.6499 11.9094 15.5338L13.7294 13.7071C13.7804 13.6574 13.8487 13.6297 13.9199 13.6297C13.991 13.6297 14.0593 13.6574 14.1103 13.7071L15.9539 15.5338C16.0708 15.6499 16.1634 15.788 16.2265 15.9402C16.2896 16.0923 16.3218 16.2555 16.3213 16.4202C16.319 16.7523 16.1872 17.0703 15.9539 17.3066Z" fill="#41D662"/>
</svg>
