<svg width="36" height="36" viewBox="0 0 36 36" fill="none" xmlns="http://www.w3.org/2000/svg">
<rect width="36" height="36" rx="8" fill="#181F2C"/>
<path fill-rule="evenodd" clip-rule="evenodd" d="M11 13.25C11 12.5596 11.5596 12 12.25 12H23.75C24.4404 12 25 12.5596 25 13.25C25 13.9404 24.4404 14.5 23.75 14.5H12.25C11.5596 14.5 11 13.9404 11 13.25ZM11 18C11 17.3096 11.5596 16.75 12.25 16.75H23.75C24.4404 16.75 25 17.3096 25 18C25 18.6904 24.4404 19.25 23.75 19.25H12.25C11.5596 19.25 11 18.6904 11 18ZM12.25 21.5C11.5596 21.5 11 22.0596 11 22.75C11 23.4404 11.5596 24 12.25 24H23.75C24.4404 24 25 23.4404 25 22.75C25 22.0596 24.4404 21.5 23.75 21.5H12.25Z" fill="white"/>
</svg>
