<svg width="44" height="42" viewBox="0 0 44 42" fill="none" xmlns="http://www.w3.org/2000/svg">
<path d="M0 10.6094C0 8.40023 1.79086 6.60938 4 6.60938H40C42.2091 6.60938 44 8.40024 44 10.6094V25.4427C44 34.2793 36.8366 41.4427 28 41.4427H4C1.79086 41.4427 0 39.6519 0 37.4427V10.6094Z" fill="url(#paint0_linear_410_2356)"/>
<path d="M7.02856 3.95075C7.37414 1.76881 9.42311 0.280152 11.6051 0.625738L39.0134 4.96679C41.1953 5.31238 42.684 7.36134 42.3384 9.54329L40.7741 19.4202C40.0829 23.7841 35.985 26.7614 31.6211 26.0702L8.16349 22.3549C5.98155 22.0093 4.49289 19.9603 4.83848 17.7784L7.02856 3.95075Z" fill="url(#paint1_linear_410_2356)"/>
<path fill-rule="evenodd" clip-rule="evenodd" d="M20.3661 10.2812H23.6265V12.6671C23.6265 12.6671 24.5384 12.8238 25.167 13.0766C25.4658 13.1967 26.3236 13.5737 26.9945 14.1299C27.7354 14.7441 28.2869 15.5521 28.4669 15.9201C28.6147 16.2222 28.8022 16.6933 28.8982 17.2363C28.9508 17.5335 28.9671 18.1878 28.9671 18.1878H25.5179C25.5179 18.1878 25.4849 17.7554 25.4183 17.5608C25.365 17.4053 25.2342 17.1036 25.008 16.8323C24.775 16.5528 24.4447 16.3045 24.2696 16.2093C24.0926 16.113 23.6265 15.9755 23.6265 15.9755V19.6853C23.6265 19.6853 24.7058 19.7718 25.4183 19.9793C25.7625 20.0795 26.6248 20.3521 27.2667 20.7393C27.9534 21.1536 28.4156 21.6885 28.6005 21.9496C28.7634 22.1797 29.0458 22.6663 29.214 23.4048C29.2919 23.7474 29.3327 24.5943 29.3327 24.5943C29.3327 24.5943 29.2544 25.4073 29.1228 25.8253C28.9911 26.2432 28.5698 27.0168 28.5698 27.0168C28.5698 27.0168 27.9498 27.7934 27.5368 28.1641C27.3147 28.3636 26.7951 28.7792 26.2063 29.1012C25.7004 29.3779 25.1211 29.5734 24.8932 29.6416C24.4003 29.789 23.5731 29.9097 23.5731 29.9097V32.2812H20.2772V29.8311C20.2772 29.8311 19.0836 29.6139 18.4222 29.2774C18.0815 29.1041 17.0928 28.5102 16.363 27.7548C15.6761 27.0439 15.2411 26.1756 15.0931 25.8253C14.7878 25.1027 14.666 23.8271 14.666 23.8271H18.1159C18.1159 23.8271 18.2835 24.5373 18.4222 24.8813C18.4821 25.0297 18.6229 25.3029 18.8116 25.5384C19.0601 25.8487 19.3735 26.1201 19.5158 26.2166C19.7661 26.3863 20.2772 26.5584 20.2772 26.5584V22.5437C20.2772 22.5437 19.2828 22.4394 18.6874 22.2555C18.3803 22.1606 17.6908 21.9327 17.0921 21.5756C16.5297 21.2402 16.0528 20.7785 15.8816 20.5793C15.7022 20.3705 15.46 19.9956 15.2918 19.6015C15.1286 19.2193 15.0372 18.8168 15.0116 18.6661C14.9881 18.5274 14.952 18.1847 14.9614 17.8149C14.9727 17.3682 15.0369 16.8814 15.0931 16.6578C15.1957 16.249 15.5127 15.6106 15.5127 15.6106C15.5127 15.6106 15.924 14.8939 16.4135 14.4463C16.663 14.2181 17.1845 13.8352 17.7151 13.5356C18.2253 13.2475 18.7447 13.0395 18.9918 12.9644C19.4958 12.8112 20.3661 12.6671 20.3661 12.6671V10.2812ZM20.3158 19.121C20.3158 19.121 19.6464 19.0346 19.3257 18.9026C19.1655 18.8367 18.945 18.6919 18.7927 18.5109C18.64 18.3294 18.5556 18.1116 18.5336 18.0384C18.512 17.9666 18.4815 17.7903 18.5029 17.5976C18.5252 17.3975 18.6007 17.1805 18.6448 17.0903C18.6864 17.0051 18.8344 16.775 19.0445 16.5963C19.2708 16.4037 19.563 16.2632 19.6932 16.2077C19.9442 16.1006 20.3158 16.0742 20.3158 16.0742V19.121ZM23.6216 26.5621V23.125C23.6216 23.125 24.1778 23.1525 24.4754 23.2428C24.6188 23.2863 24.9468 23.4172 25.2079 23.5996C25.4885 23.7957 25.6999 24.0465 25.7604 24.169C25.8771 24.4054 25.8744 24.8435 25.8744 24.8435C25.8744 24.8435 25.8401 25.26 25.6961 25.4776C25.6226 25.5885 25.3943 25.8536 25.0998 26.0437C24.8317 26.2169 24.505 26.324 24.3626 26.3708C24.3547 26.3733 24.3474 26.3757 24.3408 26.3779C24.0793 26.4643 23.6216 26.5621 23.6216 26.5621Z" fill="white"/>
<defs>
<linearGradient id="paint0_linear_410_2356" x1="22" y1="-10.8073" x2="-11.904" y2="32.0187" gradientUnits="userSpaceOnUse">
<stop stop-color="#FFAC65"/>
<stop offset="1" stop-color="#FF6300"/>
</linearGradient>
<linearGradient id="paint1_linear_410_2356" x1="27.03" y1="-8.06831" x2="2.63984" y2="20.3806" gradientUnits="userSpaceOnUse">
<stop stop-color="#FFDC6E"/>
<stop offset="1" stop-color="#FFB631"/>
</linearGradient>
</defs>
</svg>
