<svg width="50" height="50" viewBox="0 0 50 50" fill="none" xmlns="http://www.w3.org/2000/svg">
<path d="M3 21C3 11.0589 11.0589 3 21 3H43C45.2091 3 47 4.79086 47 7V29.25C47 31.4591 45.2091 33.25 43 33.25H7C4.79086 33.25 3 31.4591 3 29.25V21Z" fill="url(#paint0_linear_410_2316)"/>
<path fill-rule="evenodd" clip-rule="evenodd" d="M39.6667 23.1641C40.6792 23.1641 41.5 23.9849 41.5 24.9974V33.2461V33.2474V37.4961C41.5 39.7052 39.7091 41.4961 37.5 41.4961H33.25V44.0807C33.25 45.1853 32.3546 46.0807 31.25 46.0807H18.75C17.6454 46.0807 16.75 45.1853 16.75 44.0807V41.4961H12.5C10.2909 41.4961 8.5 39.7052 8.5 37.4961V33.2461H33.25V29.1641C33.25 25.8504 35.9363 23.1641 39.25 23.1641H39.6667Z" fill="url(#paint1_linear_410_2316)"/>
<path fill-rule="evenodd" clip-rule="evenodd" d="M31.6216 13.162C32.3376 12.446 33.4984 12.446 34.2143 13.162C34.9303 13.8779 34.9303 15.0387 34.2143 15.7547L26.4362 23.5329C26.0531 23.9159 25.5427 24.094 25.0412 24.0672C24.5743 24.0655 24.1079 23.8865 23.7516 23.5302L20.5105 20.2891L17.2693 23.5302C16.5534 24.2462 15.3926 24.2462 14.6766 23.5302C13.9607 22.8143 13.9607 21.6535 14.6766 20.9375L19.2139 16.4002C19.5719 16.0423 20.0411 15.8633 20.5103 15.8633C20.515 15.8633 20.5197 15.8633 20.5244 15.8633C20.989 15.8668 21.4526 16.0458 21.8071 16.4002L25.0952 19.6884L31.6216 13.162Z" fill="white"/>
<defs>
<linearGradient id="paint0_linear_410_2316" x1="25.5072" y1="-12.125" x2="-2.97469" y2="28.3481" gradientUnits="userSpaceOnUse">
<stop stop-color="#9455EA"/>
<stop offset="1" stop-color="#683AE2"/>
</linearGradient>
<linearGradient id="paint1_linear_410_2316" x1="27.8324" y1="12.6627" x2="-2.41165" y2="32.5097" gradientUnits="userSpaceOnUse">
<stop stop-color="#FCCB1D"/>
<stop offset="1" stop-color="#DE4F23"/>
</linearGradient>
</defs>
</svg>
