<svg width="14" height="16" viewBox="0 0 14 16" fill="none" xmlns="http://www.w3.org/2000/svg">
<path d="M9.99963 8.5C11.9326 8.5 13.4996 10.067 13.4996 12C13.4996 13.933 11.9326 15.5 9.99963 15.5C8.06664 15.5 6.49963 13.933 6.49963 12C6.49963 10.067 8.06664 8.5 9.99963 8.5ZM8.49963 0.5C9.554 0.5 10.4178 1.31588 10.4941 2.35074L10.4996 2.5C12.1565 2.5 13.4996 3.84315 13.4996 5.5L13.5004 9.17223C13.1658 8.75858 12.7594 8.40542 12.3002 8.13171L12.2996 5.5C12.2996 4.50589 11.4937 3.7 10.4996 3.7L10.4001 3.70065C10.0972 4.74032 9.13712 5.5 7.99963 5.5H5.99963C4.86215 5.5 3.90209 4.74032 3.59915 3.70065L3.49963 3.7C2.50552 3.7 1.69963 4.50589 1.69963 5.5V11.5C1.69963 12.4941 2.50552 13.3 3.49963 13.3L5.6906 13.3011C5.82043 13.7317 6.01303 14.135 6.25775 14.5005L3.49963 14.5C1.84278 14.5 0.499634 13.1569 0.499634 11.5V5.5C0.499634 3.84315 1.84278 2.5 3.49963 2.5C3.49963 1.39543 4.39506 0.5 5.49963 0.5H8.49963ZM9.99963 9.5C8.61892 9.5 7.49963 10.6193 7.49963 12C7.49963 13.3807 8.61892 14.5 9.99963 14.5C11.3803 14.5 12.4996 13.3807 12.4996 12C12.4996 10.6193 11.3803 9.5 9.99963 9.5ZM9.99964 10.3C10.1334 10.3 10.2608 10.3244 10.3807 10.3734C10.4984 10.4215 10.6025 10.4877 10.6917 10.5715C10.7816 10.6558 10.8529 10.7548 10.905 10.8672C10.9587 10.9831 10.9855 11.1079 10.9855 11.2396C10.9855 11.3687 10.9586 11.4921 10.905 11.6077C10.8877 11.6452 10.8682 11.6812 10.8461 11.716L10.8236 11.745L10.8529 11.7641L10.8447 11.7727C10.9161 11.8393 10.9779 11.9138 11.0298 11.9957L11.1013 12.1261C11.1668 12.2656 11.1996 12.4152 11.1996 12.5724C11.1996 12.7297 11.1668 12.8792 11.1013 13.0188C11.0374 13.1548 10.9506 13.274 10.8416 13.3751C10.7332 13.4755 10.6065 13.5548 10.4624 13.6125C10.3168 13.6709 10.162 13.7 9.99963 13.7C9.83716 13.7 9.68242 13.6709 9.53673 13.6125C9.39277 13.5548 9.266 13.4755 9.15761 13.3751C9.04856 13.2739 8.96174 13.1548 8.89794 13.0188C8.83245 12.8792 8.79963 12.7298 8.79963 12.5724C8.79963 12.4151 8.83246 12.2656 8.89793 12.1261C8.94046 12.0354 8.99323 11.9522 9.056 11.8769L9.14963 11.776L9.12824 11.7586L9.16663 11.735L9.14606 11.7044L9.09419 11.6077C9.04065 11.4922 9.01377 11.3687 9.01377 11.2396C9.01377 11.1078 9.04056 10.9831 9.0942 10.8672C9.14624 10.7548 9.21759 10.6559 9.30747 10.5715C9.39674 10.4877 9.50077 10.4215 9.61859 10.3733C9.69844 10.3407 9.78171 10.319 9.868 10.3081L9.99964 10.3ZM9.99964 12.1749C9.93274 12.1749 9.87167 12.1859 9.81532 12.2075C9.75834 12.2295 9.70993 12.259 9.66873 12.2964C9.62795 12.3334 9.59482 12.3775 9.57081 12.4266C9.54885 12.4713 9.53797 12.5191 9.53797 12.5724C9.53797 12.6258 9.54885 12.6736 9.57103 12.7187C9.59481 12.7674 9.62793 12.8114 9.66883 12.8485C9.70993 12.8859 9.75834 12.9154 9.81521 12.9373C9.87167 12.9589 9.93274 12.9699 9.99964 12.9699C10.0665 12.9699 10.1275 12.9589 10.1839 12.9373C10.2409 12.9154 10.2893 12.8859 10.3305 12.8484C10.3713 12.8114 10.4044 12.7674 10.4284 12.7182C10.4504 12.6735 10.4613 12.6257 10.4613 12.5724C10.4613 12.5192 10.4504 12.4714 10.4282 12.4262C10.4044 12.3775 10.3713 12.3334 10.3304 12.2963C10.2893 12.259 10.2409 12.2295 10.184 12.2076C10.1275 12.1859 10.0665 12.1749 9.99964 12.1749ZM9.99964 11.0301C9.96134 11.0301 9.92752 11.0361 9.89702 11.0479C9.86593 11.06 9.83961 11.0761 9.8165 11.0972C9.79595 11.1159 9.77963 11.1383 9.76829 11.1634C9.7574 11.1874 9.75209 11.2122 9.75209 11.2396C9.75209 11.2664 9.75716 11.2897 9.76743 11.3117C9.77893 11.3364 9.795 11.3581 9.81683 11.378C9.8396 11.3988 9.86592 11.4149 9.897 11.427C9.92752 11.4388 9.96134 11.4448 9.99964 11.4448C10.0379 11.4448 10.0717 11.4388 10.1022 11.427C10.1323 11.4153 10.157 11.3999 10.1778 11.3803C10.2001 11.3593 10.2182 11.3347 10.2317 11.3074C10.2421 11.2864 10.2472 11.2646 10.2472 11.2389C10.2473 11.2145 10.2417 11.1903 10.2307 11.1676C10.2171 11.1393 10.1996 11.1153 10.1776 11.0944C10.157 11.075 10.1323 11.0596 10.1022 11.0479C10.0717 11.0361 10.0379 11.0301 9.99964 11.0301ZM4.89947 8.5C5.23084 8.5 5.49947 8.76863 5.49947 9.1C5.49947 9.43137 5.23084 9.7 4.89947 9.7H3.09963C2.76826 9.7 2.49963 9.43137 2.49963 9.1C2.49963 8.76863 2.76826 8.5 3.09963 8.5H4.89947ZM6.90145 6.5C7.23282 6.5 7.50145 6.76863 7.50145 7.1C7.50145 7.43137 7.23282 7.7 6.90145 7.7H3.09963C2.76826 7.7 2.49963 7.43137 2.49963 7.1C2.49963 6.76863 2.76826 6.5 3.09963 6.5H6.90145ZM8.49963 1.7H5.49963C5.05781 1.7 4.69963 2.05817 4.69963 2.5V3C4.69963 3.71797 5.28166 4.3 5.99963 4.3H7.99963C8.7176 4.3 9.29963 3.71797 9.29963 3V2.5C9.29963 2.05817 8.94146 1.7 8.49963 1.7Z" fill="#979797"/>
</svg>
