<svg width="14" height="14" viewBox="0 0 14 14" fill="none" xmlns="http://www.w3.org/2000/svg">
<path d="M9.50003 0C10.278 0 10.9523 0.444248 11.283 1.09292L12.3814 1.09319C13.1677 1.12056 13.779 1.7701 13.779 2.54767L13.7789 3.57395C13.7688 4.79164 13.2618 5.95155 12.3461 6.80028L10.2337 8.62945C9.54692 9.33894 8.62875 9.82309 7.60084 9.96024L7.60003 11H9.50003C10.3285 11 11 11.6716 11 12.5C11 13.3284 10.3285 14 9.50003 14H4.50003C3.6716 14 3.00003 13.3284 3.00003 12.5C3.00003 11.6716 3.6716 11 4.50003 11H6.40003L6.40021 9.96037C5.41789 9.82953 4.53574 9.38179 3.85992 8.72332L1.62283 6.777C0.738239 5.95612 0.23121 4.7962 0.221116 3.56873L0.221008 2.55209C0.221008 1.77463 0.832388 1.12503 1.66026 1.09703L2.71503 1.09694C3.04496 0.446085 3.7204 0 4.50003 0H9.50003ZM9.50003 12.2H4.50003C4.33434 12.2 4.20003 12.3343 4.20003 12.5C4.20003 12.6657 4.33434 12.8 4.50003 12.8H9.50003C9.66571 12.8 9.80003 12.6657 9.80003 12.5C9.80003 12.3343 9.66571 12.2 9.50003 12.2ZM9.50003 1.2H4.50003C4.0582 1.2 3.70003 1.55817 3.70003 2V5.5C3.70003 7.32254 5.17749 8.8 7.00003 8.8C8.82257 8.8 10.3 7.32254 10.3 5.5V2C10.3 1.55817 9.94185 1.2 9.50003 1.2ZM7.00004 2.5C7.19671 2.5 7.38416 2.53592 7.5604 2.60792C7.73358 2.67875 7.88657 2.77596 8.01781 2.89921C8.14996 3.02328 8.25487 3.1688 8.33152 3.33417C8.41039 3.50458 8.44985 3.6881 8.44985 3.8817C8.44985 4.07159 8.41025 4.2531 8.33149 4.42314C8.30598 4.47823 8.27731 4.53112 8.24485 4.58235L8.21179 4.625L8.25482 4.65315L8.24275 4.66567C8.34773 4.76371 8.43858 4.87321 8.51499 4.99367L8.62009 5.18538C8.7164 5.39065 8.76473 5.61057 8.76473 5.84179C8.76473 6.07307 8.71642 6.29289 8.62008 6.49827C8.52621 6.69827 8.39854 6.8735 8.23819 7.02215C8.07884 7.16991 7.89241 7.28641 7.68054 7.37139C7.46642 7.45714 7.23886 7.5 7.00003 7.5C6.7611 7.5 6.53353 7.45714 6.31929 7.37133C6.10758 7.28642 5.92116 7.16992 5.76176 7.02215C5.60138 6.87344 5.47371 6.6982 5.37989 6.49825C5.28358 6.293 5.23532 6.07318 5.23532 5.84179C5.23532 5.61046 5.2836 5.39054 5.37988 5.18539C5.44242 5.05207 5.52002 4.92973 5.61233 4.81892L5.75003 4.67059L5.71856 4.64506L5.77503 4.61029L5.74477 4.56522L5.66849 4.42315C5.58976 4.25317 5.55023 4.07167 5.55023 3.8817C5.55023 3.68801 5.58962 3.50451 5.6685 3.33408C5.74504 3.16888 5.84996 3.02334 5.98214 2.89921C6.11342 2.77596 6.2664 2.67875 6.43967 2.60787C6.6158 2.53592 6.80328 2.5 7.00004 2.5ZM7.00004 5.25725C6.90166 5.25725 6.81185 5.27337 6.72898 5.30521C6.64518 5.33746 6.57399 5.38083 6.5134 5.43591C6.45344 5.49034 6.40471 5.55512 6.3694 5.62738C6.33711 5.69312 6.32111 5.76334 6.32111 5.84179C6.32111 5.92027 6.33712 5.99055 6.36973 6.05686C6.4047 6.12851 6.4534 6.19324 6.51355 6.24782C6.57399 6.30276 6.64518 6.34612 6.72881 6.37831C6.81185 6.41022 6.90166 6.42634 7.00004 6.42634C7.09833 6.42634 7.18813 6.41022 7.27099 6.37837C7.3548 6.34612 7.42598 6.30276 7.48665 6.24762C7.54658 6.19324 7.59527 6.12851 7.63062 6.05611C7.66293 5.99041 7.67897 5.92012 7.67897 5.84179C7.67897 5.76349 7.66294 5.69325 7.63029 5.62681C7.59527 5.55512 7.54654 5.49034 7.48643 5.43577C7.42598 5.38082 7.3548 5.33747 7.27112 5.30527C7.18813 5.27337 7.09833 5.25725 7.00004 5.25725ZM2.50001 2.296L1.66045 2.29703C1.52744 2.30164 1.42101 2.41407 1.42101 2.55209L1.42112 3.5686C1.42845 4.4574 1.79776 5.30224 2.43909 5.89739L2.52454 5.97258C2.50833 5.81727 2.50003 5.6596 2.50003 5.5L2.50001 2.296ZM12.3396 2.29246L11.5 2.292L11.5 5.5C11.5 5.65717 11.492 5.81246 11.4762 5.96548L11.5609 5.89283C12.2023 5.29768 12.5716 4.45283 12.5789 3.56404L12.579 2.54752C12.579 2.40952 12.4726 2.29709 12.3396 2.29246ZM7.00004 3.57364C6.94371 3.57364 6.89398 3.58255 6.84912 3.59991C6.8034 3.6176 6.7647 3.64138 6.73072 3.67239C6.70049 3.69984 6.6765 3.73277 6.65981 3.76975C6.6438 3.80504 6.636 3.84143 6.636 3.8817C6.636 3.92121 6.64344 3.95548 6.65855 3.98782C6.67546 4.02409 6.69909 4.05601 6.7312 4.0853C6.76468 4.11584 6.8034 4.13963 6.84909 4.15731C6.89398 4.17467 6.94371 4.18359 7.00004 4.18359C7.05631 4.18359 7.10596 4.17468 7.15086 4.15731C7.19519 4.14016 7.23148 4.11753 7.262 4.08866C7.29476 4.05776 7.32152 4.02162 7.34136 3.98141C7.35664 3.95062 7.36406 3.91857 7.36406 3.88075C7.36418 3.84482 7.35605 3.80924 7.33986 3.77583C7.31985 3.73429 7.29409 3.69894 7.2617 3.6683C7.23145 3.63968 7.19518 3.61706 7.15083 3.59991C7.10596 3.58254 7.05631 3.57364 7.00004 3.57364Z" fill="#979797"/>
</svg>
