<svg width="14" height="14" viewBox="0 0 14 14" fill="none" xmlns="http://www.w3.org/2000/svg">
<path fill-rule="evenodd" clip-rule="evenodd" d="M6.92126 2.73847C6.75588 2.75554 6.59508 2.82743 6.46836 2.95416L0.457951 8.96457C0.165058 9.25746 0.165058 9.73233 0.457951 10.0252C0.750844 10.3181 1.22572 10.3181 1.51861 10.0252L6.99929 4.54455L12.4799 10.0251C12.7727 10.318 13.2476 10.318 13.5405 10.0251C13.8334 9.73222 13.8334 9.25735 13.5405 8.96445L7.53011 2.95404C7.36366 2.7876 7.13845 2.71574 6.92126 2.73847ZM7.42295 6.84809C7.18864 6.61378 6.80874 6.61378 6.57442 6.84809L3.18031 10.2422C2.946 10.4765 2.946 10.8564 3.18031 11.0907C3.41463 11.325 3.79453 11.325 4.02884 11.0907L6.9981 8.12148L9.96843 11.0918C10.2027 11.3261 10.5826 11.3261 10.817 11.0918C11.0513 10.8575 11.0513 10.4776 10.817 10.2433L7.44498 6.87131C7.43789 6.86342 7.43054 6.85568 7.42295 6.84809Z" fill="#7C808C"/>
</svg>
