<svg width="26" height="26" viewBox="0 0 26 26" fill="none" xmlns="http://www.w3.org/2000/svg">
<path fill-rule="evenodd" clip-rule="evenodd" d="M17.8418 10.4298C18.1467 10.9773 18.3594 11.3756 18.4776 11.6247C18.9208 12.5529 19.1997 13.322 19.4101 13.9195C19.6192 14.5138 19.9939 15.7861 20.2858 17.0839L20.3082 17.1851C20.3118 17.202 20.3153 17.2189 20.3189 17.2356L20.3413 17.3369C20.3484 17.3706 20.3555 17.4043 20.3626 17.438C20.6439 18.7651 20.8058 20.0601 20.8554 20.527C20.9228 21.1703 20.9807 22.0697 21.0268 23.2256C20.5588 23.5834 20.1534 23.8652 19.8131 24.0709C19.5448 24.2326 18.8475 24.6432 18.0522 24.9814C17.3313 25.2885 16.5182 25.5276 16.0845 25.6293C15.6472 25.7316 14.9334 25.8842 13.9135 25.967C13.6476 25.9887 13.1985 25.9996 12.5674 26C12.9999 24.9153 13.3084 24.0954 13.4951 23.5403L13.5022 23.5192C13.5542 23.3597 13.6594 23.0232 13.8071 22.5078L13.8272 22.438C13.9986 21.8347 14.2266 21.0007 14.4973 19.933C14.7608 18.8976 15.2572 16.8523 15.9864 13.797C16.3291 12.737 16.6068 12.0128 16.8207 11.6247C16.9614 11.3692 17.1717 11.0288 17.4223 10.7646C17.5085 10.673 17.648 10.5614 17.8418 10.4298ZM15.3683 7.26168C15.8505 7.73571 16.1896 8.08765 16.387 8.31728C16.5844 8.54703 16.8349 8.88337 17.1398 9.32655C16.6352 9.75414 16.27 10.1219 16.0419 10.4298C15.8906 10.6348 15.5562 11.2068 15.2844 11.8748C14.9452 12.7114 14.6651 13.6948 14.5162 14.2518C14.3366 14.9195 14.099 15.9562 13.8024 17.3619C13.2812 19.5696 12.8699 21.1672 12.5674 22.1546C12.266 23.1421 11.811 24.3801 11.2036 25.8685C10.2321 25.7035 9.48995 25.5355 8.97941 25.3647C8.62487 25.2459 7.81887 24.9565 7.00697 24.526C6.06743 24.0283 5.11607 23.3746 4.77689 23.1025C4.35617 22.7643 3.88935 22.3054 3.37881 21.7256C3.56908 20.8157 3.74636 20.1352 3.91063 19.6841C4.02526 19.3719 4.21081 18.9594 4.46608 18.4468L4.50981 18.3604C4.61262 18.1566 4.72608 17.9378 4.85017 17.7038C5.48007 16.7076 5.9977 15.9502 6.4007 15.4315C6.80252 14.9129 7.40169 14.2337 8.19705 13.3939C8.94159 12.6001 9.60341 11.9386 10.1813 11.4095C10.7604 10.8804 11.6408 10.1327 12.8227 9.16606C13.3048 8.79698 13.7007 8.4968 14.0092 8.26552C14.3188 8.03435 14.7715 7.69966 15.3683 7.26168ZM20.8235 9.50489C21.1591 9.52108 21.3931 9.54566 21.5267 9.57864C22.0313 9.70355 22.3788 9.92455 22.6872 10.1305C22.946 10.3036 23.5334 10.7458 24.2862 11.5217C24.584 11.828 25.0792 12.3857 25.7729 13.1948C25.8037 13.2307 25.9667 13.3714 25.9916 13.6998C26.0329 14.2358 25.9147 15.1092 25.7989 15.6327C25.7044 16.0577 25.4196 17.1442 25 18.115C24.61 19.0143 24.1019 19.812 23.8466 20.1964L23.8218 20.2323C23.8147 20.2438 23.8076 20.2549 23.7993 20.2656C23.4826 20.7368 22.9791 21.344 22.289 22.0872C22.1909 20.9639 22.0975 20.0497 22.0112 19.3444L21.9994 19.2554C21.9805 19.1092 21.9628 18.9723 21.945 18.8449L21.9344 18.7721C21.9226 18.6883 21.9096 18.6089 21.8978 18.5339C21.8623 18.309 21.7997 17.9649 21.7181 17.5558L21.7028 17.4758C21.5964 16.9508 21.4605 16.3285 21.3092 15.7164L21.2856 15.6223L21.262 15.5285C21.2466 15.4661 21.2301 15.4039 21.2147 15.342C20.911 14.1776 20.5564 13.1454 20.365 12.6671C20.1038 12.0094 19.6488 11.058 19.0035 9.81287C19.4491 9.69233 19.7764 9.61433 19.9868 9.57864C20.1983 9.54294 20.4772 9.51836 20.8235 9.50489ZM12.7813 5.03844C13.0791 5.25425 13.3332 5.44936 13.5447 5.62392C13.7563 5.79859 14.0482 6.05398 14.4205 6.39009C13.0708 7.35611 12.0639 8.10999 11.3986 8.65197C10.7332 9.19384 9.75586 10.0561 8.46769 11.2387C7.32842 12.4059 6.48934 13.3076 5.9528 13.9437C5.53798 14.4353 4.82417 15.3796 4.22381 16.313C3.66008 17.1913 3.20154 18.0637 3.03963 18.424C2.81863 18.9191 2.58818 19.5869 2.34946 20.4269C1.92164 19.8037 1.61083 19.3022 1.41701 18.9223C1.26928 18.632 0.918285 17.8624 0.650014 17.0859C0.393561 16.3395 0.219835 15.5858 0.163108 15.2839C0.109927 14.9969 -0.00116325 14.0321 9.20809e-06 13.07V13.0319V12.9558L0.00120037 12.8798C0.0130185 11.9937 0.0945634 11.1347 0.141836 10.7489L0.146563 10.717C0.152472 10.6658 0.158381 10.6244 0.163108 10.5944C0.215108 10.2676 0.291926 9.95658 0.392379 9.66125C0.433743 9.56103 0.472743 9.48988 0.511742 9.44769C0.535378 9.42134 0.704377 9.28614 0.946648 9.1715C1.28701 9.01054 1.76328 8.84993 2.08591 8.73706C2.34473 8.64654 2.85882 8.47316 3.40718 8.33229C4.03117 8.17204 4.69889 8.0457 5.03689 7.98377C5.31225 7.93319 5.9457 7.80886 6.61934 7.67047L6.69733 7.65452C6.71033 7.6518 6.72333 7.64908 6.73633 7.64648L6.8297 7.6271L6.9077 7.61079C6.93488 7.60535 6.96088 7.59992 6.98688 7.59448L7.06488 7.57805C7.79524 7.42513 8.49132 7.27125 8.7525 7.19172C8.99714 7.11715 9.52304 6.942 10.0111 6.71899C10.6304 6.43571 11.2237 6.08896 11.4896 5.92564C11.8051 5.73099 12.2365 5.43518 12.7813 5.03844ZM22.6955 4.35512C23.0985 4.78246 23.4081 5.14788 23.6244 5.45125C23.7863 5.67663 24.2685 6.41739 24.6656 7.20661C25.0709 8.01107 25.3912 8.86576 25.5165 9.26805C25.6807 9.79928 25.8143 10.5098 25.9171 11.3993C24.9752 10.3414 24.1988 9.60688 23.5878 9.19584C23.1789 8.92072 22.764 8.65942 22.1696 8.44965C22.0242 8.39859 21.561 8.22392 20.9972 8.20194C20.4158 8.17948 19.7327 8.31114 19.4987 8.36373C19.1902 8.4331 18.7932 8.55861 18.3063 8.74037C18.0203 8.33217 17.7721 7.99985 17.5605 7.74327C17.3502 7.4867 17.0074 7.09942 16.5335 6.58131C17.4211 6.01215 18.0593 5.63538 18.4493 5.45125C19.6984 4.86082 20.6226 4.66156 20.9192 4.59585C21.2939 4.51301 21.886 4.43276 22.6955 4.35512ZM6.82024 1.56851C7.60969 1.9045 8.3306 2.25325 8.98177 2.61477C9.63295 2.97629 10.5359 3.5282 11.6905 4.27062C10.7758 4.87807 10.0052 5.31629 9.3765 5.58527C9.04677 5.7265 8.52087 5.95376 7.73615 6.14345C6.28016 6.49563 4.28881 6.82878 3.49581 7.02071C2.68273 7.21772 1.88619 7.44805 1.10737 7.71184C1.4501 6.98076 1.75028 6.4168 2.0091 6.02006C2.26673 5.62345 2.69691 5.06527 3.29845 4.34555C3.98508 3.6166 4.53108 3.09246 4.93644 2.77314C5.34062 2.45381 5.96934 2.05223 6.82024 1.56851ZM15.5763 0.229982C16.1152 0.348518 16.5312 0.455945 16.8266 0.552027C16.8337 0.554627 16.8432 0.557464 16.8514 0.560418L16.881 0.569991C17.1221 0.650473 17.6503 0.8372 18.1609 1.06068C18.7884 1.33522 19.4077 1.664 19.7835 1.89729C20.2551 2.18991 20.846 2.62364 21.5574 3.19859C20.7384 3.34998 20.1581 3.47254 19.8166 3.56637C19.0673 3.77248 18.4197 4.0534 18.1881 4.15764C17.5771 4.433 16.9862 4.7658 16.7096 4.92275C16.3492 5.1272 15.9533 5.37113 15.5219 5.65441C15.1875 5.35151 14.9263 5.12023 14.7372 4.96045C14.5481 4.80078 14.2456 4.55615 13.8307 4.22654C14.0021 4.06345 14.1569 3.91335 14.294 3.77626L14.3484 3.72202C14.6958 3.37445 14.9322 3.11456 15.0575 2.94214C15.4274 2.43407 15.4794 2.00685 15.5219 1.79778C15.594 1.43591 15.6117 0.913309 15.5763 0.229982ZM14.0458 0C14.0896 0.000236364 14.1226 0.00141818 14.1427 0.00354545C14.2172 0.0113455 14.2385 0.0330909 14.2491 0.0473909L14.2538 0.0527091L14.255 0.0548364C14.2645 0.0654727 14.2846 0.0986818 14.2916 0.170182C14.2976 0.221945 14.2999 0.338236 14.3011 0.518936V1.31926C14.2857 1.50351 14.2609 1.64485 14.2278 1.74318C14.1947 1.84139 14.1286 1.96714 14.0316 2.1203C13.8851 2.32239 13.7291 2.50865 13.5625 2.67871C13.3947 2.84889 13.1252 3.0966 12.7517 3.42184C11.8063 2.78212 11.0452 2.29285 10.4697 1.95402C9.89413 1.61531 9.20277 1.24918 8.3956 0.855873C8.98296 0.611827 9.53368 0.432073 10.0466 0.316373C10.394 0.238136 11.0547 0.110618 11.8288 0.0429C12.0769 0.0212727 12.4634 0.00815454 12.9893 0.00354545H13.8307C13.904 0.00141818 13.9655 0.000236364 14.0151 0H14.0458Z" fill="url(#paint0_linear_387_12486)"/>
<defs>
<linearGradient id="paint0_linear_387_12486" x1="13" y1="0" x2="13" y2="26" gradientUnits="userSpaceOnUse">
<stop stop-color="#BF7EFF"/>
<stop offset="1" stop-color="#7B2EEC"/>
</linearGradient>
</defs>
</svg>
