<svg width="20" height="20" viewBox="0 0 20 20" fill="none" xmlns="http://www.w3.org/2000/svg">
<path fill-rule="evenodd" clip-rule="evenodd" d="M10 1.71573L7.03775 4.67798L8.22599 5.81602L11.1882 2.90398C12.8243 1.26797 15.4767 1.26797 17.1128 2.90398C18.7488 4.53999 18.7488 7.19247 17.1128 8.82849L14.184 11.774L15.3722 12.9623L18.2843 10C20.5719 7.71236 20.5719 4.00337 18.2843 1.71573C15.9966 -0.57191 12.2876 -0.57191 10 1.71573ZM12.9623 5.86623L5.86623 12.9623L7.03775 14.1338L14.1338 7.03775L12.9623 5.86623ZM2.90398 17.427C4.62676 18.967 7.27175 18.8188 8.81175 17.096L11.774 14.184L12.9623 15.322L10 18.2843C7.71236 20.5719 4.00337 20.5719 1.71573 18.2843C-0.57191 15.9966 -0.57191 12.2876 1.71573 10L4.62778 7.03775L5.81602 8.22599L2.90398 11.1882C2.78758 11.2923 2.6771 11.4028 2.57305 11.5192C1.03305 13.242 1.18121 15.8869 2.90398 17.427Z" fill="#999999"/>
</svg>
