<svg width="24" height="24" viewBox="0 0 24 24" fill="none" xmlns="http://www.w3.org/2000/svg">
<path fill-rule="evenodd" clip-rule="evenodd" d="M12 24C18.6274 24 24 18.6274 24 12C24 5.37258 18.6274 0 12 0C5.37258 0 0 5.37258 0 12C0 18.6274 5.37258 24 12 24ZM6.84853 12.9134C6.3799 12.4447 6.3799 11.6849 6.84853 11.2163C7.31716 10.7477 8.07696 10.7477 8.54558 11.2163L11.0908 13.7615L16.4124 8.43993C16.8811 7.9713 17.6408 7.97129 18.1095 8.43992C18.5781 8.90855 18.5781 9.66835 18.1095 10.137L11.9644 16.2821C11.9563 16.2907 11.9481 16.2991 11.9397 16.3075C11.4711 16.7761 10.7113 16.7761 10.2426 16.3075L10.2423 16.3071L6.84853 12.9134Z" fill="#46BB57"/>
</svg>
