<svg width="24" height="24" viewBox="0 0 24 24" fill="none" xmlns="http://www.w3.org/2000/svg">
<path fill-rule="evenodd" clip-rule="evenodd" d="M12 24C18.6274 24 24 18.6274 24 12C24 5.37258 18.6274 0 12 0C5.37258 0 0 5.37258 0 12C0 18.6274 5.37258 24 12 24ZM10.9738 13.9517C11.0648 14.3442 11.4976 14.6292 12.0024 14.6292C12.5072 14.6292 12.9399 14.3442 13.0309 13.9517L13.7166 6.49949C13.7147 5.75182 12.9483 5.1461 12.0024 5.14453C11.5211 5.15391 11.0657 5.31848 10.7419 5.59999C10.4182 5.88151 10.2542 6.25547 10.2881 6.63498L10.9738 13.9517ZM11.9986 15.4319C11.3052 15.4319 10.6802 15.8495 10.4148 16.4901C10.1495 17.1307 10.2961 17.868 10.7864 18.3583C11.2767 18.8486 12.0141 18.9953 12.6546 18.7299C13.2952 18.4646 13.7129 17.8395 13.7129 17.1461C13.7408 16.6835 13.5692 16.231 13.2415 15.9033C12.9137 15.5755 12.4613 15.4039 11.9986 15.4319Z" fill="#FFB627"/>
</svg>
